<svg id="Layer_1" data-name="Layer 1" xmlns="http://www.w3.org/2000/svg" viewBox="0 0 512 512"><defs><style>.cls-1{fill:#231f20;}.cls-2{fill:#5bba47;}.cls-3{fill:#fff;}.cls-10,.cls-11,.cls-4,.cls-8,.cls-9{fill:none;}.cls-4{stroke:#231f20;stroke-width:0.4px;}.cls-10,.cls-4,.cls-8{stroke-miterlimit:10;}.cls-5{fill:#f4f0eb;}.cls-6{fill:#4c5051;}.cls-7{fill:#3d9946;}.cls-11,.cls-8,.cls-9{stroke:#4c5051;}.cls-10,.cls-8{stroke-width:0.31px;}.cls-11,.cls-9{stroke-linecap:round;stroke-linejoin:round;}.cls-9{stroke-width:0.61px;}.cls-10{stroke:#f4f0eb;}.cls-11{stroke-width:0.5px;}.cls-12{fill:#fbb97c;}.cls-13{fill:#d37528;}.cls-14{fill:#bc6428;}.cls-15{fill:#1a1a1a;}.cls-16{fill:#3e3d3d;}.cls-17{fill:#4e4e4e;}.cls-18{fill:#eaa775;}.cls-19{fill:#1a8bae;}.cls-20{fill:#603a18;}.cls-21{fill:#177b94;}.cls-22{fill:#2193c2;}.cls-23{fill:#f15b28;}.cls-24{fill:#e04e26;}</style></defs><title>moment cpturr</title><path class="cls-1" d="M302.22,248.41a66.53,66.53,0,0,1-15.73,41.24A66.83,66.83,0,0,0,180.56,210c-.2-.24-.41-.47-.63-.71a66.84,66.84,0,0,1,122.29,39.12Z"/><path class="cls-1" d="M197.09,255.88A66.63,66.63,0,0,1,178,300.77a66.81,66.81,0,0,1-.79-87.13,66.87,66.87,0,0,0,3,70.57,66.84,66.84,0,0,0,0-73.85l.35-.36A66.62,66.62,0,0,1,197.09,255.88Z"/><path class="cls-2" d="M191.31,249.13a66.56,66.56,0,0,1-11.1,35.08,66.87,66.87,0,0,1-3-70.57c.94-1.13,1.94-2.22,3-3.28A66.57,66.57,0,0,1,191.31,249.13Z"/><path class="cls-3" d="M179.93,209.29c.22.24.43.47.63.71l-.35.36c-.16-.25-.33-.5-.5-.74Z"/><path class="cls-3" d="M179.71,209.62c.17.24.34.49.5.74-1,1.06-2,2.15-3,3.28C178,212.26,178.84,210.93,179.71,209.62Z"/><path class="cls-3" d="M179.93,209.29l-.22.33c-.54-.8-1.11-1.59-1.69-2.37C178.67,207.92,179.31,208.6,179.93,209.29Z"/><path class="cls-1" d="M178,207.25A66.83,66.83,0,0,0,76.72,294,66.82,66.82,0,1,1,178,207.25Z"/><path class="cls-4" d="M178,207.25A66.83,66.83,0,0,0,76.72,294,66.82,66.82,0,1,1,178,207.25Z"/><path class="cls-4" d="M179.93,209.29a66.83,66.83,0,1,1,106.56,80.36A66.83,66.83,0,0,0,180.56,210"/><path class="cls-4" d="M177.25,213.64c.77-1.38,1.59-2.71,2.46-4-.54-.8-1.11-1.59-1.69-2.37.65.67,1.29,1.35,1.91,2,.22.24.43.47.63.71"/><path class="cls-4" d="M180.21,210.36l.35-.36A66.75,66.75,0,0,1,178,300.77a66.81,66.81,0,0,1-.79-87.13"/><path class="cls-4" d="M180.21,210.36a66.84,66.84,0,0,1,0,73.85,66.87,66.87,0,0,1-3-70.57C178.19,212.51,179.19,211.42,180.21,210.36Z"/><path class="cls-1" d="M389.46,171a66.83,66.83,0,0,1,65.17,67.42c0-.44,0-.88,0-1.31q0-.39,0-.78c0-.34,0-.68-.06-1s-.05-.6-.08-.9,0-.39-.06-.58,0-.25,0-.37-.05-.44-.09-.66l0-.28c0-.27-.09-.55-.13-.83s-.09-.52-.14-.79c0-.12,0-.24-.07-.35s-.08-.44-.13-.66a.94.94,0,0,0,0-.16c0-.22-.09-.43-.14-.63s-.12-.54-.19-.81l-.18-.68-.13-.47-.06-.22c-.07-.25-.15-.49-.22-.74a42.21,42.21,0,0,0-2-5.19c-.09-.2-.19-.39-.28-.58q-.69-1.41-1.47-2.76c-.11-.2-.23-.39-.35-.59L448,216l-.38-.58s0,0,0-.05c-.16-.25-.33-.49-.5-.73a42.48,42.48,0,0,0-2.84-3.58c-.44-.49-.88-1-1.33-1.43l-.69-.69-.55-.53-.59-.54c-.27-.26-.56-.5-.84-.75s-.62-.53-.94-.78-.76-.61-1.15-.9-.79-.59-1.19-.87a41.8,41.8,0,0,0-6.85-3.87c-.6-.27-1.21-.52-1.83-.76l-.93-.35c-.63-.23-1.26-.44-1.91-.63-.31-.1-.63-.2-1-.28-.64-.19-1.3-.35-2-.5l-.74-.16-.55-.11-.78-.15-.93-.15-1.1-.15c-.21,0-.41-.05-.63-.06a5.23,5.23,0,0,0-.57-.06,3.27,3.27,0,0,0-.44,0l-1.09-.08h0c-.44,0-.87,0-1.31-.06a41.3,41.3,0,1,0,37.18,57,25.37,25.37,0,0,0,2.33-6.14,66.83,66.83,0,1,1-64.39-77Z"/><path class="cls-2" d="M454.63,238.44c0,.2,0,.4,0,.61a.34.34,0,0,0,0-.1v-.21a15.67,15.67,0,0,0-3.89-10,25.52,25.52,0,1,0,.8,25.49,41.31,41.31,0,1,1-37.18-57c.44,0,.87,0,1.31.06h0l1.09.08a3.27,3.27,0,0,1,.44,0l.57.06c.22,0,.42,0,.63.06l1.1.15.93.15.78.15.55.11.74.16c.66.15,1.32.31,2,.5.32.08.65.18,1,.28.65.19,1.28.4,1.91.63l.93.35c.62.24,1.23.49,1.83.76a41.8,41.8,0,0,1,6.85,3.87c.4.28.8.57,1.19.87s.77.59,1.15.9l.94.78c.28.25.56.49.84.75l.59.54.55.53.69.69c.45.46.89.94,1.33,1.43a42.48,42.48,0,0,1,2.84,3.58c.17.24.34.48.5.73,0,0,0,0,0,.05l.38.58.67,1.07c.12.2.24.39.35.59q.78,1.35,1.47,2.76c.09.19.19.38.28.58a42.21,42.21,0,0,1,2,5.19c.07.25.15.49.22.74l.06.22.13.47c.07.23.12.45.18.68s.13.54.19.81.1.41.14.63a.94.94,0,0,1,0,.16c0,.22.09.44.13.66s.05.23.07.35.09.53.14.79.09.55.13.83l0,.28c0,.22.06.44.09.66s0,.24,0,.37.05.39.06.58.06.6.08.9.05.68.06,1,0,.52,0,.78C454.62,237.56,454.63,238,454.63,238.44Z"/><path class="cls-3" d="M454.62,239.08v.15a.34.34,0,0,1,0,.1,6,6,0,0,0-.7-2.83,20.88,20.88,0,0,0-.56-2.06,9.53,9.53,0,0,1,1.26,4.3V239A.57.57,0,0,1,454.62,239.08Z"/><path class="cls-3" d="M454.62,239.05v0a.57.57,0,0,0,0-.13A.34.34,0,0,1,454.62,239.05Z"/><path class="cls-3" d="M454.62,239.23c0,.08,0,.17,0,.25v-.15A.34.34,0,0,0,454.62,239.23Z"/><path class="cls-3" d="M454.61,239.33v.15c0,.11,0,.22,0,.32a6,6,0,0,1-.11.76,26,26,0,0,0-.58-4.06A6,6,0,0,1,454.61,239.33Z"/><path class="cls-3" d="M454.61,239.48c0,.38,0,.76,0,1.14s0,.47,0,.71c0-.13,0-.27,0-.4,0-.28.06-.58.07-.88,0,0,0-.05,0-.07s0-.12,0-.18S454.61,239.59,454.61,239.48Z"/><path class="cls-3" d="M454.6,237.13q0-.39,0-.78Q454.6,236.74,454.6,237.13Z"/><path class="cls-3" d="M454.6,239.8c0,.06,0,.12,0,.18s0,0,0,.07a5.1,5.1,0,0,1-.08.67.81.81,0,0,0,0-.16A6,6,0,0,0,454.6,239.8Z"/><path class="cls-3" d="M454.57,236.35c0-.34,0-.68-.06-1C454.53,235.67,454.56,236,454.57,236.35Z"/><path class="cls-3" d="M454.53,241.33c0-.24,0-.47,0-.71,0,.28,0,.56,0,.84Z"/><path class="cls-3" d="M454.58,240.05c0,.3,0,.6-.07.88a1.34,1.34,0,0,0,0-.2s0,0,0,0A5.1,5.1,0,0,0,454.58,240.05Z"/><path class="cls-3" d="M454.53,241.49c0,.42,0,.85,0,1.28a24.87,24.87,0,0,1-.68,5.29A64.67,64.67,0,0,0,454.53,241.49Z"/><path class="cls-3" d="M454.53,241.33v.16a64.67,64.67,0,0,1-.68,6.57,25.37,25.37,0,0,1-2.33,6.14A41.33,41.33,0,0,0,454.53,241.33Z"/><path class="cls-1" d="M454.51,240.93c0,.13,0,.27,0,.4a41.33,41.33,0,0,1-3,12.87,25.54,25.54,0,1,1-.8-25.49,15.77,15.77,0,1,0,3.79,12.22Z"/><path class="cls-2" d="M454.5,240.73a1.34,1.34,0,0,1,0,.2,15.78,15.78,0,1,1-3.79-12.22,25.09,25.09,0,0,1,2.62,5.71,9.75,9.75,0,1,0,1.16,6.31Z"/><path class="cls-1" d="M454.5,240.72s0,0,0,0a9.75,9.75,0,1,1-1.16-6.31s0,0,0,0a20.88,20.88,0,0,1,.56,2.06,6,6,0,1,0,.58,4.06A.81.81,0,0,1,454.5,240.72Z"/><path class="cls-3" d="M454.49,240.56a6,6,0,1,1-.58-4.06A26,26,0,0,1,454.49,240.56Z"/><path class="cls-3" d="M450.72,228.71a15.67,15.67,0,0,1,3.89,10,9.53,9.53,0,0,0-1.26-4.3s0,0,0,0A25.09,25.09,0,0,0,450.72,228.71Z"/><path class="cls-3" d="M453.56,229.12c-.06-.27-.12-.54-.19-.81C453.44,228.58,453.5,228.85,453.56,229.12Z"/><path class="cls-3" d="M453.37,228.31c-.06-.23-.11-.45-.18-.68Z"/><path class="cls-3" d="M442.91,209.64c.45.46.89.94,1.33,1.43C443.8,210.58,443.36,210.1,442.91,209.64Z"/><path class="cls-3" d="M442.22,209l-.55-.53Z"/><path class="cls-3" d="M425.44,199c-.31-.1-.64-.2-1-.28C424.81,198.77,425.13,198.87,425.44,199Z"/><path class="cls-3" d="M420.45,197.77l-.93-.15Z"/><path class="cls-3" d="M418.42,197.47c-.21,0-.41-.05-.63-.06C418,197.42,418.21,197.45,418.42,197.47Z"/><path class="cls-3" d="M417.22,197.35a3.27,3.27,0,0,0-.44,0A3.27,3.27,0,0,1,417.22,197.35Z"/><path class="cls-4" d="M453.85,248.06a66.86,66.86,0,1,1,.78-9.62"/><path class="cls-4" d="M415.65,197.23c-.44,0-.87,0-1.31-.06"/><path class="cls-4" d="M416.78,197.31l-1.09-.08"/><path class="cls-4" d="M417.79,197.41a5.23,5.23,0,0,0-.57-.06"/><path class="cls-4" d="M421.78,198l-.55-.11"/><path class="cls-4" d="M424.48,198.69c-.64-.19-1.3-.35-2-.5"/><path class="cls-4" d="M441.08,207.88c-.27-.26-.56-.5-.84-.75s-.62-.53-.94-.78-.76-.61-1.15-.9-.79-.59-1.19-.87"/><path class="cls-4" d="M447.58,215.38c-.16-.25-.33-.49-.5-.73"/><path class="cls-4" d="M448,216l-.38-.58"/><path class="cls-4" d="M449,217.67c-.11-.2-.23-.39-.35-.59"/><path class="cls-4" d="M450.77,221c-.09-.2-.19-.39-.28-.58"/><path class="cls-4" d="M453,226.94c-.07-.25-.15-.49-.22-.74"/><path class="cls-4" d="M453.19,227.63l-.13-.47"/><path class="cls-4" d="M453.7,229.75c0-.22-.09-.43-.14-.63"/><path class="cls-4" d="M453.87,230.57c0-.22-.08-.44-.13-.66"/><path class="cls-4" d="M454.21,232.54c0-.27-.09-.55-.13-.83s-.09-.52-.14-.79"/><path class="cls-4" d="M454.33,233.48c0-.22-.05-.44-.09-.66"/><path class="cls-4" d="M454.43,234.43c0-.19,0-.39-.06-.58"/><path class="cls-4" d="M454.53,241.46c0-.28,0-.56,0-.84"/><path class="cls-4" d="M454.62,239.05c0-.21,0-.41,0-.61,0-.44,0-.88,0-1.31q0-.39,0-.78c0-.34,0-.68-.06-1s-.05-.6-.08-.9,0-.38-.06-.58,0-.25,0-.37-.05-.44-.09-.66l0-.28c0-.28-.09-.55-.13-.83s-.09-.53-.14-.79,0-.24-.07-.35-.09-.44-.13-.66a.94.94,0,0,0,0-.16c0-.22-.09-.42-.14-.63s-.12-.54-.19-.81l-.18-.68-.13-.47-.06-.22c-.07-.25-.15-.49-.22-.74a42.21,42.21,0,0,0-2-5.19c-.09-.2-.19-.39-.28-.58q-.69-1.41-1.47-2.76c-.11-.2-.23-.39-.35-.59L448,216l-.38-.58s0,0,0-.05c-.16-.25-.33-.49-.5-.73a42.48,42.48,0,0,0-2.84-3.58c-.44-.49-.88-1-1.33-1.43l-.69-.69-.55-.53-.59-.54c-.28-.26-.56-.5-.84-.75l-.94-.78c-.38-.31-.76-.61-1.15-.9s-.79-.59-1.19-.87a41.8,41.8,0,0,0-6.85-3.87c-.6-.27-1.21-.52-1.83-.76l-.93-.35c-.63-.23-1.26-.44-1.91-.63-.31-.1-.63-.2-1-.28-.64-.19-1.3-.35-2-.5l-.74-.16-.55-.11-.78-.15-.93-.15-1.1-.15c-.21,0-.41-.05-.63-.06l-.57-.06a3.27,3.27,0,0,0-.44,0l-1.09-.08h0c-.44,0-.87,0-1.31-.06a41.3,41.3,0,1,0,37.18,57"/><path class="cls-4" d="M454.53,241.33c0-.24,0-.47,0-.71s0-.76,0-1.14"/><path class="cls-4" d="M454.51,240.93c0,.13,0,.27,0,.4"/><path class="cls-4" d="M451.52,254.2a25.54,25.54,0,1,1-.8-25.49"/><path class="cls-4" d="M454.53,241.46v0c0,.42,0,.85,0,1.28a24.87,24.87,0,0,1-.68,5.29,25.37,25.37,0,0,1-2.33,6.14,41.33,41.33,0,0,0,3-12.87Z"/><path class="cls-4" d="M454.62,239.08v0a.34.34,0,0,0,0-.1"/><path class="cls-4" d="M454.61,238.74a15.75,15.75,0,1,0-.1,2.19c0-.28.06-.58.07-.88"/><path class="cls-4" d="M454.5,240.72s0,0,0,0a9.75,9.75,0,1,1-1.16-6.31s0,0,0,0"/><path class="cls-4" d="M453.91,236.5a20.88,20.88,0,0,0-.56-2.06,9.53,9.53,0,0,1,1.26,4.3V239a.57.57,0,0,1,0,.13v.15c0,.08,0,.17,0,.25"/><path class="cls-4" d="M454.6,239.8c0,.06,0,.12,0,.18s0,0,0,.07a5.1,5.1,0,0,1-.08.67.81.81,0,0,0,0-.16"/><path class="cls-4" d="M454.61,239.33v.15c0,.11,0,.22,0,.32a6.47,6.47,0,1,1,0-.47Z"/><path class="cls-5" d="M159,215.8c0,.15,0,.3,0,.44a19,19,0,0,1-.27,3,18.76,18.76,0,0,1-6.64,11.5,19.34,19.34,0,0,1-2.23,1.56V210.64l-10.14-5.9Z"/><path class="cls-5" d="M159,215.8l-19.27-11.06-8.89,5.6,17.46-11a18.06,18.06,0,0,1,3.8,2.4,19,19,0,0,1,6.9,14.1Z"/><path class="cls-6" d="M149.89,232.35a19.34,19.34,0,0,0,2.23-1.56,18.76,18.76,0,0,0,6.64-11.5,19,19,0,0,0,.27-3c0-.14,0-.29,0-.44a19,19,0,0,0-6.9-14.1,18.06,18.06,0,0,0-3.8-2.4,19,19,0,0,0-2.69-1A18.63,18.63,0,0,0,130.84,200a18.19,18.19,0,0,0-2.21,1.49,18.7,18.7,0,0,0-6.89,11.79,16.7,16.7,0,0,0,0,5.87A18.73,18.73,0,0,0,128.63,231a18.45,18.45,0,0,0,2.7,1.77,18,18,0,0,0,2.41,1.09,18.77,18.77,0,0,0,6.52,1.19,18.76,18.76,0,0,0,9.63-2.67Zm-9.63-37.48a21.38,21.38,0,1,1-21.38,21.37A21.37,21.37,0,0,1,140.26,194.87Z"/><path class="cls-5" d="M149.89,221.84v10.51a18.76,18.76,0,0,1-9.63,2.67,18.77,18.77,0,0,1-6.52-1.19,18,18,0,0,1-2.41-1.09Z"/><path class="cls-6" d="M149.89,216.24v5.6l-10.14,5.9-8.89-5.6v-5.9h.47a8.93,8.93,0,1,0,17.85,0Z"/><path class="cls-6" d="M149.89,210.64v5.6h-.71a8.93,8.93,0,0,0-17.85,0h-.47v-5.9l8.89-5.6Z"/><path class="cls-5" d="M149.89,221.84l-18.56,10.9a18.45,18.45,0,0,1-2.7-1.77,18.73,18.73,0,0,1-6.89-11.79,17.76,17.76,0,0,1-.26-2.94l9.38,5.9,8.89,5.6Z"/><path class="cls-5" d="M148.32,199.3l-17.46,11V200.06l0,0a18.66,18.66,0,0,1,17.48-.73Z"/><path class="cls-5" d="M140.26,207.32a8.93,8.93,0,1,1-8.93,8.92A8.92,8.92,0,0,1,140.26,207.32Zm7.49,8.92a7.5,7.5,0,1,0-7.49,7.5A7.49,7.49,0,0,0,147.75,216.24Z"/><path class="cls-7" d="M140.26,208.75a7.5,7.5,0,1,1-7.5,7.49A7.49,7.49,0,0,1,140.26,208.75Z"/><path class="cls-5" d="M130.86,216.24v5.9l-9.38-5.9a17.73,17.73,0,0,1,.26-2.93,18.7,18.7,0,0,1,6.89-11.79,18.19,18.19,0,0,1,2.21-1.49l0,0v16.18Z"/><path class="cls-8" d="M163.32,216.24a23.07,23.07,0,1,0-23.06,23.07A23.07,23.07,0,0,0,163.32,216.24Z"/><path class="cls-9" d="M159,215.8a19,19,0,0,0-6.9-14.1,18.06,18.06,0,0,0-3.8-2.4,19,19,0,0,0-2.69-1A18.63,18.63,0,0,0,130.84,200a18.19,18.19,0,0,0-2.21,1.49,18.7,18.7,0,0,0-6.89,11.79,16.7,16.7,0,0,0,0,5.87A18.73,18.73,0,0,0,128.63,231a18.45,18.45,0,0,0,2.7,1.77,18,18,0,0,0,2.41,1.09,18.77,18.77,0,0,0,6.52,1.19,18.76,18.76,0,0,0,9.63-2.67,19.34,19.34,0,0,0,2.23-1.56,18.76,18.76,0,0,0,6.64-11.5,19,19,0,0,0,.27-3C159,216.1,159,216,159,215.8Z"/><polyline class="cls-9" points="130.86 210.34 139.75 204.74 149.89 210.65"/><line class="cls-9" x1="149.89" y1="221.84" x2="139.75" y2="227.74"/><path class="cls-10" d="M146.38,214.68a6.36,6.36,0,0,0-3.6-4.24"/><path class="cls-10" d="M134.91,219.62a6.35,6.35,0,0,0,4.41,2.88"/><polyline class="cls-11" points="130.86 222.14 130.86 216.24 130.86 210.34 130.86 200.06"/><polyline class="cls-11" points="139.75 227.74 130.86 222.14 121.48 216.24"/><line class="cls-11" x1="149.89" y1="221.84" x2="131.33" y2="232.74"/><polyline class="cls-11" points="149.89 210.65 149.89 216.24 149.89 221.84 149.89 232.35 149.89 232.36"/><polyline class="cls-11" points="139.75 204.74 159.02 215.8 159.03 215.81"/><line class="cls-11" x1="130.86" y1="210.34" x2="148.32" y2="199.3"/><path class="cls-5" d="M238,217.78a3.39,3.39,0,0,1,0,.45,19.21,19.21,0,0,1-.27,3.05,18.79,18.79,0,0,1-6.64,11.49,19,19,0,0,1-2.23,1.56v-21.7l-10.15-5.9Z"/><path class="cls-5" d="M238,217.78l-19.27-11.05-8.89,5.6,17.46-11.05a19,19,0,0,1,3.81,2.4,18.91,18.91,0,0,1,6.89,14.1Z"/><path class="cls-6" d="M228.87,234.33a19,19,0,0,0,2.23-1.56,18.79,18.79,0,0,0,6.64-11.49,19.21,19.21,0,0,0,.27-3.05,3.39,3.39,0,0,0,0-.45,18.91,18.91,0,0,0-6.89-14.1,19,19,0,0,0-3.81-2.4,18.42,18.42,0,0,0-8.06-1.82,18.75,18.75,0,0,0-6.51,1.18,19.32,19.32,0,0,0-2.91,1.37,18.08,18.08,0,0,0-2.2,1.49,18.78,18.78,0,0,0,0,29.46,19,19,0,0,0,2.7,1.77,20.15,20.15,0,0,0,2.41,1.09,18.71,18.71,0,0,0,16.15-1.49Zm-9.64-37.47a21.37,21.37,0,1,1-21.37,21.37A21.37,21.37,0,0,1,219.23,196.86Z"/><path class="cls-5" d="M228.87,223.83v10.5a18.66,18.66,0,0,1-16.15,1.49,20.15,20.15,0,0,1-2.41-1.09Z"/><path class="cls-6" d="M228.87,218.23v5.6l-10.15,5.9-8.89-5.6v-5.9h.48a8.92,8.92,0,0,0,17.84,0Z"/><path class="cls-6" d="M228.87,212.63v5.6h-.72a8.92,8.92,0,1,0-17.84,0h-.48v-5.9l8.89-5.6Z"/><path class="cls-5" d="M228.87,223.83l-18.56,10.9a19,19,0,0,1-2.7-1.77,19.06,19.06,0,0,1-7.15-14.73l9.37,5.9,8.89,5.6Z"/><path class="cls-5" d="M227.29,201.28l-17.46,11.05V202.05l0,0a19.32,19.32,0,0,1,2.91-1.37,18.75,18.75,0,0,1,6.51-1.18,18.42,18.42,0,0,1,8.06,1.82Z"/><path class="cls-5" d="M219.23,209.3a8.93,8.93,0,1,1-8.92,8.93A8.92,8.92,0,0,1,219.23,209.3Zm7.5,8.93a7.5,7.5,0,1,0-7.5,7.5A7.5,7.5,0,0,0,226.73,218.23Z"/><path class="cls-7" d="M219.23,210.73a7.5,7.5,0,1,1-7.5,7.5A7.5,7.5,0,0,1,219.23,210.73Z"/><path class="cls-5" d="M209.83,218.23v5.9l-9.37-5.9a19,19,0,0,1,7.15-14.73,18.08,18.08,0,0,1,2.2-1.49l0,0v16.18Z"/><path class="cls-8" d="M242.3,218.23a23.07,23.07,0,1,0-23.07,23.06A23.07,23.07,0,0,0,242.3,218.23Z"/><path class="cls-9" d="M238,217.78a18.91,18.91,0,0,0-6.89-14.1,19,19,0,0,0-3.81-2.4,18.42,18.42,0,0,0-8.06-1.82,18.75,18.75,0,0,0-6.51,1.18,19.32,19.32,0,0,0-2.91,1.37,18.08,18.08,0,0,0-2.2,1.49,18.78,18.78,0,0,0,0,29.46,19,19,0,0,0,2.7,1.77,20.15,20.15,0,0,0,2.41,1.09,18.71,18.71,0,0,0,16.15-1.49,19,19,0,0,0,2.23-1.56,18.79,18.79,0,0,0,6.64-11.49,19.21,19.21,0,0,0,.27-3.05A3.39,3.39,0,0,0,238,217.78Z"/><polyline class="cls-9" points="209.83 212.33 218.72 206.73 228.87 212.63"/><line class="cls-9" x1="228.87" y1="223.83" x2="218.72" y2="229.73"/><path class="cls-10" d="M225.36,216.67a6.3,6.3,0,0,0-3.61-4.24"/><path class="cls-10" d="M213.89,221.61a6.35,6.35,0,0,0,4.4,2.87"/><polyline class="cls-11" points="209.83 224.13 209.83 218.23 209.83 212.33 209.83 202.05"/><polyline class="cls-11" points="218.72 229.73 209.83 224.13 200.46 218.23"/><line class="cls-11" x1="228.87" y1="223.83" x2="210.31" y2="234.73"/><polyline class="cls-11" points="228.87 212.63 228.87 218.23 228.87 223.83 228.87 234.33 228.87 234.34"/><polyline class="cls-11" points="218.72 206.73 238 217.78 238.01 217.79"/><line class="cls-11" x1="209.83" y1="212.33" x2="227.29" y2="201.28"/><path class="cls-12" d="M361.29,160.45l-2.15,3.6-.59-.16a3.84,3.84,0,0,0-.84-.14c-.4,0-.69.78-1,1.7l-1-.41c-.53-.21-1-.38-1.38-.52l-.07,0c.34-1.78,2.07-5.92,2.4-5.94h0c.28.05,1.51.57,2.77,1.1Z"/><path class="cls-1" d="M381.12,172.71c-1,.78-3.45.34-6.43-.64-1.21,1.75-2.62,3-4.28,3.14-6,.64-19.44-5.43-19.44-5.43l0-.12a1.5,1.5,0,0,0,.07-.2c.06-.13.12-.3.19-.49.19-.46.43-1.08.68-1.72h0c.3-.74.6-1.51.83-2.09l.32.14c.05-.35.12-.72.19-1.07a4.84,4.84,0,0,1,.94.27l.07,0c.39.14.85.31,1.38.52l1,.41,1,.38a41.76,41.76,0,0,0,7.72,2.38c-3.79-1.79-6.75-3.4-6.75-3.4l.46-.76,2.15-3.6.23-.39s3.77,2.09,7.14,3.6c.06-6.28-1.12-17.23,2.55-19a6.93,6.93,0,0,1,7.33.55,4.2,4.2,0,0,0,.17.72h0c.17.56.43,1.31.7,2.16.34,1,.69,2.13,1,3.22l.38,2.23a9.79,9.79,0,0,1-1.1,4.63,3.39,3.39,0,0,0,1.18,4.28l1.4.92C382.6,167.47,382.55,171.54,381.12,172.71Z"/><path class="cls-13" d="M359.58,159.34l-.13.32a12.83,12.83,0,0,0-.64,2h0s0,.06,0,.09a7.88,7.88,0,0,0-.17.87s0,0,0,.06,0,.26,0,.39v.07a4.32,4.32,0,0,0,0,.5,2.44,2.44,0,0,0,0,.27,5.42,5.42,0,0,0,.06.58,7.53,7.53,0,0,0-.9,1.36l-1-.38-1-.41c-.53-.21-1-.38-1.38-.52l-.07,0a4.84,4.84,0,0,0-.94-.27,26.23,26.23,0,0,1,.68-2.55c.64-1.95,1.62-3.75,2.5-3.83a1.46,1.46,0,0,1,.55.08A12.2,12.2,0,0,1,359.58,159.34Z"/><path class="cls-14" d="M358.81,161.64a.29.29,0,0,0,0,.09,7.88,7.88,0,0,0-.17.87s0,0,0,.06,0,.26,0,.39v.07a4.32,4.32,0,0,0,0,.5,2.44,2.44,0,0,0,0,.27,5.42,5.42,0,0,0,.06.58,7.53,7.53,0,0,0-.9,1.36l-1-.38-1-.41a3.69,3.69,0,0,1,0-.74c.17-1.67,2-2.38,3.1-2.66Z"/><path class="cls-15" d="M357.08,157.83l-.05.09c-.07.11-.19.33-.35.64a23.83,23.83,0,0,0-2.31,5.63l-.06.33-.07,0a4.84,4.84,0,0,0-.94-.27c-.07.35-.14.72-.19,1.07l-.32-.14c-.23.58-.53,1.35-.83,2.09h0a16.26,16.26,0,0,1,.26-2.34,31,31,0,0,1,.88-3.66c.72-2.39,2.16-4.36,2.77-4.3S357.08,157.83,357.08,157.83Z"/><path class="cls-12" d="M352.79,165.15c-.23.58-.53,1.35-.83,2.09h0c-.25.64-.49,1.26-.68,1.72-.39-.14-.81-.27-1.21-.37a3.84,3.84,0,0,0-.84-.13c-.65,0-1,2.08-1.54,3.45-.25.65-.53,1.15-.88,1.2-.87.14-1.23-1.28-1.18-2.76h0a6.73,6.73,0,0,1,.12-1.11c.32-1.76,2.07-6,2.41-6h0c.28.06,1.51.57,2.76,1.1l1.26.54Z"/><path class="cls-13" d="M348,162.55c-.89.09-1.86,1.88-2.5,3.83s-1.44,5.43-.8,7,5.62,2.95,5.67,1.64-1.54-1.3-1.61-2.72a5.53,5.53,0,0,1,1.37-3.06c-.39-2.2,1-5.13,1-5.13S348.89,162.47,348,162.55Z"/><path class="cls-14" d="M346.37,174.31l-.37.18c1.69.93,4.34,1.43,4.37.48.05-1.32-1.54-1.3-1.61-2.72a5.53,5.53,0,0,1,1.37-3.06,7.37,7.37,0,0,1,.19-2.84c-1.09.28-2.93,1-3.11,2.66C347,171.4,349.08,172.93,346.37,174.31Z"/><path class="cls-15" d="M348.59,162.54s-.6-.81-1.21-.87-2,1.91-2.77,4.3-2,7.86-.24,9,5.56,1.8,5.8,1.55a2,2,0,0,0,.2-1.56c-.2-.24-3.09-.38-4.22-1.32s-.63-2.53-.27-4.75S348.59,162.54,348.59,162.54Z"/><rect class="cls-15" x="415.41" y="155.06" width="0.81" height="6.1" transform="translate(-0.19 0.5) rotate(-0.07)"/><rect class="cls-15" x="419.85" y="156.42" width="9.69" height="4.44" transform="matrix(1, 0, 0, 1, -0.19, 0.52)"/><rect class="cls-16" x="423.86" y="155.95" width="4.11" height="5.36" transform="translate(-0.19 0.52) rotate(-0.07)"/><rect class="cls-16" x="420.28" y="155.96" width="2.33" height="5.36" transform="translate(-0.19 0.52) rotate(-0.07)"/><polygon class="cls-16" points="432.14 155.95 428.78 155.95 428.79 161.31 432.15 161.31 432.14 155.95"/><rect class="cls-15" x="424.16" y="156.19" width="3.44" height="0.23" transform="matrix(1, 0, 0, 1, -0.19, 0.52)"/><rect class="cls-15" x="424.16" y="156.77" width="3.44" height="0.23" transform="translate(-0.19 0.52) rotate(-0.07)"/><rect class="cls-15" x="424.16" y="157.35" width="3.44" height="0.23" transform="translate(-0.19 0.52) rotate(-0.07)"/><rect class="cls-15" x="424.16" y="157.93" width="3.44" height="0.23" transform="translate(-0.19 0.52) rotate(-0.07)"/><rect class="cls-15" x="424.16" y="158.52" width="3.44" height="0.23" transform="translate(-0.2 0.53) rotate(-0.07)"/><rect class="cls-15" x="424.17" y="159.1" width="3.44" height="0.23" transform="translate(-0.19 0.52) rotate(-0.07)"/><rect class="cls-15" x="424.17" y="159.68" width="3.44" height="0.23" transform="translate(-0.2 0.53) rotate(-0.07)"/><rect class="cls-15" x="424.17" y="160.27" width="3.44" height="0.23" transform="matrix(1, 0, 0, 1, -0.2, 0.52)"/><rect class="cls-15" x="424.17" y="160.85" width="3.44" height="0.23" transform="translate(-0.19 0.52) rotate(-0.07)"/><rect class="cls-17" x="415.81" y="153.73" width="4.22" height="9.56" rx="0.69" transform="translate(-0.19 0.52) rotate(-0.07)"/><path class="cls-15" d="M416.51,163.3h.89v-9.56h-.89a.68.68,0,0,0-.69.68v8.19A.69.69,0,0,0,416.51,163.3Z"/><path class="cls-18" d="M427.69,160.85a.9.9,0,0,1-.08.23,1.42,1.42,0,0,1-.14.23,3.64,3.64,0,0,1-2,1.63c-.92.22-.95,0-1.36.53s-3.73,7-5.86,9.22c-1.8,1.92-3.48,3.24-4.78,3.11a4.13,4.13,0,0,1-1.48-1c-1.31-1.07-3.1-2.86-4.47-4.27l-.88-.91c.22-.13.42-.28.61-.41.17.38.35.77.55,1.12a19.65,19.65,0,0,0,2.56-2.38c.2.33.42.65.65,1a4.61,4.61,0,0,0,1.87,1.69c.35.11.93-.15,1.64-.62a44.8,44.8,0,0,0,7-6.92,12.53,12.53,0,0,1,.89-1.79,2.37,2.37,0,0,1,.2-.27c.08-.09.15-.15.2-.14a2.63,2.63,0,0,0,1,0h0l0,0a1,1,0,0,0,.5-.34l0-.06.12-.17a3.69,3.69,0,0,1,.27-.35,2.25,2.25,0,0,1,.21-.24,3.17,3.17,0,0,1,.39-.34h0a2.92,2.92,0,0,1,.37-.24,1.2,1.2,0,0,1,.91-.09l.21.09a1.56,1.56,0,0,1,.34.23,1.21,1.21,0,0,1,.29.35.75.75,0,0,1,.1.17A1.39,1.39,0,0,1,427.69,160.85Z"/><path class="cls-19" d="M405.26,161.72l-.19-.27.14-.09a.51.51,0,0,1,0,.13Z"/><path class="cls-19" d="M407.78,170.38l-.28.2a3.54,3.54,0,0,1-2.36.85c-.08,0-.28-.23-.58-.59a12.18,12.18,0,0,0,1.24-.64c.28-.17.56-.35.82-.53s.42-.28.61-.41C407.4,169.64,407.58,170,407.78,170.38Z"/><path class="cls-12" d="M415.08,152.52c-.18,1.44-.91,2.06-.87,2.69a4.07,4.07,0,0,0,.47,1.23c.2.43.36.82.26,1a.79.79,0,0,1-.6.28,9.28,9.28,0,0,0-1.07.1c-.07.13.14.61-.08.82s-1.07-.17-1.11.12.67.33.42.84-1,.13-1.24.73a6,6,0,0,1-.33.87,1.06,1.06,0,0,1-.26.33l-.09.06-.1.06-.13.05a1.5,1.5,0,0,1-.33.06c-.93.07-1.84-1.68-2.86-1.45a1.66,1.66,0,0,0-.41.14,8.06,8.06,0,0,0-.9.48,10.23,10.23,0,0,0-1-.85h0a9.25,9.25,0,0,0-1.16-2.29,3.27,3.27,0,0,0-.84-.86,1.41,1.41,0,0,0,.58-.86,0,0,0,0,0,0,0,4.14,4.14,0,0,0,0-.83c0-.11,0-.22,0-.33h0c0-.5,0-1.09,0-1.7v0a7.31,7.31,0,0,1,.64-3.24c1.08-2.1,6.5-5,10-.2h0l0,0,.07.1a3.06,3.06,0,0,1,.31.45,1.4,1.4,0,0,1,.1.16l.13.25,0,.08a.79.79,0,0,1,0,.09c0,.09.08.2.12.3a1.21,1.21,0,0,1,.05.18A2.72,2.72,0,0,1,415.08,152.52Z"/><path class="cls-18" d="M408.33,155.41c-.51,1.34-1.39,4.39,1.34,5.36.47.17.89.32,1.26.47a1.06,1.06,0,0,1-.26.33l-.09.06-.1.06-.13.05a1.5,1.5,0,0,1-.33.06c-.93.07-1.84-1.68-2.86-1.45a1.66,1.66,0,0,0-.41.14,8.06,8.06,0,0,0-.9.48,10.23,10.23,0,0,0-1-.85h0a9.25,9.25,0,0,0-1.16-2.29,3.27,3.27,0,0,0-.84-.86,1.41,1.41,0,0,0,.58-.86,0,0,0,0,0,0,0,4.14,4.14,0,0,0,0-.83c0-.11,0-.22,0-.33h0c0-.5,0-1.09,0-1.7v0a7.31,7.31,0,0,1,.64-3.24c1.08-2.1,6.5-5,10-.2h0l0,0,.07.1a3.06,3.06,0,0,1,.31.45,1.4,1.4,0,0,1,.1.16l.13.25,0,.08a.79.79,0,0,1,0,.09c0,.09.08.2.12.3a1.21,1.21,0,0,1,.05.18,5.11,5.11,0,0,1-2.69,1A4.71,4.71,0,0,0,408.33,155.41Z"/><path class="cls-15" d="M413.94,154.33a.5.5,0,0,0-1-.08.5.5,0,0,0,.46.54A.51.51,0,0,0,413.94,154.33Z"/><path class="cls-15" d="M414.07,152.9c.21-.31-.43-.64-1-.52a1.28,1.28,0,0,0-.89,1c0,.17.2-.17.68-.48A1.47,1.47,0,0,1,414.07,152.9Z"/><path class="cls-20" d="M402.12,156.31a4.74,4.74,0,0,0,1.95-.35c1.26-.36,1.81-.46,1.76-1s-1.22-1.63-.24-2.83,1.76-.35,2.06.24-.09,1.15.18,1.53,1.16-.42,1.45-1,.38.18,1.5-.24a2,2,0,0,0,1.17-1.69,3.3,3.3,0,0,0,3.64-.72c1.61-1.65,1.44-2.54,1.08-2.36s-1.18.67-1.15.31.37-1.5-.14-1.24-1.1.73-1.23.57.2-1.27-.24-1.25-.4.63-2,.6-3.25-1-4.48-1.07a3.85,3.85,0,0,0-2.42,1.31,1.85,1.85,0,0,0-1.59.28,6,6,0,0,0-1.24,4.24c.17,1.55.85,3.34.4,4S401.88,156.24,402.12,156.31Z"/><path class="cls-21" d="M380.37,151.31c-.27-1.09-.62-2.22-1-3.22-.27-.85-.53-1.6-.7-2.16.47,0,.75.07.75.07l.33,1.95Z"/><path class="cls-21" d="M382.23,163.37l-1.4-.92a3.39,3.39,0,0,1-1.18-4.28,9.79,9.79,0,0,0,1.1-4.63s0,.08,0,.2a0,0,0,0,1,0,0A90.92,90.92,0,0,1,382.23,163.37Z"/><path class="cls-22" d="M353.3,164.22c-.07.35-.14.72-.19,1.07l-.32-.14c.18-.45.32-.79.37-.9S353.22,164.21,353.3,164.22Z"/><path class="cls-22" d="M380.79,153.74a0,0,0,0,1,0,0,9.91,9.91,0,0,1-.32,2.48c-.26.92-.61,2.37-1.08,4.08a3.42,3.42,0,0,1,.26-2.15,9.79,9.79,0,0,0,1.1-4.63l-.38-2.23c-.27-1.09-.62-2.22-1-3.22-.27-.85-.53-1.6-.7-2.16h0a4.2,4.2,0,0,1-.17-.72,6,6,0,0,1,.92.79s.25.75.54,1.89a25.21,25.21,0,0,1,.77,4.68,2.17,2.17,0,0,1,0,.26C380.8,153.13,380.8,153.44,380.79,153.74Z"/><path class="cls-19" d="M380.79,153.74a0,0,0,0,1,0,0,9.91,9.91,0,0,1-.32,2.48c-.26.92-.61,2.37-1.08,4.08a3.42,3.42,0,0,1,.26-2.15,9.79,9.79,0,0,0,1.1-4.63l-.38-2.23c-.27-1.09-.62-2.22-1-3.22l.38-.14.21-.06a25.21,25.21,0,0,1,.77,4.68,2.17,2.17,0,0,1,0,.26C380.8,153.13,380.8,153.44,380.79,153.74Z"/><path class="cls-23" d="M402.15,157.36a6.32,6.32,0,0,0-.67.25s.23.54.54,1.19a2.18,2.18,0,0,0-.51,0h0a1.12,1.12,0,0,0-.27,0h-.08l-.21,0a3.3,3.3,0,0,0-.58.2,3.48,3.48,0,0,0-2.09,2.93,3.67,3.67,0,0,0,.33,1.94l1,2.16.79,1.62a13.45,13.45,0,0,1-2.27.37h0a23.37,23.37,0,0,1-6.89-.51,31.31,31.31,0,0,1-9-4.2l-1.4-.92a3.39,3.39,0,0,1-1.18-4.28,9.79,9.79,0,0,0,1.1-4.63,13.35,13.35,0,0,0-.38-2.23c-.27-1.09-.62-2.22-1-3.22-.27-.85-.53-1.6-.7-2.16h0a4.2,4.2,0,0,1-.17-.72c0-.22,0-.34.09-.33a1.81,1.81,0,0,1,.39.16l.11,0,.42.22.25.14c.51.28,1.17.66,1.92,1.1l.52.31.5.3.78.48c.17.09.33.2.5.3l.56.35h0c1.8,1.11,3.75,2.36,5.5,3.53,1,.69,2,1.36,2.83,2a13.91,13.91,0,0,0,8,2.56,3.08,3.08,0,0,1,.8.1l.13,0h.05a3.43,3.43,0,0,1,.48.19,2.88,2.88,0,0,1,.5.3A3,3,0,0,1,402.15,157.36Z"/><path class="cls-23" d="M405.26,161.72l-.19-.27.14-.09a.51.51,0,0,1,0,.13Z"/><path class="cls-24" d="M400.39,167.71a13.45,13.45,0,0,1-2.27.37h0a23.37,23.37,0,0,1-6.89-.51,31.31,31.31,0,0,1-9-4.2l-1.4-.92a3.39,3.39,0,0,1-1.18-4.28,9.79,9.79,0,0,0,1.1-4.63,13.35,13.35,0,0,0-.38-2.23c-.27-1.09-.62-2.22-1-3.22-.27-.85-.53-1.6-.7-2.16h0a4.2,4.2,0,0,1-.17-.72c0-.22,0-.34.09-.33a1.81,1.81,0,0,1,.39.16l.11,0,.42.22.25.14c.51.28,1.17.66,1.92,1.1l.52.31.5.3.78.48c.17.09.33.2.5.3l.56.35c-.05.36-.09.79-.14,1.28,0,.16,0,.32,0,.49a.61.61,0,0,0,0,.14c-.19,2.18-.27,5.06.27,6.69a7.29,7.29,0,0,0,3.36,3.38,16.33,16.33,0,0,0,2.84,1.3,13.29,13.29,0,0,0,4.56.83,14.29,14.29,0,0,0,2.84-.4,3.67,3.67,0,0,0,.33,1.94l1,2.16Z"/><path class="cls-24" d="M405.26,161.72l-.19-.27.14-.09a.51.51,0,0,1,0,.13Z"/><path class="cls-12" d="M420.61,162.22a1.36,1.36,0,0,1-.57.42,15.36,15.36,0,0,1-2.14.66,3.18,3.18,0,0,0-1,.35c-.46.37-.88,1.73-1.52,3.83-.16.53-.46,1.47-.88,2.55a20.54,20.54,0,0,1-2.53,4.82c-1.05,1.36-2.27,2.2-3.6,1.69-2.41-.91-4.16-3.64-5-5.31a.45.45,0,0,0,.16,0,6,6,0,0,0,1.06-.36,12.18,12.18,0,0,0,1.24-.64c.28-.17.56-.35.82-.53s.42-.28.61-.41c.17.38.35.77.55,1.12.4.73.84,1.31,1.23,1.27s1.21-1.22,2-2.69a56.68,56.68,0,0,0,2.51-5.59,22.7,22.7,0,0,0,.67-3.15,9.68,9.68,0,0,0,.17-2.46,1.17,1.17,0,0,1,.06-.45,6.88,6.88,0,0,0,.28-.87c.24-.83.59-1.93.92-1.94a.52.52,0,0,1,.21,0,1.17,1.17,0,0,1,.53,1.57c0,.09-.09.15-.13.23v0c-.32.71-.43,1.59-.07,1.69h.08a5.48,5.48,0,0,0,1.17-.16c.75-.15,1.57-.36,1.82-.38a1.11,1.11,0,0,1,.64.13.85.85,0,0,1,.19.19l0,.06c.1.16,0,.3,0,.46a2,2,0,0,0-.19.39v0h0a.24.24,0,0,0,0,.19v0a.33.33,0,0,0,.19.13.72.72,0,0,1,.25.19.56.56,0,0,1,0,.08.65.65,0,0,1,0,.59h0a4.89,4.89,0,0,0-.25.51v0a.36.36,0,0,1,0,.09.53.53,0,0,0,0,.25.3.3,0,0,0,0,.08v0a1.37,1.37,0,0,0,.25.3l.06.06C420.59,161.57,420.84,161.83,420.61,162.22Z"/><path class="cls-15" d="M400.49,167.94a10.93,10.93,0,0,1-2.37.14h0a10.2,10.2,0,0,1-6.92-3.11,14.68,14.68,0,0,1-3.17-4.71,14.85,14.85,0,0,1-1-3.93,10.08,10.08,0,0,1-.09-1.69l2,1.14s0,.42.17,1.07a13.92,13.92,0,0,0,1.82,4.71,8.39,8.39,0,0,0,3.92,3.39,11.49,11.49,0,0,0,4.82,1.14l.79,1.62C400.42,167.79,400.46,167.86,400.49,167.94Z"/><path class="cls-15" d="M405.26,161.72l-.19-.27.14-.09a.51.51,0,0,1,0,.13Z"/><path class="cls-15" d="M406.84,162c-.33-.37-.67-.72-1-1a10.23,10.23,0,0,0-1-.85h0a9.25,9.25,0,0,0-1.16-2.29,3.27,3.27,0,0,0-.84-.86,3,3,0,0,1-.75.39q-.22-.24-.48-.48h0a2.39,2.39,0,0,1,.19-.4,2.77,2.77,0,0,1,.22-.34,0,0,0,0,0,0,0,2.51,2.51,0,0,1,.52-.56,1.2,1.2,0,0,1,.79-.29h.12a2,2,0,0,1,.86.6,10.83,10.83,0,0,1,2.36,4.62,6.43,6.43,0,0,1,.09.72A5.34,5.34,0,0,1,406.84,162Z"/><path class="cls-1" d="M406.84,162c-.33-.37-.67-.72-1-1a10.23,10.23,0,0,0-1-.85h0a9.25,9.25,0,0,0-1.16-2.29,3.27,3.27,0,0,0-.84-.86,3,3,0,0,1-.75.39,6.32,6.32,0,0,0-.67.25s.23.54.54,1.19a2.18,2.18,0,0,0-.51,0h0a1.12,1.12,0,0,0-.27,0h-.08l-.21,0a3.3,3.3,0,0,0-.58.2,3.48,3.48,0,0,0-2.09,2.93,3.67,3.67,0,0,0,.33,1.94l1,2.16.79,1.62c0,.08.07.15.1.23a18,18,0,0,0,1.79,3.25,1,1,0,0,0,.25.06,1.86,1.86,0,0,0,.53,0l.21,0h.07a.45.45,0,0,0,.16,0,6,6,0,0,0,1.06-.36,12.18,12.18,0,0,0,1.24-.64c.28-.17.56-.35.82-.53s.42-.28.61-.41c.17.38.35.77.55,1.12a19.65,19.65,0,0,0,2.56-2.38c.38-.42.62-.71.62-.71A60.7,60.7,0,0,0,406.84,162Zm-1.77-.56.14-.09a.51.51,0,0,1,0,.13l0,.23Z"/><path class="cls-15" d="M394.25,155.78a16.08,16.08,0,0,0,7.42,1.1,4.11,4.11,0,0,0,.19-4.08c-.34-1-1.41-.48-3.59-1.66s-3.4-4.62-5.51-6.52-5.77-4.47-8.21-3.71-3.4,5.77-2.49,7.27S390.48,154.21,394.25,155.78Z"/><polygon class="cls-16" points="390.52 153.38 384.15 149.38 386.72 156.26 389.75 157.04 390.52 153.38"/><path class="cls-16" d="M403.54,153.94c-.25-2.83.09-3.1-2.44-4.3s-3.94-1.81-4.49-3.26-2.52-2-2.76-.44,1.17,4.56,3.71,5.6,4,.79,4.25,1.83a12.23,12.23,0,0,1-.14,3.51S403.8,156.77,403.54,153.94Z"/><path class="cls-16" d="M390.52,151.82c1.1-.12,2.1-3.75,1.63-5.2s-5.06-3.87-6.65-2.79c0,0-1.75,2.63-.86,4.59S389.42,151.94,390.52,151.82Z"/><path class="cls-1" d="M96.11,338.49c-.37.17-.72.31-1,.43s-.62.21-.89.29a6.8,6.8,0,0,1-.77.17,4.2,4.2,0,0,1-.69.06,1.8,1.8,0,0,1-.79-.17,1.37,1.37,0,0,1-.56-.56,3,3,0,0,1-.34-1,9.78,9.78,0,0,1-.11-1.57v-1.83c0-.43,0-.89,0-1.37s0-1,0-1.47,0-1,0-1.45,0-.91,0-1.31,0-.75,0-1c0-.61,0-1.23.09-1.85s.08-1.21.13-1.8l-.06,0c-.09.24-.2.51-.32.81s-.29.67-.49,1.1q-.69,1.53-1.41,3.18c-.49,1.1-1,2.21-1.47,3.36L86,335.89c-.5,1.17-1,2.34-1.49,3.51h-.39c-.11-.36-.25-.78-.4-1.27s-.34-1-.53-1.58l-.6-1.8c-.21-.63-.43-1.27-.65-1.91s-.45-1.29-.67-1.94-.44-1.26-.65-1.85l-.59-1.68L79.55,326c-.16-.48-.31-.9-.43-1.27s-.24-.7-.33-1l-.05,0v.47c0,.16,0,.33,0,.5V326c0,.84,0,1.69,0,2.56s-.06,1.74-.1,2.58-.1,1.67-.16,2.46-.11,1.52-.18,2.19-.1,1-.14,1.41-.1.71-.15,1a3.23,3.23,0,0,1-.2.62.91.91,0,0,1-.3.34,1,1,0,0,1-.44.15,5.28,5.28,0,0,1-.61,0h-.66l-.11-.08a13.9,13.9,0,0,0,.66-1.71c.19-.63.36-1.3.5-2s.27-1.43.38-2.19.19-1.51.26-2.27.13-1.49.18-2.23.07-1.43.1-2.09,0-1.26,0-1.82,0-1.05,0-1.47a4,4,0,0,0-.05-.66.93.93,0,0,0-.2-.41.69.69,0,0,0-.38-.22,2.65,2.65,0,0,0-.62-.06,4.62,4.62,0,0,0-.6,0c-.23,0-.48.05-.75.1l-.09-.7c1-.22,1.76-.39,2.38-.49a9.12,9.12,0,0,1,1.49-.17,1.77,1.77,0,0,1,.49.06.86.86,0,0,1,.36.17,1.24,1.24,0,0,1,.27.32,3.08,3.08,0,0,1,.23.51c.28.78.58,1.61.89,2.49l1,2.69,1,2.76c.33.92.64,1.81.94,2.68.12.34.22.65.32.93l.27.79.23.69c.07.21.14.43.2.65h.06c.08-.23.17-.45.26-.67s.18-.45.28-.68l.33-.76c.12-.26.25-.57.4-.91L87.57,330l1.23-2.79c.41-.94.84-1.91,1.27-2.88l1.31-2.94a.83.83,0,0,1,.19-.26.92.92,0,0,1,.27-.16,1.11,1.11,0,0,1,.3-.08l.3,0a2.34,2.34,0,0,1,.5.06,3.27,3.27,0,0,1,.53.17q-.12,1.31-.21,2.49c-.06.79-.12,1.56-.16,2.31s-.08,1.49-.11,2.21,0,1.47-.07,2.22,0,1.5,0,2.27,0,1.59,0,2.43a14.06,14.06,0,0,0,.07,1.43,3.17,3.17,0,0,0,.25,1,1.24,1.24,0,0,0,.48.55,1.44,1.44,0,0,0,.75.17h.32l.32,0a3.11,3.11,0,0,0,.37-.08l.46-.14Z"/><path class="cls-1" d="M109.5,334.53a7.56,7.56,0,0,1,.17-1.62,7.92,7.92,0,0,1,.49-1.59,7,7,0,0,1,.8-1.45,6.19,6.19,0,0,1,1.1-1.18,4.93,4.93,0,0,1,1.39-.8,4.58,4.58,0,0,1,1.67-.29,3.7,3.7,0,0,1,1.79.42,4.08,4.08,0,0,1,1.31,1.13,5.19,5.19,0,0,1,.81,1.59,6.34,6.34,0,0,1,.27,1.83,8.58,8.58,0,0,1-.66,3.22,7.83,7.83,0,0,1-.81,1.44,6.24,6.24,0,0,1-1.1,1.19,5.16,5.16,0,0,1-1.39.79,4.59,4.59,0,0,1-1.67.3,3.7,3.7,0,0,1-1.79-.43,4,4,0,0,1-1.31-1.13,5,5,0,0,1-.8-1.59A6.34,6.34,0,0,1,109.5,334.53Zm1.89-.75a8.11,8.11,0,0,0,.08,1.09,6.19,6.19,0,0,0,.26,1.07,6,6,0,0,0,.43,1,3.4,3.4,0,0,0,.61.78,2.58,2.58,0,0,0,.79.52,2.37,2.37,0,0,0,1,.19,2,2,0,0,0,1-.25,2.5,2.5,0,0,0,.76-.66,3.86,3.86,0,0,0,.52-.94,6.88,6.88,0,0,0,.34-1.09,11.32,11.32,0,0,0,.18-1.12c0-.37.05-.71.05-1a8.14,8.14,0,0,0-.08-1.1,6.08,6.08,0,0,0-.26-1.06,6,6,0,0,0-.43-1,3.57,3.57,0,0,0-.61-.77,2.78,2.78,0,0,0-.79-.52,2.37,2.37,0,0,0-1-.19,2,2,0,0,0-1,.25,2.61,2.61,0,0,0-.76.65,3.72,3.72,0,0,0-.52.94,7,7,0,0,0-.34,1.1,8.55,8.55,0,0,0-.18,1.11C111.41,333.14,111.39,333.47,111.39,333.78Z"/><path class="cls-1" d="M133,328.57l1.08-.36,1-.28c.28-.08.54-.14.76-.18a2.48,2.48,0,0,1,.52-.07.91.91,0,0,1,.72.28,1.34,1.34,0,0,1,.26.93c0,.11,0,.33,0,.68s-.06.78-.1,1.3-.08,1.12-.14,1.79-.13,1.38-.2,2.13h.05a22.34,22.34,0,0,1,1.18-3.37,10.85,10.85,0,0,1,1.27-2.2,4.44,4.44,0,0,1,1.3-1.2,2.68,2.68,0,0,1,1.28-.36,1.54,1.54,0,0,1,.92.27,2,2,0,0,1,.62.7,3.67,3.67,0,0,1,.35,1,6,6,0,0,1,.11,1.12c0,.34,0,.69,0,1.06s-.05.74-.08,1.1-.07.7-.1,1-.07.6-.09.85h.05a21.53,21.53,0,0,1,1.18-3.41,10.78,10.78,0,0,1,1.28-2.22,4.35,4.35,0,0,1,1.31-1.2,2.64,2.64,0,0,1,1.27-.36,1.9,1.9,0,0,1,.77.16,1.68,1.68,0,0,1,.66.54,2.75,2.75,0,0,1,.46.94,4.76,4.76,0,0,1,.18,1.4c0,.15,0,.36,0,.62s0,.57-.07.89-.06.68-.09,1-.07.73-.09,1.08,0,.69-.07,1,0,.6,0,.83a6.77,6.77,0,0,0,.06,1,2.13,2.13,0,0,0,.16.62.62.62,0,0,0,.32.3,1.14,1.14,0,0,0,.48.09,3.3,3.3,0,0,0,.86-.12,4.78,4.78,0,0,0,.89-.32l.15.41a4.49,4.49,0,0,1-.72.47c-.29.16-.59.3-.91.44a7.5,7.5,0,0,1-.95.31,3.13,3.13,0,0,1-.84.13.94.94,0,0,1-.67-.23,1.31,1.31,0,0,1-.37-.63,3.9,3.9,0,0,1-.16-.92c0-.35,0-.73,0-1.14s0-1,.05-1.54.08-1.05.12-1.54.08-.92.11-1.31.06-.69.06-.89a2.29,2.29,0,0,0-.31-1.3,1,1,0,0,0-.83-.43,1.35,1.35,0,0,0-.85.39,4.64,4.64,0,0,0-.91,1.05,10.6,10.6,0,0,0-.88,1.59,16.33,16.33,0,0,0-.76,2,21.37,21.37,0,0,0-.58,2.23,18.72,18.72,0,0,0-.3,2.34l-1.65.21h-.13c.06-1.11.11-2.09.16-2.94s.1-1.61.14-2.24.07-1.18.09-1.62,0-.81,0-1.1a2.43,2.43,0,0,0-.31-1.34.9.9,0,0,0-.78-.45,1.42,1.42,0,0,0-.88.37,5,5,0,0,0-.91,1,11.89,11.89,0,0,0-.87,1.57,16.65,16.65,0,0,0-.75,2,20,20,0,0,0-.56,2.22,18.33,18.33,0,0,0-.3,2.33l-1.65.21h-.13c0-.5.08-1,.12-1.64s.07-1.19.1-1.8.06-1.21.09-1.81,0-1.16.06-1.68,0-1,0-1.39,0-.74,0-1a2.19,2.19,0,0,0-.05-.55.88.88,0,0,0-.14-.35.58.58,0,0,0-.25-.19,1,1,0,0,0-.36,0,3.09,3.09,0,0,0-.68.08q-.39.07-.9.21Z"/><path class="cls-1" d="M175.06,336.63l.12.07a.67.67,0,0,1,.14.09.57.57,0,0,1,.11.11.21.21,0,0,1,0,.12.14.14,0,0,1,0,.06,6.69,6.69,0,0,1-1,1.07,5.76,5.76,0,0,1-1.06.76,4.86,4.86,0,0,1-1.12.45,4.37,4.37,0,0,1-1.12.15,3.9,3.9,0,0,1-1.74-.39,4.14,4.14,0,0,1-1.36-1.06,4.88,4.88,0,0,1-.89-1.58,5.85,5.85,0,0,1-.32-1.94,7.49,7.49,0,0,1,.19-1.69,8.09,8.09,0,0,1,.53-1.62,7.57,7.57,0,0,1,.86-1.42,6,6,0,0,1,1.15-1.15,5.24,5.24,0,0,1,1.42-.76,4.7,4.7,0,0,1,1.66-.28,3.68,3.68,0,0,1,1.11.16,3.09,3.09,0,0,1,.93.45,2.34,2.34,0,0,1,.64.73,2.13,2.13,0,0,1,.23,1,2.07,2.07,0,0,1-.52,1.41,4.26,4.26,0,0,1-1.45,1,10.38,10.38,0,0,1-2.18.68,23.29,23.29,0,0,1-2.71.38v.14a6,6,0,0,0,.26,1.85,4.65,4.65,0,0,0,.7,1.43,3.33,3.33,0,0,0,1.06.93,2.75,2.75,0,0,0,1.32.33,3.36,3.36,0,0,0,1.46-.35A5.26,5.26,0,0,0,175.06,336.63Zm-1.49-6.35a1.91,1.91,0,0,0-.12-.68,1.55,1.55,0,0,0-.34-.55,1.5,1.5,0,0,0-.52-.37,1.54,1.54,0,0,0-.65-.13,2.34,2.34,0,0,0-.93.18,2.49,2.49,0,0,0-.75.49,3.56,3.56,0,0,0-.59.73,6.52,6.52,0,0,0-.43.88,7.61,7.61,0,0,0-.29,1,8.29,8.29,0,0,0-.15,1,15.23,15.23,0,0,0,2-.28,6.27,6.27,0,0,0,1.5-.5,2.63,2.63,0,0,0,.94-.72A1.55,1.55,0,0,0,173.57,330.28Z"/><path class="cls-1" d="M191.47,330a2.79,2.79,0,0,0-.05-.55.76.76,0,0,0-.15-.35.53.53,0,0,0-.25-.19,1,1,0,0,0-.35,0,3,3,0,0,0-.68.08q-.41.07-.9.21l-.12-.57,1.08-.36.95-.28c.29-.08.54-.14.77-.18a2.41,2.41,0,0,1,.52-.07.91.91,0,0,1,.71.28,1.29,1.29,0,0,1,.26.93c0,.06,0,.18,0,.37s0,.44-.05.73,0,.64-.07,1,0,.79-.09,1.22-.07.88-.11,1.34-.09.92-.14,1.38h.05a22.15,22.15,0,0,1,1.29-3.45,12.29,12.29,0,0,1,1.4-2.27A5,5,0,0,1,197,328a2.76,2.76,0,0,1,1.34-.39,2.22,2.22,0,0,1,.85.16,2,2,0,0,1,.74.53,2.9,2.9,0,0,1,.51.94,4.67,4.67,0,0,1,.19,1.39c0,.16,0,.37,0,.64s0,.56-.07.89-.06.67-.09,1l-.09,1.08c0,.35-.05.68-.07,1s0,.6,0,.84a6.77,6.77,0,0,0,.06,1,1.84,1.84,0,0,0,.17.62.6.6,0,0,0,.31.3,1.17,1.17,0,0,0,.48.09,3.3,3.3,0,0,0,.86-.12,4.78,4.78,0,0,0,.89-.32l.15.41a4.49,4.49,0,0,1-.72.47c-.29.16-.59.3-.91.44a7.5,7.5,0,0,1-1,.31,3.13,3.13,0,0,1-.84.13.94.94,0,0,1-.67-.23,1.31,1.31,0,0,1-.37-.63,3.9,3.9,0,0,1-.16-.92c0-.35,0-.73,0-1.14s0-1,.06-1.53.07-1,.11-1.5.08-.91.12-1.29.05-.7.05-.93a2.23,2.23,0,0,0-.35-1.37,1.13,1.13,0,0,0-.93-.44,1.61,1.61,0,0,0-1,.39,5.53,5.53,0,0,0-1,1.07,10.6,10.6,0,0,0-1,1.59,16.69,16.69,0,0,0-.84,2,18.81,18.81,0,0,0-.62,2.24,15.61,15.61,0,0,0-.3,2.34l-1.66.21h-.12c0-.5.08-1,.12-1.64s.07-1.19.1-1.8.06-1.21.08-1.81.05-1.16.06-1.68,0-1,0-1.39S191.47,330.22,191.47,330Z"/><path class="cls-1" d="M220.91,322c-.22,1-.41,2-.56,3.11s-.27,2.12-.38,3.15l.72,0h1.63a7.52,7.52,0,0,0,1.18-.08c0,.09.05.17.06.24a.76.76,0,0,1,0,.21.43.43,0,0,1-.29.45,2.63,2.63,0,0,1-.84.1c-.35,0-.73,0-1.16-.06s-.9-.09-1.42-.12c0,.56-.1,1.11-.14,1.65s-.07,1-.1,1.51,0,.92,0,1.32,0,.76,0,1.06a11.38,11.38,0,0,0,.08,1.51,3.7,3.7,0,0,0,.31,1.13,1.7,1.7,0,0,0,.61.71,1.85,1.85,0,0,0,1,.24,3.51,3.51,0,0,0,.95-.15,7.46,7.46,0,0,0,1.2-.48.85.85,0,0,1,.25.52c-.33.22-.66.41-1,.59a9.53,9.53,0,0,1-1,.46,7.7,7.7,0,0,1-.94.29,3.71,3.71,0,0,1-.85.1,2.37,2.37,0,0,1-1-.19,1.83,1.83,0,0,1-.76-.69,4.07,4.07,0,0,1-.5-1.33,11.27,11.27,0,0,1-.17-2.12c0-.48,0-1,0-1.49s0-1,.06-1.54.06-1.05.11-1.57.09-1,.14-1.54c-.42,0-.8,0-1.16.05a6.06,6.06,0,0,0-.91.14.2.2,0,0,1,0-.11.43.43,0,0,1,.16-.31,1.51,1.51,0,0,1,.46-.27,4.13,4.13,0,0,1,.69-.2,7.28,7.28,0,0,1,.88-.11q.18-1.65.39-3.12c.14-1,.27-1.86.41-2.63a.88.88,0,0,1,.15-.34.72.72,0,0,1,.25-.21,1,1,0,0,1,.31-.11,1.73,1.73,0,0,1,.32,0,2.26,2.26,0,0,1,.47.05A1.68,1.68,0,0,1,220.91,322Z"/><path class="cls-1" d="M265.29,320.48a8.83,8.83,0,0,1,1.91.19,8.63,8.63,0,0,1,1.52.46,4,4,0,0,1,1,.6.84.84,0,0,1,.36.58c0,.36,0,.83,0,1.41s-.06,1.28-.1,2.11l-.69,0a1.48,1.48,0,0,0,0-.21,1.34,1.34,0,0,0,0-.21,5,5,0,0,0-.13-1,2.7,2.7,0,0,0-.41-.94,3.79,3.79,0,0,0-.75-.8,5.27,5.27,0,0,0-1-.59,5.64,5.64,0,0,0-1.12-.36,6.13,6.13,0,0,0-1.21-.12,5.39,5.39,0,0,0-1.93.33,5.18,5.18,0,0,0-1.54.91,5.77,5.77,0,0,0-1.18,1.37,8.4,8.4,0,0,0-.84,1.73,12.21,12.21,0,0,0-.49,2,14.46,14.46,0,0,0-.16,2.08,12.6,12.6,0,0,0,.21,2.35,10.13,10.13,0,0,0,.58,2,8,8,0,0,0,.92,1.66,6,6,0,0,0,1.21,1.25,4.77,4.77,0,0,0,1.44.77,5,5,0,0,0,1.64.27,5.87,5.87,0,0,0,1.24-.13,6.09,6.09,0,0,0,1.3-.41,9,9,0,0,0,1.32-.71,10.14,10.14,0,0,0,1.33-1l.15.08a.78.78,0,0,1,.15.1l.13.13a.3.3,0,0,1,.05.15.23.23,0,0,1-.07.13A9.73,9.73,0,0,1,268.6,338a8.82,8.82,0,0,1-1.59.94,8.12,8.12,0,0,1-1.61.51,8.88,8.88,0,0,1-1.62.15,6.9,6.9,0,0,1-2-.3,6.54,6.54,0,0,1-1.79-.85,7.09,7.09,0,0,1-1.51-1.34,8.18,8.18,0,0,1-1.14-1.76,9.63,9.63,0,0,1-.73-2.14,10.53,10.53,0,0,1-.26-2.43,12.35,12.35,0,0,1,.25-2.48,11.34,11.34,0,0,1,.74-2.38,10.3,10.3,0,0,1,1.24-2.13,8.39,8.39,0,0,1,1.75-1.72,8,8,0,0,1,2.24-1.15A8.93,8.93,0,0,1,265.29,320.48Z"/><path class="cls-1" d="M291.5,331a2.54,2.54,0,0,0-.2-1.08,2.13,2.13,0,0,0-.54-.75,2,2,0,0,0-.75-.44,2.74,2.74,0,0,0-.84-.14,3.28,3.28,0,0,0-.95.12,1.7,1.7,0,0,0-.63.32,1.18,1.18,0,0,0-.34.49,1.49,1.49,0,0,0-.11.6,2,2,0,0,0,.14.76,3,3,0,0,0,.4.75l0,.09a2,2,0,0,1-.91.22,1.64,1.64,0,0,1-.5-.08,1.33,1.33,0,0,1-.4-.24,1.19,1.19,0,0,1-.27-.39,1.22,1.22,0,0,1-.1-.51,1.68,1.68,0,0,1,.23-.88,2.64,2.64,0,0,1,.59-.75,4.57,4.57,0,0,1,.86-.61,7.77,7.77,0,0,1,1-.46,6.4,6.4,0,0,1,1-.28,5.09,5.09,0,0,1,1-.1,4,4,0,0,1,1.42.22,2.42,2.42,0,0,1,1,.64,2.89,2.89,0,0,1,.54,1,5.11,5.11,0,0,1,.17,1.36c0,.35,0,.73,0,1.15s-.06.85-.1,1.3-.07.93-.1,1.42,0,1,0,1.44a2.93,2.93,0,0,0,.42,1.72,1.34,1.34,0,0,0,1.11.57,2.72,2.72,0,0,0,1.37-.45l.22.34a3.68,3.68,0,0,1-1.15.8,3.12,3.12,0,0,1-1.31.28,2.67,2.67,0,0,1-.95-.17,2.07,2.07,0,0,1-.75-.52,2.3,2.3,0,0,1-.49-.87,3.67,3.67,0,0,1-.18-1.21c0-.13,0-.27,0-.41a2.27,2.27,0,0,1,.05-.43h-.05a12.35,12.35,0,0,1-.79,1.34,7.58,7.58,0,0,1-1,1.18,5,5,0,0,1-1.14.83,2.59,2.59,0,0,1-1.27.33,2.64,2.64,0,0,1-1-.19,2.21,2.21,0,0,1-.77-.53,2.27,2.27,0,0,1-.5-.78,2.73,2.73,0,0,1-.18-1,3.05,3.05,0,0,1,.26-1.26,3.24,3.24,0,0,1,.71-1,4.28,4.28,0,0,1,1.09-.78,8,8,0,0,1,1.37-.55,10.9,10.9,0,0,1,1.57-.32,13.61,13.61,0,0,1,1.7-.11q0-.49.09-1C291.49,331.67,291.5,331.32,291.5,331Zm-4.85,5.43a2.22,2.22,0,0,0,.07.59,1.4,1.4,0,0,0,.21.5,1.06,1.06,0,0,0,.37.33,1.13,1.13,0,0,0,.54.12,1.83,1.83,0,0,0,.74-.16,3.79,3.79,0,0,0,.75-.46,5.14,5.14,0,0,0,.7-.7,6.29,6.29,0,0,0,.6-.89,5.84,5.84,0,0,0,.45-1,4.5,4.5,0,0,0,.23-1.09c-.39,0-.77,0-1.16.07a8.82,8.82,0,0,0-1.09.19,5.15,5.15,0,0,0-1,.33,3,3,0,0,0-.77.51,2.39,2.39,0,0,0-.5.72A2.42,2.42,0,0,0,286.65,336.38Z"/><path class="cls-1" d="M308.18,328.53l1.51-.44,1.05-.26.66-.13.36,0a1.1,1.1,0,0,1,.37.06.69.69,0,0,1,.31.2,1,1,0,0,1,.2.38,2.06,2.06,0,0,1,.07.6c0,.08,0,.23,0,.47s0,.55,0,1-.05.91-.09,1.5-.08,1.29-.13,2.09h.1a18.64,18.64,0,0,1,1.33-2.72,13,13,0,0,1,1.45-2A6.58,6.58,0,0,1,316.8,328a2.82,2.82,0,0,1,1.4-.41,2.07,2.07,0,0,1,.95.2,2.2,2.2,0,0,1,.71.54,2.72,2.72,0,0,1,.51.77,5.61,5.61,0,0,1,.34.92,7.89,7.89,0,0,1,.18,1c0,.32.05.63.05.91a10.05,10.05,0,0,1-.23,2.18,9.16,9.16,0,0,1-.65,1.85,7,7,0,0,1-1,1.51,6.06,6.06,0,0,1-1.21,1.12,5.38,5.38,0,0,1-1.37.7,4.42,4.42,0,0,1-1.43.24,4.33,4.33,0,0,1-1.5-.28,3.89,3.89,0,0,1-1.37-.92c-.05,1.33-.11,2.69-.17,4.1s-.09,2.89-.09,4.42l-1.67.19h-.16c.08-1,.15-2,.22-3.1s.13-2.17.19-3.26.11-2.17.16-3.23.09-2.05.12-3,.05-1.77.07-2.53,0-1.38,0-1.88a4.11,4.11,0,0,0,0-.53,1,1,0,0,0-.12-.37.61.61,0,0,0-.27-.23,1.2,1.2,0,0,0-.46-.07,5.2,5.2,0,0,0-.71.06,7.86,7.86,0,0,0-1,.22Zm4.1,8.92a4.79,4.79,0,0,0,1.34.84,3.52,3.52,0,0,0,1.34.27,3.59,3.59,0,0,0,1.63-.38,3.52,3.52,0,0,0,1.29-1.12,5.59,5.59,0,0,0,.84-1.84,9.2,9.2,0,0,0,.31-2.54,8.53,8.53,0,0,0-.08-1.11,5.74,5.74,0,0,0-.26-1,2.28,2.28,0,0,0-.47-.76,1,1,0,0,0-.7-.29,2,2,0,0,0-1,.25,4.21,4.21,0,0,0-.92.67,7.11,7.11,0,0,0-.86,1,13.15,13.15,0,0,0-.77,1.21,12.42,12.42,0,0,0-.67,1.31c-.2.45-.37.89-.52,1.32s-.27.83-.37,1.21A6.34,6.34,0,0,0,312.28,337.45Z"/><path class="cls-1" d="M339.86,322c-.22,1-.4,2-.55,3.11s-.28,2.12-.39,3.15l.73,0h1.62a7.52,7.52,0,0,0,1.18-.08,1.4,1.4,0,0,1,.06.24.76.76,0,0,1,0,.21.43.43,0,0,1-.29.45,2.59,2.59,0,0,1-.84.1c-.34,0-.73,0-1.16-.06s-.9-.09-1.41-.12q-.09.84-.15,1.65c0,.53-.07,1-.1,1.51s0,.92,0,1.32,0,.76,0,1.06a13.37,13.37,0,0,0,.08,1.51,4,4,0,0,0,.31,1.13,1.7,1.7,0,0,0,.61.71,1.85,1.85,0,0,0,1,.24,3.52,3.52,0,0,0,1-.15,7,7,0,0,0,1.19-.48.8.8,0,0,1,.25.52c-.33.22-.66.41-1,.59a9.53,9.53,0,0,1-1,.46,7.57,7.57,0,0,1-.93.29,3.79,3.79,0,0,1-.86.1,2.4,2.4,0,0,1-1-.19,1.83,1.83,0,0,1-.76-.69,3.86,3.86,0,0,1-.49-1.33,10.4,10.4,0,0,1-.18-2.12c0-.48,0-1,0-1.49s0-1,.07-1.54.06-1.05.1-1.57.09-1,.14-1.54c-.42,0-.8,0-1.16.05a6.27,6.27,0,0,0-.91.14.2.2,0,0,1,0-.11.41.41,0,0,1,.17-.31,1.34,1.34,0,0,1,.45-.27,4.13,4.13,0,0,1,.69-.2,7.28,7.28,0,0,1,.88-.11c.13-1.1.25-2.14.39-3.12s.28-1.86.41-2.63a.88.88,0,0,1,.15-.34.72.72,0,0,1,.25-.21,1,1,0,0,1,.31-.11l.32,0a2.19,2.19,0,0,1,.47.05A1.68,1.68,0,0,1,339.86,322Z"/><path class="cls-1" d="M366.56,327.75c-.05.5-.09,1-.13,1.59s-.08,1.12-.11,1.68-.05,1.12-.07,1.65,0,1,0,1.49a12.14,12.14,0,0,0,.15,2.11,5,5,0,0,0,.38,1.29,1.58,1.58,0,0,0,.54.65,1.32,1.32,0,0,0,.62.17,1.47,1.47,0,0,0,.36,0,2.53,2.53,0,0,0,.33-.12,1.57,1.57,0,0,0,.29-.14l.23-.15.26.37a4.62,4.62,0,0,1-.52.44,4.83,4.83,0,0,1-.62.37,3.91,3.91,0,0,1-.68.24,3,3,0,0,1-.72.09,2.29,2.29,0,0,1-.89-.19,1.91,1.91,0,0,1-.77-.61,3.52,3.52,0,0,1-.54-1.15,6.39,6.39,0,0,1-.2-1.77c0-.23,0-.46,0-.69s0-.47.05-.73.06-.53.09-.83.08-.62.13-1h-.09a20.2,20.2,0,0,1-1.16,3.33,11,11,0,0,1-1.29,2.16,4.43,4.43,0,0,1-1.33,1.18,2.73,2.73,0,0,1-1.26.35,1.82,1.82,0,0,1-1.18-.38,2.69,2.69,0,0,1-.76-1.05,6.33,6.33,0,0,1-.39-1.53,13.74,13.74,0,0,1-.12-1.86c0-.55,0-1.12.06-1.7s.07-1.16.13-1.72.12-1.09.19-1.6.14-1,.22-1.37a.8.8,0,0,1,.13-.35.7.7,0,0,1,.21-.21.58.58,0,0,1,.26-.09,1.33,1.33,0,0,1,.28,0,1.7,1.7,0,0,1,.51.07,2.19,2.19,0,0,1,.46.18c-.1.59-.18,1.19-.27,1.78s-.15,1.16-.21,1.72S359,332.45,359,333s-.05,1-.05,1.44a10.8,10.8,0,0,0,.07,1.33,3.81,3.81,0,0,0,.25,1,1.67,1.67,0,0,0,.45.66,1,1,0,0,0,.67.24,2,2,0,0,0,1.37-.73,7.69,7.69,0,0,0,1.35-2.11,19.38,19.38,0,0,0,1.09-3.13,20.45,20.45,0,0,0,.58-3.75l1.67-.2Z"/><path class="cls-1" d="M383.89,339.29h-.13c0-.5.08-1,.12-1.64s.07-1.19.1-1.8.06-1.21.09-1.81,0-1.16.06-1.68,0-1,0-1.39,0-.74,0-1,0-.37,0-.51a1,1,0,0,0-.11-.36.5.5,0,0,0-.24-.21,1.27,1.27,0,0,0-.43-.06h-.27l-.32.05-.39.08-.5.13-.12-.57a19.86,19.86,0,0,1,2.12-.67,6.15,6.15,0,0,1,1.1-.2.88.88,0,0,1,.75.31,1.49,1.49,0,0,1,.23.9s0,.15,0,.33,0,.41,0,.7,0,.62-.07,1-.06.78-.09,1.22-.07.89-.12,1.36-.08.94-.13,1.41h.08a28.31,28.31,0,0,1,.86-2.89,13.72,13.72,0,0,1,1.07-2.33,5.58,5.58,0,0,1,1.32-1.55,2.45,2.45,0,0,1,1.57-.57,1.5,1.5,0,0,1,.56.1,1.43,1.43,0,0,1,.45.26,1.5,1.5,0,0,1,.3.4,1.26,1.26,0,0,1,.11.51,1.52,1.52,0,0,1-.16.69,1.54,1.54,0,0,1-.48.58h-.06a2.59,2.59,0,0,0-.63-.4,1.68,1.68,0,0,0-.63-.12,1.8,1.8,0,0,0-.69.13,2.11,2.11,0,0,0-.61.39,4.47,4.47,0,0,0-.84,1.09,11.63,11.63,0,0,0-.71,1.5c-.21.54-.4,1.12-.57,1.72s-.32,1.19-.45,1.77-.22,1.11-.3,1.61-.13.93-.16,1.27Z"/><path class="cls-1" d="M412.91,336.63l.12.07a.67.67,0,0,1,.14.09l.11.11a.21.21,0,0,1,.05.12.09.09,0,0,1,0,.06,6.2,6.2,0,0,1-.95,1.07,5.76,5.76,0,0,1-1.06.76,4.86,4.86,0,0,1-1.12.45,4.37,4.37,0,0,1-1.12.15,3.9,3.9,0,0,1-1.74-.39,4.14,4.14,0,0,1-1.36-1.06,4.88,4.88,0,0,1-.89-1.58,5.85,5.85,0,0,1-.32-1.94,7.49,7.49,0,0,1,.19-1.69,8.09,8.09,0,0,1,.53-1.62,7.57,7.57,0,0,1,.86-1.42,6,6,0,0,1,1.15-1.15,5.24,5.24,0,0,1,1.42-.76,4.69,4.69,0,0,1,1.65-.28,3.75,3.75,0,0,1,1.12.16,3.09,3.09,0,0,1,.93.45,2.48,2.48,0,0,1,.64.73,2.13,2.13,0,0,1,.23,1,2.07,2.07,0,0,1-.52,1.41,4.26,4.26,0,0,1-1.45,1,10.38,10.38,0,0,1-2.18.68,23.29,23.29,0,0,1-2.71.38v.14a6,6,0,0,0,.26,1.85,4.65,4.65,0,0,0,.7,1.43,3.33,3.33,0,0,0,1.06.93,2.75,2.75,0,0,0,1.32.33,3.36,3.36,0,0,0,1.46-.35A5.26,5.26,0,0,0,412.91,336.63Zm-1.49-6.35a1.91,1.91,0,0,0-.12-.68,1.7,1.7,0,0,0-.34-.55,1.59,1.59,0,0,0-.52-.37,1.57,1.57,0,0,0-.65-.13,2.34,2.34,0,0,0-.93.18,2.49,2.49,0,0,0-.75.49,3.56,3.56,0,0,0-.59.73,5.52,5.52,0,0,0-.43.88,7.61,7.61,0,0,0-.29,1,8.29,8.29,0,0,0-.15,1,15.23,15.23,0,0,0,2-.28,6.27,6.27,0,0,0,1.5-.5,2.63,2.63,0,0,0,.94-.72A1.61,1.61,0,0,0,411.42,330.28Z"/><path class="cls-1" d="M429,339.29h-.12c0-.5.08-1,.11-1.64s.08-1.19.11-1.8.06-1.21.08-1.81,0-1.16.06-1.68,0-1,0-1.39,0-.74,0-1a3.86,3.86,0,0,0,0-.51.8.8,0,0,0-.11-.36.5.5,0,0,0-.24-.21,1.17,1.17,0,0,0-.42-.06h-.28l-.32.05-.39.08-.5.13-.12-.57a19.91,19.91,0,0,1,2.13-.67,6,6,0,0,1,1.1-.2.87.87,0,0,1,.74.31,1.49,1.49,0,0,1,.23.9s0,.15,0,.33,0,.41,0,.7,0,.62-.07,1-.05.78-.09,1.22-.07.89-.11,1.36-.09.94-.14,1.41h.08c.26-1,.54-2,.86-2.89a13,13,0,0,1,1.08-2.33,5.39,5.39,0,0,1,1.31-1.55,2.47,2.47,0,0,1,1.57-.57,1.47,1.47,0,0,1,.56.1,1.43,1.43,0,0,1,.45.26,1.17,1.17,0,0,1,.3.4,1.12,1.12,0,0,1,.11.51,1.65,1.65,0,0,1-.15.69,1.67,1.67,0,0,1-.49.58h-.06a2.26,2.26,0,0,0-.63-.4,1.68,1.68,0,0,0-.63-.12,1.8,1.8,0,0,0-.69.13,2.11,2.11,0,0,0-.61.39,4.22,4.22,0,0,0-.83,1.09,10.44,10.44,0,0,0-.71,1.5,16.51,16.51,0,0,0-.58,1.72c-.17.61-.32,1.19-.44,1.77s-.23,1.11-.3,1.61-.13.93-.17,1.27Z"/></svg>