<svg id="Layer_1" data-name="Layer 1" xmlns="http://www.w3.org/2000/svg" viewBox="0 0 192 192"><defs><style>.cls-1{fill:#231f20;}.cls-2{fill:#5bba47;}.cls-3{fill:#fff;}.cls-10,.cls-11,.cls-4,.cls-8,.cls-9{fill:none;}.cls-4{stroke:#231f20;stroke-width:0.16px;}.cls-10,.cls-4,.cls-8{stroke-miterlimit:10;}.cls-5{fill:#f4f0eb;}.cls-6{fill:#4c5051;}.cls-7{fill:#3d9946;}.cls-11,.cls-8,.cls-9{stroke:#4c5051;}.cls-10,.cls-8{stroke-width:0.12px;}.cls-11,.cls-9{stroke-linecap:round;stroke-linejoin:round;}.cls-9{stroke-width:0.24px;}.cls-10{stroke:#f4f0eb;}.cls-11{stroke-width:0.2px;}.cls-12{fill:#fbb97c;}.cls-13{fill:#d37528;}.cls-14{fill:#bc6428;}.cls-15{fill:#1a1a1a;}.cls-16{fill:#3e3d3d;}.cls-17{fill:#4e4e4e;}.cls-18{fill:#eaa775;}.cls-19{fill:#1a8bae;}.cls-20{fill:#603a18;}.cls-21{fill:#177b94;}.cls-22{fill:#2193c2;}.cls-23{fill:#f15b28;}.cls-24{fill:#e04e26;}</style></defs><title>moment cpturr</title><path class="cls-1" d="M112.35,104.21a26.41,26.41,0,0,1-6.23,16.34A26.47,26.47,0,0,0,64.16,89l-.25-.29a26.47,26.47,0,0,1,48.44,15.5Z"/><path class="cls-1" d="M70.7,107.17a26.21,26.21,0,0,1-4.48,14A25.77,25.77,0,0,1,63.16,125,27.94,27.94,0,0,1,61,122.14a26.49,26.49,0,0,1,1.84-31.7,26.51,26.51,0,0,0,1.18,28,26.5,26.5,0,0,0,0-29.25l.14-.14A26.34,26.34,0,0,1,70.7,107.17Z"/><path class="cls-2" d="M68.41,104.5A26.32,26.32,0,0,1,64,118.39a26.51,26.51,0,0,1-1.18-27.95c.38-.45.77-.88,1.18-1.3A26.36,26.36,0,0,1,68.41,104.5Z"/><path class="cls-3" d="M63.91,88.71l.25.29-.14.14-.2-.3Z"/><path class="cls-3" d="M63.82,88.84l.2.3c-.41.42-.8.85-1.18,1.3C63.15,89.89,63.48,89.36,63.82,88.84Z"/><path class="cls-3" d="M63.91,88.71l-.09.13c-.21-.31-.44-.63-.67-.93C63.41,88.17,63.66,88.44,63.91,88.71Z"/><path class="cls-1" d="M63.15,87.91A26.47,26.47,0,0,0,23,122.26,26.47,26.47,0,1,1,63.15,87.91Z"/><path class="cls-4" d="M63.15,87.91A26.47,26.47,0,0,0,23,122.26,26.47,26.47,0,1,1,63.15,87.91Z"/><path class="cls-4" d="M63.91,88.71a26.48,26.48,0,1,1,42.21,31.84A26.47,26.47,0,0,0,64.16,89"/><path class="cls-4" d="M62.84,90.44c.31-.55.64-1.08,1-1.6-.21-.31-.44-.63-.67-.93.26.26.51.53.76.8l.25.29"/><path class="cls-4" d="M64,89.14l.14-.14a26.48,26.48,0,0,1,2.06,32.19A25.77,25.77,0,0,1,63.16,125,27.94,27.94,0,0,1,61,122.14a26.49,26.49,0,0,1,1.84-31.7"/><path class="cls-4" d="M64,89.14a26.5,26.5,0,0,1,0,29.25,26.51,26.51,0,0,1-1.18-27.95C63.22,90,63.61,89.56,64,89.14Z"/><path class="cls-1" d="M146.91,73.56a26.46,26.46,0,0,1,25.81,26.7c0-.17,0-.35,0-.52s0-.21,0-.31l0-.4,0-.36a2,2,0,0,0,0-.23s0-.1,0-.15l0-.25s0-.08,0-.12,0-.22-.05-.33,0-.2-.05-.31l0-.14c0-.08,0-.17,0-.26s0,0,0-.06a1.84,1.84,0,0,0,0-.25l-.08-.32c0-.09-.05-.18-.07-.27l-.05-.19,0-.09c0-.09,0-.19-.08-.29a16.43,16.43,0,0,0-.8-2l-.11-.24c-.18-.37-.37-.73-.58-1.09l-.14-.23c-.09-.14-.17-.28-.27-.42l-.15-.23s0,0,0,0l-.2-.28a15.64,15.64,0,0,0-1.13-1.42l-.52-.57-.28-.27-.21-.21-.24-.22c-.1-.1-.22-.19-.33-.29l-.37-.31-.46-.36c-.15-.12-.31-.23-.47-.34A16,16,0,0,0,163,85.32l-.73-.31-.37-.14-.75-.25-.38-.11c-.26-.07-.52-.14-.78-.19l-.29-.07-.22,0-.31-.06-.37-.06-.43-.06-.25,0-.23,0h-.17l-.43,0h0c-.17,0-.34,0-.52,0a16.36,16.36,0,1,0,14.73,22.59,10,10,0,0,0,.92-2.43,26.47,26.47,0,1,1-25.5-30.51Z"/><path class="cls-2" d="M172.72,100.26v.24a.08.08,0,0,0,0,0v-.08a6.14,6.14,0,0,0-1.54-4,10.11,10.11,0,1,0,.32,10.09,16.36,16.36,0,1,1-14.73-22.59c.18,0,.35,0,.52,0h0l.43,0h.17l.23,0,.25,0,.43.06.37.06.31.06.22,0,.29.07.78.19.38.11.75.25.37.14.73.31a16,16,0,0,1,2.71,1.53c.16.11.32.22.47.34l.46.36.37.31.33.29.24.22.21.21.28.27c.18.19.35.37.52.57a15.64,15.64,0,0,1,1.13,1.42l.2.28s0,0,0,0l.15.23c.1.14.18.28.27.42l.14.23c.21.36.4.72.58,1.09l.11.24a16.43,16.43,0,0,1,.8,2c0,.1.06.2.08.29l0,.09.05.19a2.68,2.68,0,0,1,.07.27c0,.1.05.21.08.32a1.84,1.84,0,0,1,0,.25s0,0,0,.06,0,.18,0,.26l0,.14c0,.1,0,.21.05.31s0,.22.05.33,0,.08,0,.12l0,.25s0,.1,0,.15a2,2,0,0,1,0,.23l0,.36,0,.4c0,.11,0,.21,0,.31S172.72,100.09,172.72,100.26Z"/><path class="cls-3" d="M172.72,100.51v.06s0,0,0,0a2.5,2.5,0,0,0-.27-1.12c-.07-.27-.14-.55-.23-.82a3.82,3.82,0,0,1,.5,1.71v.08A.11.11,0,0,1,172.72,100.51Z"/><path class="cls-3" d="M172.72,100.5h0a.11.11,0,0,0,0-.05A.08.08,0,0,1,172.72,100.5Z"/><path class="cls-3" d="M172.72,100.57s0,.07,0,.1v-.06S172.72,100.59,172.72,100.57Z"/><path class="cls-3" d="M172.71,100.61v.19c0,.1,0,.2,0,.3a12.24,12.24,0,0,0-.23-1.61A2.5,2.5,0,0,1,172.71,100.61Z"/><path class="cls-3" d="M172.71,100.67c0,.15,0,.3,0,.45s0,.19,0,.29v-.16a2.07,2.07,0,0,0,0-.35v0a.17.17,0,0,0,0-.07Z"/><path class="cls-3" d="M172.71,99.74c0-.1,0-.2,0-.31C172.7,99.53,172.71,99.64,172.71,99.74Z"/><path class="cls-3" d="M172.71,100.8a.17.17,0,0,1,0,.07v0a2.06,2.06,0,0,1,0,.26v-.06C172.69,101,172.7,100.9,172.71,100.8Z"/><path class="cls-3" d="M172.7,99.43l0-.4Z"/><path class="cls-3" d="M172.68,101.41c0-.1,0-.19,0-.29,0,.11,0,.23,0,.34Z"/><path class="cls-3" d="M172.7,100.9a2.07,2.07,0,0,1,0,.35v-.08h0A2.06,2.06,0,0,0,172.7,100.9Z"/><path class="cls-3" d="M172.68,101.47a4.34,4.34,0,0,1,0,.51,10.22,10.22,0,0,1-.27,2.09C172.54,103.22,172.63,102.35,172.68,101.47Z"/><path class="cls-3" d="M172.68,101.41v0h0c-.05.88-.14,1.75-.27,2.6a10,10,0,0,1-.92,2.43A16.26,16.26,0,0,0,172.68,101.41Z"/><path class="cls-1" d="M172.67,101.25v.16a16.26,16.26,0,0,1-1.19,5.09,10.12,10.12,0,1,1-.32-10.09,6.25,6.25,0,1,0,1.5,4.84Z"/><path class="cls-2" d="M172.67,101.17v.08a6.26,6.26,0,1,1-1.5-4.84,9.48,9.48,0,0,1,1,2.26,3.86,3.86,0,1,0,.46,2.5Z"/><path class="cls-1" d="M172.67,101.16h0a3.86,3.86,0,1,1-.46-2.5h0c.09.27.16.55.23.82a2.39,2.39,0,1,0,.23,1.61Z"/><path class="cls-3" d="M172.67,101.1a2.38,2.38,0,1,1-.23-1.61A12.24,12.24,0,0,1,172.67,101.1Z"/><path class="cls-3" d="M171.17,96.41a6.14,6.14,0,0,1,1.54,4,3.82,3.82,0,0,0-.5-1.71h0A9.48,9.48,0,0,0,171.17,96.41Z"/><path class="cls-3" d="M172.3,96.57c0-.11-.05-.22-.08-.32Z"/><path class="cls-3" d="M172.22,96.25a2.68,2.68,0,0,0-.07-.27C172.17,96.07,172.2,96.16,172.22,96.25Z"/><path class="cls-3" d="M168.08,88.85l.52.57C168.43,89.22,168.26,89,168.08,88.85Z"/><path class="cls-3" d="M167.8,88.58l-.21-.21Z"/><path class="cls-3" d="M161.16,84.62l-.38-.11Z"/><path class="cls-3" d="M159.18,84.15l-.37-.06Z"/><path class="cls-3" d="M158.38,84l-.25,0Z"/><path class="cls-3" d="M157.9,84h0Z"/><path class="cls-4" d="M172.41,104.07a26.47,26.47,0,1,1,.31-3.81"/><path class="cls-4" d="M157.28,83.94c-.17,0-.34,0-.52,0"/><path class="cls-4" d="M157.73,84l-.43,0"/><path class="cls-4" d="M158.13,84l-.23,0"/><path class="cls-4" d="M159.71,84.25l-.22,0"/><path class="cls-4" d="M160.78,84.51c-.26-.07-.52-.14-.78-.19"/><path class="cls-4" d="M167.35,88.15c-.1-.1-.22-.19-.33-.29l-.37-.31-.46-.36c-.15-.12-.31-.23-.47-.34"/><path class="cls-4" d="M169.93,91.12l-.2-.28"/><path class="cls-4" d="M170.09,91.38l-.15-.23"/><path class="cls-4" d="M170.5,92l-.14-.23"/><path class="cls-4" d="M171.19,93.36l-.11-.24"/><path class="cls-4" d="M172.07,95.7c0-.09,0-.19-.08-.29"/><path class="cls-4" d="M172.15,96l-.05-.19"/><path class="cls-4" d="M172.35,96.82a1.84,1.84,0,0,0,0-.25"/><path class="cls-4" d="M172.42,97.14c0-.08,0-.17,0-.26"/><path class="cls-4" d="M172.55,97.92c0-.11,0-.22-.05-.33s0-.2-.05-.31"/><path class="cls-4" d="M172.6,98.29l0-.25"/><path class="cls-4" d="M172.64,98.67a2,2,0,0,0,0-.23"/><path class="cls-4" d="M172.68,101.46c0-.11,0-.23,0-.34"/><path class="cls-4" d="M172.72,100.5v-.24c0-.17,0-.35,0-.52s0-.21,0-.31l0-.4,0-.36a2,2,0,0,0,0-.23s0-.1,0-.15l0-.25s0-.08,0-.12,0-.22-.05-.33,0-.21-.05-.31l0-.14c0-.08,0-.17,0-.26s0,0,0-.06a1.84,1.84,0,0,0,0-.25l-.08-.32c0-.09-.05-.18-.07-.27l-.05-.19,0-.09c0-.09,0-.19-.08-.29a16.43,16.43,0,0,0-.8-2l-.11-.24c-.18-.37-.37-.73-.58-1.09l-.14-.23c-.09-.14-.17-.28-.27-.42l-.15-.23s0,0,0,0l-.2-.28a15.64,15.64,0,0,0-1.13-1.42l-.52-.57-.28-.27-.21-.21-.24-.22-.33-.29-.37-.31-.46-.36c-.15-.12-.31-.23-.47-.34A16,16,0,0,0,163,85.32l-.73-.31-.37-.14-.75-.25-.38-.11-.78-.19-.29-.07-.22,0-.31-.06-.37-.06-.43-.06-.25,0-.23,0h-.17l-.43,0h0c-.17,0-.34,0-.52,0a16.36,16.36,0,1,0,14.73,22.59"/><path class="cls-4" d="M172.68,101.41c0-.1,0-.19,0-.29s0-.3,0-.45"/><path class="cls-4" d="M172.67,101.25v.16"/><path class="cls-4" d="M171.49,106.5a10.12,10.12,0,1,1-.32-10.09"/><path class="cls-4" d="M172.68,101.46h0a4.34,4.34,0,0,1,0,.51,10.22,10.22,0,0,1-.27,2.09,10,10,0,0,1-.92,2.43,16.26,16.26,0,0,0,1.19-5.09Z"/><path class="cls-4" d="M172.72,100.51h0a.08.08,0,0,0,0,0"/><path class="cls-4" d="M172.71,100.38a6.14,6.14,0,0,0-1.54-4,6.25,6.25,0,1,0,1.5,4.84,2.07,2.07,0,0,0,0-.35"/><path class="cls-4" d="M172.67,101.16h0a3.86,3.86,0,1,1-.46-2.5h0"/><path class="cls-4" d="M172.44,99.49c-.07-.27-.14-.55-.23-.82a3.82,3.82,0,0,1,.5,1.71v.08a.11.11,0,0,1,0,.05v.06s0,.07,0,.1"/><path class="cls-4" d="M172.71,100.8a.17.17,0,0,1,0,.07v0a2.06,2.06,0,0,1,0,.26v-.06"/><path class="cls-4" d="M172.71,100.61v.19c0,.1,0,.2,0,.3a2.38,2.38,0,1,1-.23-1.61A2.5,2.5,0,0,1,172.71,100.61Z"/><path class="cls-5" d="M55.62,91.29a1.09,1.09,0,0,1,0,.18,7,7,0,0,1-.11,1.21,7.45,7.45,0,0,1-2.63,4.55,7.74,7.74,0,0,1-.88.62v-8.6l-4-2.34Z"/><path class="cls-5" d="M55.62,91.29,48,86.91l-3.52,2.22,6.92-4.38a7.49,7.49,0,0,1,4.13,5.51A5.89,5.89,0,0,1,55.62,91.29Z"/><path class="cls-6" d="M55.62,91.29a5.89,5.89,0,0,0-.1-1,7.49,7.49,0,0,0-4.13-5.51,9.84,9.84,0,0,0-1.07-.41A7.46,7.46,0,0,0,48.19,84a7.38,7.38,0,0,0-2.58.47,8,8,0,0,0-1.15.54,8.85,8.85,0,0,0-.87.59,7.39,7.39,0,0,0-2.73,4.67,7.6,7.6,0,0,0-.11,1.17,7.7,7.7,0,0,0,2.84,5.83,6.36,6.36,0,0,0,1.07.7,7.48,7.48,0,0,0,1,.44,7.61,7.61,0,0,0,2.58.46,7.46,7.46,0,0,0,2.13-.31,7.28,7.28,0,0,0,2.57-1.36,7.45,7.45,0,0,0,2.63-4.55,7,7,0,0,0,.11-1.21A1.09,1.09,0,0,0,55.62,91.29ZM48.19,83a8.47,8.47,0,1,1-8.46,8.47A8.47,8.47,0,0,1,48.19,83Z"/><path class="cls-5" d="M52,93.69v4.16a7.74,7.74,0,0,1-1.69.74,7.46,7.46,0,0,1-2.13.31,7.61,7.61,0,0,1-2.58-.46,7.48,7.48,0,0,1-1-.44Z"/><path class="cls-6" d="M52,91.47v2.22L48,96l-3.52-2.21V91.47h.19a3.54,3.54,0,0,0,7.07,0Z"/><path class="cls-6" d="M52,89.25v2.22h-.28a3.54,3.54,0,1,0-7.07,0h-.19V89.13L48,86.91Z"/><path class="cls-5" d="M52,93.69,44.66,98a6.36,6.36,0,0,1-1.07-.7,7.7,7.7,0,0,1-2.84-5.83l3.72,2.34L48,96Z"/><path class="cls-5" d="M51.39,84.75l-6.92,4.38V85a8,8,0,0,1,1.15-.54A7.38,7.38,0,0,1,48.19,84a7.46,7.46,0,0,1,2.13.31A9.84,9.84,0,0,1,51.39,84.75Z"/><path class="cls-5" d="M48.19,87.93a3.54,3.54,0,1,1-3.53,3.54A3.55,3.55,0,0,1,48.19,87.93Zm3,3.54a3,3,0,1,0-3,3A3,3,0,0,0,51.16,91.47Z"/><path class="cls-7" d="M48.19,88.5a3,3,0,1,1-3,3A3,3,0,0,1,48.19,88.5Z"/><path class="cls-5" d="M44.47,91.47v2.34l-3.72-2.34a7.6,7.6,0,0,1,.11-1.17,7.39,7.39,0,0,1,2.73-4.67,8.85,8.85,0,0,1,.87-.59v6.43Z"/><path class="cls-8" d="M57.33,91.47a9.14,9.14,0,1,0-9.14,9.13A9.14,9.14,0,0,0,57.33,91.47Z"/><path class="cls-9" d="M55.62,91.29a5.89,5.89,0,0,0-.1-1,7.49,7.49,0,0,0-4.13-5.51,9.84,9.84,0,0,0-1.07-.41A7.46,7.46,0,0,0,48.19,84a7.38,7.38,0,0,0-2.58.47,8,8,0,0,0-1.15.54,8.85,8.85,0,0,0-.87.59,7.39,7.39,0,0,0-2.73,4.67,7.6,7.6,0,0,0-.11,1.17,7.7,7.7,0,0,0,2.84,5.83,6.36,6.36,0,0,0,1.07.7,7.48,7.48,0,0,0,1,.44,7.61,7.61,0,0,0,2.58.46,7.46,7.46,0,0,0,2.13-.31,7.28,7.28,0,0,0,2.57-1.36,7.45,7.45,0,0,0,2.63-4.55,7,7,0,0,0,.11-1.21A1.09,1.09,0,0,0,55.62,91.29Z"/><polyline class="cls-9" points="44.47 89.13 47.99 86.91 52.01 89.25"/><line class="cls-9" x1="52.01" y1="93.69" x2="47.99" y2="96.02"/><path class="cls-10" d="M50.62,90.85a2.51,2.51,0,0,0-1.43-1.68"/><path class="cls-10" d="M46.08,92.81a2.47,2.47,0,0,0,1.74,1.13"/><polyline class="cls-11" points="44.47 93.81 44.47 91.47 44.47 89.13 44.47 85.06"/><polyline class="cls-11" points="47.99 96.02 44.47 93.81 40.76 91.47"/><line class="cls-11" x1="52.01" y1="93.69" x2="44.66" y2="98"/><polyline class="cls-11" points="52.01 89.25 52.01 91.47 52.01 93.69 52.01 97.85 52.01 97.85"/><polyline class="cls-11" points="47.99 86.91 55.63 91.29 55.63 91.3"/><line class="cls-11" x1="44.47" y1="89.13" x2="51.39" y2="84.75"/><path class="cls-5" d="M86.91,92.08v.17a7.9,7.9,0,0,1-.1,1.21A7.44,7.44,0,0,1,84.17,98a6.88,6.88,0,0,1-.88.61V90l-4-2.34Z"/><path class="cls-5" d="M86.91,92.08,79.27,87.7l-3.52,2.22,6.92-4.38a7.44,7.44,0,0,1,4.14,5.51A8.56,8.56,0,0,1,86.91,92.08Z"/><path class="cls-6" d="M83.29,98.63a6.88,6.88,0,0,0,.88-.61,7.44,7.44,0,0,0,2.64-4.56,7.9,7.9,0,0,0,.1-1.21v-.17a8.56,8.56,0,0,0-.1-1,7.44,7.44,0,0,0-4.14-5.51,7.63,7.63,0,0,0-1.07-.41,7.39,7.39,0,0,0-4.71.16,8.58,8.58,0,0,0-1.15.54,7,7,0,0,0-.87.59,7.44,7.44,0,0,0,0,11.67,7.57,7.57,0,0,0,1.07.7,8.94,8.94,0,0,0,1,.43,7.39,7.39,0,0,0,4.71.16A7.13,7.13,0,0,0,83.29,98.63ZM79.48,83.79A8.47,8.47,0,1,1,71,92.25,8.46,8.46,0,0,1,79.48,83.79Z"/><path class="cls-5" d="M83.29,94.47v4.16a7.13,7.13,0,0,1-1.69.75,7.39,7.39,0,0,1-4.71-.16,8.94,8.94,0,0,1-1-.43Z"/><path class="cls-6" d="M83.29,92.25v2.22l-4,2.34-3.52-2.22V92.25h.19a3.54,3.54,0,1,0,7.07,0Z"/><path class="cls-6" d="M83.29,90v2.21H83a3.54,3.54,0,0,0-7.07,0h-.19V89.92l3.52-2.22Z"/><path class="cls-5" d="M83.29,94.47l-7.35,4.32a7.57,7.57,0,0,1-1.07-.7A7.56,7.56,0,0,1,72,92.25l3.71,2.34,3.52,2.22Z"/><path class="cls-5" d="M82.67,85.54l-6.92,4.38V85.84h0a8.58,8.58,0,0,1,1.15-.54,7.39,7.39,0,0,1,4.71-.16A7.63,7.63,0,0,1,82.67,85.54Z"/><path class="cls-5" d="M79.48,88.72a3.54,3.54,0,1,1-3.54,3.53A3.53,3.53,0,0,1,79.48,88.72Zm3,3.53a3,3,0,1,0-3,3A3,3,0,0,0,82.44,92.25Z"/><path class="cls-7" d="M79.48,89.29a3,3,0,1,1-3,3A3,3,0,0,1,79.48,89.29Z"/><path class="cls-5" d="M75.75,92.25v2.34L72,92.25a7.56,7.56,0,0,1,2.83-5.83,7,7,0,0,1,.87-.59h0v6.41Z"/><path class="cls-8" d="M88.61,92.25a9.14,9.14,0,1,0-9.13,9.14A9.13,9.13,0,0,0,88.61,92.25Z"/><path class="cls-9" d="M86.91,92.08a8.56,8.56,0,0,0-.1-1,7.44,7.44,0,0,0-4.14-5.51,7.63,7.63,0,0,0-1.07-.41,7.39,7.39,0,0,0-4.71.16,8.58,8.58,0,0,0-1.15.54,7,7,0,0,0-.87.59,7.44,7.44,0,0,0,0,11.67,7.57,7.57,0,0,0,1.07.7,8.94,8.94,0,0,0,1,.43,7.39,7.39,0,0,0,4.71.16,7.13,7.13,0,0,0,1.69-.75,6.88,6.88,0,0,0,.88-.61,7.44,7.44,0,0,0,2.64-4.56,7.9,7.9,0,0,0,.1-1.21Z"/><polyline class="cls-9" points="75.75 89.92 79.27 87.7 83.29 90.04"/><line class="cls-9" x1="83.29" y1="94.47" x2="79.27" y2="96.81"/><path class="cls-10" d="M81.9,91.64A2.47,2.47,0,0,0,80.47,90"/><path class="cls-10" d="M77.36,93.59a2.51,2.51,0,0,0,1.74,1.14"/><polyline class="cls-11" points="75.75 94.59 75.75 92.25 75.75 89.92 75.75 85.84"/><polyline class="cls-11" points="79.27 96.81 75.75 94.59 72.04 92.25"/><line class="cls-11" x1="83.29" y1="94.47" x2="75.94" y2="98.79"/><polyline class="cls-11" points="83.29 90.04 83.29 92.25 83.29 94.47 83.29 98.63 83.29 98.64"/><polyline class="cls-11" points="79.27 87.7 86.91 92.08 86.91 92.08"/><line class="cls-11" x1="75.75" y1="89.92" x2="82.67" y2="85.54"/><path class="cls-12" d="M135.75,69.37l-.86,1.42-.23-.06a1.47,1.47,0,0,0-.33,0c-.16,0-.27.3-.39.67l-.41-.16A5.88,5.88,0,0,0,133,71h0a8.29,8.29,0,0,1,1-2.36h0a10.59,10.59,0,0,1,1.1.44Z"/><path class="cls-1" d="M143.6,74.22c-.38.31-1.36.14-2.54-.25a2.53,2.53,0,0,1-1.7,1.24c-2.38.26-7.7-2.15-7.7-2.15l0,0,0-.08c0-.06,0-.12.07-.2s.17-.43.27-.68h0l.33-.83.13.06c0-.15,0-.29.07-.43A2.44,2.44,0,0,1,133,71h0a5.88,5.88,0,0,1,.55.21l.41.16.39.15a16.24,16.24,0,0,0,3.06.94c-1.5-.71-2.68-1.34-2.68-1.34l.18-.31.86-1.42.09-.16s1.49.83,2.82,1.43c0-2.49-.44-6.83,1-7.53a2.73,2.73,0,0,1,2.9.22,1.41,1.41,0,0,0,.07.28h0c.06.23.17.53.27.86a12.68,12.68,0,0,1,.38,1.28l.16.88a3.89,3.89,0,0,1-.44,1.83,1.34,1.34,0,0,0-.1.85,1.31,1.31,0,0,0,.57.85c.17.12.35.24.55.36C144.19,72.15,144.17,73.76,143.6,74.22Z"/><path class="cls-13" d="M135.07,68.93a1.11,1.11,0,0,0,0,.13,4.34,4.34,0,0,0-.26.78h0v0c0,.12,0,.23-.07.35v0a.78.78,0,0,0,0,.16v0a1.21,1.21,0,0,0,0,.19v.11a1.6,1.6,0,0,0,0,.23,2.53,2.53,0,0,0-.36.54l-.39-.15-.41-.16A5.88,5.88,0,0,0,133,71h0a2.44,2.44,0,0,0-.37-.11c.08-.37.18-.73.27-1,.25-.77.64-1.48,1-1.52l.22,0A5,5,0,0,1,135.07,68.93Z"/><path class="cls-14" d="M134.76,69.84v0c0,.12,0,.23-.07.35v0a.88.88,0,0,0,0,.16v0a1.21,1.21,0,0,0,0,.19v.11a1.6,1.6,0,0,0,0,.23,2.53,2.53,0,0,0-.36.54l-.39-.15-.41-.16a1.5,1.5,0,0,1,0-.3c.07-.66.8-.94,1.23-1Z"/><path class="cls-15" d="M134.08,68.33l0,0s-.07.14-.14.26a9.67,9.67,0,0,0-.92,2.23.69.69,0,0,1,0,.13h0a2.44,2.44,0,0,0-.37-.11c0,.14-.05.28-.07.43l-.13-.06-.33.83h0a8,8,0,0,1,.1-.93,13.31,13.31,0,0,1,.35-1.44c.29-1,.86-1.73,1.1-1.71S134.08,68.33,134.08,68.33Z"/><path class="cls-12" d="M132.38,71.23l-.33.83h0c-.1.25-.19.5-.27.68l-.48-.14a1.16,1.16,0,0,0-.33-.06c-.26,0-.41.83-.61,1.37-.1.26-.21.46-.35.48-.34,0-.49-.51-.47-1.1h0c0-.15,0-.3.05-.44a8.22,8.22,0,0,1,.95-2.37h0c.11,0,.6.23,1.1.44l.49.21Z"/><path class="cls-13" d="M130.48,70.2c-.35,0-.73.74-1,1.52a5.43,5.43,0,0,0-.32,2.75c.26.6,2.23,1.17,2.25.65s-.61-.52-.64-1.08a2.15,2.15,0,0,1,.55-1.21,4.15,4.15,0,0,1,.38-2S130.83,70.17,130.48,70.2Z"/><path class="cls-14" d="M129.84,74.86l-.15.07c.67.37,1.72.57,1.73.19s-.61-.52-.64-1.08a2.15,2.15,0,0,1,.55-1.21,2.82,2.82,0,0,1,.07-1.12c-.43.11-1.16.39-1.23,1.05C130.07,73.71,130.91,74.31,129.84,74.86Z"/><path class="cls-15" d="M130.72,70.2s-.24-.33-.48-.35-.81.76-1.1,1.7-.81,3.12-.09,3.57a4.88,4.88,0,0,0,2.29.62.81.81,0,0,0,.08-.62c-.08-.1-1.22-.15-1.67-.52s-.25-1-.11-1.88A11.37,11.37,0,0,1,130.72,70.2Z"/><rect class="cls-15" x="157.18" y="67.23" width="0.32" height="2.42" transform="translate(-0.08 0.19) rotate(-0.07)"/><rect class="cls-15" x="158.94" y="67.77" width="3.84" height="1.76" transform="translate(-0.08 0.2) rotate(-0.07)"/><rect class="cls-16" x="160.53" y="67.59" width="1.63" height="2.12" transform="matrix(1, 0, 0, 1, -0.08, 0.2)"/><rect class="cls-16" x="159.12" y="67.59" width="0.92" height="2.12" transform="translate(-0.08 0.2) rotate(-0.07)"/><polygon class="cls-16" points="163.81 67.59 162.48 67.58 162.48 69.71 163.81 69.71 163.81 67.59"/><rect class="cls-15" x="160.65" y="67.68" width="1.36" height="0.09" transform="translate(-0.08 0.2) rotate(-0.07)"/><rect class="cls-15" x="160.65" y="67.91" width="1.36" height="0.09" transform="translate(-0.08 0.2) rotate(-0.07)"/><rect class="cls-15" x="160.65" y="68.14" width="1.36" height="0.09" transform="translate(-0.08 0.2) rotate(-0.07)"/><rect class="cls-15" x="160.65" y="68.37" width="1.36" height="0.09" transform="translate(-0.08 0.2) rotate(-0.07)"/><rect class="cls-15" x="160.65" y="68.6" width="1.36" height="0.09" transform="translate(-0.09 0.2) rotate(-0.07)"/><rect class="cls-15" x="160.65" y="68.83" width="1.36" height="0.09" transform="translate(-0.08 0.2) rotate(-0.07)"/><rect class="cls-15" x="160.65" y="69.06" width="1.36" height="0.09" transform="translate(-0.09 0.2) rotate(-0.07)"/><rect class="cls-15" x="160.65" y="69.29" width="1.36" height="0.09" transform="translate(-0.08 0.2) rotate(-0.07)"/><rect class="cls-15" x="160.65" y="69.53" width="1.36" height="0.09" transform="translate(-0.08 0.2) rotate(-0.07)"/><rect class="cls-17" x="157.35" y="66.71" width="1.67" height="3.79" rx="0.27" transform="translate(-0.08 0.19) rotate(-0.07)"/><path class="cls-15" d="M157.62,70.5H158V66.71h-.36a.27.27,0,0,0-.27.27v3.24A.28.28,0,0,0,157.62,70.5Z"/><path class="cls-18" d="M162.05,69.53l0,.09-.06.09a1.42,1.42,0,0,1-.8.64c-.36.09-.37,0-.54.21a30.55,30.55,0,0,1-2.32,3.66c-.71.75-1.38,1.28-1.89,1.23a1.72,1.72,0,0,1-.59-.38c-.51-.42-1.22-1.13-1.77-1.69L153.7,73l.25-.16a3.55,3.55,0,0,0,.21.44,6.74,6.74,0,0,0,1-.94c.09.13.17.26.26.38a1.93,1.93,0,0,0,.74.67c.14,0,.37-.06.65-.25a17.86,17.86,0,0,0,2.79-2.74,5.53,5.53,0,0,1,.35-.71l.08-.11a.15.15,0,0,1,.08,0,1.08,1.08,0,0,0,.39,0h0a0,0,0,0,0,0,0,.39.39,0,0,0,.2-.13l0,0s0-.05,0-.08l.11-.13.08-.1.16-.13h0l.14-.1a.5.5,0,0,1,.36,0l.09,0,.13.09a.53.53,0,0,1,.12.14l0,.07A.56.56,0,0,1,162.05,69.53Z"/><path class="cls-19" d="M153.16,69.87l-.07-.11.06,0v0A.28.28,0,0,1,153.16,69.87Z"/><path class="cls-19" d="M154.16,73.3l-.11.08a1.45,1.45,0,0,1-.93.34.83.83,0,0,1-.23-.24c.16-.07.33-.16.49-.25l.32-.21.25-.16A3.55,3.55,0,0,0,154.16,73.3Z"/><path class="cls-12" d="M157.05,66.23c-.07.57-.35.81-.34,1.06a1.53,1.53,0,0,0,.19.49c.07.17.14.32.1.41a.32.32,0,0,1-.24.11,3.6,3.6,0,0,0-.42,0s0,.24,0,.33-.43-.07-.44,0,.26.13.16.33-.4,0-.49.29a2,2,0,0,1-.13.34.64.64,0,0,1-.1.13l0,0,0,0,0,0-.13,0c-.37,0-.73-.66-1.13-.57l-.17,0-.35.19c-.13-.12-.26-.24-.38-.33h0a3.45,3.45,0,0,0-.46-.9,1.19,1.19,0,0,0-.33-.34.58.58,0,0,0,.23-.34h0a1.57,1.57,0,0,0,0-.33v-.13h0c0-.2,0-.43,0-.67h0a2.82,2.82,0,0,1,.25-1.28,2.39,2.39,0,0,1,4-.08h0l0,0,.12.18,0,.06a.93.93,0,0,0,0,.1s0,0,0,0l0,0s0,.08,0,.13l0,.07A1.26,1.26,0,0,1,157.05,66.23Z"/><path class="cls-18" d="M154.38,67.37c-.2.53-.55,1.74.53,2.12l.5.19a.64.64,0,0,1-.1.13l0,0,0,0,0,0-.13,0c-.37,0-.73-.66-1.13-.57l-.17,0-.35.19c-.13-.12-.26-.24-.38-.33h0a3.45,3.45,0,0,0-.46-.9,1.19,1.19,0,0,0-.33-.34.58.58,0,0,0,.23-.34h0a1.57,1.57,0,0,0,0-.33v-.13h0c0-.2,0-.43,0-.67h0a2.82,2.82,0,0,1,.25-1.28,2.39,2.39,0,0,1,4-.08h0l0,0,.12.18,0,.06a.93.93,0,0,0,0,.1s0,0,0,0l0,0s0,.08,0,.13l0,.07a2.13,2.13,0,0,1-1.07.4A1.87,1.87,0,0,0,154.38,67.37Z"/><path class="cls-15" d="M156.6,66.94a.2.2,0,0,0-.18-.21.19.19,0,0,0-.21.18.2.2,0,0,0,.18.22A.21.21,0,0,0,156.6,66.94Z"/><path class="cls-15" d="M156.65,66.38c.09-.13-.17-.26-.39-.21a.53.53,0,0,0-.36.39c0,.07.08-.06.27-.19A.59.59,0,0,1,156.65,66.38Z"/><path class="cls-20" d="M151.92,67.73a2,2,0,0,0,.77-.14c.5-.14.72-.18.7-.41s-.48-.65-.09-1.12.69-.14.81.09,0,.46.07.61.46-.16.58-.4.15.08.59-.09a.78.78,0,0,0,.46-.67,1.33,1.33,0,0,0,1.45-.28c.64-.66.57-1,.43-.94s-.47.26-.46.12.14-.59-.06-.49-.43.29-.48.23.08-.5-.1-.5-.16.25-.8.24-1.28-.4-1.77-.42a1.54,1.54,0,0,0-1,.52.74.74,0,0,0-.63.11,2.38,2.38,0,0,0-.49,1.68c.07.61.34,1.32.16,1.59S151.83,67.7,151.92,67.73Z"/><path class="cls-21" d="M143.3,65.75a12.68,12.68,0,0,0-.38-1.28c-.1-.33-.21-.63-.27-.86l.29,0,.14.78Z"/><path class="cls-21" d="M144,70.52c-.2-.12-.38-.24-.55-.36a1.31,1.31,0,0,1-.57-.85,1.34,1.34,0,0,1,.1-.85,3.89,3.89,0,0,0,.44-1.83.45.45,0,0,0,0,.08h0A36.81,36.81,0,0,1,144,70.52Z"/><path class="cls-22" d="M132.58,70.86c0,.14-.05.28-.07.43l-.13-.06c.07-.18.13-.31.15-.36S132.55,70.86,132.58,70.86Z"/><path class="cls-22" d="M143.47,66.71h0a3.46,3.46,0,0,1-.13,1c-.1.36-.24.94-.42,1.61a1.34,1.34,0,0,1,.1-.85,3.89,3.89,0,0,0,.44-1.83l-.16-.88a12.68,12.68,0,0,0-.38-1.28c-.1-.33-.21-.63-.27-.86h0a1.41,1.41,0,0,1-.07-.28,2.14,2.14,0,0,1,.36.31s.1.3.22.75a10.67,10.67,0,0,1,.3,1.85.41.41,0,0,1,0,.11C143.47,66.47,143.48,66.59,143.47,66.71Z"/><path class="cls-19" d="M143.47,66.71h0a3.46,3.46,0,0,1-.13,1c-.1.36-.24.94-.42,1.61a1.34,1.34,0,0,1,.1-.85,3.89,3.89,0,0,0,.44-1.83l-.16-.88a12.68,12.68,0,0,0-.38-1.28l.16,0,.08,0a10.67,10.67,0,0,1,.3,1.85.41.41,0,0,1,0,.11C143.47,66.47,143.48,66.59,143.47,66.71Z"/><path class="cls-23" d="M151.93,68.14l-.26.1a4.82,4.82,0,0,0,.21.47h-.21l-.11,0h0l-.08,0-.23.08a1.37,1.37,0,0,0-.83,1.16,1.55,1.55,0,0,0,.13.76l.4.86.31.64a5,5,0,0,1-.89.15h0a9.38,9.38,0,0,1-2.73-.2A12.43,12.43,0,0,1,144,70.52c-.2-.12-.38-.24-.55-.36a1.31,1.31,0,0,1-.57-.85,1.34,1.34,0,0,1,.1-.85,3.89,3.89,0,0,0,.44-1.83,5.14,5.14,0,0,0-.16-.88,12.68,12.68,0,0,0-.38-1.28c-.1-.33-.21-.63-.27-.86h0a1.41,1.41,0,0,1-.07-.28c0-.09,0-.13,0-.13a.46.46,0,0,1,.16.06l0,0,.17.09.1.05.76.44.21.12.19.12.31.19.2.12.22.13h0c.71.44,1.48.93,2.18,1.39.41.28.79.54,1.12.78a5.55,5.55,0,0,0,3.17,1,1.66,1.66,0,0,1,.32,0l0,0h0a.62.62,0,0,1,.19.07.82.82,0,0,1,.2.12A.94.94,0,0,1,151.93,68.14Z"/><path class="cls-23" d="M153.16,69.87l-.07-.11.06,0v0A.28.28,0,0,1,153.16,69.87Z"/><path class="cls-24" d="M151.23,72.24a5,5,0,0,1-.89.15h0a9.38,9.38,0,0,1-2.73-.2A12.43,12.43,0,0,1,144,70.52c-.2-.12-.38-.24-.55-.36a1.31,1.31,0,0,1-.57-.85,1.34,1.34,0,0,1,.1-.85,3.89,3.89,0,0,0,.44-1.83,5.14,5.14,0,0,0-.16-.88,12.68,12.68,0,0,0-.38-1.28c-.1-.33-.21-.63-.27-.86h0a1.41,1.41,0,0,1-.07-.28c0-.09,0-.13,0-.13a.46.46,0,0,1,.16.06l0,0,.17.09.1.05.76.44.21.12.19.12.31.19.2.12.22.13c0,.15,0,.32-.05.51s0,.13,0,.2v0A7.61,7.61,0,0,0,145,68a2.8,2.8,0,0,0,1.33,1.34,6.75,6.75,0,0,0,1.12.52,5.47,5.47,0,0,0,1.81.33,6,6,0,0,0,1.12-.16,1.55,1.55,0,0,0,.13.76l.4.86Z"/><path class="cls-24" d="M153.16,69.87l-.07-.11.06,0v0A.28.28,0,0,1,153.16,69.87Z"/><path class="cls-12" d="M159.24,70.07a.5.5,0,0,1-.22.16,5.28,5.28,0,0,1-.85.26,1.28,1.28,0,0,0-.4.15,4.45,4.45,0,0,0-.6,1.51c-.06.21-.18.58-.35,1a7.74,7.74,0,0,1-1,1.91c-.41.54-.9.87-1.42.67a4.43,4.43,0,0,1-2-2.1h.07a2.14,2.14,0,0,0,.42-.15c.16-.07.33-.16.49-.25l.32-.21.25-.16a3.55,3.55,0,0,0,.21.44c.16.29.34.52.49.5s.48-.48.78-1.06a22,22,0,0,0,1-2.22,11.25,11.25,0,0,0,.27-1.24,4.22,4.22,0,0,0,.06-1,.42.42,0,0,1,0-.18,3.42,3.42,0,0,0,.11-.34c.09-.33.23-.77.36-.77a.11.11,0,0,1,.08,0,.45.45,0,0,1,.21.62.41.41,0,0,1-.05.09h0c-.13.28-.17.63,0,.67h0a2,2,0,0,0,.46-.06c.29-.06.62-.15.72-.15a.37.37,0,0,1,.25.05.27.27,0,0,1,.08.07s0,0,0,0a.17.17,0,0,1,0,.18.34.34,0,0,0-.07.16h0a.06.06,0,0,0,0,.07h0s0,0,.07,0l.1.07a.08.08,0,0,0,0,0,.27.27,0,0,1,0,.23h0a1.23,1.23,0,0,0-.1.2h0l0,0a.17.17,0,0,0,0,.1l0,0h0a.53.53,0,0,0,.1.12l0,0C159.24,69.81,159.33,69.91,159.24,70.07Z"/><path class="cls-15" d="M151.28,72.33a4.31,4.31,0,0,1-.94.06h0a4.1,4.1,0,0,1-2.74-1.23,5.77,5.77,0,0,1-1.25-1.87,5.63,5.63,0,0,1-.42-1.56,4.54,4.54,0,0,1,0-.66l.79.45s0,.16.07.42a5.66,5.66,0,0,0,.72,1.87A3.37,3.37,0,0,0,149,71.15a4.52,4.52,0,0,0,1.91.45l.31.64Z"/><path class="cls-15" d="M153.16,69.87l-.07-.11.06,0v0A.28.28,0,0,1,153.16,69.87Z"/><path class="cls-15" d="M153.79,70l-.39-.42c-.13-.12-.26-.24-.38-.33h0a3.45,3.45,0,0,0-.46-.9,1.19,1.19,0,0,0-.33-.34.94.94,0,0,1-.3.15l-.19-.19h0l.08-.16a.8.8,0,0,1,.09-.14h0a1.1,1.1,0,0,1,.21-.22.44.44,0,0,1,.31-.11h0a.82.82,0,0,1,.34.24,4.29,4.29,0,0,1,.93,1.83c0,.1,0,.2,0,.29A1.71,1.71,0,0,1,153.79,70Z"/><path class="cls-1" d="M153.79,70l-.39-.42c-.13-.12-.26-.24-.38-.33h0a3.45,3.45,0,0,0-.46-.9,1.19,1.19,0,0,0-.33-.34.94.94,0,0,1-.3.15l-.26.1a4.82,4.82,0,0,0,.21.47h-.21l-.11,0h0l-.08,0-.23.08a1.37,1.37,0,0,0-.83,1.16,1.55,1.55,0,0,0,.13.76l.4.86.31.64.05.09a7.27,7.27,0,0,0,.7,1.29l.1,0h.39a2.14,2.14,0,0,0,.42-.15c.16-.07.33-.16.49-.25l.32-.21.25-.16a3.55,3.55,0,0,0,.21.44,6.74,6.74,0,0,0,1-.94l.25-.28A23.19,23.19,0,0,0,153.79,70Zm-.7-.23.06,0v0a.28.28,0,0,1,0,.09Z"/><path class="cls-15" d="M148.8,67.52a6.35,6.35,0,0,0,2.94.43,1.61,1.61,0,0,0,.08-1.61c-.14-.4-.56-.19-1.42-.66s-1.35-1.83-2.19-2.58-2.28-1.78-3.25-1.47-1.35,2.28-1,2.88S147.31,66.9,148.8,67.52Z"/><polygon class="cls-16" points="147.32 66.57 144.8 64.98 145.82 67.71 147.02 68.02 147.32 66.57"/><path class="cls-16" d="M152.48,66.79c-.1-1.12,0-1.23-1-1.7s-1.56-.72-1.78-1.3-1-.81-1.09-.17a2.43,2.43,0,0,0,1.46,2.22c1,.41,1.58.31,1.69.72a4.81,4.81,0,0,1-.06,1.39S152.58,67.91,152.48,66.79Z"/><path class="cls-16" d="M147.33,66c.43,0,.83-1.49.64-2.06s-2-1.53-2.63-1.11c0,0-.7,1-.34,1.82A3.28,3.28,0,0,0,147.33,66Z"/><path class="cls-1" d="M30.71,139.89l-.42.17-.35.12-.3.06-.28,0a.74.74,0,0,1-.31-.07.58.58,0,0,1-.22-.22,1.22,1.22,0,0,1-.14-.41,3.57,3.57,0,0,1,0-.62v-1.26c0-.19,0-.39,0-.59s0-.39,0-.57,0-.36,0-.52,0-.3,0-.41l0-.73.06-.72h0a3.32,3.32,0,0,1-.12.32l-.19.44q-.28.6-.57,1.26l-.58,1.33-.59,1.37c-.2.47-.39.93-.59,1.39H26c0-.14-.1-.31-.16-.51s-.13-.4-.21-.62-.15-.46-.24-.71-.17-.51-.26-.76l-.26-.77-.26-.73-.23-.67c-.08-.21-.14-.39-.2-.56s-.13-.35-.18-.5-.09-.27-.12-.39h0a1.21,1.21,0,0,0,0,.19v.71c0,.34,0,.67,0,1s0,.69,0,1,0,.66-.06,1-.05.61-.07.87,0,.41-.06.56,0,.28-.06.39a1,1,0,0,1-.08.24.33.33,0,0,1-.12.14.38.38,0,0,1-.17.06h-.5l0,0a3.74,3.74,0,0,0,.26-.67,6.23,6.23,0,0,0,.2-.8q.09-.42.15-.87c.05-.3.08-.6.11-.89s.05-.6.07-.89,0-.56,0-.82,0-.51,0-.73,0-.41,0-.58a1.84,1.84,0,0,0,0-.26.45.45,0,0,0-.08-.17.36.36,0,0,0-.15-.08.9.9,0,0,0-.25,0h-.23l-.3,0,0-.28.95-.19a4,4,0,0,1,.59-.07l.19,0,.14.07a.69.69,0,0,1,.11.13,1.29,1.29,0,0,1,.09.2c.11.31.23.64.35,1s.25.7.38,1.07.26.72.38,1.09l.38,1.06c0,.13.08.26.12.37s.08.21.11.31l.09.27.08.26h0c0-.09.07-.18.11-.26s.07-.18.11-.27.08-.2.13-.3.1-.23.16-.36c.14-.34.29-.68.45-1l.49-1.11.5-1.14c.17-.39.35-.77.52-1.16a.28.28,0,0,1,.08-.11l.1-.06a.27.27,0,0,1,.12,0h.12l.2,0,.21.07c0,.34-.06.67-.09,1s0,.62-.06.92,0,.59,0,.88l0,.87c0,.3,0,.6,0,.9s0,.63,0,1a4.39,4.39,0,0,0,0,.56,1.23,1.23,0,0,0,.1.39.44.44,0,0,0,.19.21.56.56,0,0,0,.3.07h.25l.15,0,.18-.05Z"/><path class="cls-1" d="M36,138.32a3.55,3.55,0,0,1,.06-.64,3.3,3.3,0,0,1,.2-.63,2.68,2.68,0,0,1,.32-.57A2.15,2.15,0,0,1,37,136a2.2,2.2,0,0,1,.56-.32,2,2,0,0,1,.66-.11,1.41,1.41,0,0,1,.71.17,1.66,1.66,0,0,1,.51.44,2.08,2.08,0,0,1,.32.63,2.58,2.58,0,0,1,.11.73,2.85,2.85,0,0,1-.07.64,2.7,2.7,0,0,1-.19.63,2.88,2.88,0,0,1-.32.57,2.19,2.19,0,0,1-.44.47,1.89,1.89,0,0,1-.55.32,1.76,1.76,0,0,1-.66.11,1.49,1.49,0,0,1-.71-.16,1.75,1.75,0,0,1-.52-.45,2.06,2.06,0,0,1-.31-.63A2.27,2.27,0,0,1,36,138.32Zm.75-.29a3.22,3.22,0,0,0,0,.43,2.86,2.86,0,0,0,.1.42,3.34,3.34,0,0,0,.17.38,1.5,1.5,0,0,0,.24.31,1.11,1.11,0,0,0,.32.21.92.92,0,0,0,.38.07.74.74,0,0,0,.4-.1.83.83,0,0,0,.3-.26,1.23,1.23,0,0,0,.21-.37,3.59,3.59,0,0,0,.14-.43c0-.15.05-.3.07-.45s0-.28,0-.4A2.33,2.33,0,0,0,39,137a1.56,1.56,0,0,0-.17-.37,1.23,1.23,0,0,0-.24-.31,1.06,1.06,0,0,0-.31-.21,1,1,0,0,0-.39-.07.77.77,0,0,0-.4.1,1,1,0,0,0-.3.26,1.63,1.63,0,0,0-.21.37,3.06,3.06,0,0,0-.13.43,2.36,2.36,0,0,0-.07.44A3,3,0,0,0,36.76,138Z"/><path class="cls-1" d="M45.33,136l.42-.14.38-.11a2.6,2.6,0,0,1,.31-.07l.2,0a.4.4,0,0,1,.29.11.56.56,0,0,1,.1.37s0,.13,0,.27,0,.31,0,.51,0,.45-.06.71-.05.55-.08.85h0a8.9,8.9,0,0,1,.47-1.34,4.26,4.26,0,0,1,.5-.87,1.7,1.7,0,0,1,.52-.47,1,1,0,0,1,.5-.15.62.62,0,0,1,.37.11.81.81,0,0,1,.24.28,1.3,1.3,0,0,1,.14.39,2.2,2.2,0,0,1,0,.44c0,.14,0,.27,0,.42a3.25,3.25,0,0,1,0,.44c0,.14,0,.28,0,.4s0,.24,0,.34h0a9.15,9.15,0,0,1,.46-1.35,4.56,4.56,0,0,1,.51-.88,1.7,1.7,0,0,1,.52-.47,1,1,0,0,1,.51-.15.82.82,0,0,1,.3.07.64.64,0,0,1,.26.21,1,1,0,0,1,.18.37,1.86,1.86,0,0,1,.07.56c0,.06,0,.14,0,.25s0,.22,0,.35,0,.26,0,.41,0,.29,0,.43,0,.27,0,.4,0,.23,0,.32a2.24,2.24,0,0,0,0,.4.64.64,0,0,0,.06.24.33.33,0,0,0,.13.13.5.5,0,0,0,.19,0,1.4,1.4,0,0,0,.34-.05l.35-.12.06.16a2.67,2.67,0,0,1-.28.19l-.37.17a2.65,2.65,0,0,1-.37.12,1.12,1.12,0,0,1-.34,0,.36.36,0,0,1-.26-.09.56.56,0,0,1-.15-.25,1.68,1.68,0,0,1-.06-.36c0-.14,0-.29,0-.45s0-.4,0-.61,0-.42,0-.61,0-.37,0-.52,0-.28,0-.36a.92.92,0,0,0-.12-.51.39.39,0,0,0-.33-.17.54.54,0,0,0-.34.15,2.24,2.24,0,0,0-.36.42,4.57,4.57,0,0,0-.35.63,7.05,7.05,0,0,0-.3.78,8.28,8.28,0,0,0-.23.89,7.4,7.4,0,0,0-.12.93l-.65.08h0c0-.43,0-.82.06-1.16s0-.64.05-.89,0-.47,0-.64,0-.32,0-.44a1,1,0,0,0-.12-.53.38.38,0,0,0-.31-.17.6.6,0,0,0-.35.14,2,2,0,0,0-.36.42,3.91,3.91,0,0,0-.35.62,5.84,5.84,0,0,0-.29.77,7.54,7.54,0,0,0-.23.88,5.9,5.9,0,0,0-.11.93l-.66.08h-.05c0-.19,0-.41.05-.64s0-.48,0-.72l0-.72q0-.35,0-.66c0-.2,0-.39,0-.55s0-.29,0-.39a1.15,1.15,0,0,0,0-.21.26.26,0,0,0-.06-.14.25.25,0,0,0-.1-.08l-.14,0-.27,0-.36.09Z"/><path class="cls-1" d="M62,139.15l.05,0,0,0,.05,0a.09.09,0,0,1,0,.05v0a2.25,2.25,0,0,1-.37.43,2.73,2.73,0,0,1-.42.3,2.11,2.11,0,0,1-.45.18,1.65,1.65,0,0,1-.44,0,1.57,1.57,0,0,1-1.23-.57,1.88,1.88,0,0,1-.35-.62,2.19,2.19,0,0,1-.13-.77,3,3,0,0,1,.08-.67A2.67,2.67,0,0,1,59,137a3.3,3.3,0,0,1,.34-.57,2.4,2.4,0,0,1,.45-.45,1.94,1.94,0,0,1,.57-.3,1.74,1.74,0,0,1,.65-.11,1.56,1.56,0,0,1,.44.06,1.06,1.06,0,0,1,.37.18.78.78,0,0,1,.25.29.71.71,0,0,1,.1.39.83.83,0,0,1-.21.56,1.61,1.61,0,0,1-.58.4,4.16,4.16,0,0,1-.86.27,8.36,8.36,0,0,1-1.07.15V138a2.43,2.43,0,0,0,.1.73,1.9,1.9,0,0,0,.28.57,1.3,1.3,0,0,0,.42.36,1,1,0,0,0,.52.14,1.41,1.41,0,0,0,.58-.14A2.19,2.19,0,0,0,62,139.15Zm-.59-2.51a.76.76,0,0,0,0-.27.8.8,0,0,0-.13-.22A.6.6,0,0,0,61,136a.55.55,0,0,0-.26-.06,1.16,1.16,0,0,0-.37.07,1,1,0,0,0-.29.2,1.37,1.37,0,0,0-.24.29,2.85,2.85,0,0,0-.17.35c0,.12-.08.25-.11.38a2.5,2.5,0,0,0-.06.38,5.57,5.57,0,0,0,.79-.11,2.48,2.48,0,0,0,.6-.2,1,1,0,0,0,.37-.29A.58.58,0,0,0,61.39,136.64Z"/><path class="cls-1" d="M68.48,136.52a1.15,1.15,0,0,0,0-.21.26.26,0,0,0-.06-.14.25.25,0,0,0-.1-.08l-.14,0-.27,0-.36.09,0-.23.42-.14.38-.11a2.6,2.6,0,0,1,.31-.07l.2,0a.4.4,0,0,1,.29.11.56.56,0,0,1,.1.37,1.14,1.14,0,0,1,0,.15c0,.07,0,.17,0,.29s0,.25,0,.4,0,.31,0,.48,0,.35,0,.53l-.06.55h0a8.93,8.93,0,0,1,.51-1.36,4.53,4.53,0,0,1,.56-.9,1.94,1.94,0,0,1,.56-.5,1,1,0,0,1,.53-.16,1,1,0,0,1,.34.07.72.72,0,0,1,.29.21,1.18,1.18,0,0,1,.2.37,1.77,1.77,0,0,1,.08.55c0,.06,0,.15,0,.25s0,.23,0,.35,0,.27,0,.42l0,.42c0,.14,0,.28,0,.4s0,.24,0,.33a3.9,3.9,0,0,0,0,.4.49.49,0,0,0,.07.24.3.3,0,0,0,.12.13.54.54,0,0,0,.19,0,1.4,1.4,0,0,0,.34-.05,2.06,2.06,0,0,0,.35-.12l.06.16a2.67,2.67,0,0,1-.28.19l-.36.17a2.78,2.78,0,0,1-.38.12,1.1,1.1,0,0,1-.33,0,.4.4,0,0,1-.27-.09.55.55,0,0,1-.14-.25,1.21,1.21,0,0,1-.07-.36c0-.14,0-.29,0-.45s0-.4,0-.61,0-.4,0-.59,0-.36,0-.51,0-.28,0-.37a.85.85,0,0,0-.14-.54.43.43,0,0,0-.36-.18.64.64,0,0,0-.39.16,2.33,2.33,0,0,0-.4.42,4.56,4.56,0,0,0-.38.63,7.21,7.21,0,0,0-.33.79,6.11,6.11,0,0,0-.24.89,4.94,4.94,0,0,0-.12.93l-.66.08h0c0-.19,0-.41,0-.64s0-.48,0-.72l0-.72q0-.35,0-.66c0-.2,0-.39,0-.55S68.48,136.62,68.48,136.52Z"/><path class="cls-1" d="M80.14,133.35c-.09.4-.16.81-.22,1.23s-.11.84-.15,1.25h.93a3.09,3.09,0,0,0,.47,0s0,.07,0,.09a.28.28,0,0,1,0,.09.16.16,0,0,1-.11.17,1,1,0,0,1-.34.05l-.46,0-.56-.05c0,.23,0,.45,0,.66s0,.41,0,.6,0,.36,0,.52,0,.3,0,.42a3.7,3.7,0,0,0,0,.6,1.34,1.34,0,0,0,.12.44.61.61,0,0,0,.24.28.67.67,0,0,0,.39.1,1.42,1.42,0,0,0,.38-.06,3.08,3.08,0,0,0,.47-.19.35.35,0,0,1,.1.21L81,140l-.39.18-.37.12a2.09,2.09,0,0,1-.34,0,.92.92,0,0,1-.38-.08.72.72,0,0,1-.31-.27,1.55,1.55,0,0,1-.19-.53,3.93,3.93,0,0,1-.07-.84c0-.19,0-.38,0-.59s0-.4,0-.61,0-.41,0-.62l.06-.61-.46,0a1.68,1.68,0,0,0-.36.06.09.09,0,0,1,0-.05.17.17,0,0,1,.06-.12.61.61,0,0,1,.18-.11l.28-.08.35,0c0-.44.1-.85.15-1.24s.11-.73.16-1a.26.26,0,0,1,.06-.13.43.43,0,0,1,.1-.09l.12,0h.13a.58.58,0,0,1,.19,0Z"/><path class="cls-1" d="M97.72,132.76a3.7,3.7,0,0,1,.76.07,2.83,2.83,0,0,1,.6.19,1.62,1.62,0,0,1,.4.23c.09.09.14.16.14.23s0,.33,0,.56,0,.51,0,.83h-.28a.28.28,0,0,0,0-.09v-.08a1.84,1.84,0,0,0,0-.41,1.14,1.14,0,0,0-.16-.38,1.77,1.77,0,0,0-.3-.31,2.2,2.2,0,0,0-.38-.24,2.25,2.25,0,0,0-.44-.14,2.61,2.61,0,0,0-.48-.05,2.34,2.34,0,0,0-.77.13,2.18,2.18,0,0,0-.61.36,2.79,2.79,0,0,0-.47.55,3.89,3.89,0,0,0-.33.68,4.94,4.94,0,0,0-.19.78,5.66,5.66,0,0,0-.06.82,4.6,4.6,0,0,0,.08.93,3.74,3.74,0,0,0,.23.8,3,3,0,0,0,.36.66,2,2,0,0,0,.48.49,2,2,0,0,0,.57.31,2,2,0,0,0,.65.11,2.72,2.72,0,0,0,.49,0,3.33,3.33,0,0,0,.51-.16,3.47,3.47,0,0,0,.53-.29,3.79,3.79,0,0,0,.53-.41l.06,0,.06,0,0,0a.14.14,0,0,1,0,.06.09.09,0,0,1,0,.05,4.06,4.06,0,0,1-.62.57,4.13,4.13,0,0,1-.63.37,3,3,0,0,1-.64.2,3.39,3.39,0,0,1-.64.06,2.63,2.63,0,0,1-.8-.12,3,3,0,0,1-.72-.33,3,3,0,0,1-.59-.54,3.14,3.14,0,0,1-.46-.7,4.15,4.15,0,0,1-.29-.84,5,5,0,0,1-.1-1,5.54,5.54,0,0,1,.1-1,4.47,4.47,0,0,1,.3-.94,3.93,3.93,0,0,1,.49-.84,3,3,0,0,1,.69-.68,3,3,0,0,1,.89-.46A3.42,3.42,0,0,1,97.72,132.76Z"/><path class="cls-1" d="M108.1,136.9a.93.93,0,0,0-.08-.42.74.74,0,0,0-.21-.3.75.75,0,0,0-.3-.17,1,1,0,0,0-.33-.06,1.4,1.4,0,0,0-.38.05.83.83,0,0,0-.25.12.44.44,0,0,0-.13.2.6.6,0,0,0,0,.24.8.8,0,0,0,.06.3,1.46,1.46,0,0,0,.16.3v0a.8.8,0,0,1-.36.09.45.45,0,0,1-.2,0,.44.44,0,0,1-.27-.24.65.65,0,0,1,0-.21.73.73,0,0,1,.09-.35,1.28,1.28,0,0,1,.24-.29,1.72,1.72,0,0,1,.34-.24,1.59,1.59,0,0,1,.4-.18,3.31,3.31,0,0,1,.42-.12,2.73,2.73,0,0,1,.38,0,1.62,1.62,0,0,1,.57.09.92.92,0,0,1,.38.26,1.17,1.17,0,0,1,.21.4,2.21,2.21,0,0,1,.07.54c0,.14,0,.29,0,.46s0,.33,0,.51,0,.37,0,.56,0,.39,0,.58a1.12,1.12,0,0,0,.17.67.5.5,0,0,0,.44.23,1.08,1.08,0,0,0,.54-.18l.09.14a1.59,1.59,0,0,1-.46.32,1.31,1.31,0,0,1-.52.11,1.11,1.11,0,0,1-.37-.07.81.81,0,0,1-.3-.21.86.86,0,0,1-.19-.34,1.43,1.43,0,0,1-.07-.48V139a1,1,0,0,1,0-.17h0a6,6,0,0,1-.31.53,3,3,0,0,1-.39.46,2.05,2.05,0,0,1-.45.34,1.11,1.11,0,0,1-.5.12,1,1,0,0,1-.4-.07.81.81,0,0,1-.3-.21.92.92,0,0,1-.2-.31,1,1,0,0,1-.07-.39,1.19,1.19,0,0,1,.1-.51,1.38,1.38,0,0,1,.28-.4,2,2,0,0,1,.43-.31,2.41,2.41,0,0,1,.55-.21,3.1,3.1,0,0,1,.62-.13,5,5,0,0,1,.67-.05c0-.13,0-.25,0-.38S108.1,137.05,108.1,136.9Zm-1.92,2.16a.85.85,0,0,0,0,.23.5.5,0,0,0,.08.2.47.47,0,0,0,.15.13.46.46,0,0,0,.21,0,.62.62,0,0,0,.29-.07,1.19,1.19,0,0,0,.3-.18,1.85,1.85,0,0,0,.28-.28,1.8,1.8,0,0,0,.24-.35,2.87,2.87,0,0,0,.18-.4A3.12,3.12,0,0,0,108,138l-.46,0a3.11,3.11,0,0,0-.44.08,1.71,1.71,0,0,0-.38.13,1.21,1.21,0,0,0-.3.2,1,1,0,0,0-.2.29A.89.89,0,0,0,106.18,139.06Z"/><path class="cls-1" d="M114.71,136l.6-.18.41-.1.27,0,.14,0,.15,0a.28.28,0,0,1,.12.08.53.53,0,0,1,.08.15,1.44,1.44,0,0,1,0,.24v.18c0,.09,0,.22,0,.38s0,.36,0,.6,0,.51,0,.83h0A7.25,7.25,0,0,1,117,137a5.22,5.22,0,0,1,.58-.79,2.46,2.46,0,0,1,.58-.48,1.14,1.14,0,0,1,.56-.16.72.72,0,0,1,.37.08.86.86,0,0,1,.29.21,1.38,1.38,0,0,1,.2.31,1.91,1.91,0,0,1,.13.36,2.53,2.53,0,0,1,.07.38,2.36,2.36,0,0,1,0,.37,4,4,0,0,1-.09.86,3.14,3.14,0,0,1-.26.73,2.58,2.58,0,0,1-.86,1,2,2,0,0,1-.54.28,1.88,1.88,0,0,1-.57.09,1.47,1.47,0,0,1-.59-.11,1.46,1.46,0,0,1-.55-.36c0,.53,0,1.07-.07,1.63s0,1.14,0,1.75l-.66.07h-.07q0-.59.09-1.23c0-.43,0-.86.08-1.29s0-.86.06-1.28,0-.81,0-1.18,0-.7,0-1,0-.55,0-.75a1.23,1.23,0,0,0,0-.2.33.33,0,0,0,0-.15.24.24,0,0,0-.11-.09.48.48,0,0,0-.18,0l-.28,0-.4.09Zm1.62,3.53a2.08,2.08,0,0,0,.53.33,1.48,1.48,0,0,0,.53.11,1.41,1.41,0,0,0,.65-.15,1.43,1.43,0,0,0,.51-.44,2.35,2.35,0,0,0,.34-.73,3.83,3.83,0,0,0,.12-1,2.25,2.25,0,0,0,0-.44,1.76,1.76,0,0,0-.1-.41,1.09,1.09,0,0,0-.18-.3.37.37,0,0,0-.28-.11.85.85,0,0,0-.38.09,1.84,1.84,0,0,0-.37.27,3.39,3.39,0,0,0-.34.39,5.6,5.6,0,0,0-.3.48,5.12,5.12,0,0,0-.27.52c-.08.18-.14.35-.2.52s-.11.33-.15.48S116.34,139.37,116.33,139.48Z"/><path class="cls-1" d="M127.26,133.35c-.09.4-.16.81-.22,1.23s-.11.84-.15,1.25h.93a2.86,2.86,0,0,0,.46,0l0,.09a.28.28,0,0,1,0,.09.16.16,0,0,1-.12.17.87.87,0,0,1-.33.05l-.46,0-.56-.05q0,.35-.06.66l0,.6c0,.18,0,.36,0,.52s0,.3,0,.42a5.47,5.47,0,0,0,0,.6,1.64,1.64,0,0,0,.13.44.61.61,0,0,0,.24.28.67.67,0,0,0,.39.1,1.29,1.29,0,0,0,.37-.06,2.78,2.78,0,0,0,.48-.19.35.35,0,0,1,.1.21c-.13.08-.26.16-.4.23l-.38.18-.37.12a2.23,2.23,0,0,1-.34,0,1,1,0,0,1-.39-.08.76.76,0,0,1-.3-.27,1.55,1.55,0,0,1-.19-.53,3.93,3.93,0,0,1-.07-.84V138l0-.61c0-.21,0-.41,0-.62l.06-.61-.46,0a1.68,1.68,0,0,0-.36.06.09.09,0,0,1,0-.05.17.17,0,0,1,.06-.12.5.5,0,0,1,.18-.11l.27-.08.35,0c0-.44.1-.85.16-1.24s.11-.73.16-1a.26.26,0,0,1,.06-.13.43.43,0,0,1,.1-.09l.12,0h.13a.5.5,0,0,1,.18,0A.76.76,0,0,1,127.26,133.35Z"/><path class="cls-1" d="M137.83,135.64c0,.19,0,.41-.05.63s0,.44,0,.66l0,.66c0,.21,0,.41,0,.59a4.63,4.63,0,0,0,.06.83,2,2,0,0,0,.15.51.65.65,0,0,0,.22.26.44.44,0,0,0,.24.07l.14,0,.14,0,.11-.06.09-.06.11.15a1.73,1.73,0,0,1-.21.17,1.28,1.28,0,0,1-.25.15,1.07,1.07,0,0,1-.27.09,1.26,1.26,0,0,1-.28,0,.85.85,0,0,1-.35-.08.64.64,0,0,1-.31-.24,1.18,1.18,0,0,1-.21-.45,2.44,2.44,0,0,1-.08-.71v-.27c0-.09,0-.18,0-.29s0-.21,0-.33,0-.24.05-.38h0a9,9,0,0,1-.47,1.32,4,4,0,0,1-.51.86,1.79,1.79,0,0,1-.52.46,1.12,1.12,0,0,1-.5.14.72.72,0,0,1-.47-.15,1.07,1.07,0,0,1-.3-.41,2.58,2.58,0,0,1-.16-.61,5.8,5.8,0,0,1,0-.74c0-.22,0-.44,0-.67s0-.46.05-.68,0-.44.08-.64.05-.38.08-.54a.3.3,0,0,1,.06-.14.3.3,0,0,1,.08-.08l.1,0h.11a.6.6,0,0,1,.2,0,.62.62,0,0,1,.19.07c0,.24-.08.47-.11.71s-.06.46-.08.68,0,.43-.06.63,0,.4,0,.58a4.17,4.17,0,0,0,0,.52,1.54,1.54,0,0,0,.1.41.64.64,0,0,0,.18.26.39.39,0,0,0,.26.09.77.77,0,0,0,.55-.29,3.22,3.22,0,0,0,.53-.83,7.82,7.82,0,0,0,.66-2.73l.66-.08Z"/><path class="cls-1" d="M144.7,140.21h0c0-.19,0-.41,0-.64s0-.48,0-.72l0-.72c0-.23,0-.45,0-.66s0-.39,0-.55v-.59a.58.58,0,0,0-.05-.14.18.18,0,0,0-.09-.08.4.4,0,0,0-.17,0h-.11l-.13,0-.15,0-.2.05,0-.23c.35-.12.63-.21.85-.26a2.54,2.54,0,0,1,.43-.08.35.35,0,0,1,.3.12.6.6,0,0,1,.09.36s0,.06,0,.13,0,.16,0,.28,0,.24,0,.39,0,.31,0,.49,0,.35-.05.54,0,.37,0,.55h0c.1-.41.22-.79.34-1.15a5.26,5.26,0,0,1,.43-.92,2.34,2.34,0,0,1,.52-.62,1,1,0,0,1,.62-.22.54.54,0,0,1,.22,0,.52.52,0,0,1,.18.1.61.61,0,0,1,.12.16.45.45,0,0,1,0,.2.62.62,0,0,1-.25.51h0a.93.93,0,0,0-.25-.16.74.74,0,0,0-.25,0,.87.87,0,0,0-.28,0,1.11,1.11,0,0,0-.24.16,1.52,1.52,0,0,0-.33.43,5.43,5.43,0,0,0-.28.59c-.08.22-.16.45-.23.68s-.12.48-.17.7-.09.44-.12.64,0,.37-.07.51Z"/><path class="cls-1" d="M156.19,139.15l.05,0,.06,0,0,0s0,0,0,.05v0a2.29,2.29,0,0,1-.38.43,2,2,0,0,1-.42.3,1.85,1.85,0,0,1-.44.18,1.7,1.7,0,0,1-.44,0,1.55,1.55,0,0,1-.69-.15,1.58,1.58,0,0,1-.54-.42,2.1,2.1,0,0,1-.36-.62,2.43,2.43,0,0,1-.12-.77,3,3,0,0,1,.07-.67,3.2,3.2,0,0,1,.21-.64,4.08,4.08,0,0,1,.34-.57A2.79,2.79,0,0,1,154,136a2,2,0,0,1,.56-.3,1.76,1.76,0,0,1,.66-.11,1.61,1.61,0,0,1,.44.06,1.16,1.16,0,0,1,.37.18.88.88,0,0,1,.25.29.8.8,0,0,1,.09.39.87.87,0,0,1-.2.56,1.7,1.7,0,0,1-.58.4,4.16,4.16,0,0,1-.86.27,8.28,8.28,0,0,1-1.08.15V138a2.43,2.43,0,0,0,.11.73,1.69,1.69,0,0,0,.28.57,1.3,1.3,0,0,0,.42.36,1,1,0,0,0,.52.14,1.36,1.36,0,0,0,.57-.14A2.19,2.19,0,0,0,156.19,139.15Zm-.58-2.51a.76.76,0,0,0-.05-.27.83.83,0,0,0-.14-.22.56.56,0,0,0-.2-.14A.58.58,0,0,0,155,136a1.06,1.06,0,0,0-.37.07,1.21,1.21,0,0,0-.3.2,1.34,1.34,0,0,0-.23.29,1.89,1.89,0,0,0-.17.35,2.38,2.38,0,0,0-.11.38c0,.13-.05.25-.07.38a5.52,5.52,0,0,0,.8-.11,2.63,2.63,0,0,0,.6-.2,1.11,1.11,0,0,0,.37-.29A.65.65,0,0,0,155.61,136.64Z"/><path class="cls-1" d="M162.58,140.21h-.05c0-.19,0-.41,0-.64s0-.48,0-.72,0-.48,0-.72,0-.45,0-.66,0-.39,0-.55v-.39a1.27,1.27,0,0,0,0-.2.33.33,0,0,0,0-.14.18.18,0,0,0-.09-.08.43.43,0,0,0-.17,0h-.11l-.13,0-.15,0-.2.05,0-.23c.35-.12.63-.21.84-.26a2.6,2.6,0,0,1,.44-.08.33.33,0,0,1,.29.12.6.6,0,0,1,.09.36v.13c0,.07,0,.16,0,.28s0,.24,0,.39,0,.31,0,.49,0,.35,0,.54,0,.37-.05.55h0a11.16,11.16,0,0,1,.34-1.15,5.26,5.26,0,0,1,.43-.92,2.17,2.17,0,0,1,.52-.62,1,1,0,0,1,.62-.22.54.54,0,0,1,.22,0,.52.52,0,0,1,.18.1.61.61,0,0,1,.12.16.45.45,0,0,1,0,.2.62.62,0,0,1-.25.51h0a.7.7,0,0,0-.25-.16.64.64,0,0,0-.24,0,.87.87,0,0,0-.28,0,.78.78,0,0,0-.24.16,1.52,1.52,0,0,0-.33.43,4,4,0,0,0-.28.59c-.09.22-.16.45-.23.68s-.13.48-.18.7-.08.44-.11.64-.06.37-.07.51Z"/></svg>