<?xml version="1.0"?>
<svg xmlns="http://www.w3.org/2000/svg" xmlns:xlink="http://www.w3.org/1999/xlink" xmlns:svgjs="http://svgjs.com/svgjs" version="1.1" width="30" height="30" x="0" y="0" viewBox="0 0 340.8 340.8" style="enable-background:new 0 0 30 30" xml:space="preserve" class=""><g>
<g xmlns="http://www.w3.org/2000/svg">
	<g>
		<path d="M170.4,0C76.4,0,0,76.4,0,170.4s76.4,170.4,170.4,170.4s170.4-76.4,170.4-170.4S264.4,0,170.4,0z M170.4,323.6    c-84.4,0-153.2-68.8-153.2-153.2S86,17.2,170.4,17.2S323.6,86,323.6,170.4S254.8,323.6,170.4,323.6z" fill="#5bba47" data-original="#000000" style="" class=""/>
	</g>
</g>
<g xmlns="http://www.w3.org/2000/svg">
	<g>
		<path d="M182.4,169.6l50-50c3.2-3.2,3.2-8.8,0-12c-3.2-3.2-8.8-3.2-12,0l-50,50l-50-50c-3.2-3.2-8.8-3.2-12,0    c-3.2,3.2-3.2,8.8,0,12l50,50l-50,49.6c-3.2,3.2-3.2,8.8,0,12c1.6,1.6,4,2.4,6,2.4s4.4-0.8,6-2.4l50-50l50,50c1.6,1.6,4,2.4,6,2.4    s4.4-0.8,6-2.4c3.2-3.2,3.2-8.8,0-12L182.4,169.6z" fill="#5bba47" data-original="#000000" style="" class=""/>
	</g>
</g>
<g xmlns="http://www.w3.org/2000/svg">
</g>
<g xmlns="http://www.w3.org/2000/svg">
</g>
<g xmlns="http://www.w3.org/2000/svg">
</g>
<g xmlns="http://www.w3.org/2000/svg">
</g>
<g xmlns="http://www.w3.org/2000/svg">
</g>
<g xmlns="http://www.w3.org/2000/svg">
</g>
<g xmlns="http://www.w3.org/2000/svg">
</g>
<g xmlns="http://www.w3.org/2000/svg">
</g>
<g xmlns="http://www.w3.org/2000/svg">
</g>
<g xmlns="http://www.w3.org/2000/svg">
</g>
<g xmlns="http://www.w3.org/2000/svg">
</g>
<g xmlns="http://www.w3.org/2000/svg">
</g>
<g xmlns="http://www.w3.org/2000/svg">
</g>
<g xmlns="http://www.w3.org/2000/svg">
</g>
<g xmlns="http://www.w3.org/2000/svg">
</g>
</g></svg>
