<?xml version="1.0"?>
<svg xmlns="http://www.w3.org/2000/svg" xmlns:xlink="http://www.w3.org/1999/xlink" xmlns:svgjs="http://svgjs.com/svgjs" version="1.1" width="30" height="30" x="0" y="0" viewBox="0 0 512 512" style="enable-background:new 0 0 30 30" xml:space="preserve" class=""><g><path xmlns="http://www.w3.org/2000/svg" d="m468 64h-424c-24.262 0-44 19.738-44 44v296c0 24.262 19.738 44 44 44h424c24.262 0 44-19.738 44-44v-296c0-24.262-19.738-44-44-44zm-4 336h-416v-288h416z" fill="#54744d" data-original="#000000" style="" class=""/><path xmlns="http://www.w3.org/2000/svg" d="m352 376h54c18.748 0 34-15.252 34-34v-54c0-13.255-10.745-24-24-24s-24 10.745-24 24v40h-40c-13.255 0-24 10.745-24 24s10.745 24 24 24z" fill="#54744d" data-original="#000000" style="" class=""/><path xmlns="http://www.w3.org/2000/svg" d="m96 248c13.255 0 24-10.745 24-24v-40h40c13.255 0 24-10.745 24-24s-10.745-24-24-24h-54c-18.748 0-34 15.252-34 34v54c0 13.255 10.745 24 24 24z" fill="#54744d" data-original="#000000" style="" class=""/></g></svg>
