<?xml version="1.0" encoding="iso-8859-1"?>
<!-- Generator: Adobe Illustrator 19.0.0, SVG Export Plug-In . SVG Version: 6.00 Build 0)  -->
<svg version="1.1" id="Capa_1" xmlns="http://www.w3.org/2000/svg" xmlns:xlink="http://www.w3.org/1999/xlink" x="0px" y="0px"
	 viewBox="0 0 468.317 468.317" style="enable-background:new 0 0 468.317 468.317;" xml:space="preserve">
<rect x="23.221" y="114.919" style="fill:#D4D5DB;" width="421.838" height="252.716"/>
<polygon style="fill:#E0E5E8;" points="468.29,390.256 0,390.256 234.145,226.314 "/>
<g>
	<path style="fill:#E56354;" d="M468.317,89.419v289.457c0,6.304-5.619,11.358-12.488,11.358h-33.967V78.061h33.967
		c3.372,0,6.369,1.249,8.617,3.181C466.819,83.285,468.317,86.238,468.317,89.419z"/>
	<path style="fill:#E56354;" d="M464.446,81.242l-42.583,35.494L247.408,261.89c-7.305,6.645-19.169,6.645-26.474,0L46.417,116.678
		L3.833,81.242c2.311-1.931,5.308-3.181,8.679-3.181h443.317C459.201,78.061,462.198,79.31,464.446,81.242z"/>
</g>
<path style="fill:#EBEFF2;" d="M50.413,78.084h367.463L247.608,221.123c-7.362,6.921-19.563,6.921-26.925,0L50.413,78.084z"/>
<path style="fill:#E56354;" d="M46.417,78.061v312.173H12.512c-6.931,0-12.488-5.054-12.488-11.358V89.419
	c0-3.181,1.436-6.134,3.809-8.177c2.311-1.931,5.308-3.181,8.679-3.181H46.417z"/>
<g>
</g>
<g>
</g>
<g>
</g>
<g>
</g>
<g>
</g>
<g>
</g>
<g>
</g>
<g>
</g>
<g>
</g>
<g>
</g>
<g>
</g>
<g>
</g>
<g>
</g>
<g>
</g>
<g>
</g>
</svg>
