<svg width="270" height="43" viewBox="0 0 270 43" fill="none" xmlns="https://vecta.io/nano"><path fill-rule="evenodd" d="M28.062 33.978l.082.008c.39.031.639-.008.748-.117l.021-.032c.122-.178.274-.249.454-.213a.61.61 0 0 1 .093.026c.007.002.014.003.022.003.1 0 .273-.146.519-.437l.18-.224a2.05 2.05 0 0 0 .17-.259c.27-.483.453-1.2.551-2.152l.001-.175.13-2.543c.058-.575.153-1.062.285-1.461.062-.192.142-.378.239-.555l.001-.145.052-.96a7.7 7.7 0 0 1 .144-.911l.357-1.66.146-.707.02-.065.307-1.044.329-1.17.656-2.498.028-.111.31-1.349.099-.513 1.093-3.77.443-1.89.322-1.595c.189-1.037.27-1.761.24-2.17l-.003-.039a3.35 3.35 0 0 0-.915-2.108 4.43 4.43 0 0 0-.602-.535 3.24 3.24 0 0 0-1.211-.561l-.144-.027c-.592-.093-1.09.077-1.495.509l-.033.038c-.486.553-1.029 1.329-1.627 2.329L28.15 7.963l-.025.046-2.818 4.972-.784 1.36-.888 1.522-.807 1.358-.862 1.416-.639 1.027-.579.915-.617.951-.748 1.113-.716 1.013-.034.053-.534.824-.027.044-.454.657c-.052.07-.117.136-.194.201a1.77 1.77 0 0 1-.177.128c-.131.084-.238.124-.321.119-.017-.001-.034-.004-.051-.01-.015-.015-.028-.03-.04-.047-.115-.16-.152-.451-.113-.873l.003-.031c.045-.463.138-1.059.281-1.788l.149-.735.419-1.873.366-1.561.399-1.704.204-.899.561-2.848.35-1.622.35-1.95.096-.588.122-1.099c.175-1.023.124-1.848-.153-2.477-.16-.363-.327-.685-.502-.965a4.71 4.71 0 0 0-.394-.547 5.15 5.15 0 0 0-.43-.355c-.201-.15-.415-.28-.641-.39-.364-.175-.663-.263-.896-.263a.71.71 0 0 0-.283.065c-.174.076-.361.219-.561.43l-.27.316-.183.244c-.36.497-.714 1.095-1.063 1.794a5.65 5.65 0 0 0-.299.645l-.116.297c-.108.285-.225.507-.352.666a.99.99 0 0 1-.194.188l-.148.189c-.328.448-.818 1.269-1.469 2.462l-.576 1.052-2.483 4.493-1.224 2.213-1.311 2.236-.961 1.6-.357.705-.582 1.092-.562.942-.115.154c-.029.204-.087.424-.175.657a2.85 2.85 0 0 1-.35.657l-.018.025-.455.665-.183.274c-.35.526-.714 1.169-1.093 1.929l-.057.116c-.203.423-.352.816-.446 1.177-.036.137-.065.277-.086.417-.022.152-.033.298-.033.437l.01.219c.029.321.073.628.131.921l.208.472c.157.318.351.615.579.887.32.38.699.584 1.136.614l.025-.027c.059-.065.145-.181.259-.345l.612-.964.832-1.389.37-.628.171-.292 1.839-3.28 3.016-5.567 1.989-4.12.285-.569 1.572-3.025 1.136-2.016.084-.132c.163-.252.273-.379.332-.379.008 0 .015.002.021.007.05.085.042.377-.013.892l-.031.27-.052.176-.257.871-.15.508-.435 1.552-.286 1.078-.098.38-.667 2.754-.355 1.578-.322 1.49-.11.601-.286 2.082-.041.868c-.001.25.011.5.035.75.023.231.058.445.105.64a2.99 2.99 0 0 0 .21.605l.293.539c.188.309.397.605.625.885a5.02 5.02 0 0 0 .549.401c.443.276.858.414 1.243.414a1.53 1.53 0 0 0 .459-.069c.471-.147 1.037-.452 1.696-.916l.817-.618.175-.144 1.202-1.106.187-.188.971-1.061.068-.081a4.17 4.17 0 0 0 .434-.603c.026-.047.049-.097.066-.148l.306-.416.088-.119.633-.823.186-.239.491-.681c.35-.438.656-.891.918-1.359l.235-.436c.144-.282.255-.531.333-.747l.019-.045a2.71 2.71 0 0 1 .179-.328l.129-.197.157-.232.17-.258.22-.344 1.486-2.718.242-.473.686-1.325.645-1.226.14-.216.678-1.147.232-.478.296-.619a6.98 6.98 0 0 1 .359-.608l.54-.877.093-.174.153-.307.087-.175.032-.057c.024-.041.05-.08.078-.118l.039-.054c.026-.039.049-.079.07-.121l-.109.548-.059.285-.291 1.315-.447 1.85-.187.736-1.551 6.334-.726 2.942-.65 2.647-.055.226-.621 2.753-.198 1.053-.015 1.817.015.374a4.18 4.18 0 0 0 .057.499c.054.314.152.618.293.904l.065.089a1.38 1.38 0 0 0 .984.547h0zm112.799.679c-.437-.175-.947-.416-1.53-.723-.468-.249-.908-.548-1.312-.892l-.348-.313c-.525-.497-.933-1.096-1.224-1.797-.213-.614-.378-1.243-.496-1.882l-.094-.616-.089-1.014-.022-1.745.002-.09.058-1.817.182-1.649.088-.501a18.4 18.4 0 0 1 .701-2.568l.326-.873c.058-.088.167-.343.327-.767l.568-1.381.155-.351.348-.789.255-.515.68-1.243.136-.237 1.551-2.433.61-.899 1.532-2.191c.583-.804 1.143-1.483 1.682-2.038s1.137-1.096 1.792-1.622l.809-.622.781-.565.879-.609c.604-.44 1.369-.725 2.295-.854l.175-.023c.993-.115 1.964.033 2.915.445l.035.015a3.76 3.76 0 0 1 1.66 1.446 5.38 5.38 0 0 1 .481.942c.321.614.466 1.381.437 2.301-.019.54-.081 1.078-.187 1.609a12.91 12.91 0 0 1-.337 1.328c-.321 1.037-.729 2.009-1.224 2.915-.478.875-1.011 1.586-1.598 2.135l-.063.057c-.378.351-.881.409-1.507.175-.289-.106-.567-.237-.833-.391-.259-.149-.5-.327-.719-.529l-.405-.84a.16.16 0 0 1-.01-.037c-.013-.077.024-.131.112-.163.013-.005.027-.009.041-.012l.142-.181.357-.538.2-.333.601-1.076.273-.523.248-.502.364-.878.143-.745.283-1.429.055-.259c.013-.059.022-.119.028-.18.028-.314-.068-.582-.288-.804a.47.47 0 0 0-.247-.131c-.076-.015-.162-.016-.258-.004-.211.029-.551.166-1.02.412l-.051.026c-.23.103-.452.224-.664.362-.442.283-.927.671-1.455 1.163l-.263.25-1.541 1.663-1.19 1.515-2.343 3.249-.585.871a15.8 15.8 0 0 0-1.45 2.745l-.342.937-.218.496-.066.161-.197.482c.027.108-.007.356-.103.745l-.028.11-.158.548c-.074.226-.152.431-.235.614-.214.889-.373 1.791-.475 2.7l-.093 1.179-.019.67c-.006.965.081 1.823.259 2.574a6.82 6.82 0 0 0 .237.793c.098.265.21.501.335.708.114.195.253.376.411.537a1.65 1.65 0 0 0 .719.275c.221.031.462.027.724-.012.582-.088 1.252-.292 2.01-.614l2.447-1.052 1.36-.644.563-.32c.583-.351 1.02-.657 1.311-.92l.291-.2.361-.216.244-.132.327-.15c.229-.09.433-.135.613-.135.049-.017.099-.031.149-.042.267-.056.485.016.652.217.045.054.084.113.117.175.099.189.173.39.219.599.041.182.068.38.08.592l.007.256c0 .344-.205.749-.616 1.215l-.258.275a9.45 9.45 0 0 1-1.923 1.49 2.7 2.7 0 0 1-.367.304 3.95 3.95 0 0 1-.416.253l-.157.079c-.393.19-.794.358-1.202.504a10.68 10.68 0 0 1-.886.606l-1.014.567-.372.186a14.45 14.45 0 0 1-2.56.964l-.172.045c-.896.228-1.715.276-2.458.142l-.055-.011h0zm-80.24-4.69l-.437-.395a1.94 1.94 0 0 1-.316-.351c-.078-.111-.148-.228-.208-.35a1.82 1.82 0 0 1-.089-.207c-.068-.195-.084-.366-.048-.515l.006-.023 1.224-3.419.242-.531.464-1.094.015-.04c.131-.351.189-.57.175-.657-.003-.022-.012-.042-.026-.059-.037-.04-.108-.05-.214-.029-.175.029-.422.183-.743.46s-.539.504-.655.679c-.117 0-.27.117-.459.351l-.279.329-.267.285-.15.154-.547.59-.22.242-.677.74-.721.772-.446.439-.415.447-.45.516-.658.784-.577.7-.076.094-.19.23c-.239.281-.401.436-.483.466-.008.003-.017.005-.026.005a2.53 2.53 0 0 1-1.42-.526 2.52 2.52 0 0 1-.569-.593 2.24 2.24 0 0 1-.283-.591c-.039-.073-.068-.15-.087-.23-.071-.279-.074-.671-.011-1.177l.054-.368.785-3.931.046-.211.128-.468.199-.672.328-.964.165-.447.25-.649.202-.497.432-.993c.121-.341.182-.666.182-.977l-.007-.185-.022-.261-.056-.561-.01-.076c-.001-.159.02-.318.063-.471a1.28 1.28 0 0 1 .352-.581c.277-.263.59-.446.94-.548.292-.085.533-.115.724-.088.036.005.072.012.107.022a3.42 3.42 0 0 1 .626.123 2.09 2.09 0 0 1 .587.274c.183.125.336.289.448.48a3.97 3.97 0 0 1 .307.643 2.86 2.86 0 0 1 .174.803l.007.216a2.68 2.68 0 0 1-.069.619c-.028.119-.066.236-.113.349l-.104.253-.233.589-.013.035-.481 1.184-.204.47-.43.999c-.131.307-.204.511-.218.614l-.017.166-.004.119c.003.011.01.021.018.029s.02.012.032.014c.062.009.174-.047.337-.17l.265-.209.593-.519.486-.433.454-.378 1.241-.998.441-.338 1.304-.915.466-.29.517-.295c.357-.191.665-.326.926-.407a2.44 2.44 0 0 1 .981.416 3.25 3.25 0 0 1 .396.329l.32.331a2.97 2.97 0 0 1 .433.599l.056.122c.145.435.167.828.067 1.177l-.242.97-.025.099-.105.395-.044.163-.262.899-.131.416.262-.263.201-.194.498-.442.738-.582.136-.097 1.037-.757c.981-.682 1.793-1.138 2.438-1.368a2.21 2.21 0 0 1 .386-.101c.696-.114 1.303.175 1.822.868.35.322.575.76.677 1.315.097.53.148 1.233.153 2.109v.126l.049.603.06.668.066.58.109.647.04.183c.057.245.109.403.157.474a.67.67 0 0 0 .113.116 1.49 1.49 0 0 0 .305.184l.063.029.339.137.316.104a1.17 1.17 0 0 1 .404.328c.108.138.184.299.222.471a1.91 1.91 0 0 1 .052.319c.044.541-.168.957-.634 1.249-.437.263-.896.424-1.377.482a8.04 8.04 0 0 1-.971.059l-.493-.015c-.197-.056-.503-.235-.917-.537l-.045-.032c-.216-.161-.411-.348-.581-.558a4.77 4.77 0 0 1-.441-.641l-.136-.248c-.335-.643-.488-1.476-.459-2.498l.029-.609.096-.92c.018-.113.042-.224.072-.334l.026-.106c.064-.297.004-.459-.179-.486-.012-.002-.024-.003-.037-.003-.155-.004-.434.128-.837.398-.437.292-1.005.76-1.704 1.403l-1.627 1.595-.907.948c-.35.292-.736.65-1.158 1.074-.389.39-.778.688-1.167.893l-.101.05c-.372.18-.704.168-.997-.037a1.17 1.17 0 0 1-.117-.095h0zm51.745-10.87l1.18-2.542-1.748-.482c-.204-.058-.371-.175-.502-.351s-.197-.321-.197-.438c.001-.075.012-.149.031-.221.053-.21.174-.472.362-.787l.14-.223c.185-.279.324-.424.419-.433.145.027.386.041.733.043h.085l1.158-.044.198-.017.427-.053c.025-.005.05-.011.074-.018.069-.035.135-.075.197-.119a1.97 1.97 0 0 0 .153-.122c.057-.051.106-.111.145-.177.047-.08.086-.174.117-.283l.132-.28.246-.441.016-.025.48-.789.214-.402.289-.562.113-.216.329-.567.192-.312.17-.248.31-.497a2.69 2.69 0 0 1 .656-.745 1.5 1.5 0 0 1 .329-.217 3.31 3.31 0 0 1 .845-.266l.115-.021a1.79 1.79 0 0 1 1.552.416c.17.214.286.42.347.617.022.07.038.142.046.216.027.241-.069.543-.287.906l-.063.102c-.16.345-.347.677-.558.992l-.25.345a8.53 8.53 0 0 0-.598.884l-.254.453-.158.228c-.324.502-.359.791-.105.868.039.011.078.019.118.024.364.049 1.14-.018 2.33-.2l.334-.046c.538-.057.966-.002 1.283.163.078.04.151.09.218.146.379.321.598.731.656 1.227.076.609.031 1.009-.135 1.199-.024.028-.052.052-.084.072-.067.039-.139.067-.215.085-.251.068-.657.11-1.216.126l-.579.008-.744.111-.675.067-.373.019-.347.01-.718.012h-.027l-.667.043-.076.001a1.06 1.06 0 0 0-.112.007c-.074.008-.162.023-.264.046l-.149.035c-.069.017-.138.04-.204.068-.129.055-.229.128-.298.217a2.71 2.71 0 0 0-.216.335l-.112.213a.8.8 0 0 0-.085.104c-.092.13-.209.34-.351.63l-.089.186c-.233.497-.524 1.037-.874 1.622l-.748 2.459-.279 1.069-.721 3.353-.031.239c-.038.345-.025.62.039.824a.81.81 0 0 0 .058.142c.106.201.369.34.791.416l.323.044.182.012a9.29 9.29 0 0 0 .888-.013l.329-.021.645-.065a6.17 6.17 0 0 0 .884-.176l.746-.341.259-.119.622-.309.34-.195.787-.46.393-.241c.017-.028.038-.054.061-.078.142-.141.333-.079.573.188.276.307.473.636.59.986-.001.151-.013.302-.035.451a4.77 4.77 0 0 1-.097.482l-.087.316c-.118.391-.495.797-1.13 1.217l-.487.296c-1.311.818-2.622 1.315-3.933 1.49l-.77.088c-.953.087-1.731.072-2.333-.044-.134-.026-.263-.069-.385-.13a2.97 2.97 0 0 1-.664-.462 6.97 6.97 0 0 1-1.027-1.14l-.249-.369c-.167-.267-.281-.502-.341-.705 0-.058-.037-.132-.109-.219l-.11-.131c-.031-.027-.054-.061-.069-.1-.071-.165-.113-.501-.126-1.007l-.001-.054-.003-.299c0-.608.037-1.276.112-2.002l.086-.742.204-1.204.016-.069.123-.382.339-.987.193-.537.743-2.17zm81.901 0l1.18-2.542-1.748-.482c-.204-.058-.372-.175-.503-.351s-.197-.321-.197-.438c.002-.075.012-.149.032-.221.053-.21.174-.472.362-.787l.14-.223c.184-.279.324-.424.418-.433a4.72 4.72 0 0 0 .734.043h.084l1.159-.044.197-.017.428-.053c.025-.005.05-.011.074-.018.068-.035.134-.075.197-.119a1.78 1.78 0 0 0 .152-.122c.058-.051.107-.111.146-.177.047-.08.086-.174.117-.283l.132-.28.245-.441c.006-.008.011-.016.016-.025l.481-.789.214-.402.288-.562.114-.216.329-.567.191-.312.171-.248.31-.497c.175-.292.393-.541.655-.745.1-.087.211-.16.33-.217.223-.112.505-.2.844-.266l.116-.021c.597-.102 1.114.037 1.551.416.17.214.286.42.348.617.022.07.037.142.045.216.027.241-.068.543-.286.906l-.063.102c-.161.345-.347.677-.559.992l-.25.345a8.69 8.69 0 0 0-.598.884l-.254.453-.157.228c-.325.502-.36.791-.105.868a.76.76 0 0 0 .118.024c.363.049 1.14-.018 2.329-.2l.334-.046c.539-.057.966-.002 1.283.163a1.18 1.18 0 0 1 .219.146 1.83 1.83 0 0 1 .655 1.227c.076.609.031 1.009-.134 1.199a.4.4 0 0 1-.084.072.81.81 0 0 1-.215.085c-.252.068-.657.11-1.216.126l-.58.008-.743.111-.675.067-.373.019-.347.01-.719.012h-.027l-.666.043-.077.001a1.08 1.08 0 0 0-.112.007c-.074.008-.162.023-.264.046l-.148.035a1.34 1.34 0 0 0-.204.068.73.73 0 0 0-.299.217c-.068.088-.14.2-.215.335l-.113.213a.89.89 0 0 0-.085.104c-.092.13-.208.34-.35.63l-.089.186c-.233.497-.525 1.037-.874 1.622l-.748 2.459-.279 1.069-.721 3.353-.032.239c-.037.345-.024.62.039.824.015.049.035.097.058.142.106.201.37.34.791.416l.324.044.181.012c.237.011.533.006.888-.013l.329-.021.645-.065c.335-.045.63-.103.885-.176l.745-.341.26-.119.621-.309.34-.195.787-.46.393-.241a.44.44 0 0 1 .062-.078c.141-.141.332-.079.572.188.277.307.474.636.59.986a3.09 3.09 0 0 1-.035.451c-.021.151-.053.312-.096.482l-.087.316c-.119.391-.495.797-1.131 1.217l-.486.296c-1.312.818-2.623 1.315-3.934 1.49l-.77.088c-.953.087-1.73.072-2.333-.044a1.5 1.5 0 0 1-.384-.13c-.211-.102-.432-.256-.665-.462-.378-.336-.721-.716-1.027-1.14l-.249-.369c-.166-.267-.28-.502-.341-.705 0-.058-.036-.132-.109-.219l-.109-.131c-.031-.027-.055-.061-.069-.1-.071-.165-.113-.501-.126-1.007l-.002-.054-.002-.299c0-.608.037-1.276.111-2.002l.087-.742.204-1.204.015-.069.124-.382.339-.987.193-.537.743-2.17zm25.042-3.156l.699-.044c.117-.029.248.088.394.351l.136.225a1.57 1.57 0 0 0 .291.337c.118.101.204.217.261.348.139.303.202.742.187 1.315l-.001.054a5.3 5.3 0 0 1-.101.823c-.115.589-.326 1.284-.634 2.084l-.314.775-.381.844-.592 1.453-.142.42c-.132.424-.227.86-.284 1.301l-.043.496c0 .526.043.972.131 1.337a1.53 1.53 0 0 0 .19.445c.137.222.335.447.596.673.213.137.372.342.452.582.045.123.075.259.091.409l.004.039.029.416.003.671-.011.162c-.047.214-.205.375-.473.482a1.74 1.74 0 0 1-.204.066c-.248.064-.504.096-.76.097a3.58 3.58 0 0 1-.507-.032c-.173-.021-.344-.057-.511-.107-.19-.058-.36-.133-.512-.227l-.092-.06c-.261-.261-.475-.611-.642-1.049l-.057-.157-.451-1.496-.073-.279c-.059-.234-.081-.497-.066-.789s.007-.526-.022-.701c-.083.195-.213.444-.39.745l-.025.044c-.185.314-.363.545-.534.692l-.109.102-.69.587c-.408.336-.816.606-1.224.811-.261.168-.532.32-.813.453-.636.299-1.217.433-1.743.402-.539-.033-1.051-.246-1.456-.604-.179-.155-.343-.327-.489-.514-.466-.38-.845-.862-1.136-1.447s-.35-1.286-.175-2.104a17.13 17.13 0 0 1 .437-3.002c.233-.979.714-2.287 1.442-3.923l1.398-2.805.168-.349.444-.835c.143-.047.291-.078.44-.092.328-.033.7 0 1.114.099l.063.015c.641.161.991.446 1.049.855.171.286.175.816.012 1.589l-.012.054c-.078.351-.178.696-.3 1.034-.188.53-.437 1.099-.749 1.706l-1.02 2.541-.138.352-.299.834-.23.819a6.18 6.18 0 0 0-.126.715l-.013.142c-.033.559.138.907.515 1.041.075.041.156.069.24.083.191.034.424.015.699-.06l.219-.068a2.06 2.06 0 0 0 .479-.249c.298-.201.621-.498.97-.892l.365-.437a9.24 9.24 0 0 0 .651-.943c.505-.826 1.031-1.9 1.578-3.221l.238-.629.286-.927a6.61 6.61 0 0 0 .156-.813l.063-.7a1.24 1.24 0 0 1-.017-.202c0-.289.101-.587.301-.894a2.94 2.94 0 0 1 .467-.558 2.48 2.48 0 0 1 .429-.319c.105-.131.245-.257.421-.377l.06-.04c.022-.014.046-.028.07-.04.141-.075.24-.07.298.014.01.015.018.031.025.048zm-45.102 26.036l-.097.002-.406.02c-.194.013-.359-.083-.495-.288l-.051-.084-.096-.133c-.11-.161-.252-.402-.428-.721-.079-.146-.135-.303-.167-.465-.072-.347-.064-.764.025-1.254l.01-.056a13.91 13.91 0 0 0 .342-1.423l.008-.046.125-.91.006-.164c0-.117.037-.343.109-.679l.049-.234.054-.356.007-.132c.059-.096.109-.196.152-.301a3.84 3.84 0 0 0 .197-.664 5.5 5.5 0 0 0 .13-.991l.001-.105c0-.351.175-.672.525-.964a2.28 2.28 0 0 1 .018-.261l.051-.289.084-.326.059-.213c.052-.195.082-.34.091-.436.002-.017.003-.035.003-.053l.083-.352.354-1.294.153-.523.95-2.982.186-.547 1.333-3.857.474-1.333.365-.989.341-.878.874-2.279.149-.473c.134-.457.201-.795.201-1.017 0-.041.004-.082.012-.122.012-.057.034-.107.066-.15l.298-.352.105-.121c.216-.218.508-.343.815-.349.084-.003.171 0 .262.01l.081.011c.199.029.394.077.584.142a2.35 2.35 0 0 1 .618.318c.178.291.318.56.42.808l.082.222c.022.068.039.138.049.21.037.244.029.558-.026.943l-.045.272a2.43 2.43 0 0 1-.306 1.205l-.202.351-.179.287-.165.239c-.158.216-.21.311-.156.287.917-.564 1.768-.944 2.556-1.143.302-.078.611-.128.922-.152l.438-.016a4.93 4.93 0 0 1 1.081.111c.388.084.76.229 1.103.43.714.424 1.26 1.001 1.639 1.731s.568 1.52.568 2.367a2.21 2.21 0 0 1-.034.363c-.05.292-.156.638-.316 1.04a13.35 13.35 0 0 1-.678 1.451l-.109.193-.207.352c-.195.319-.359.544-.489.676-.05.003-.097.017-.137.044-.071.045-.143.126-.215.243l-.197.342-.153.294c-.21.264-.546.558-1.006.882l-.152.104a8.49 8.49 0 0 1-1.639.877c-.554.219-.947.285-1.18.197l-.109.088c-.073.058-.11.161-.11.307-.002.017-.011.032-.025.043-.054.054-.197.134-.427.238l-.159.07c-.351.151-.755.291-1.214.42l-.229.062c-.254.068-.513.122-.773.161-.25.038-.503.057-.756.058a3.77 3.77 0 0 1-.45-.024c-.324-.039-.579-.122-.767-.252-.033-.023-.065-.048-.094-.075a1.49 1.49 0 0 0-.197.263c-.021.034-.04.069-.057.105-.035.074-.052.141-.052.202 0 .175-.066.453-.197.833a6.47 6.47 0 0 1-.271.67l-.188.36c-.033.059-.07.117-.108.173-.126.181-.244.277-.354.286l-.106.132c-.058.088-.029.204.087.351l-.021.504a2.2 2.2 0 0 1-.057.412c-.038.156-.1.306-.184.443l-.01.225c-.018.215-.058.491-.121.827l-.077.367c-.056.235-.117.43-.183.585l-.046.1c0 .351-.051.694-.153 1.03l-.058.172c-.085.221-.175.332-.27.332-.116.029-.189.212-.218.548l-.019.234-.025.489a3.24 3.24 0 0 1-.307 1.287c-.106.221-.237.429-.392.62a4.19 4.19 0 0 1-.3.336c-.319.317-.613.475-.88.475zM94.798 15.678h.044.044c.053-.037.112-.065.174-.082.188-.057.454-.062.797-.013l.187.03c.166.029.33.068.492.116.331.098.597.228.797.388.584.502.876 1.151.876 1.946l-.002.114a3.72 3.72 0 0 1-.147.871c-.151.541-.42 1.157-.805 1.848l-.359.612-.391.834-.243.459c-.195.352-.303.606-.324.76-.002.017-.003.034-.003.051l.35-.263.543-.413.288-.223.629-.459.202-.132c.119-.119.355-.322.707-.607l.254-.204.776-.608.841-.641 1.133-.827.265-.181.398-.266.492-.284.334-.174c.485-.243.788-.367.91-.373.299 0 .656.102 1.078.307a6.87 6.87 0 0 1 1.18.723l.245.204c.163.151.277.295.342.432a.68.68 0 0 1 .047.131l-.004.12-.04.34-.029.237a2.57 2.57 0 0 0-.014.267l-.022 1.688.022 1.972c0 .657-.059 1.249-.175 1.775l.044.066c.026.04.052.097.078.173l.009.024c-.01.011-.018.024-.022.038-.009.027-.009.062-.002.104l.024.121.197.614c.073.204.167.431.284.679l.134.301.125.301.134.341c-.017.196-.077.386-.176.556-.069.124-.158.248-.268.37l-.19.192c-.299.278-.593.475-.883.593-.089.036-.181.065-.275.087-.235-.021-.469-.056-.701-.105-.338-.074-.636-.177-.894-.311-.193-.103-.365-.244-.504-.413-.2-.235-.374-.543-.523-.924-.117-.468-.168-.957-.153-1.468l.109-1.49.054-.515.029-.477.005-.258V24.4v-.482l-.046-.263c-.063-.285-.157-.468-.282-.548a.39.39 0 0 0-.129-.051c-.15-.032-.355-.001-.616.093l-.064.024-.894.473-.952.593-.142.095-1.337.963-.892.702-1.774 1.475-.608.519-.449.501-.971 1.208c-.07.101-.147.197-.231.288-.232.247-.468.37-.709.37-.072.037-.15.06-.23.067-.151.015-.309-.028-.472-.129l-.041-.026-.456-.324-.374-.29-.242-.288-.229-.286-.25-.325-.144-.192-.31-.446-.048-.085.027-.668a5.86 5.86 0 0 1 .082-.603 6.3 6.3 0 0 1 .2-.766l.149-.417.232-.571.262-.614.096-.218.328-.636.168-.342.197-.369.364-1.055.145-.36.634-1.49.608-1.565.135-.408.294-1.092.143-.705c-.007-.014-.011-.029-.013-.045-.007-.055.012-.128.057-.218.022-.045.051-.086.086-.121.049-.048.11-.082.177-.098h0zm-10.052 15.21a6.54 6.54 0 0 1-2.775.855c-.976.073-1.886-.058-2.731-.395-.551-.214-1.059-.525-1.501-.918-.201-.181-.387-.38-.553-.594a3.19 3.19 0 0 1-.268-.422c-.167-.308-.328-.695-.485-1.162l-.077-.236c-.075-.244-.13-.493-.165-.745-.104-.719-.094-1.594.031-2.625l.004-.027a12.83 12.83 0 0 1 .744-2.905l.502-1.171c.656-1.373 1.464-2.586 2.426-3.638s2.01-1.768 3.147-2.148a7.46 7.46 0 0 1 1.246-.329c.422-.073.983-.08 1.683-.022.35.045.696.117 1.034.217.26.076.513.172.758.287.525.248.903.519 1.136.811.337.338.591.669.761.992a2.46 2.46 0 0 1 .157.367 3.59 3.59 0 0 1 .157.673 3.09 3.09 0 0 1 .025.393l-.007.205a6.27 6.27 0 0 1-.346 1.269c-.215.562-.514 1.147-.899 1.755-.685 1.081-1.639 1.885-2.863 2.411-.495.205-1.078.336-1.748.395l-.29.016c-.443.011-.975-.03-1.596-.125l-.867-.154-.251-.045c-.559-.079-.935.009-1.126.264-.218.292-.313.862-.284 1.709.026.242.07.482.131.718.059.228.139.45.24.663.129.265.339.483.599.622.139.077.296.14.472.189.67.117 1.151.124 1.442.022s.656-.256 1.093-.46c.233-.146.459-.307.677-.482l.656-.526.194-.152.332-.231.02-.012a1.27 1.27 0 0 1 .184-.124c.076-.041.153-.071.229-.089l.024-.005a2.22 2.22 0 0 1 .437-.044c.283.026.554.165.813.417l.105.109c.212.234.37.461.475.679a1.68 1.68 0 0 1 .094.241.81.81 0 0 1-.034.22c-.042.147-.122.318-.24.514l-.163.253a6.8 6.8 0 0 1-.472.606 9.89 9.89 0 0 1-.686.709c-.481.453-1.013.855-1.595 1.205zm162.49 0c-.874.497-1.8.782-2.776.855s-1.886-.058-2.731-.395a4.96 4.96 0 0 1-1.501-.918 4.68 4.68 0 0 1-.553-.594 3.19 3.19 0 0 1-.268-.422 7.47 7.47 0 0 1-.486-1.162l-.076-.236a4.64 4.64 0 0 1-.166-.745c-.103-.719-.093-1.594.031-2.625l.003-.027c.134-.994.384-1.969.744-2.905l.502-1.171c.656-1.373 1.464-2.586 2.426-3.638s2.01-1.768 3.146-2.148c.408-.146.823-.256 1.246-.329s.983-.08 1.682-.022a6.64 6.64 0 0 1 1.034.217c.26.076.513.172.758.287.525.248.903.519 1.136.811.338.338.591.669.761.992.062.118.115.241.157.367.074.219.126.444.157.673.017.132.025.263.025.393l-.007.205c-.071.434-.187.86-.346 1.269-.215.562-.514 1.147-.899 1.755-.685 1.081-1.639 1.885-2.863 2.411-.495.205-1.078.336-1.748.395l-.29.016c-.443.011-.975-.03-1.596-.125l-.868-.154-.25-.045c-.56-.079-.935.009-1.126.264-.219.292-.313.862-.284 1.709.026.242.07.482.131.718a3.71 3.71 0 0 0 .24.663c.129.265.339.483.599.622.139.077.296.14.472.189.67.117 1.151.124 1.442.022s.656-.256 1.093-.46c.233-.146.459-.307.677-.482l.656-.526.194-.152.332-.231.02-.012a1.28 1.28 0 0 1 .184-.124c.077-.041.153-.071.229-.089l.024-.005a2.22 2.22 0 0 1 .437-.044c.283.026.554.165.813.417l.105.109c.212.234.37.461.474.679.038.078.069.158.094.241a.82.82 0 0 1-.034.22c-.042.147-.122.318-.24.514l-.163.253c-.146.211-.303.413-.472.606-.202.233-.431.469-.686.709a9.37 9.37 0 0 1-1.595 1.205zm-87.32-11.352l.349-.701c.017-.032.036-.063.056-.093.088-.131.252-.334.491-.608l.439-.481.495-.503.18-.177 1.333-1.205.4-.326a7.09 7.09 0 0 1 .715-.507c.571-.382 1.161-.572 1.77-.572l.131.003a3.03 3.03 0 0 1 .952.19c.264.101.511.244.73.423l.074.07.359.321.157.135.971.814.078.063.487.405.414.359.126.112 1.617 1.447-.743 2.192c-.378 1.169-.473 2.192-.284 3.068.086.404.197.802.332 1.192.129.375.289.738.477 1.087.064.143.144.279.238.404a1.63 1.63 0 0 0 .352.341c.12.084.249.152.386.203.175.067.374.116.597.148a1.4 1.4 0 0 1 .617.237l.039.026a.7.7 0 0 1 .271.408 1.18 1.18 0 0 1 .035.264v.03c0 .701-.124 1.205-.372 1.512-.079.099-.167.19-.263.273-.172.145-.354.237-.545.275a5.83 5.83 0 0 1-2.754-.307c-.858-.315-1.631-1.123-2.32-2.423l-.04-.075-.094-.16c-.101-.189-.222-.464-.365-.826l-.098-.253-.229-.689-.431.515-.028.032-.547.592-1.674 1.601c-1.113.988-2.123 1.724-3.031 2.207l-.605.29c-.268.116-.544.213-.825.293-.415.116-.809.174-1.18.174-.598.007-1.185-.163-1.688-.488a1.06 1.06 0 0 0-.167-.239c-.12-.133-.285-.266-.494-.399l-.103-.063-.201-.125c-.188-.125-.309-.23-.361-.314-.017-.026-.027-.056-.028-.087 0-.088-.038-.215-.113-.38l-.084-.168c-.122-.23-.237-.404-.346-.522l-.026-.026c-.027-.035-.048-.075-.06-.118-.063-.219 0-.611.192-1.175l.637-1.613.411-.907 1.427-2.832.103-.192a4.71 4.71 0 0 0 .594-.754l.105-.166.155-.245c.146-.226.262-.385.35-.479.006-.007.013-.014.02-.021 0-.09.026-.178.075-.253.017-.026.035-.052.056-.075a.51.51 0 0 1 .102-.092c.06-.04.131-.062.204-.061zm63.627 10.745l.355.301.137.131c.408.368.763.5 1.065.395.335-.117.677-.409 1.027-.877a3.06 3.06 0 0 0 .182-.261c.107-.172.193-.356.255-.55l.131-.416c0-.071.034-.263.101-.575l.052-.236.102-.43.269-.994.015-.048c.103-.344.207-.6.31-.768a.78.78 0 0 1 .112-.148l.159-.244a3.34 3.34 0 0 1 .541-.633c.233-.205.451-.424.655-.657.525-.575 1.042-1.067 1.553-1.476.37-.3.764-.568 1.179-.803l.178-.1 1.33-.753 1.485-.857.697-.295.352-.144c.154-.061.312-.109.474-.143.175-.037.353-.063.531-.076a1.83 1.83 0 0 0 .792-.237c.182-.104.349-.23.498-.376.289-.279.471-.511.548-.695.026-.057.04-.119.042-.181l-.022-.131c-.011-.068-.054-.11-.128-.125a.35.35 0 0 0-.069-.006l-.24-.175a.65.65 0 0 1-.227-.296.91.91 0 0 1-.057-.23.92.92 0 0 0-.117-.209c-.168-.223-.446-.382-.835-.477-.169-.04-.34-.067-.512-.081l-.438-.02c-.612-.005-1.217.129-1.769.393-.094.047-.233.102-.423.169l-.211.072-.355.136a3.47 3.47 0 0 0-.454.237l-.08.043c-.185.103-.479.294-.881.571l-1.486 1.096-.024.019-1.462 1.23c-.32.292-.572.559-.755.801a2.63 2.63 0 0 0-.206.317l-.021.003c-.115.013-.144-.075-.088-.266l.021-.066.02-.055c.09-.24.236-.543.439-.909l.301-.575.245-.543c.7-1.373 1.108-2.389 1.224-3.046l.006-.033c.058-.35.054-.642-.013-.878a.91.91 0 0 0-.299-.47c-.233-.234-.663-.351-1.289-.351-.119 0-.238.006-.356.018-.453.047-.807.187-1.064.421l-.158.252c-.176.297-.367.67-.571 1.116l-.277.626-1.092 2.827-.486 1.436-.41 1.325-.398 1.488-.061.309-.524 2.17-.218 1.15-.132 1.02-.018.144a2.04 2.04 0 0 0 .014.54 1.27 1.27 0 0 0 .332.675l.128.132.369.356zm30.33 0l.355.301.137.131c.408.368.763.5 1.065.395.335-.117.677-.409 1.027-.877a3.06 3.06 0 0 0 .182-.261 2.42 2.42 0 0 0 .255-.55l.131-.416c0-.071.034-.263.102-.575l.051-.236.102-.43.27-.994.015-.048c.103-.344.206-.6.309-.768a.83.83 0 0 1 .113-.148l.158-.244a3.34 3.34 0 0 1 .541-.633c.233-.205.452-.424.656-.657.524-.575 1.041-1.067 1.552-1.476.37-.3.765-.568 1.179-.803l.178-.1 1.331-.753 1.485-.857.696-.295.353-.144c.153-.061.312-.109.473-.143a3.97 3.97 0 0 1 .532-.076 1.84 1.84 0 0 0 .792-.237c.181-.104.348-.23.497-.376.289-.279.472-.511.548-.695.026-.057.04-.119.042-.181l-.022-.131c-.011-.068-.053-.11-.127-.125-.023-.004-.046-.006-.07-.006l-.24-.175c-.102-.075-.181-.178-.227-.296a.91.91 0 0 1-.057-.23.92.92 0 0 0-.117-.209c-.167-.223-.446-.382-.835-.477-.168-.04-.34-.067-.512-.081l-.438-.02c-.612-.005-1.217.129-1.769.393-.094.047-.232.102-.422.169l-.212.072-.355.136c-.157.067-.308.147-.453.237l-.081.043c-.185.103-.479.294-.881.571l-1.486 1.096-.024.019-1.462 1.23c-.32.292-.572.559-.755.801a2.63 2.63 0 0 0-.206.317l-.021.003c-.115.013-.144-.075-.087-.266l.021-.066.02-.055a7.09 7.09 0 0 1 .438-.909l.301-.575.246-.543c.699-1.373 1.107-2.389 1.223-3.046l.007-.033c.058-.35.053-.642-.014-.878a.91.91 0 0 0-.299-.47c-.233-.234-.662-.351-1.289-.351a3.48 3.48 0 0 0-.356.018c-.452.047-.807.187-1.064.421l-.157.252a11.85 11.85 0 0 0-.572 1.116l-.276.626-1.093 2.827-.486 1.436-.41 1.325-.398 1.488-.061.309-.524 2.17-.218 1.15-.132 1.02-.017.144a1.96 1.96 0 0 0 .014.54 1.27 1.27 0 0 0 .331.675l.128.132.369.356zm-216.174.958c.066.044.136.08.209.109.188.074.417.11.687.11l2.054-.219c.699-.088 1.355-.336 1.967-.745l.352-.212a16.91 16.91 0 0 0 1.964-1.41l.494-.449c.541-.532 1.09-1.2 1.648-2.006l.981-1.539c.596-1.046.983-2.001 1.161-2.866l.087-.45c.193-1.076.252-2 .175-2.772-.087-.789-.27-1.432-.546-1.929-.175-.314-.429-.588-.761-.82a3.79 3.79 0 0 0-.659-.364c-.437-.468-.998-.701-1.683-.701a8.92 8.92 0 0 0-1.988.219c-.233.054-.463.122-.688.203-.423.155-.829.351-1.213.586-.626.38-1.304.877-2.032 1.49l-.252.221c-.281.258-.583.572-.906.941l-.195.226-.963 1.22-.597.86-.19.302a9.84 9.84 0 0 0-1.027 2.214c-.223.696-.322 1.174-.297 1.433a.54.54 0 0 0 .013.079c.045.248.02.401-.073.458-.031.017-.066.026-.101.024l-.017.033a.82.82 0 0 1-.103.156c-.017.019-.035.036-.055.052-.058.044-.015.139.131.285l.022.329.004.095a1.45 1.45 0 0 1-.019.234c-.019.12-.051.237-.093.351-.018.106-.027.213-.027.32 0 .423.133.9.399 1.433l.2.373c.316.547.697 1.055 1.133 1.511l.299.24.267.203.243.171h0zm129.209-9.862l.962-1.578-.21-.453c-.208-.42-.401-.707-.577-.862-.073-.065-.153-.123-.238-.173-.153-.089-.307-.134-.461-.134-.333 0-.723.187-1.17.561l-.185.162c-.352.324-.734.747-1.146 1.268l-.624.835-.771 1.131-1.436 2.31c-.198.335-.38.681-.543 1.035l-.331.828-.306.899c.02.003.04.004.06.004.156.003.369-.061.638-.193l.264-.14c.437-.248 1.019-.665 1.748-1.249l.71-.608 1.737-1.496c.336-.293.651-.609.943-.945.277-.315.55-.661.821-1.039l.115-.164h0zM43.053 26.11c.305-.261.581-.555.823-.875.224-.297.41-.622.553-.966l.376-.949.52-1.418c.097-.146.169-.374.216-.684l.024-.193c.044-.409.051-.811.022-1.205-.019-.262-.071-.45-.155-.564a.31.31 0 0 0-.151-.116c-.06-.047-.124-.088-.192-.123-.19-.094-.38-.107-.57-.04l-.024.009c-.091.036-.181.078-.267.124a6.05 6.05 0 0 0-.621.387l-.116.082a16.59 16.59 0 0 0-2.425 2.52c-.501.648-.897 1.371-1.171 2.143-.158.438-.285.886-.38 1.341-.087.731-.007 1.279.24 1.644s.656.468 1.224.307 1.26-.636 2.076-1.425zm136.748.526a1.38 1.38 0 0 0 .203-.017c.246-.038.601-.135 1.064-.289l1.182-.444.741-.323c.477-.218.88-.44 1.21-.666.126-.086.247-.178.364-.276l.869-.842a8.56 8.56 0 0 0 .901-1.13c.422-.643.386-1.359-.11-2.148-.067-.123-.158-.232-.267-.32-.219-.172-.501-.234-.847-.184-.396.057-.823.215-1.281.475l-.402.248-.987.739-.892.795c-.26.284-.497.588-.709.91l-.252.405-.485.912-.236.535-.154.415c-.096.287-.154.536-.174.747l-.005.056c-.012.255.066.389.236.403l.031.001h0zm-95.623-5.523c.059-.026.116-.055.171-.088.127-.074.278-.177.453-.31l.273-.216c.393-.321.75-.665 1.071-1.03l.187-.228c.188-.248.286-.45.294-.607 0-.279-.138-.511-.415-.714-.07-.051-.143-.097-.219-.139-.346-.192-.776-.256-1.288-.192l-.35.06c-.211.053-.458.19-.74.41l-.09.072-.661.594-.301.304-.83.964-.426.621-.055.103c.1.126.287.23.56.313l.139.038a4.32 4.32 0 0 0 .662.11l.497.022.447-.012.407-.038.216-.037zm162.49 0c.059-.026.116-.055.171-.088.127-.074.278-.177.453-.31l.272-.216a8.89 8.89 0 0 0 1.071-1.03l.187-.228c.188-.248.286-.45.294-.607 0-.279-.139-.511-.415-.714a2.04 2.04 0 0 0-.219-.139c-.346-.192-.775-.256-1.288-.192l-.351.06c-.211.053-.457.19-.74.41l-.09.072-.661.594-.301.304c-.32.336-.597.658-.83.964l-.426.621-.055.103c.101.126.287.23.561.313l.139.038c.217.054.438.09.661.11l.497.022.447-.012.408-.038.215-.037h0z" fill="#fff" stroke="#000" stroke-width=".945"/></svg>