<?xml version="1.0" encoding="utf-8"?>
<!-- Generator: Adobe Illustrator 24.0.0, SVG Export Plug-In . SVG Version: 6.00 Build 0)  -->
<svg version="1.0" id="Layer_1" xmlns="http://www.w3.org/2000/svg" xmlns:xlink="http://www.w3.org/1999/xlink" x="0px" y="0px"
	 viewBox="0 0 1080 720" style="enable-background:new 0 0 1080 720;" xml:space="preserve">
<style type="text/css">
	.st0{fill:none;}
	.st1{fill:#5BBA47;}
	.st2{fill:#FFFFFF;}
	.st3{fill:none;stroke:#FFFFFF;stroke-width:2;stroke-miterlimit:10;}
	.st4{fill:#F4F0EB;}
	.st5{fill:#4C5051;}
	.st6{fill:#3D9946;}
	.st7{fill:#FBB97C;stroke:#FFFFFF;stroke-width:2;stroke-miterlimit:10;}
	.st8{stroke:#FFFFFF;stroke-width:2;stroke-miterlimit:10;}
	.st9{fill:#D37528;stroke:#FFFFFF;stroke-width:2;stroke-miterlimit:10;}
	.st10{fill:#BC6428;stroke:#FFFFFF;stroke-width:2;stroke-miterlimit:10;}
	.st11{fill:#1A1A1A;stroke:#FFFFFF;stroke-width:2;stroke-miterlimit:10;}
	.st12{fill:#3E3D3D;stroke:#FFFFFF;stroke-width:2;stroke-miterlimit:10;}
	.st13{fill:#4E4E4E;stroke:#FFFFFF;stroke-width:2;stroke-miterlimit:10;}
	.st14{fill:#EAA775;stroke:#FFFFFF;stroke-width:2;stroke-miterlimit:10;}
	.st15{fill:#1A8BAE;stroke:#FFFFFF;stroke-width:2;stroke-miterlimit:10;}
	.st16{fill:#603A18;stroke:#FFFFFF;stroke-width:2;stroke-miterlimit:10;}
	.st17{fill:#177B94;stroke:#FFFFFF;stroke-width:2;stroke-miterlimit:10;}
	.st18{fill:#2193C2;stroke:#FFFFFF;stroke-width:2;stroke-miterlimit:10;}
	.st19{fill:#F15B28;stroke:#FFFFFF;stroke-width:2;stroke-miterlimit:10;}
	.st20{fill:#E04E26;stroke:#FFFFFF;stroke-width:2;stroke-miterlimit:10;}
</style>
<polygon id="XMLID_204_" class="st0" points="149.1,579.7 910.6,579.7 910.6,579.7 149.1,579.7 "/>
<g>
	<g id="XMLID_1_">
		<g id="XMLID_4_">
			<path d="M626.5,367.5c-1.1,39.7-15.9,75.8-39.7,104c13.1-23.2,20.9-49.8,21.7-78.3c2.6-93-70.7-170.5-163.7-173.1
				c-48.8-1.4-93.4,18.2-125.1,50.6c-0.5-0.6-1-1.2-1.6-1.8c31.2-46.3,84.6-76.1,144.6-74.5C555.8,197,629.1,274.5,626.5,367.5z"/>
			<path d="M361.4,386.4c-0.9,33.1-11.3,63.7-28.5,89.3c-5.8,8.6-12.3,16.6-19.5,23.9c-5-5.6-9.5-11.6-13.7-17.9
				c-18.6-27.9-29-61.7-28-97.8c1.1-39.7,15.9-75.9,39.7-104c-13.1,23.2-21,49.8-21.8,78.3c-1,36.9,9.9,71.3,29.2,99.6
				c16.9-25.4,27.1-55.7,28-88.4c1-36.1-9.4-69.8-28-97.8c0.3-0.3,0.6-0.6,0.9-0.9C346.8,301.5,362.7,342.2,361.4,386.4z"/>
			<path class="st1" d="M346.9,369.4c-0.9,32.7-11.1,63-28,88.4c-19.3-28.3-30.2-62.7-29.2-99.6c0.8-28.5,8.6-55.1,21.8-78.3
				c2.4-2.8,4.9-5.6,7.5-8.3C337.4,299.5,347.9,333.3,346.9,369.4z"/>
			<path class="st2" d="M318.2,268.9c0.5,0.6,1.1,1.2,1.6,1.8c-0.3,0.3-0.6,0.6-0.9,0.9c-0.4-0.6-0.8-1.2-1.3-1.9
				C317.8,269.5,318,269.2,318.2,268.9z"/>
			<path class="st2" d="M317.6,269.7c0.4,0.6,0.9,1.2,1.3,1.9c-2.6,2.7-5.1,5.4-7.5,8.3C313.4,276.4,315.4,273,317.6,269.7z"/>
			<path class="st2" d="M318.2,268.9c-0.2,0.3-0.4,0.6-0.6,0.8c-1.4-2-2.8-4-4.3-6C315,265.4,316.6,267.2,318.2,268.9z"/>
			<path d="M313.4,263.8c-29.5-30.1-70.2-49.2-115.7-50.5C104.7,210.7,27.2,284,24.6,377c-1.1,39.4,11.4,76.1,33.4,105.4
				C27.2,450.9,8.7,407.5,10,360c2.6-93,80.1-166.3,173.1-163.7C236.6,197.8,283.6,224,313.4,263.8z"/>
		</g>
		<g id="XMLID_5_">
			<path class="st3" d="M313.4,263.8c-29.5-30.1-70.2-49.2-115.7-50.5C104.7,210.7,27.2,284,24.6,377
				c-1.1,39.4,11.4,76.1,33.4,105.4C27.2,450.9,8.7,407.5,10,360c2.6-93,80.1-166.3,173.1-163.7C236.6,197.8,283.6,224,313.4,263.8z
				"/>
			<path class="st3" d="M317.6,269.7c0.4,0.6,0.9,1.2,1.3,1.9"/>
			<path class="st3" d="M317.6,269.7c0.2-0.3,0.4-0.6,0.6-0.8c31.2-46.3,84.6-76.1,144.6-74.5c93,2.6,166.3,80.1,163.7,173.1
				c-1.1,39.7-15.9,75.8-39.7,104c13.1-23.2,20.9-49.8,21.7-78.3c2.6-93-70.7-170.5-163.7-173.1c-48.8-1.4-93.4,18.2-125.1,50.6"/>
			<path class="st3" d="M311.4,279.9c2-3.5,4-6.8,6.2-10.1c-1.4-2-2.8-4-4.3-6c1.6,1.7,3.3,3.4,4.8,5.1c0.5,0.6,1.1,1.2,1.6,1.8"/>
			<path class="st3" d="M318.9,271.6c0.3-0.3,0.6-0.6,0.9-0.9c27,30.8,42.9,71.5,41.7,115.7c-0.9,33.1-11.3,63.7-28.5,89.3
				c-5.8,8.6-12.3,16.6-19.5,23.9c-5-5.6-9.5-11.6-13.7-17.9c-18.6-27.9-29-61.7-28-97.8c1.1-39.7,15.9-75.9,39.7-104"/>
			<path class="st3" d="M318.9,271.6c18.6,27.9,29,61.7,28,97.8c-0.9,32.7-11.1,63-28,88.4c-19.3-28.3-30.2-62.7-29.2-99.6
				c0.8-28.5,8.6-55.1,21.8-78.3C313.8,277,316.3,274.3,318.9,271.6z"/>
		</g>
	</g>
	<g id="XMLID_7_">
		<g id="XMLID_25_">
			<path d="M846.4,172.4c92.1,2.3,165.2,78.1,164.3,170c0-1.1,0-2.2-0.1-3.3c0-0.7,0-1.3-0.1-2c0-0.9-0.1-1.7-0.2-2.6
				c-0.1-0.8-0.1-1.5-0.2-2.3c0-0.5-0.1-1-0.1-1.5c0-0.3-0.1-0.6-0.1-1c-0.1-0.5-0.1-1.1-0.2-1.6c0-0.2-0.1-0.5-0.1-0.7
				c-0.1-0.7-0.2-1.4-0.3-2.1c-0.1-0.7-0.2-1.3-0.3-2c-0.1-0.3-0.1-0.6-0.2-0.9c-0.1-0.5-0.2-1.1-0.3-1.6c0-0.1-0.1-0.3-0.1-0.4
				c-0.1-0.5-0.2-1.1-0.4-1.6c-0.1-0.7-0.3-1.3-0.5-2c-0.1-0.6-0.3-1.2-0.4-1.7c-0.1-0.4-0.2-0.8-0.3-1.2c-0.1-0.2-0.1-0.4-0.2-0.6
				c-0.2-0.6-0.4-1.2-0.6-1.9c-1.4-4.5-3.1-8.9-5.1-13.1c-0.2-0.5-0.5-1-0.7-1.5c-1.1-2.4-2.4-4.7-3.7-6.9c-0.3-0.5-0.6-1-0.9-1.5
				c-0.5-0.9-1.1-1.8-1.7-2.7c-0.3-0.5-0.6-1-1-1.5c0,0-0.1-0.1-0.1-0.1c-0.4-0.6-0.8-1.2-1.3-1.8c-2.2-3.1-4.6-6.2-7.2-9
				c-1.1-1.2-2.2-2.4-3.3-3.6c-0.6-0.6-1.2-1.2-1.7-1.7c-0.5-0.4-0.9-0.9-1.4-1.3c-0.5-0.4-1-0.9-1.5-1.4c-0.7-0.6-1.4-1.3-2.1-1.9
				c-0.8-0.7-1.6-1.3-2.4-2c-1-0.8-1.9-1.5-2.9-2.3c-1-0.7-2-1.5-3-2.2c-5.4-3.8-11.2-7.1-17.3-9.8c-1.5-0.7-3.1-1.3-4.6-1.9
				c-0.8-0.3-1.6-0.6-2.4-0.9c-1.6-0.6-3.2-1.1-4.8-1.6c-0.8-0.2-1.6-0.5-2.4-0.7c-1.6-0.5-3.3-0.9-4.9-1.3
				c-0.6-0.1-1.3-0.3-1.9-0.4c-0.5-0.1-0.9-0.2-1.4-0.3c-0.7-0.1-1.3-0.3-2-0.4c-0.8-0.1-1.6-0.3-2.4-0.4c-0.9-0.1-1.9-0.3-2.8-0.4
				c-0.5-0.1-1-0.1-1.6-0.2c-0.5-0.1-1-0.1-1.5-0.1c-0.4,0-0.7-0.1-1.1-0.1c-0.9-0.1-1.8-0.1-2.7-0.2c0,0-0.1,0-0.1,0
				c-1.1-0.1-2.2-0.1-3.3-0.1c-57.5-1.4-105.2,44-106.7,101.5c-1.4,57.5,44,105.2,101.5,106.7c44.4,1.1,82.9-25.7,98.9-64.4
				c2.6-4.8,4.6-10,5.9-15.5c-12.7,82.5-85,144.8-170.7,142.6c-93-2.3-166.6-79.6-164.3-172.6C676.1,243.7,753.4,170.1,846.4,172.4z
				"/>
			<path class="st1" d="M1010.7,342.4c0,0.5,0,1,0,1.5c0-0.1,0-0.2,0-0.2c0,0,0-0.1,0-0.1c0-0.1,0-0.3,0-0.4
				c-0.2-9.7-3.8-18.5-9.8-25.3c-11-17.8-30.6-29.9-53.1-30.5c-35.5-0.9-65.1,27.2-65.9,62.8c-0.9,35.5,27.2,65.1,62.7,65.9
				c25.1,0.6,47.2-13.2,58.3-33.9c-16,38.7-54.5,65.5-98.9,64.4c-57.5-1.4-102.9-49.2-101.5-106.7c1.4-57.5,49.2-102.9,106.7-101.5
				c1.1,0,2.2,0.1,3.3,0.1c0,0,0.1,0,0.1,0c0.9,0.1,1.8,0.1,2.7,0.2c0.4,0,0.7,0.1,1.1,0.1c0.5,0,1,0.1,1.5,0.1c0.5,0,1,0.1,1.6,0.2
				c0.9,0.1,1.9,0.2,2.8,0.4c0.8,0.1,1.6,0.2,2.4,0.4c0.7,0.1,1.3,0.2,2,0.4c0.5,0.1,0.9,0.2,1.4,0.3c0.6,0.1,1.3,0.3,1.9,0.4
				c1.7,0.4,3.3,0.8,4.9,1.3c0.8,0.2,1.6,0.5,2.4,0.7c1.6,0.5,3.2,1,4.8,1.6c0.8,0.3,1.6,0.6,2.4,0.9c1.6,0.6,3.1,1.2,4.6,1.9
				c6.1,2.7,11.9,6,17.3,9.8c1,0.7,2,1.4,3,2.2c1,0.7,2,1.5,2.9,2.3c0.8,0.7,1.6,1.3,2.4,2c0.7,0.6,1.4,1.2,2.1,1.9
				c0.5,0.4,1,0.9,1.5,1.4c0.5,0.4,0.9,0.9,1.4,1.3c0.6,0.6,1.2,1.2,1.7,1.7c1.1,1.2,2.3,2.4,3.3,3.6c2.5,2.9,4.9,5.9,7.2,9
				c0.4,0.6,0.9,1.2,1.3,1.8c0,0,0.1,0.1,0.1,0.1c0.3,0.5,0.7,1,1,1.5c0.6,0.9,1.1,1.8,1.7,2.7c0.3,0.5,0.6,1,0.9,1.5
				c1.3,2.3,2.6,4.6,3.7,6.9c0.2,0.5,0.5,1,0.7,1.5c2,4.2,3.7,8.6,5.1,13.1c0.2,0.6,0.4,1.2,0.6,1.9c0.1,0.2,0.1,0.4,0.2,0.6
				c0.1,0.4,0.2,0.8,0.3,1.2c0.2,0.6,0.3,1.1,0.4,1.7c0.2,0.7,0.3,1.3,0.5,2c0.1,0.5,0.2,1,0.4,1.6c0,0.1,0.1,0.3,0.1,0.4
				c0.1,0.5,0.2,1.1,0.3,1.6c0.1,0.3,0.1,0.6,0.2,0.9c0.1,0.7,0.2,1.3,0.3,2c0.1,0.7,0.2,1.4,0.3,2.1c0,0.2,0.1,0.5,0.1,0.7
				c0.1,0.5,0.1,1.1,0.2,1.6c0,0.3,0.1,0.6,0.1,1c0.1,0.5,0.1,1,0.1,1.5c0.1,0.7,0.1,1.5,0.2,2.3c0.1,0.9,0.1,1.7,0.2,2.6
				c0,0.7,0.1,1.3,0.1,2C1010.7,340.2,1010.7,341.3,1010.7,342.4z"/>
			<path class="st2" d="M1010.7,344c0,0.1,0,0.3,0,0.4c0,0.1,0,0.2,0,0.2c0-2.6-0.6-5-1.8-7.1c-0.4-1.8-0.9-3.5-1.4-5.2
				c1.9,3.2,3,6.9,3.2,10.8c0,0.1,0,0.3,0,0.4c0,0,0,0.1,0,0.1C1010.7,343.8,1010.7,343.9,1010.7,344z"/>
			<path class="st2" d="M1010.7,343.9L1010.7,343.9c0,0,0-0.1,0-0.2C1010.7,343.8,1010.7,343.8,1010.7,343.9z"/>
			<path class="st2" d="M1010.7,344.4c0,0.2,0,0.4,0,0.6v-0.4C1010.7,344.6,1010.7,344.5,1010.7,344.4z"/>
			<path class="st2" d="M1010.7,344.6v0.4c0,0.3,0,0.5,0,0.8c-0.1,0.7-0.1,1.3-0.3,1.9c-0.2-3.5-0.7-6.9-1.5-10.2
				C1010,339.6,1010.7,342.1,1010.7,344.6z"/>
			<path class="st2" d="M1010.7,345c0,1-0.1,1.9-0.1,2.9c0,0.6-0.1,1.2-0.1,1.8c0-0.3,0-0.7,0-1c0.1-0.7,0.1-1.5,0.2-2.2
				c0-0.1,0-0.1,0-0.2c0-0.1,0-0.3,0-0.4C1010.7,345.6,1010.7,345.3,1010.7,345z"/>
			<path class="st2" d="M1010.7,339.1c0-0.7,0-1.3-0.1-2C1010.6,337.8,1010.6,338.4,1010.7,339.1z"/>
			<path class="st2" d="M1010.6,345.8c0,0.1,0,0.3,0,0.4c0,0.1,0,0.1,0,0.2c0,0.6-0.1,1.1-0.2,1.7c0-0.1,0-0.3,0-0.4
				C1010.5,347.1,1010.6,346.5,1010.6,345.8z"/>
			<path class="st2" d="M1010.6,337.1c0-0.9-0.1-1.7-0.2-2.6C1010.5,335.4,1010.5,336.3,1010.6,337.1z"/>
			<path class="st2" d="M1010.5,349.7c0-0.6,0.1-1.2,0.1-1.8c0,0.7-0.1,1.4-0.1,2.1C1010.5,349.9,1010.5,349.8,1010.5,349.7z"/>
			<path class="st2" d="M1010.6,346.5c0,0.7-0.1,1.5-0.2,2.2c0-0.2,0-0.3,0-0.5c0,0,0,0,0,0C1010.5,347.6,1010.6,347,1010.6,346.5z"
				/>
			<path class="st2" d="M1010.5,350.1c0,1.1,0,2.2,0,3.2c-0.1,4.6-0.7,9-1.7,13.3C1009.6,361.2,1010.2,355.7,1010.5,350.1z"/>
			<path class="st2" d="M1010.5,349.7c0,0.1,0,0.2,0,0.3c0,0,0,0.1,0,0.1c-0.3,5.6-0.9,11.1-1.7,16.6c-1.3,5.5-3.3,10.7-5.9,15.5
				C1007,372,1009.7,361.1,1010.5,349.7z"/>
			<path d="M1010.4,348.7c0,0.3,0,0.7,0,1c-0.8,11.4-3.4,22.3-7.6,32.4c-11.1,20.7-33.2,34.6-58.3,33.9
				c-35.5-0.9-63.6-30.4-62.7-65.9c0.9-35.5,30.4-63.6,65.9-62.8c22.5,0.6,42.1,12.6,53.1,30.5c-7.1-8.1-17.4-13.3-29-13.6
				c-22-0.5-40.2,16.8-40.8,38.8c-0.5,22,16.8,40.2,38.8,40.7C990.7,384.3,1008.1,368.9,1010.4,348.7z"/>
			<path class="st1" d="M1010.4,348.2c0,0.2,0,0.3,0,0.5c-2.3,20.2-19.8,35.6-40.5,35.1c-22-0.5-39.3-18.8-38.8-40.7
				c0.5-22,18.8-39.3,40.8-38.8c11.6,0.3,21.9,5.5,29,13.6c2.8,4.5,5,9.3,6.6,14.4c-4.1-7.2-11.8-12.2-20.8-12.4
				c-13.6-0.3-24.8,10.4-25.2,24c-0.3,13.6,10.4,24.8,24,25.2C998,369.3,1008.6,360.2,1010.4,348.2z"/>
			<path d="M1010.4,348.1C1010.4,348.2,1010.4,348.2,1010.4,348.1c-1.8,12.1-12.4,21.1-24.9,20.8c-13.6-0.3-24.3-11.6-24-25.2
				c0.3-13.6,11.6-24.3,25.2-24c8.9,0.2,16.6,5.2,20.8,12.4c0,0,0,0,0,0.1c0.5,1.7,1,3.4,1.4,5.2c-2.5-4.7-7.4-7.9-13-8.1
				c-8.4-0.2-15.4,6.4-15.6,14.8c-0.2,8.4,6.4,15.4,14.8,15.6c7.5,0.2,13.8-5,15.2-12.1C1010.4,347.9,1010.4,348,1010.4,348.1z"/>
			<path class="st2" d="M1010.4,347.7c-1.5,7.1-7.8,12.3-15.2,12.1c-8.4-0.2-15-7.2-14.8-15.6c0.2-8.4,7.2-15,15.6-14.8
				c5.7,0.1,10.5,3.4,13,8.1C1009.7,340.8,1010.1,344.3,1010.4,347.7z"/>
			<path class="st2" d="M1000.9,317.9c5.9,6.8,9.6,15.6,9.8,25.3c-0.2-3.9-1.3-7.6-3.2-10.8c0,0,0,0,0-0.1
				C1005.9,327.2,1003.6,322.3,1000.9,317.9z"/>
			<path class="st2" d="M1008,318.9c-0.1-0.7-0.3-1.4-0.5-2C1007.7,317.5,1007.9,318.2,1008,318.9z"/>
			<path class="st2" d="M1007.5,316.9c-0.1-0.6-0.3-1.2-0.4-1.7C1007.2,315.7,1007.4,316.3,1007.5,316.9z"/>
			<path class="st2" d="M981.2,269.8c1.1,1.2,2.3,2.4,3.3,3.6C983.4,272.2,982.3,271,981.2,269.8z"/>
			<path class="st2" d="M979.4,268c-0.5-0.4-0.9-0.9-1.4-1.3C978.5,267.1,979,267.6,979.4,268z"/>
			<path class="st2" d="M937.1,242.9c-0.8-0.2-1.6-0.5-2.4-0.7C935.5,242.4,936.3,242.6,937.1,242.9z"/>
			<path class="st2" d="M924.6,239.9c-0.8-0.1-1.6-0.3-2.4-0.4C923,239.6,923.8,239.7,924.6,239.9z"/>
			<path class="st2" d="M919.4,239.1c-0.5-0.1-1-0.1-1.6-0.2C918.4,239,918.9,239.1,919.4,239.1z"/>
			<path class="st2" d="M916.4,238.8c-0.4,0-0.7-0.1-1.1-0.1C915.7,238.7,916,238.8,916.4,238.8z"/>
		</g>
		<g id="XMLID_28_">
			<path class="st3" d="M1008.8,366.6c-12.7,82.5-85,144.8-170.7,142.6c-93-2.3-166.6-79.6-164.3-172.6
				c2.3-93,79.6-166.6,172.6-164.3c92.1,2.3,165.2,78.1,164.3,170"/>
			<path class="st3" d="M912.4,238.5c-1.1-0.1-2.2-0.1-3.3-0.1"/>
			<path class="st3" d="M919.4,239.1c-0.5-0.1-1-0.1-1.6-0.2c-0.5-0.1-1-0.1-1.5-0.1c-0.4,0-0.7-0.1-1.1-0.1
				c-0.9-0.1-1.8-0.1-2.7-0.2"/>
			<path class="st3" d="M924.6,239.9c-0.8-0.1-1.6-0.3-2.4-0.4"/>
			<path class="st3" d="M927.9,240.5c-0.5-0.1-0.9-0.2-1.4-0.3"/>
			<path class="st3" d="M937.1,242.9c-0.8-0.2-1.6-0.5-2.4-0.7c-1.6-0.5-3.3-0.9-4.9-1.3"/>
			<path class="st3" d="M976.6,265.3c-0.7-0.6-1.4-1.3-2.1-1.9c-0.8-0.7-1.6-1.3-2.4-2c-1-0.8-1.9-1.5-2.9-2.3c-1-0.7-2-1.5-3-2.2"
				/>
			<path class="st3" d="M979.4,268c-0.5-0.4-0.9-0.9-1.4-1.3"/>
			<path class="st3" d="M984.5,273.4c-1.1-1.2-2.2-2.4-3.3-3.6"/>
			<path class="st3" d="M992.9,284.3c-0.4-0.6-0.8-1.2-1.3-1.8"/>
			<path class="st3" d="M994,285.9c-0.3-0.5-0.6-1-1-1.5"/>
			<path class="st3" d="M996.6,290c-0.3-0.5-0.6-1-0.9-1.5"/>
			<path class="st3" d="M1001,298.5c-0.2-0.5-0.5-1-0.7-1.5"/>
			<path class="st3" d="M1006.6,313.4c-0.2-0.6-0.4-1.2-0.6-1.9"/>
			<path class="st3" d="M1008.4,320.5c-0.1-0.5-0.2-1.1-0.4-1.6c-0.1-0.7-0.3-1.4-0.5-2c-0.1-0.6-0.3-1.2-0.4-1.7
				c-0.1-0.4-0.2-0.8-0.3-1.2"/>
			<path class="st3" d="M1008.8,322.5c-0.1-0.5-0.2-1.1-0.3-1.6"/>
			<path class="st3" d="M1009.6,327.5c-0.1-0.7-0.2-1.4-0.3-2.1c-0.1-0.7-0.2-1.3-0.3-2"/>
			<path class="st3" d="M1010,329.9c-0.1-0.5-0.1-1.1-0.2-1.6"/>
			<path class="st3" d="M1010.2,332.3c0-0.5-0.1-1-0.1-1.5"/>
			<path class="st3" d="M1010.7,339.1c0-0.7,0-1.3-0.1-2c0-0.9-0.1-1.7-0.2-2.6"/>
			<path class="st3" d="M1010.5,350c0-0.7,0.1-1.4,0.1-2.1"/>
			<path class="st3" d="M1008.8,366.6c0.8-5.4,1.4-11,1.7-16.6"/>
			<path class="st3" d="M1010.7,343.9c0-0.5,0-1,0-1.5c0-1.1,0-2.2-0.1-3.3c0-0.7,0-1.3-0.1-2c0-0.9-0.1-1.7-0.2-2.6
				c-0.1-0.8-0.1-1.5-0.2-2.3c0-0.5-0.1-1-0.1-1.5c0-0.3-0.1-0.6-0.1-1c-0.1-0.5-0.1-1.1-0.2-1.6c0-0.2-0.1-0.5-0.1-0.7
				c-0.1-0.7-0.2-1.4-0.3-2.1c-0.1-0.7-0.2-1.3-0.3-2c-0.1-0.3-0.1-0.6-0.2-0.9c-0.1-0.5-0.2-1.1-0.3-1.6c0-0.1-0.1-0.3-0.1-0.4
				c-0.1-0.5-0.2-1-0.4-1.6c-0.1-0.7-0.3-1.3-0.5-2c-0.1-0.6-0.3-1.2-0.4-1.7c-0.1-0.4-0.2-0.8-0.3-1.2c-0.1-0.2-0.1-0.4-0.2-0.6
				c-0.2-0.6-0.4-1.2-0.6-1.9c-1.4-4.5-3.1-8.9-5.1-13.1c-0.2-0.5-0.5-1-0.7-1.5c-1.1-2.4-2.4-4.7-3.7-6.9c-0.3-0.5-0.6-1-0.9-1.5
				c-0.5-0.9-1.1-1.8-1.7-2.7c-0.3-0.5-0.6-1-1-1.5c0,0-0.1-0.1-0.1-0.1c-0.4-0.6-0.8-1.2-1.3-1.8c-2.2-3.1-4.6-6.2-7.2-9
				c-1.1-1.2-2.2-2.4-3.3-3.6c-0.6-0.6-1.2-1.2-1.7-1.7c-0.5-0.4-0.9-0.9-1.4-1.3c-0.5-0.4-1-0.9-1.5-1.4c-0.7-0.6-1.4-1.3-2.1-1.9
				c-0.8-0.7-1.6-1.3-2.4-2c-1-0.8-1.9-1.5-2.9-2.3c-1-0.7-2-1.5-3-2.2c-5.4-3.8-11.2-7.1-17.3-9.8c-1.5-0.7-3.1-1.3-4.6-1.9
				c-0.8-0.3-1.6-0.6-2.4-0.9c-1.6-0.6-3.2-1.1-4.8-1.6c-0.8-0.2-1.6-0.5-2.4-0.7c-1.6-0.5-3.3-0.9-4.9-1.3
				c-0.6-0.1-1.3-0.3-1.9-0.4c-0.4-0.1-0.9-0.2-1.4-0.3c-0.7-0.1-1.3-0.3-2-0.4c-0.8-0.1-1.6-0.3-2.4-0.4c-0.9-0.1-1.9-0.3-2.8-0.4
				c-0.5-0.1-1-0.1-1.6-0.2c-0.5-0.1-1-0.1-1.5-0.1c-0.4,0-0.7-0.1-1.1-0.1c-0.9-0.1-1.8-0.1-2.7-0.2c0,0-0.1,0-0.1,0
				c-1.1-0.1-2.2-0.1-3.3-0.1c-57.5-1.4-105.2,44-106.7,101.5c-1.4,57.5,44,105.2,101.5,106.7c44.4,1.1,82.9-25.7,98.9-64.4"/>
			<path class="st3" d="M1010.5,349.7c0-0.6,0.1-1.2,0.1-1.8c0.1-1,0.1-1.9,0.1-2.9"/>
			<path class="st3" d="M1010.4,348.7c0,0.3,0,0.7,0,1"/>
			<path class="st3" d="M1002.9,382.1c-11.1,20.7-33.2,34.6-58.3,33.9c-35.5-0.9-63.6-30.4-62.7-65.9c0.9-35.5,30.4-63.6,65.9-62.8
				c22.5,0.6,42.1,12.6,53.1,30.5"/>
			<path class="st3" d="M1008.9,337.5c0.7,3.3,1.2,6.7,1.5,10.2"/>
			<path class="st3" d="M1010.4,348.2c0,0.2,0,0.3,0,0.5"/>
			<path class="st3" d="M1000.9,317.9c2.8,4.5,5,9.3,6.6,14.4"/>
			<path class="st3" d="M1010.5,350C1010.5,350,1010.5,350.1,1010.5,350c0,1.1,0,2.2,0,3.3c-0.1,4.6-0.7,9-1.7,13.3
				c-1.3,5.5-3.3,10.7-5.9,15.5c4.2-10.1,6.8-21,7.6-32.4C1010.5,349.8,1010.5,349.9,1010.5,350z"/>
			<path class="st3" d="M1010.7,344L1010.7,344c0-0.2,0-0.2,0-0.3"/>
			<path class="st3" d="M1010.7,344.6c0-0.1,0-0.2,0-0.2"/>
			<path class="st3" d="M1010.7,343.2c-0.2-9.7-3.8-18.5-9.8-25.3c-7.1-8.1-17.4-13.3-29-13.6c-22-0.5-40.2,16.8-40.8,38.8
				c-0.5,22,16.8,40.2,38.8,40.7c20.7,0.5,38.1-14.9,40.5-35.1c0.1-0.7,0.1-1.5,0.2-2.2"/>
			<path class="st3" d="M1010.4,348.1C1010.4,348.2,1010.4,348.2,1010.4,348.1c-1.8,12.1-12.4,21.1-24.9,20.8
				c-13.6-0.3-24.3-11.6-24-25.2c0.3-13.6,11.6-24.3,25.2-24c8.9,0.2,16.6,5.2,20.8,12.4c0,0,0,0,0,0.1"/>
			<path class="st3" d="M1008.9,337.5c-0.4-1.8-0.9-3.5-1.4-5.2c1.9,3.2,3,6.9,3.2,10.8c0,0.1,0,0.3,0,0.4c0,0,0,0.1,0,0.1
				c0,0.1,0,0.2,0,0.3c0,0.1,0,0.3,0,0.4c0,0.2,0,0.4,0,0.6"/>
			<path class="st3" d="M1010.6,345.8c0,0.1,0,0.3,0,0.4c0,0.1,0,0.1,0,0.2c0,0.6-0.1,1.1-0.2,1.7c0-0.1,0-0.3,0-0.4"/>
			<path class="st3" d="M1010.7,344.6v0.4c0,0.3,0,0.5,0,0.8c-0.1,0.7-0.1,1.3-0.3,1.9c-1.5,7.1-7.8,12.3-15.2,12.1
				c-8.4-0.2-15-7.2-14.8-15.6c0.2-8.4,7.2-15,15.6-14.8c5.7,0.1,10.5,3.4,13,8.1C1010,339.6,1010.7,342.1,1010.7,344.6z"/>
		</g>
	</g>
	<g id="XMLID_101_">
		<g id="XMLID_112_">
			<g id="XMLID_342_">
			</g>
			<g id="XMLID_341_">
			</g>
		</g>
	</g>
	<g id="XMLID_102_">
		<g id="XMLID_100_">
			<g id="XMLID_132_">
				<path class="st4" d="M265.5,285.3c0,0.4,0,0.7,0,1.1c0,2.6-0.3,5.2-0.7,7.7c-1.9,11.6-8,21.8-16.7,29c-1.8,1.4-3.6,2.8-5.6,3.9
					v-26.5v-14.1v-14.1l-25.6-14.9L265.5,285.3z"/>
				<path class="st4" d="M265.5,285.3l-48.6-27.9l-22.4,14.1l44-27.8c3.4,1.6,6.7,3.7,9.6,6.1c8.7,7.1,14.8,17.3,16.7,29
					C265.2,280.9,265.4,283.1,265.5,285.3z"/>
				<path class="st5" d="M265.5,285.3c-0.1-2.2-0.3-4.4-0.7-6.6c-1.9-11.6-8-21.8-16.7-29c-2.9-2.4-6.1-4.4-9.6-6.1
					c-2.2-1-4.4-1.9-6.8-2.6c-4.3-1.3-8.8-2-13.5-2c-5.8,0-11.3,1.1-16.4,3c-2.5,1-5,2.1-7.3,3.5c-1.9,1.1-3.8,2.4-5.6,3.8
					c-9.1,7.2-15.5,17.7-17.4,29.7c-0.4,2.4-0.6,4.9-0.6,7.4c0,2.5,0.3,5,0.6,7.4c1.9,12,8.3,22.5,17.4,29.7
					c2.1,1.7,4.4,3.2,6.8,4.5c1.9,1,4,2,6.1,2.7c5.1,1.9,10.6,3,16.4,3c4.7,0,9.2-0.7,13.5-2c3.8-1.1,7.4-2.7,10.7-4.7
					c2-1.2,3.9-2.5,5.6-3.9c8.7-7.1,14.8-17.4,16.7-29c0.4-2.5,0.7-5.1,0.7-7.7C265.5,286.1,265.5,285.7,265.5,285.3z M218.2,232.6
					c29.8,0,53.9,24.1,53.9,53.9c0,29.8-24.1,53.9-53.9,53.9c-29.8,0-53.9-24.1-53.9-53.9C164.3,256.7,188.4,232.6,218.2,232.6z"/>
				<path class="st4" d="M242.5,300.6V327c-3.3,2-6.9,3.6-10.7,4.7c-4.3,1.3-8.8,2-13.5,2c-5.8,0-11.3-1.1-16.4-3
					c-2.1-0.8-4.1-1.7-6.1-2.7L242.5,300.6z"/>
				<path class="st5" d="M242.5,286.4v14.1l-25.6,14.9l-22.4-14.1v-14.9h1.2c0,12.4,10.1,22.5,22.5,22.5c12.4,0,22.5-10.1,22.5-22.5
					H242.5z"/>
				<path class="st5" d="M242.5,272.3v14.1h-1.8c0-12.4-10.1-22.5-22.5-22.5c-12.4,0-22.5,10.1-22.5,22.5h-1.2v-14.9l22.4-14.1
					L242.5,272.3z"/>
				<path class="st4" d="M242.5,300.6L195.7,328c-2.4-1.3-4.7-2.8-6.8-4.5c-9.1-7.2-15.5-17.7-17.4-29.7c-0.4-2.4-0.6-4.9-0.6-7.4
					l23.6,14.9l22.4,14.1L242.5,300.6z"/>
				<path class="st4" d="M238.5,243.7l-44,27.8v-25.9l-0.1-0.1c2.3-1.3,4.8-2.5,7.3-3.5c5.1-1.9,10.6-3,16.4-3c4.7,0,9.2,0.7,13.5,2
					C234.1,241.8,236.3,242.7,238.5,243.7z"/>
				<path class="st4" d="M218.2,263.9c12.4,0,22.5,10.1,22.5,22.5c0,12.4-10.1,22.5-22.5,22.5c-12.4,0-22.5-10.1-22.5-22.5
					C195.7,274,205.7,263.9,218.2,263.9z M237.1,286.4c0-10.4-8.5-18.9-18.9-18.9c-10.4,0-18.9,8.5-18.9,18.9
					c0,10.4,8.5,18.9,18.9,18.9C228.6,305.3,237.1,296.9,237.1,286.4z"/>
				<path class="st6" d="M218.2,267.5c10.4,0,18.9,8.5,18.9,18.9c0,10.4-8.5,18.9-18.9,18.9c-10.4,0-18.9-8.5-18.9-18.9
					C199.3,276,207.7,267.5,218.2,267.5z"/>
				<path class="st4" d="M194.5,286.4v14.9l-23.6-14.9c0-2.5,0.3-5,0.6-7.4c1.9-12,8.3-22.5,17.4-29.7c1.8-1.4,3.6-2.6,5.6-3.8
					l0.1,0.1v25.9V286.4z"/>
			</g>
			<g id="XMLID_133_">
				<path class="st3" d="M272,286.4c0-29.8-24.1-53.9-53.9-53.9c-29.8,0-53.9,24.1-53.9,53.9c0,29.8,24.1,53.9,53.9,53.9
					C247.9,340.3,272,316.2,272,286.4z"/>
				<path class="st3" d="M276.3,286.4c0-32.1-26-58.1-58.1-58.1c-32.1,0-58.2,26-58.2,58.1s26,58.1,58.2,58.1
					C250.3,344.6,276.3,318.5,276.3,286.4z"/>
				<path class="st3" d="M265.5,285.3c-0.1-2.2-0.3-4.4-0.7-6.6c-1.9-11.6-8-21.8-16.7-29c-2.9-2.4-6.1-4.4-9.6-6.1
					c-2.2-1-4.4-1.9-6.8-2.6c-4.3-1.3-8.8-2-13.5-2c-5.8,0-11.3,1.1-16.4,3c-2.5,1-5,2.1-7.3,3.5c-1.9,1.1-3.8,2.4-5.6,3.8
					c-9.1,7.2-15.5,17.7-17.4,29.7c-0.4,2.4-0.6,4.9-0.6,7.4c0,2.5,0.3,5,0.6,7.4c1.9,12,8.3,22.5,17.4,29.7
					c2.1,1.7,4.4,3.2,6.8,4.5c1.9,1,4,2,6.1,2.7c5.1,1.9,10.6,3,16.4,3c4.7,0,9.2-0.7,13.5-2c3.8-1.1,7.4-2.7,10.7-4.7
					c2-1.2,3.9-2.5,5.6-3.9c8.7-7.1,14.8-17.4,16.7-29c0.4-2.5,0.7-5.1,0.7-7.7C265.5,286.1,265.5,285.7,265.5,285.3z"/>
				<polyline class="st3" points="194.5,271.6 216.9,257.4 242.5,272.3 				"/>
				<line class="st3" x1="242.5" y1="300.6" x2="216.9" y2="315.4"/>
				<path class="st3" d="M240.7,286.4c0-12.4-10.1-22.5-22.5-22.5c-12.4,0-22.5,10.1-22.5,22.5c0,12.4,10.1,22.5,22.5,22.5
					C230.6,308.9,240.7,298.9,240.7,286.4z"/>
				<path class="st3" d="M237.1,286.4c0-10.4-8.5-18.9-18.9-18.9c-10.4,0-18.9,8.5-18.9,18.9c0,10.4,8.5,18.9,18.9,18.9
					C228.6,305.3,237.1,296.9,237.1,286.4z"/>
				<path class="st3" d="M233.6,282.5c-1.2-4.8-4.6-8.7-9.1-10.7"/>
				<path class="st3" d="M204.7,295c2.4,3.8,6.4,6.5,11.1,7.2"/>
				<polyline class="st3" points="194.5,301.3 194.5,286.4 194.5,271.6 194.5,245.6 				"/>
				<polyline class="st3" points="216.9,315.4 194.5,301.3 170.8,286.4 				"/>
				<line class="st3" x1="242.5" y1="300.6" x2="195.7" y2="328"/>
				<polyline class="st3" points="242.5,272.3 242.5,286.4 242.5,300.6 242.5,327 242.5,327.1 				"/>
				<polyline class="st3" points="216.9,257.4 265.5,285.3 265.5,285.3 				"/>
				<line class="st3" x1="194.5" y1="271.6" x2="238.5" y2="243.7"/>
			</g>
		</g>
	</g>
	<g id="XMLID_207_">
		<g id="XMLID_209_">
			<g id="XMLID_218_">
			</g>
			<g id="XMLID_217_">
			</g>
		</g>
	</g>
	<g id="XMLID_6_">
		<g id="XMLID_123_">
			<g id="XMLID_191_">
				<path class="st4" d="M464.6,290.3c0,0.4,0,0.7,0,1.1c0,2.6-0.3,5.2-0.7,7.7c-1.9,11.6-8,21.8-16.7,29c-1.8,1.4-3.6,2.8-5.6,3.9
					v-26.5v-14.1v-14.1L416,262.4L464.6,290.3z"/>
				<path class="st4" d="M464.6,290.3L416,262.4l-22.4,14.1l44-27.8c3.4,1.6,6.7,3.7,9.6,6.1c8.7,7.1,14.8,17.3,16.7,29
					C464.3,285.9,464.5,288.1,464.6,290.3z"/>
				<path class="st5" d="M464.6,290.3c-0.1-2.2-0.3-4.4-0.7-6.6c-1.9-11.6-8-21.8-16.7-29c-2.9-2.4-6.1-4.4-9.6-6.1
					c-2.2-1-4.4-1.9-6.8-2.6c-4.3-1.3-8.8-2-13.5-2c-5.8,0-11.3,1.1-16.4,3c-2.5,1-5,2.1-7.3,3.5c-1.9,1.1-3.8,2.4-5.6,3.8
					c-9.1,7.2-15.5,17.7-17.4,29.7c-0.4,2.4-0.6,4.9-0.6,7.4c0,2.5,0.3,5,0.6,7.4c1.9,12,8.3,22.5,17.4,29.7
					c2.1,1.7,4.4,3.2,6.8,4.5c1.9,1,4,2,6.1,2.7c5.1,1.9,10.6,3,16.4,3c4.7,0,9.2-0.7,13.5-2c3.8-1.1,7.4-2.7,10.7-4.7
					c2-1.2,3.9-2.5,5.6-3.9c8.7-7.1,14.8-17.4,16.7-29c0.4-2.5,0.7-5.1,0.7-7.7C464.6,291.1,464.6,290.7,464.6,290.3z M417.3,237.6
					c29.8,0,53.9,24.1,53.9,53.9c0,29.8-24.1,53.9-53.9,53.9c-29.8,0-53.9-24.1-53.9-53.9C363.4,261.7,387.5,237.6,417.3,237.6z"/>
				<path class="st4" d="M441.6,305.6V332c-3.3,2-6.9,3.6-10.7,4.7c-4.3,1.3-8.8,2-13.5,2c-5.8,0-11.3-1.1-16.4-3
					c-2.1-0.8-4.1-1.7-6.1-2.7L441.6,305.6z"/>
				<path class="st5" d="M441.6,291.4v14.1L416,320.4l-22.4-14.1v-14.9h1.2c0,12.4,10.1,22.5,22.5,22.5c12.4,0,22.5-10.1,22.5-22.5
					H441.6z"/>
				<path class="st5" d="M441.6,277.3v14.1h-1.8c0-12.4-10.1-22.5-22.5-22.5c-12.4,0-22.5,10.1-22.5,22.5h-1.2v-14.9l22.4-14.1
					L441.6,277.3z"/>
				<path class="st4" d="M441.6,305.6L394.8,333c-2.4-1.3-4.7-2.8-6.8-4.5c-9.1-7.2-15.5-17.7-17.4-29.7c-0.4-2.4-0.6-4.9-0.6-7.4
					l23.6,14.9l22.4,14.1L441.6,305.6z"/>
				<path class="st4" d="M437.6,248.7l-44,27.8v-25.9l-0.1-0.1c2.3-1.3,4.8-2.5,7.3-3.5c5.1-1.9,10.6-3,16.4-3c4.7,0,9.2,0.7,13.5,2
					C433.2,246.8,435.4,247.7,437.6,248.7z"/>
				<path class="st4" d="M417.3,268.9c12.4,0,22.5,10.1,22.5,22.5c0,12.4-10.1,22.5-22.5,22.5c-12.4,0-22.5-10.1-22.5-22.5
					C394.8,279,404.8,268.9,417.3,268.9z M436.2,291.4c0-10.4-8.5-18.9-18.9-18.9c-10.4,0-18.9,8.5-18.9,18.9
					c0,10.4,8.5,18.9,18.9,18.9C427.7,310.3,436.2,301.9,436.2,291.4z"/>
				<path class="st6" d="M417.3,272.5c10.4,0,18.9,8.5,18.9,18.9c0,10.4-8.5,18.9-18.9,18.9c-10.4,0-18.9-8.5-18.9-18.9
					C398.4,281,406.8,272.5,417.3,272.5z"/>
				<path class="st4" d="M393.6,291.4v14.9l-23.6-14.9c0-2.5,0.3-5,0.6-7.4c1.9-12,8.3-22.5,17.4-29.7c1.8-1.4,3.6-2.6,5.6-3.8
					l0.1,0.1v25.9V291.4z"/>
			</g>
			<g id="XMLID_178_">
				<path class="st3" d="M471.1,291.4c0-29.8-24.1-53.9-53.9-53.9c-29.8,0-53.9,24.1-53.9,53.9c0,29.8,24.1,53.9,53.9,53.9
					C447,345.3,471.1,321.2,471.1,291.4z"/>
				<path class="st3" d="M475.4,291.4c0-32.1-26-58.1-58.1-58.1c-32.1,0-58.2,26-58.2,58.1s26,58.1,58.2,58.1
					C449.4,349.6,475.4,323.5,475.4,291.4z"/>
				<path class="st3" d="M464.6,290.3c-0.1-2.2-0.3-4.4-0.7-6.6c-1.9-11.6-8-21.8-16.7-29c-2.9-2.4-6.1-4.4-9.6-6.1
					c-2.2-1-4.4-1.9-6.8-2.6c-4.3-1.3-8.8-2-13.5-2c-5.8,0-11.3,1.1-16.4,3c-2.5,1-5,2.1-7.3,3.5c-1.9,1.1-3.8,2.4-5.6,3.8
					c-9.1,7.2-15.5,17.7-17.4,29.7c-0.4,2.4-0.6,4.9-0.6,7.4c0,2.5,0.3,5,0.6,7.4c1.9,12,8.3,22.5,17.4,29.7
					c2.1,1.7,4.4,3.2,6.8,4.5c1.9,1,4,2,6.1,2.7c5.1,1.9,10.6,3,16.4,3c4.7,0,9.2-0.7,13.5-2c3.8-1.1,7.4-2.7,10.7-4.7
					c2-1.2,3.9-2.5,5.6-3.9c8.7-7.1,14.8-17.4,16.7-29c0.4-2.5,0.7-5.1,0.7-7.7C464.6,291.1,464.6,290.7,464.6,290.3z"/>
				<polyline class="st3" points="393.6,276.6 416,262.4 441.6,277.3 				"/>
				<line class="st3" x1="441.6" y1="305.6" x2="416" y2="320.4"/>
				<path class="st3" d="M439.8,291.4c0-12.4-10.1-22.5-22.5-22.5c-12.4,0-22.5,10.1-22.5,22.5c0,12.4,10.1,22.5,22.5,22.5
					C429.7,313.9,439.8,303.9,439.8,291.4z"/>
				<path class="st3" d="M436.2,291.4c0-10.4-8.5-18.9-18.9-18.9c-10.4,0-18.9,8.5-18.9,18.9c0,10.4,8.5,18.9,18.9,18.9
					C427.7,310.3,436.2,301.9,436.2,291.4z"/>
				<path class="st3" d="M432.7,287.5c-1.2-4.8-4.6-8.7-9.1-10.7"/>
				<path class="st3" d="M403.8,300c2.4,3.8,6.4,6.5,11.1,7.2"/>
				<polyline class="st3" points="393.6,306.3 393.6,291.4 393.6,276.6 393.6,250.6 				"/>
				<polyline class="st3" points="416,320.4 393.6,306.3 369.9,291.4 				"/>
				<line class="st3" x1="441.6" y1="305.6" x2="394.8" y2="333"/>
				<polyline class="st3" points="441.6,277.3 441.6,291.4 441.6,305.6 441.6,332 441.6,332.1 				"/>
				<polyline class="st3" points="416,262.4 464.6,290.3 464.6,290.3 				"/>
				<line class="st3" x1="393.6" y1="276.6" x2="437.6" y2="248.7"/>
			</g>
		</g>
	</g>
	<g id="XMLID_219_">
		<g id="XMLID_327_">
			<path id="XMLID_330_" class="st7" d="M775.4,145.8l-5.4,9.1c-0.5-0.1-1-0.3-1.5-0.4c-0.8-0.2-1.6-0.3-2.1-0.3c-1,0-1.7,2-2.5,4.3
				c-0.9-0.4-1.8-0.7-2.6-1c-1.3-0.5-2.5-1-3.5-1.3c-0.1,0-0.1,0-0.2-0.1c0.9-4.5,5.2-14.9,6.1-15c0,0,0.1,0,0.1,0
				c0.7,0.1,3.8,1.4,7,2.8C772.4,144.5,774,145.2,775.4,145.8z"/>
			<path id="XMLID_280_" class="st8" d="M825.4,176.7c-2.4,2-8.7,0.9-16.2-1.6c-3,4.4-6.6,7.5-10.8,7.9c-15.2,1.6-49-13.7-49-13.7
				s0-0.1,0.1-0.3c0.1-0.1,0.1-0.3,0.2-0.5c0.1-0.3,0.3-0.7,0.5-1.2c0.5-1.2,1.1-2.7,1.7-4.3c0,0,0,0,0,0c0.7-1.9,1.5-3.8,2.1-5.3
				c0.3,0.1,0.6,0.2,0.8,0.4c0.1-0.9,0.3-1.8,0.5-2.7c0.4,0,1.3,0.3,2.4,0.7c0.1,0,0.1,0,0.2,0.1c1,0.4,2.2,0.8,3.5,1.3
				c0.8,0.3,1.7,0.7,2.6,1c0.8,0.3,1.6,0.6,2.5,1c6.3,2.4,14,5.2,19.5,6c-9.5-4.5-17-8.6-17-8.6l1.1-1.9l5.4-9.1l0.6-1
				c0,0,9.5,5.3,18,9.1c0.1-15.8-2.8-43.4,6.4-47.9c8.5-4.1,15.2-1,18.5,1.4c0.1,0.4,0.2,1.1,0.4,1.8h0c0.4,1.4,1.1,3.3,1.8,5.4
				c0.8,2.5,1.7,5.4,2.4,8.1l1,5.6c0.3,4-1.2,8.3-2.8,11.7c-0.8,1.8-1,3.6-0.6,5.4c0.4,2.1,1.7,4.1,3.6,5.4c1.1,0.7,2.3,1.5,3.5,2.3
				C829.1,163.5,829,173.7,825.4,176.7z"/>
			<path id="XMLID_329_" class="st9" d="M771.1,143c0,0-0.1,0.3-0.3,0.8c-0.4,1-1.1,2.8-1.6,5h0c0,0.1,0,0.1,0,0.2
				c-0.2,0.7-0.3,1.4-0.4,2.2c0,0,0,0.1,0,0.1c-0.1,0.3-0.1,0.6-0.1,1c0,0.1,0,0.1,0,0.2c0,0.4-0.1,0.8-0.1,1.3c0,0.2,0,0.5,0,0.7
				c0,0.5,0.1,1,0.1,1.5c0,0-1.3,1.5-2.3,3.4c-0.8-0.3-1.7-0.7-2.5-1c-0.9-0.4-1.8-0.7-2.6-1c-1.3-0.5-2.5-1-3.5-1.3
				c-0.1,0-0.1,0-0.2-0.1c-1.1-0.4-1.9-0.7-2.4-0.7c0.5-2.4,1.1-4.6,1.7-6.4c1.6-4.9,4.1-9.4,6.3-9.7c0.4,0,0.9,0.1,1.4,0.2
				C767.2,140.2,771.1,143,771.1,143z"/>
			<path id="XMLID_288_" class="st10" d="M769.1,148.8c0,0.1,0,0.1-0.1,0.2c-0.2,0.7-0.3,1.4-0.4,2.2c0,0,0,0.1,0,0.1
				c0,0.3-0.1,0.6-0.1,1c0,0.1,0,0.1,0,0.2c0,0.4-0.1,0.8-0.1,1.3c0,0.2,0,0.5,0,0.7c0,0.5,0.1,1,0.1,1.5c0,0-1.3,1.5-2.3,3.4
				c-0.8-0.3-1.7-0.7-2.5-1c-0.9-0.4-1.8-0.7-2.6-1c-0.1-0.6-0.1-1.2,0-1.9C761.7,151.3,766.4,149.5,769.1,148.8L769.1,148.8z"/>
			<path id="XMLID_290_" class="st11" d="M764.8,139.2c0,0,0,0.1-0.1,0.2c-0.2,0.3-0.5,0.8-0.9,1.6c-1.7,3.2-5.2,10.1-5.8,14.2
				c0,0.3-0.1,0.5-0.1,0.8c-0.1,0-0.1,0-0.2-0.1c-1.1-0.4-1.9-0.7-2.4-0.7c-0.2,0.9-0.4,1.8-0.5,2.7c-0.2-0.1-0.5-0.2-0.8-0.4
				c-0.6,1.5-1.3,3.4-2.1,5.3c0,0,0,0,0,0c0.1-1.9,0.3-3.9,0.7-5.9c0.6-3.5,1.5-6.9,2.2-9.2c1.8-6,5.4-11,7-10.8
				C763.3,137.1,764.8,139.2,764.8,139.2z"/>
		</g>
		<g id="XMLID_322_">
			<path id="XMLID_299_" class="st7" d="M754,157.6c-0.6,1.5-1.3,3.4-2.1,5.3c0,0,0,0,0,0c-0.6,1.6-1.2,3.2-1.7,4.3
				c-1-0.3-2.1-0.7-3-0.9c-0.8-0.2-1.6-0.3-2.1-0.3c-1.6,0-2.6,5.2-3.9,8.7c-0.6,1.6-1.3,2.9-2.2,3c-2.2,0.3-3.1-3.2-3-7v0
				c0-1,0.1-1.9,0.3-2.8c0.8-4.4,5.2-15,6.1-15.1c0,0,0.1,0,0.1,0c0.7,0.1,3.8,1.4,7,2.8c1.1,0.5,2.2,0.9,3.2,1.4
				C753,157.2,753.5,157.4,754,157.6z"/>
			<path id="XMLID_325_" class="st9" d="M741.9,151.1c-2.2,0.2-4.7,4.7-6.3,9.7c-1.6,4.9-3.6,13.7-2,17.5c1.6,3.8,14.2,7.4,14.3,4.1
				c0.1-3.3-3.9-3.3-4.1-6.8c-0.2-3.6,3.5-7.7,3.5-7.7c-1-5.5,2.4-12.9,2.4-12.9S744.1,150.9,741.9,151.1z"/>
			<path id="XMLID_324_" class="st10" d="M737.8,180.7c-0.3,0.2-0.6,0.3-0.9,0.5c4.3,2.3,10.9,3.6,11,1.2c0.1-3.3-3.9-3.3-4.1-6.8
				s3.5-7.7,3.5-7.7c-0.4-2.3-0.1-4.9,0.5-7.1c-2.8,0.7-7.4,2.5-7.8,6.7C739.3,173.4,744.6,177.2,737.8,180.7z"/>
			<path id="XMLID_323_" class="st11" d="M743.4,151.1c0,0-1.5-2.1-3.1-2.2c-1.5-0.2-5.2,4.8-7,10.8c-1.8,6-5.1,19.8-0.6,22.7
				c4.5,2.9,14,4.5,14.6,3.9c0.6-0.6,1-3.3,0.5-3.9c-0.5-0.6-7.8-0.9-10.6-3.3c-2.9-2.4-1.6-6.4-0.7-12
				C737.5,161.5,743.4,151.1,743.4,151.1z"/>
		</g>
		<g id="XMLID_302_">
			<g id="XMLID_303_">
				
					<rect id="XMLID_321_" x="911.8" y="132.2" transform="matrix(1 -1.194187e-03 1.194187e-03 1 -0.1664 1.0902)" class="st11" width="2.1" height="15.4"/>
				<g id="XMLID_306_">
					
						<rect id="XMLID_320_" x="923" y="135.6" transform="matrix(1 -1.225578e-03 1.225578e-03 1 -0.1724 1.1463)" class="st11" width="24.4" height="11.2"/>
					
						<rect id="XMLID_319_" x="933.1" y="134.4" transform="matrix(1 -1.220215e-03 1.220215e-03 1 -0.1716 1.1451)" class="st12" width="10.4" height="13.5"/>
					
						<rect id="XMLID_318_" x="924.1" y="134.5" transform="matrix(1 -1.229070e-03 1.229070e-03 1 -0.1729 1.1395)" class="st12" width="5.9" height="13.5"/>
					<polygon id="XMLID_317_" class="st12" points="954,134.4 945.6,134.4 945.6,147.9 954,148 					"/>
					<g id="XMLID_307_">
						
							<rect id="XMLID_316_" x="933.9" y="135" transform="matrix(1 -1.209151e-03 1.209151e-03 1 -0.1629 1.1346)" class="st11" width="8.7" height="0.6"/>
						
							<rect id="XMLID_315_" x="933.9" y="136.5" transform="matrix(1 -1.224835e-03 1.224835e-03 1 -0.1668 1.1493)" class="st11" width="8.7" height="0.6"/>
						
							<rect id="XMLID_314_" x="933.9" y="138" transform="matrix(1 -1.224854e-03 1.224854e-03 1 -0.1686 1.1493)" class="st11" width="8.7" height="0.6"/>
						
							<rect id="XMLID_313_" x="933.9" y="139.4" transform="matrix(1 -1.224835e-03 1.224835e-03 1 -0.1704 1.1493)" class="st11" width="8.7" height="0.6"/>
						
							<rect id="XMLID_312_" x="933.9" y="140.9" transform="matrix(1 -1.240538e-03 1.240538e-03 1 -0.1744 1.164)" class="st11" width="8.7" height="0.6"/>
						
							<rect id="XMLID_311_" x="933.9" y="142.4" transform="matrix(1 -1.224854e-03 1.224854e-03 1 -0.174 1.1493)" class="st11" width="8.7" height="0.6"/>
						
							<rect id="XMLID_310_" x="933.9" y="143.8" transform="matrix(1 -1.240519e-03 1.240519e-03 1 -0.1781 1.164)" class="st11" width="8.7" height="0.6"/>
						
							<rect id="XMLID_309_" x="933.9" y="145.3" transform="matrix(1 -1.224854e-03 1.224854e-03 1 -0.1776 1.1493)" class="st11" width="8.7" height="0.6"/>
						
							<rect id="XMLID_308_" x="933.9" y="146.8" transform="matrix(1 -1.209133e-03 1.209133e-03 1 -0.1771 1.1346)" class="st11" width="8.7" height="0.6"/>
					</g>
				</g>
				<path id="XMLID_305_" class="st13" d="M914.6,153l7.2,0c1,0,1.7-0.8,1.7-1.7l0-20.6c0-1-0.8-1.7-1.7-1.7l-7.2,0
					c-1,0-1.7,0.8-1.7,1.7l0,20.6C912.9,152.2,913.7,153,914.6,153z"/>
				<path id="XMLID_304_" class="st11" d="M914.6,153l2.2,0l0-24.1l-2.2,0c-1,0-1.7,0.8-1.7,1.7l0,20.6
					C912.9,152.2,913.7,153,914.6,153z"/>
			</g>
		</g>
		<path id="XMLID_357_" class="st14" d="M942.8,146.8c0,0.2-0.1,0.4-0.2,0.6c-0.1,0.2-0.2,0.4-0.3,0.6c-1,1.7-3,3.6-5.1,4.1
			c-2.3,0.6-2.4,0.1-3.4,1.3c-1,1.3-9.4,17.5-14.8,23.2c-4.5,4.8-8.8,8.2-12.1,7.9c-0.7-0.1-2.1-1-3.7-2.4
			c-3.3-2.7-7.8-7.2-11.3-10.8c-0.8-0.8-1.6-1.6-2.2-2.3c0.5-0.3,1.1-0.7,1.5-1c0.4,1,0.9,1.9,1.4,2.8c2.5-1.9,4.9-4.3,6.5-6
			c0.5,0.8,1.1,1.6,1.6,2.4c1.5,2.1,3.2,3.8,4.7,4.3c0.9,0.3,2.4-0.4,4.1-1.6c6.6-4.5,17.5-16.8,17.7-17.4c0.2-0.6,1.3-3.1,2.3-4.5
			c0.2-0.3,0.3-0.5,0.5-0.7c0.2-0.2,0.4-0.4,0.5-0.4c0.5,0.1,1.5,0.2,2.5-0.1h0.1c0,0,0.1,0,0.1,0c0.5-0.2,0.9-0.4,1.3-0.9
			c0.1,0,0.1-0.1,0.1-0.1c0.1-0.1,0.2-0.3,0.3-0.4c0.2-0.3,0.4-0.6,0.7-0.9c0.1-0.2,0.3-0.4,0.5-0.6c0.3-0.3,0.6-0.6,1-0.9h0
			c0.3-0.2,0.6-0.4,0.9-0.6c0.7-0.4,1.5-0.5,2.3-0.2c0.2,0.1,0.4,0.1,0.5,0.2c0.3,0.1,0.6,0.4,0.9,0.6c0.3,0.2,0.6,0.6,0.7,0.9
			c0.1,0.1,0.2,0.3,0.2,0.4C943,145.1,943.1,146,942.8,146.8z"/>
		<path id="XMLID_277_" class="st15" d="M886.2,149c-0.2-0.2-0.3-0.5-0.5-0.7c0.1-0.1,0.2-0.1,0.4-0.2c0,0.1,0,0.2,0,0.3
			C886.2,148.6,886.2,148.8,886.2,149z"/>
		<path id="XMLID_279_" class="st15" d="M892.6,170.8c-0.2,0.2-0.5,0.3-0.7,0.5c-2.1,1.5-4.2,2.4-5.9,2.2c-0.2,0-0.7-0.6-1.5-1.5
			c1-0.4,2.1-1,3.1-1.6c0.7-0.4,1.4-0.9,2.1-1.3c0.5-0.3,1.1-0.7,1.5-1C891.6,168.9,892.1,169.9,892.6,170.8z"/>
		<g id="XMLID_294_">
			<path id="XMLID_344_" class="st7" d="M911,125.8c-0.4,3.6-2.3,5.2-2.2,6.8c0,0.8,0.7,2,1.2,3.1c0.5,1.1,0.9,2.1,0.6,2.6
				c-0.2,0.4-0.8,0.6-1.5,0.7c-1.2,0.2-2.6,0.1-2.7,0.3c-0.2,0.3,0.4,1.5-0.2,2.1c-0.6,0.5-2.7-0.4-2.8,0.3c-0.1,0.7,1.7,0.8,1,2.1
				c-0.6,1.3-2.5,0.3-3.1,1.9c-0.3,0.7-0.5,1.5-0.8,2.2c-0.2,0.3-0.4,0.6-0.7,0.8c-0.1,0.1-0.1,0.1-0.2,0.2
				c-0.1,0.1-0.1,0.1-0.2,0.1c-0.1,0.1-0.2,0.1-0.3,0.1c-0.2,0.1-0.5,0.1-0.8,0.1c-2.4,0.2-4.7-4.2-7.2-3.7c-0.3,0.1-0.7,0.2-1,0.4
				c-0.7,0.3-1.5,0.7-2.3,1.2c-0.8-0.8-1.6-1.5-2.4-2.1v0c-0.7-2.2-1.9-4.2-2.9-5.8c-0.6-0.9-1.3-1.6-2.1-2.2
				c0.7-0.5,1.3-1.2,1.5-2.2c0,0,0,0,0,0c0.1-0.6,0.1-1.3,0.1-2.1c0-0.3,0-0.5,0-0.8c0,0,0,0,0,0c0-1.3-0.1-2.7-0.1-4.3v0
				c0-2.7,0.3-5.6,1.6-8.2c2.7-5.3,16.4-12.5,25.2-0.5c0,0,0,0,0,0c0,0,0,0,0.1,0.1c0,0.1,0.1,0.1,0.2,0.2c0.2,0.3,0.5,0.7,0.8,1.2
				c0.1,0.1,0.2,0.3,0.2,0.4c0.1,0.2,0.2,0.4,0.3,0.6c0,0.1,0.1,0.1,0.1,0.2c0,0.1,0.1,0.1,0.1,0.2c0.1,0.2,0.2,0.5,0.3,0.8
				c0.1,0.1,0.1,0.3,0.1,0.4C911,123.9,911.1,124.8,911,125.8z"/>
			<path id="XMLID_282_" class="st14" d="M894,133.1c-1.3,3.4-3.5,11.1,3.4,13.5c1.2,0.4,2.2,0.8,3.2,1.2c-0.2,0.3-0.4,0.6-0.7,0.8
				c-0.1,0.1-0.1,0.1-0.2,0.2c-0.1,0.1-0.1,0.1-0.2,0.1c-0.1,0.1-0.2,0.1-0.3,0.1c-0.2,0.1-0.5,0.1-0.8,0.1
				c-2.4,0.2-4.7-4.2-7.2-3.7c-0.3,0.1-0.7,0.2-1,0.4c-0.7,0.3-1.5,0.7-2.3,1.2c-0.8-0.8-1.6-1.5-2.4-2.1v0
				c-0.7-2.2-1.9-4.2-2.9-5.8c-0.6-0.9-1.3-1.6-2.1-2.2c0.7-0.5,1.3-1.2,1.5-2.2c0,0,0,0,0,0c0.1-0.6,0.1-1.3,0.1-2.1
				c0-0.3,0-0.5,0-0.8c0,0,0,0,0,0c0-1.3-0.1-2.7-0.1-4.3v0c0-2.7,0.3-5.6,1.6-8.2c2.7-5.3,16.4-12.5,25.2-0.5c0,0,0,0,0,0
				c0,0,0,0,0.1,0.1c0,0.1,0.1,0.1,0.2,0.2c0.2,0.3,0.5,0.7,0.8,1.2c0.1,0.1,0.2,0.3,0.2,0.4c0.1,0.2,0.2,0.4,0.3,0.6
				c0,0.1,0.1,0.1,0.1,0.2c0,0.1,0.1,0.1,0.1,0.2c0.1,0.2,0.2,0.5,0.3,0.8c0.1,0.1,0.1,0.3,0.1,0.4c-1.9,1.3-4.4,2.6-6.8,2.6
				C899.2,125.5,895.3,129.7,894,133.1z"/>
			<path id="XMLID_297_" class="st11" d="M908.1,130.4c0.1-0.7-0.5-1.3-1.2-1.4c-0.7-0.1-1.3,0.5-1.4,1.2c-0.1,0.7,0.5,1.3,1.2,1.4
				C907.5,131.6,908.1,131.1,908.1,130.4z"/>
			<path id="XMLID_296_" class="st11" d="M908.5,126.8c0.5-0.8-1.1-1.6-2.5-1.3c-1.5,0.3-2.3,2.1-2.3,2.5c0.1,0.4,0.5-0.4,1.7-1.2
				S908.5,126.8,908.5,126.8z"/>
			<path id="XMLID_295_" class="st16" d="M878.3,135.3c0.6,0.2,1.7,0,4.9-0.9c3.2-0.9,4.6-1.2,4.4-2.6c-0.1-1.4-3.1-4.1-0.6-7.1
				c2.5-3,4.4-0.9,5.2,0.6c0.7,1.5-0.2,2.9,0.5,3.9c0.7,1,2.9-1,3.7-2.5c0.7-1.5,1,0.5,3.8-0.6s3-4.3,3-4.3s5.1,2.4,9.2-1.8
				c4.1-4.2,3.6-6.4,2.7-6c-0.9,0.4-3,1.7-2.9,0.8c0.1-0.9,0.9-3.8-0.4-3.1c-1.3,0.7-2.8,1.8-3.1,1.4c-0.3-0.4,0.5-3.2-0.6-3.1
				s-1,1.6-5.1,1.5c-4.1-0.1-8.2-2.6-11.3-2.7c-3.1-0.1-6.1,3.3-6.1,3.3s-2.3-0.7-4,0.7c-1.7,1.4-3.5,6.8-3.1,10.7
				c0.4,3.9,2.1,8.4,1,10.1C878.3,135.3,877.7,135.2,878.3,135.3z"/>
		</g>
		<path id="XMLID_273_" class="st17" d="M823.5,122.7c-0.7-2.7-1.6-5.6-2.4-8.1c-0.7-2.1-1.3-4-1.8-5.4c1.2,0.1,1.9,0.2,1.9,0.2
			l0.8,4.9L823.5,122.7z"/>
		<path id="XMLID_269_" class="st17" d="M828.2,153.1c-1.3-0.8-2.5-1.6-3.5-2.3c-1.9-1.3-3.2-3.3-3.6-5.4c-0.4-1.8-0.2-3.7,0.6-5.4
			c1.6-3.3,3-7.6,2.8-11.7c0,0,0,0.2,0.1,0.5c0,0,0,0,0,0C825.1,131.4,827.2,142.3,828.2,153.1z"/>
		<path id="XMLID_267_" class="st18" d="M755.3,155.3c-0.2,0.9-0.4,1.8-0.5,2.7c-0.2-0.1-0.5-0.2-0.8-0.4c0.5-1.1,0.8-2,0.9-2.3
			C754.9,155.3,755.1,155.3,755.3,155.3z"/>
		<path id="XMLID_286_" class="st18" d="M824.6,128.9C824.6,128.9,824.6,128.9,824.6,128.9c0,2.2-0.3,4.4-0.8,6.3
			c-0.7,2.3-1.5,6-2.7,10.3c-0.4-1.8-0.2-3.7,0.6-5.4c1.6-3.3,3-7.6,2.8-11.7l-1-5.6c-0.7-2.7-1.6-5.6-2.4-8.1
			c-0.7-2.1-1.3-4-1.8-5.4h0c-0.2-0.7-0.4-1.3-0.4-1.8c1.5,1.1,2.3,2,2.3,2s0.6,1.9,1.4,4.8c0.8,3.1,1.7,7.4,1.9,11.8
			c0,0.2,0,0.4,0,0.7C824.6,127.3,824.6,128.1,824.6,128.9z"/>
		<path id="XMLID_272_" class="st15" d="M824.6,128.9C824.6,128.9,824.6,128.9,824.6,128.9c0,2.2-0.3,4.4-0.8,6.3
			c-0.7,2.3-1.5,6-2.7,10.3c-0.4-1.8-0.2-3.7,0.6-5.4c1.6-3.3,3-7.6,2.8-11.7l-1-5.6c-0.7-2.7-1.6-5.6-2.4-8.1
			c0.4-0.1,0.7-0.3,1-0.3c0.2-0.1,0.4-0.1,0.5-0.2c0.8,3.1,1.7,7.4,1.9,11.8c0,0.2,0,0.4,0,0.7C824.6,127.3,824.6,128.1,824.6,128.9
			z"/>
		<path id="XMLID_352_" class="st19" d="M878.4,138c-0.9,0.4-1.7,0.5-1.7,0.6c0,0.1,0.6,1.4,1.3,3c-0.4-0.1-0.8-0.1-1.3-0.1h-0.1
			c-0.2,0-0.5,0-0.7,0.1c-0.1,0-0.1,0-0.2,0c-0.2,0-0.4,0.1-0.5,0.1c-0.5,0.1-1,0.3-1.5,0.5c-3.1,1.3-5,4.2-5.3,7.4
			c-0.2,1.6,0.1,3.3,0.8,4.9c0.8,1.6,1.6,3.5,2.6,5.5c0.7,1.4,1.3,2.7,2,4.1c-1.8,0.5-3.7,0.8-5.7,0.9c0,0,0,0,0,0
			c-5.6,0.5-11.7-0.1-17.4-1.3c-7.4-1.6-16.1-6.4-22.7-10.6c-1.3-0.8-2.5-1.6-3.5-2.3c-1.9-1.3-3.2-3.3-3.6-5.4
			c-0.4-1.8-0.2-3.7,0.6-5.4c1.6-3.3,3-7.6,2.8-11.7c-0.1-1.7-0.5-3.6-1-5.6c-0.7-2.7-1.6-5.6-2.4-8.1c-0.7-2.1-1.3-4-1.8-5.4h0
			c-0.2-0.7-0.4-1.3-0.4-1.8c-0.1-0.6,0-0.9,0.2-0.8c0.1,0,0.5,0.1,1,0.4c0.1,0,0.2,0.1,0.3,0.1c0.3,0.2,0.7,0.3,1,0.5
			c0.2,0.1,0.4,0.2,0.6,0.4c1.3,0.7,3,1.7,4.8,2.8c0.4,0.3,0.9,0.5,1.3,0.8c0.4,0.2,0.8,0.5,1.3,0.7c0.6,0.4,1.3,0.8,2,1.2
			c0.4,0.2,0.8,0.5,1.2,0.8c0.5,0.3,0.9,0.6,1.4,0.9c0,0,0,0,0,0c4.5,2.8,9.4,5.9,13.9,8.9c2.6,1.8,5.1,3.4,7.1,4.9
			c7.6,5.5,15.6,6.4,20.2,6.5c0.7,0,1.4,0.1,2,0.2c0.1,0,0.2,0.1,0.3,0.1c0,0,0.1,0,0.1,0c0.4,0.1,0.8,0.3,1.2,0.5
			c0.4,0.2,0.9,0.5,1.3,0.8C879.7,137.4,879,137.8,878.4,138z"/>
		<path id="XMLID_275_" class="st19" d="M886.2,149c-0.2-0.2-0.3-0.5-0.5-0.7c0.1-0.1,0.2-0.1,0.4-0.2c0,0.1,0,0.2,0,0.3
			C886.2,148.6,886.2,148.8,886.2,149z"/>
		<path id="XMLID_293_" class="st20" d="M874,164.1c-1.8,0.5-3.7,0.8-5.7,0.9c0,0,0,0,0,0c-5.6,0.5-11.7-0.1-17.4-1.3
			c-7.4-1.6-16.1-6.4-22.7-10.6c-1.3-0.8-2.5-1.6-3.5-2.3c-1.9-1.3-3.2-3.3-3.6-5.4c-0.4-1.8-0.2-3.7,0.6-5.4
			c1.6-3.3,3-7.6,2.8-11.7c-0.1-1.7-0.5-3.6-1-5.6c-0.7-2.7-1.6-5.6-2.4-8.1c-0.7-2.1-1.3-4-1.8-5.4h0c-0.2-0.7-0.4-1.3-0.4-1.8
			c-0.1-0.6,0-0.9,0.2-0.8c0.1,0,0.5,0.1,1,0.4c0.1,0,0.2,0.1,0.3,0.1c0.3,0.2,0.7,0.3,1,0.5c0.2,0.1,0.4,0.2,0.6,0.4
			c1.3,0.7,3,1.7,4.8,2.8c0.4,0.3,0.9,0.5,1.3,0.8c0.4,0.2,0.8,0.5,1.3,0.7c0.6,0.4,1.3,0.8,2,1.2c0.4,0.2,0.8,0.5,1.2,0.8
			c0.5,0.3,0.9,0.6,1.4,0.9c-0.1,0.9-0.2,2-0.3,3.2c0,0.4-0.1,0.8-0.1,1.2c0,0.1,0,0.2,0,0.4c-0.5,5.5-0.7,12.8,0.7,16.9
			c1,3.1,4.3,6.1,8.5,8.5c2.2,1.3,4.6,2.4,7.1,3.3c3.9,1.4,8,2.2,11.5,2.1c2.4-0.1,4.8-0.5,7.2-1c-0.2,1.6,0.1,3.3,0.8,4.9
			c0.8,1.6,1.6,3.5,2.6,5.5C872.6,161.4,873.3,162.8,874,164.1z"/>
		<path id="XMLID_274_" class="st20" d="M886.2,149c-0.2-0.2-0.3-0.5-0.5-0.7c0.1-0.1,0.2-0.1,0.4-0.2c0,0.1,0,0.2,0,0.3
			C886.2,148.6,886.2,148.8,886.2,149z"/>
		<path id="XMLID_351_" class="st7" d="M925,150.2c-0.2,0.4-0.8,0.7-1.4,1.1c-1.5,0.7-3.7,1.2-5.4,1.7c-1.2,0.3-2.2,0.6-2.5,0.9
			c-1.1,0.9-2.2,4.4-3.8,9.7c-0.4,1.3-1.2,3.7-2.2,6.4c-1.5,4-3.7,8.7-6.4,12.2c-2.6,3.4-5.7,5.5-9.1,4.3
			c-6.1-2.3-10.5-9.2-12.7-13.4c0.1,0,0.3,0,0.4-0.1c0.8-0.2,1.8-0.5,2.7-0.9c1-0.4,2.1-1,3.1-1.6c0.7-0.4,1.4-0.9,2.1-1.3
			c0.5-0.3,1.1-0.7,1.5-1c0.4,1,0.9,1.9,1.4,2.8c1,1.9,2.1,3.3,3.1,3.2c1.1-0.1,3-3.1,5-6.8c2.7-5.1,5.5-11.7,6.3-14.1
			c1.5-4.1,0.9-5.4,1.7-7.9c0.6-1.9,0.4-4.6,0.4-6.2c0-0.5,0-0.9,0.1-1.1c0.1-0.3,0.4-1.1,0.7-2.2c0.6-2.1,1.5-4.9,2.3-4.9
			c0.2,0,0.4,0,0.5,0.1c1.1,0.5,2.3,2.4,1.3,4c-0.1,0.2-0.2,0.4-0.3,0.6v0.1c-0.8,1.8-1.1,4-0.2,4.3c0.1,0,0.1,0,0.2,0
			c0.6,0.1,1.7-0.1,3-0.4c1.9-0.4,4-0.9,4.6-0.9c0.7,0,1.2,0.1,1.6,0.3c0.2,0.1,0.3,0.3,0.5,0.5c0,0,0.1,0.1,0.1,0.1
			c0.3,0.4,0.1,0.8-0.1,1.2c-0.1,0.3-0.4,0.6-0.5,1v0c0,0,0,0,0,0c-0.1,0.2-0.1,0.4,0,0.5v0.1c0.1,0.2,0.3,0.2,0.5,0.3
			c0.2,0.1,0.4,0.2,0.6,0.5c0.1,0.1,0.1,0.1,0.1,0.2c0.2,0.5,0.1,0.9-0.1,1.5v0c-0.2,0.4-0.4,0.8-0.6,1.3v0.1c0,0.1-0.1,0.1-0.1,0.2
			c-0.1,0.2-0.1,0.4,0,0.6c0,0.1,0.1,0.1,0.1,0.2v0.1c0.1,0.3,0.4,0.5,0.6,0.8l0.1,0.1C924.9,148.6,925.5,149.2,925,150.2z"/>
		<path id="XMLID_278_" class="st11" d="M874.2,164.7c-1.5,0.3-3.6,0.5-6,0.4c0,0,0,0,0,0c-5.1-0.2-11.6-2-17.4-7.8
			c-3.9-3.9-6.4-8.1-8-11.9c-1.6-3.9-2.3-7.4-2.7-9.9c-0.3-2.6-0.2-4.2-0.2-4.2l5,2.9c0,0,0.1,1,0.4,2.7c0.6,2.9,1.8,7.5,4.6,11.9
			c2.2,3.5,5.4,6.7,9.9,8.6c5.9,2.4,9.8,3,12.2,2.9c0.7,1.4,1.3,2.7,2,4.1C874,164.3,874.1,164.5,874.2,164.7z"/>
		<path id="XMLID_270_" class="st11" d="M886.2,149c-0.2-0.2-0.3-0.5-0.5-0.7c0.1-0.1,0.2-0.1,0.4-0.2c0,0.1,0,0.2,0,0.3
			C886.2,148.6,886.2,148.8,886.2,149z"/>
		<path id="XMLID_328_" class="st11" d="M890.2,149.7c-0.8-0.9-1.7-1.8-2.5-2.6c-0.8-0.8-1.6-1.5-2.4-2.1v0
			c-0.7-2.2-1.9-4.2-2.9-5.8c-0.6-0.9-1.3-1.6-2.1-2.2c-0.6,0.4-1.3,0.8-1.9,1c-0.4-0.4-0.8-0.8-1.2-1.2c0,0,0,0,0,0
			c0.1-0.1,0.2-0.5,0.5-1c0.1-0.3,0.3-0.5,0.6-0.9c0,0,0,0,0-0.1c0.4-0.5,0.8-1,1.3-1.4c0.6-0.4,1.2-0.7,2-0.7c0,0,0.1,0,0.1,0
			c0.1,0,0.1,0,0.2,0c0.6,0.1,1.4,0.7,2.2,1.5c2.4,2.5,5.1,7.5,5.9,11.6c0.1,0.6,0.2,1.2,0.2,1.8C890.3,148.4,890.3,149,890.2,149.7
			z"/>
		<path id="XMLID_339_" class="st8" d="M890.2,149.7c-0.8-0.9-1.7-1.8-2.5-2.6c-0.8-0.8-1.6-1.5-2.4-2.1v0c-0.7-2.2-1.9-4.2-2.9-5.8
			c-0.6-0.9-1.3-1.6-2.1-2.2c-0.6,0.4-1.3,0.8-1.9,1c-0.9,0.4-1.7,0.5-1.7,0.6c0,0.1,0.6,1.4,1.3,3c-0.4-0.1-0.8-0.1-1.3-0.1h-0.1
			c-0.2,0-0.5,0-0.7,0.1c-0.1,0-0.1,0-0.2,0c-0.2,0-0.4,0.1-0.5,0.1c-0.5,0.1-1,0.3-1.5,0.5c-3.1,1.3-5,4.2-5.3,7.4
			c-0.2,1.6,0.1,3.3,0.8,4.9c0.8,1.6,1.6,3.5,2.6,5.5c0.7,1.4,1.3,2.7,2,4.1c0.1,0.2,0.2,0.4,0.3,0.6c2.1,4.4,4,8,4.5,8.2
			c0.2,0.1,0.4,0.1,0.6,0.2c0.4,0.1,0.9,0.1,1.3,0c0.2,0,0.4,0,0.5-0.1c0.1,0,0.1,0,0.1,0h0c0.1,0,0.3,0,0.4-0.1
			c0.8-0.2,1.8-0.5,2.7-0.9c1-0.4,2.1-1,3.1-1.6c0.7-0.4,1.4-0.9,2.1-1.3c0.5-0.3,1.1-0.7,1.5-1c0.4,1,0.9,1.9,1.4,2.8
			c2.5-1.9,4.9-4.3,6.5-6c1-1.1,1.6-1.8,1.6-1.8S895.5,155.6,890.2,149.7z M885.8,148.3c0.1-0.1,0.2-0.1,0.4-0.2c0,0.1,0,0.2,0,0.3
			c0,0.2,0.1,0.4,0.1,0.6C886.1,148.8,885.9,148.5,885.8,148.3z"/>
		<path id="XMLID_223_" class="st11" d="M858.5,134c9.5,4,18.7,2.8,18.7,2.8c2.8-3.8,1.4-7.8,0.5-10.3c-0.9-2.5-3.6-1.2-9.1-4.2
			c-5.5-3-8.6-11.6-13.9-16.4c-5.3-4.8-14.6-11.3-20.7-9.4c-6.1,1.9-8.6,14.6-6.3,18.3C830.1,118.6,849,130.1,858.5,134z"/>
		<polygon id="XMLID_222_" class="st12" points="849.1,128 833,117.9 839.5,135.2 847.2,137.2 		"/>
		<path id="XMLID_221_" class="st12" d="M881.9,129.4c-0.6-7.1,0.2-7.8-6.1-10.8c-6.4-3-9.9-4.6-11.3-8.2c-1.4-3.7-6.3-5.2-7-1.1
			c-0.6,4.1,2.9,11.5,9.3,14.1c6.4,2.6,10,2,10.7,4.6c0.7,2.6-0.4,8.8-0.4,8.8S882.6,136.5,881.9,129.4z"/>
		<path id="XMLID_220_" class="st12" d="M849.1,124c2.8-0.3,5.3-9.5,4.1-13.1c-1.2-3.7-12.7-9.8-16.8-7c0,0-4.4,6.6-2.2,11.6
			C836.5,120.4,846.3,124.3,849.1,124z"/>
	</g>
</g>
</svg>
