<svg width="488" height="228" viewBox="0 0 488 228" fill="none" xmlns="http://www.w3.org/2000/svg">
<path d="M166.626 124.166C166.626 140.343 179.205 153.387 194.637 153.387C210.069 153.387 222.648 140.343 222.648 124.166C222.648 107.989 210.069 94.946 194.637 94.946C179.205 94.946 166.626 107.989 166.626 124.166Z" fill="white" stroke="black" stroke-width="2"/>
<path d="M171.212 124.166C171.212 137.69 181.728 148.6 194.637 148.6C207.547 148.6 218.063 137.69 218.063 124.166C218.063 110.643 207.547 99.7327 194.637 99.7327C181.728 99.7327 171.212 110.643 171.212 124.166Z" fill="white" stroke="black" stroke-width="1.5"/>
<path d="M218.33 124.67L207.358 131.326M194.637 139.276L206.725 131.721L207.358 131.326M170.945 123.663L181.582 117.216M194.637 109.056L181.582 117.216M207.358 131.326V115.1M207.358 103.516V115.1M181.582 117.216V133.232M181.582 144.817V133.232M206.725 145.32L181.582 133.232M182.549 103.012L207.358 115.1" stroke="black" stroke-width="1.5"/>
<path d="M185.967 124.166C185.967 129.216 189.887 133.24 194.637 133.24C199.388 133.24 203.308 129.216 203.308 124.166C203.308 119.116 199.388 115.093 194.637 115.093C189.887 115.093 185.967 119.116 185.967 124.166Z" fill="#3D9946"/>
<path d="M185.967 124.166C185.967 129.216 189.887 133.24 194.637 133.24C199.388 133.24 203.308 129.216 203.308 124.166C203.308 119.116 199.388 115.093 194.637 115.093C189.887 115.093 185.967 119.116 185.967 124.166Z" stroke="white" stroke-width="2"/>
<path d="M185.967 124.166C185.967 129.216 189.887 133.24 194.637 133.24C199.388 133.24 203.308 129.216 203.308 124.166C203.308 119.116 199.388 115.093 194.637 115.093C189.887 115.093 185.967 119.116 185.967 124.166Z" stroke="black" stroke-width="2"/>
<path d="M121.374 124.166C121.374 140.343 108.795 153.387 93.3626 153.387C77.9307 153.387 65.3516 140.343 65.3516 124.166C65.3516 107.989 77.9307 94.946 93.3626 94.946C108.795 94.946 121.374 107.989 121.374 124.166Z" fill="white" stroke="black" stroke-width="2"/>
<path d="M116.788 124.166C116.788 137.69 106.272 148.6 93.3627 148.6C80.4535 148.6 69.9368 137.69 69.9368 124.166C69.9368 110.643 80.4535 99.7327 93.3627 99.7327C106.272 99.7327 116.788 110.643 116.788 124.166Z" fill="white" stroke="black" stroke-width="1.5"/>
<path d="M69.6704 124.67L80.6419 131.326M93.3627 139.276L81.2748 131.721L80.6419 131.326M117.055 123.663L106.418 117.216M93.3627 109.056L106.418 117.216M80.6419 131.326V115.1M80.6419 103.516V115.1M106.418 117.216V133.232M106.418 144.817V133.232M81.2748 145.32L106.418 133.232M105.451 103.012L80.6419 115.1" stroke="black" stroke-width="1.5"/>
<path d="M102.033 124.166C102.033 129.216 98.113 133.24 93.3626 133.24C88.6122 133.24 84.6923 129.216 84.6923 124.166C84.6923 119.116 88.6122 115.093 93.3626 115.093C98.113 115.093 102.033 119.116 102.033 124.166Z" fill="#3D9946"/>
<path d="M102.033 124.166C102.033 129.216 98.113 133.24 93.3626 133.24C88.6122 133.24 84.6923 129.216 84.6923 124.166C84.6923 119.116 88.6122 115.093 93.3626 115.093C98.113 115.093 102.033 119.116 102.033 124.166Z" stroke="white" stroke-width="2"/>
<path d="M102.033 124.166C102.033 129.216 98.113 133.24 93.3626 133.24C88.6122 133.24 84.6923 129.216 84.6923 124.166C84.6923 119.116 88.6122 115.093 93.3626 115.093C98.113 115.093 102.033 119.116 102.033 124.166Z" stroke="black" stroke-width="2"/>
<path d="M27.9987 116.52L35.6336 204.164L3.40518 111.633L63.4878 42.5307L131.6 67.6239L139.143 113.737L115.986 84.0392L115.459 83.3632L114.654 83.0677L69.6922 66.5593L67.6693 65.8166L66.3196 67.4964L28.6487 114.38L27.8941 115.32L27.9987 116.52Z" fill="black" stroke="white" stroke-width="6"/>
<path d="M260.001 116.52L252.366 204.164L284.595 111.633L224.512 42.5307L156.4 67.6239L148.857 113.737L172.014 84.0392L172.541 83.3632L173.346 83.0677L218.308 66.5593L220.331 65.8166L221.68 67.4964L259.351 114.38L260.106 115.32L260.001 116.52Z" fill="black" stroke="white" stroke-width="6"/>
<path d="M131.24 152.106L144 124.844L156.759 152.106L144 192.198L131.24 152.106Z" fill="#141313" stroke="white" stroke-width="3"/>
<path d="M137.316 151.257L144 126.164L150.684 151.257L144 176.35L137.316 151.257Z" fill="#3D9946" stroke="#FFFEFE"/>
<path d="M485 134.428C485 184.445 445.527 224.856 397 224.856C348.473 224.856 309 184.445 309 134.428C309 84.4111 348.473 44 397 44C445.527 44 485 84.4111 485 134.428Z" fill="black" stroke="white" stroke-width="6"/>
<path d="M486 134.428C486 166.354 460.805 192.145 429.835 192.145C398.865 192.145 373.67 166.354 373.67 134.428C373.67 102.502 398.865 76.7112 429.835 76.7112C460.805 76.7112 486 102.502 486 134.428Z" fill="#5BBA47" stroke="white" stroke-width="4"/>
<path d="M486 134.428C486 156.247 468.785 173.845 447.66 173.845C426.534 173.845 409.32 156.247 409.32 134.428C409.32 112.609 426.534 95.0116 447.66 95.0116C468.785 95.0116 486 112.609 486 134.428Z" fill="black" stroke="white" stroke-width="4"/>
<path d="M486 133.947C486 146.457 476.136 156.508 464.077 156.508C452.019 156.508 442.155 146.457 442.155 133.947C442.155 121.437 452.019 111.386 464.077 111.386C476.136 111.386 486 121.437 486 133.947Z" fill="#5BBA47" stroke="white" stroke-width="4"/>
<path d="M486 133.947C486 141.669 479.916 147.839 472.521 147.839C465.126 147.839 459.041 141.669 459.041 133.947C459.041 126.224 465.126 120.054 472.521 120.054C479.916 120.054 486 126.224 486 133.947Z" fill="black" stroke="white" stroke-width="4"/>
<path d="M485.969 133.603C485.969 138.4 482.195 142.198 477.65 142.198C473.104 142.198 469.33 138.4 469.33 133.603C469.33 128.807 473.104 125.008 477.65 125.008C482.195 125.008 485.969 128.807 485.969 133.603Z" fill="#F5F5F5" stroke="white" stroke-width="4"/>
<path d="M361.631 28.8309L358.754 34.0626C358.456 33.9558 358.258 33.849 357.96 33.849C357.564 33.7423 357.068 33.6355 356.869 33.6355C356.373 33.6355 355.977 34.7032 355.58 36.0912C355.183 35.8776 354.588 35.7709 354.191 35.5573C353.497 35.237 352.902 35.0235 352.406 34.81C352.307 34.81 352.307 34.81 352.307 34.7032C352.703 32.1408 354.985 26.055 355.481 25.9482H355.58C355.878 26.055 357.564 26.8024 359.25 27.5497C360.044 28.1903 360.936 28.5106 361.631 28.8309Z" fill="#FBB97C" stroke="black" stroke-miterlimit="10"/>
<path d="M387.817 46.768C386.626 47.8357 383.353 47.3018 379.286 45.8071C377.699 48.2628 375.815 50.1846 373.633 50.3981C365.697 51.359 347.942 42.3905 347.942 42.3905C347.942 42.3905 347.942 42.2838 348.041 42.177C348.141 42.0702 348.141 41.9634 348.141 41.8567C348.24 41.6431 348.339 41.5364 348.438 41.2161C348.736 40.5755 349.033 39.6146 349.331 38.7604C349.629 37.6927 350.125 36.5183 350.422 35.6641C350.62 35.7709 350.72 35.7709 350.819 35.8777C350.918 35.3438 351.017 34.81 351.116 34.2761C351.315 34.2761 351.811 34.4897 352.307 34.5965C352.406 34.5965 352.406 34.5965 352.406 34.7032C352.902 34.9168 353.497 35.1303 354.191 35.4506C354.588 35.6641 355.084 35.7709 355.58 35.9844C355.977 36.198 356.473 36.3047 356.869 36.5183C360.143 37.9063 364.11 39.5078 367.086 39.9349C362.127 37.3724 358.159 34.9168 358.159 34.9168L358.754 33.8491L361.631 28.6174L361.928 28.0836C361.928 28.0836 366.888 31.1799 371.351 33.3152C371.45 24.1332 369.863 8.22475 374.724 5.55555C379.187 3.09989 382.659 5.02171 384.444 6.4097C384.544 6.62323 384.544 7.0503 384.643 7.47738C384.841 8.33152 385.238 9.3992 385.635 10.6804C386.031 12.1752 386.527 13.8835 386.825 15.3782L387.321 18.5812C387.519 20.9301 386.726 23.3858 385.833 25.3076C385.436 26.3753 385.337 27.3362 385.535 28.5107C385.734 29.6851 386.428 30.9663 387.42 31.7137C388.015 32.034 388.61 32.5679 389.205 32.9949C389.701 39.1875 389.701 45.0597 387.817 46.768Z" fill="#5BBA47" stroke="black" stroke-miterlimit="10"/>
<path d="M359.448 27.3362C359.448 27.3362 359.349 27.5497 359.25 27.7633C359.052 28.2971 358.655 29.3648 358.357 30.646C358.357 30.7528 358.357 30.7528 358.357 30.7528C358.258 31.0731 358.159 31.6069 358.159 32.034V32.1408C358.06 32.3543 358.06 32.4611 358.06 32.6746C358.06 32.7814 358.06 32.7814 358.06 32.7814C358.06 32.9949 357.961 33.2084 357.961 33.5287C357.961 33.6355 357.961 33.849 357.961 33.849C357.961 34.1694 358.06 34.3829 358.06 34.7032C358.06 34.7032 357.365 35.5573 356.869 36.625C356.473 36.4115 355.977 36.3047 355.58 36.0912C355.183 35.8776 354.588 35.7709 354.191 35.5573C353.497 35.237 352.902 35.0235 352.406 34.81C352.307 34.81 352.307 34.81 352.307 34.7032C351.712 34.4897 351.315 34.3829 351.116 34.3829C351.414 32.9949 351.712 31.7137 352.009 30.646C352.902 27.7633 354.191 25.2008 355.282 24.9873C355.481 24.9873 355.679 25.0941 355.977 25.0941C357.365 25.6279 359.448 27.3362 359.448 27.3362Z" fill="#D37528" stroke="black" stroke-miterlimit="10"/>
<path d="M358.357 30.646C358.357 30.7528 358.357 30.7528 358.357 30.646C358.159 31.0731 358.06 31.6069 358.06 32.034V32.1408C358.06 32.3543 357.961 32.4611 357.961 32.6746C357.961 32.7814 357.961 32.7814 357.961 32.7814C357.961 32.9949 357.861 33.2085 357.861 33.5288C357.861 33.6355 357.861 33.8491 357.861 33.8491C357.861 34.1694 357.961 34.3829 357.961 34.7032C357.961 34.7032 357.266 35.5574 356.77 36.625C356.373 36.4115 355.878 36.3047 355.481 36.0912C355.084 35.8777 354.489 35.7709 354.092 35.5574C353.993 35.2371 353.993 34.9168 354.092 34.4897C354.489 32.034 356.969 30.9663 358.357 30.646Z" fill="#BC6428" stroke="black" stroke-miterlimit="10"/>
<path d="M356.175 25.0941C356.175 25.0941 356.175 25.2008 356.175 25.0941C355.977 25.4144 355.878 25.6279 355.679 26.1617C354.786 27.9768 353.001 32.034 352.604 34.3829C352.604 34.5964 352.505 34.7032 352.505 34.8099C352.406 34.8099 352.406 34.8099 352.406 34.7032C351.811 34.4896 351.414 34.3829 351.216 34.3829C351.116 34.9167 351.017 35.4506 350.918 35.9844C350.819 35.8776 350.62 35.8776 350.521 35.7709C350.224 36.625 349.827 37.6927 349.43 38.8671C349.529 37.7995 349.629 36.625 349.728 35.4506C350.025 33.422 350.521 31.5001 350.819 30.2189C351.811 26.8023 353.695 23.8128 354.489 24.0264C355.282 23.9196 356.175 25.0941 356.175 25.0941Z" fill="black" stroke="black" stroke-miterlimit="10"/>
<path d="M350.422 35.7709C350.124 36.625 349.728 37.6927 349.331 38.8671C349.033 39.828 348.736 40.6822 348.438 41.3228C347.942 41.1093 347.347 41.0025 346.851 40.789C346.454 40.6822 345.958 40.5754 345.76 40.5754C344.867 40.5754 344.371 43.5649 343.677 45.5935C343.379 46.5544 342.983 47.3018 342.586 47.3018C341.495 47.5153 340.9 45.4867 340.999 43.2446C340.999 42.7108 341.098 42.1769 341.197 41.6431C341.594 39.1874 343.875 32.8881 344.371 32.8881H344.471C344.768 32.9949 346.454 33.7423 348.141 34.4896C348.736 34.8099 349.232 35.0235 349.827 35.3438C349.926 35.4506 350.224 35.5573 350.422 35.7709Z" fill="#FBB97C" stroke="black" stroke-miterlimit="10"/>
<path d="M344.074 31.9272C342.983 32.034 341.693 34.5964 340.801 37.5859C339.908 40.4686 338.916 45.5935 339.809 47.7289C340.701 49.971 347.248 51.9996 347.248 50.1845C347.347 48.2627 345.165 48.2627 345.066 46.3409C344.967 44.3123 346.851 41.8566 346.851 41.8566C346.355 38.6536 348.041 34.3829 348.041 34.3829C348.041 34.3829 345.363 31.8204 344.074 31.9272Z" fill="#D37528" stroke="black" stroke-miterlimit="10"/>
<path d="M341.991 49.1169C341.792 49.2236 341.693 49.3304 341.594 49.4372C343.875 50.7184 347.347 51.4658 347.347 50.0778C347.446 48.156 345.264 48.156 345.165 46.2341C345.066 44.2055 346.95 41.7499 346.95 41.7499C346.752 40.4687 346.851 38.8671 347.248 37.6927C345.76 38.013 343.38 39.1874 343.181 41.5363C342.784 44.8461 345.562 47.0883 341.991 49.1169Z" fill="#BC6428" stroke="black" stroke-miterlimit="10"/>
<path d="M344.867 31.9272C344.867 31.9272 344.074 30.7527 343.181 30.646C342.388 30.5392 340.503 33.4219 339.511 36.8385C338.519 40.2551 336.833 48.3695 339.214 49.971C341.594 51.6793 346.454 52.5334 346.851 52.2131C347.149 51.8928 347.347 50.2913 347.149 49.971C346.851 49.6507 343.082 49.4371 341.594 48.0492C340.106 46.6612 340.701 44.3123 341.297 41.1092C341.892 38.013 344.867 31.9272 344.867 31.9272Z" fill="black" stroke="black" stroke-miterlimit="10"/>
<path d="M434.035 21.0363L432.944 21.0377L432.954 29.8995L434.045 29.8981L434.035 21.0363Z" fill="black"/>
<g filter="url(#filter0_d_15_4)">
<path d="M451.692 22.9505L438.896 22.9674L438.904 29.4803L451.7 29.4633L451.692 22.9505Z" fill="black"/>
</g>
<g filter="url(#filter1_d_15_4)">
<path d="M449.608 22.3145L444.153 22.322L444.162 30.116L449.617 30.1085L449.608 22.3145Z" fill="#3E3D3D"/>
</g>
<g filter="url(#filter2_d_15_4)">
<path d="M442.566 22.3161L439.491 22.3204L439.5 30.1145L442.575 30.1102L442.566 22.3161Z" fill="#3E3D3D"/>
</g>
<g filter="url(#filter3_ddddd_15_4)">
<path d="M455.068 22.3181H450.703V30.1121L455.068 30.2189V22.3181Z" fill="#3E3D3D"/>
</g>
<path d="M449.116 22.6353L444.653 22.6414L444.653 22.9617L449.117 22.9556L449.116 22.6353Z" fill="black"/>
<path d="M449.117 23.4894L444.653 23.4955L444.653 23.8158L449.117 23.8097L449.117 23.4894Z" fill="black"/>
<path d="M449.117 24.3435L444.653 24.3497L444.653 24.67L449.117 24.6638L449.117 24.3435Z" fill="black"/>
<path d="M449.117 25.1976L444.653 25.2038L444.653 25.5241L449.117 25.5179L449.117 25.1976Z" fill="black"/>
<path d="M449.117 26.0518L444.653 26.0581L444.653 26.3784L449.117 26.3722L449.117 26.0518Z" fill="black"/>
<path d="M449.117 26.9061L444.653 26.9122L444.653 27.2325L449.117 27.2264L449.117 26.9061Z" fill="black"/>
<path d="M449.117 27.7602L444.653 27.7664L444.653 28.0867L449.117 28.0805L449.117 27.7602Z" fill="black"/>
<path d="M449.117 28.6143L444.653 28.6205L444.653 28.9408L449.117 28.9346L449.117 28.6143Z" fill="black"/>
<path d="M449.117 29.4684L444.653 29.4745L444.653 29.7949L449.117 29.7887L449.117 29.4684Z" fill="black" stroke="white" stroke-width="3" stroke-miterlimit="10"/>
<g filter="url(#filter4_d_15_4)">
<path d="M434.893 33.0934H438.662C439.158 33.0934 439.555 32.6663 439.555 32.0257V20.0677C439.555 19.5338 439.158 19 438.662 19H434.893C434.397 19 434 19.4271 434 20.0677V32.0257C434.099 32.5595 434.496 33.0934 434.893 33.0934Z" fill="#4E4E4E"/>
</g>
<g filter="url(#filter5_d_15_4)">
<path d="M434.436 33.1017H435.527V19.0083H434.436C433.94 19.0083 433.543 19.4354 433.543 20.076V32.034C433.643 32.5678 434.039 33.1017 434.436 33.1017Z" fill="black"/>
</g>
<path d="M449.315 29.4715C449.315 29.5783 449.215 29.6851 449.215 29.7918C449.116 29.8986 449.116 30.0054 449.017 30.1121C448.521 31.1798 447.43 32.1407 446.339 32.5678C445.149 32.8881 445.149 32.6746 444.554 33.3152C444.058 34.0626 439.594 43.4581 436.817 46.768C434.436 49.5439 432.254 51.4657 430.469 51.359C430.171 51.2522 429.377 50.8251 428.584 49.971C426.898 48.3695 424.517 45.807 422.732 43.7785C422.335 43.3514 421.839 42.8175 421.641 42.4972C421.938 42.2837 422.236 42.1769 422.434 41.9634C422.633 42.4972 422.831 43.0311 423.128 43.5649C424.418 42.4972 425.707 41.1092 426.501 40.1483C426.799 40.5754 427.096 41.1092 427.394 41.5363C428.187 42.7108 429.08 43.7784 429.774 43.992C430.171 44.2055 430.965 43.7785 431.956 43.0311C435.428 40.4686 441.181 33.3152 441.28 32.8881C441.379 32.5678 441.975 31.1798 442.471 30.3257C442.57 30.1121 442.669 30.0054 442.768 30.0054C442.867 29.8986 442.967 29.7918 443.066 29.7918C443.363 29.8986 443.859 29.8986 444.355 29.6851H444.454H444.554C444.851 29.5783 444.95 29.4715 445.248 29.1512C445.347 29.1512 445.347 29.0445 445.347 29.0445C445.446 28.9377 445.446 28.8309 445.545 28.8309C445.645 28.6174 445.744 28.5106 445.843 28.2971C445.942 28.1903 446.041 28.0835 446.141 27.9768C446.339 27.7632 446.438 27.6565 446.637 27.4429C446.835 27.3362 446.934 27.2294 447.033 27.1226C447.331 26.9091 447.827 26.8023 448.224 27.0159C448.323 27.1226 448.422 27.1226 448.521 27.1226C448.72 27.2294 448.819 27.3362 448.918 27.4429C449.116 27.5497 449.215 27.7632 449.215 27.9768C449.315 28.0835 449.315 28.1903 449.315 28.1903C449.414 28.5106 449.414 28.9377 449.315 29.4715Z" fill="#EAA775"/>
<path d="M419.661 30.7528C419.56 30.646 419.46 30.4325 419.359 30.4325C419.46 30.3257 419.46 30.3257 419.56 30.3257C419.56 30.4325 419.56 30.4325 419.56 30.5392C419.661 30.5392 419.661 30.646 419.661 30.7528Z" fill="#1A8BAE" stroke="white" stroke-width="3" stroke-miterlimit="10"/>
<path d="M423.029 43.3514C422.93 43.4582 422.732 43.5649 422.732 43.6717C421.641 44.5259 420.55 45.0597 419.657 44.9529C419.558 44.9529 419.359 44.6326 418.863 44.0988C419.359 43.8853 419.954 43.5649 420.55 43.1379C420.847 42.9243 421.244 42.604 421.641 42.3905C421.938 42.177 422.236 42.0702 422.434 41.8567C422.533 42.177 422.732 42.9243 423.029 43.3514Z" fill="#1A8BAE" stroke="white" stroke-width="3" stroke-miterlimit="10"/>
<path d="M432.651 17.3C432.452 19.3286 431.46 20.2895 431.56 21.1437C431.56 21.5707 431.857 22.2113 432.155 22.8519C432.452 23.4925 432.552 24.0264 432.452 24.3467C432.353 24.5602 432.056 24.667 431.659 24.667C431.064 24.7738 430.27 24.7738 430.27 24.8805C430.171 25.0941 430.469 25.7347 430.171 26.055C429.873 26.3753 428.782 25.8414 428.683 26.2685C428.584 26.5888 429.576 26.6956 429.179 27.443C428.882 28.1903 427.89 27.6565 427.493 28.5106C427.294 28.8309 427.195 29.3648 427.096 29.7919C426.997 30.0054 426.898 30.1122 426.799 30.2189C426.699 30.3257 426.699 30.3257 426.699 30.3257C426.6 30.4325 426.6 30.4325 426.6 30.4325C426.501 30.5392 426.501 30.5392 426.402 30.5392C426.303 30.646 426.104 30.646 426.005 30.646C424.815 30.7528 423.624 28.1903 422.236 28.5106C422.037 28.6174 421.938 28.6174 421.74 28.7242C421.442 28.9377 420.946 29.0445 420.55 29.3648C420.153 28.9377 419.657 28.5106 419.359 28.1903C419.062 26.9091 418.367 25.7347 417.871 24.8805C417.574 24.3467 417.177 23.9196 416.78 23.5993C417.078 23.279 417.475 22.9587 417.574 22.3181C417.673 21.9978 417.673 21.5707 417.673 21.1437C417.673 20.9301 417.673 20.8233 417.673 20.7166C417.673 19.9692 417.574 19.1151 417.574 18.2609C417.574 16.6594 417.772 15.0579 418.467 13.5631C419.855 10.4668 427.096 6.3029 431.659 13.2428C431.659 13.2428 431.659 13.2428 431.758 13.3496C431.758 13.4564 431.857 13.4564 431.857 13.4564C431.956 13.6699 432.155 13.7767 432.254 14.097C432.353 14.2037 432.353 14.3105 432.353 14.3105C432.452 14.4173 432.452 14.524 432.552 14.6308C432.552 14.7376 432.651 14.7376 432.651 14.7376L432.75 14.8443C432.849 14.9511 432.849 15.1646 432.948 15.2714C433.047 15.3782 433.047 15.4849 433.047 15.4849C432.651 16.2323 432.651 16.7662 432.651 17.3Z" fill="#FBB97C"/>
<path d="M423.724 21.5708C423.029 23.4926 421.938 27.9768 425.509 29.3648C426.104 29.5784 426.6 29.7919 427.195 30.0054C427.096 30.219 426.997 30.3257 426.898 30.4325C426.798 30.5393 426.799 30.5393 426.799 30.5393C426.699 30.646 426.699 30.646 426.699 30.646C426.6 30.7528 426.6 30.7528 426.501 30.7528C426.402 30.8596 426.203 30.8596 426.104 30.8596C424.914 30.9663 423.724 28.4039 422.335 28.7242C422.137 28.831 422.037 28.831 421.839 28.9377C421.541 29.1513 421.045 29.258 420.649 29.5783C420.252 29.1513 419.756 28.7242 419.458 28.4039C419.161 27.1227 418.467 25.9482 417.971 25.0941C417.673 24.5603 417.276 24.1332 416.879 23.8129C417.177 23.4926 417.574 23.1723 417.673 22.5317C417.772 22.2114 417.772 21.7843 417.772 21.3572C417.772 21.1437 417.772 21.0369 417.772 20.9301C417.772 20.1828 417.673 19.3286 417.673 18.4745C417.673 16.873 417.871 15.2714 418.566 13.7767C419.954 10.6804 427.195 6.51646 431.758 13.4564C431.758 13.4564 431.758 13.4564 431.857 13.5631C431.857 13.6699 431.956 13.6699 431.956 13.6699C432.056 13.8835 432.254 13.9902 432.353 14.3105C432.452 14.4173 432.452 14.5241 432.452 14.5241C432.552 14.6308 432.552 14.7376 432.651 14.8444C432.651 14.9511 432.75 14.9511 432.75 14.9511C432.75 15.0579 432.849 15.0579 432.849 15.0579C432.948 15.1647 432.948 15.3782 433.047 15.485C433.147 15.5917 433.147 15.6985 433.147 15.6985C432.155 16.4459 430.766 17.1933 429.576 17.1933C426.402 17.0865 424.418 19.5422 423.724 21.5708Z" fill="#EAA775"/>
<path d="M431.064 19.9692C431.163 19.6489 430.766 19.2218 430.469 19.1151C430.171 19.0083 429.774 19.4354 429.774 19.7557C429.675 20.076 430.072 20.5031 430.369 20.6098C430.865 20.6098 431.064 20.3963 431.064 19.9692Z" fill="black"/>
<path d="M431.361 17.8339C431.659 17.4068 430.766 16.873 430.072 17.0865C429.278 17.3 428.882 18.2609 428.882 18.5812C428.981 18.7948 429.179 18.3677 429.774 17.9406C430.27 17.4068 431.361 17.8339 431.361 17.8339Z" fill="black"/>
<path d="M415.491 22.7452C415.788 22.8519 416.384 22.7452 418.07 22.2113C419.756 21.6775 420.45 21.5707 420.45 20.7166C420.45 19.8624 418.764 18.2609 420.153 16.6594C421.442 14.9511 422.533 16.1256 422.831 16.9797C423.129 17.8339 422.732 18.688 423.129 19.2218C423.426 19.7557 424.616 18.688 425.013 17.7271C425.311 16.8729 425.509 18.0474 426.997 17.4068C428.485 16.7662 428.584 14.9511 428.584 14.9511C428.584 14.9511 431.262 16.3391 433.444 13.8834C435.626 11.4278 435.329 10.1466 434.833 10.4669C434.436 10.6804 433.246 11.5345 433.345 10.8939C433.444 10.3601 433.742 8.6518 433.147 9.18564C432.452 9.50594 431.659 10.2533 431.46 10.0398C431.262 9.82625 431.758 8.22473 431.163 8.3315C430.568 8.43826 430.667 9.29241 428.485 9.18564C426.303 9.07887 424.22 7.69089 422.633 7.58412C420.946 7.47735 419.458 9.50594 419.458 9.50594C419.458 9.50594 418.268 9.18564 417.375 9.82625C416.483 10.5736 415.59 13.6699 415.689 16.0188C415.888 18.2609 416.78 20.8234 416.185 21.891C415.491 22.7452 415.193 22.7452 415.491 22.7452Z" fill="#603A18"/>
<path d="M386.825 15.485C386.527 13.8834 385.932 12.2819 385.635 10.7872C385.337 9.61273 384.94 8.43828 384.643 7.58414C385.238 7.6909 385.635 7.69091 385.635 7.69091L386.031 10.5736L386.825 15.485Z" fill="#177B94"/>
<path d="M389.305 33.1017C388.61 32.6746 388.015 32.1408 387.519 31.8205C386.527 31.0731 385.833 29.8986 385.635 28.6174C385.436 27.5497 385.535 26.4821 385.932 25.4144C386.825 23.4926 387.519 21.0369 387.42 18.688C387.42 18.688 387.42 18.7948 387.519 19.0083C387.618 20.503 388.809 26.8024 389.305 33.1017Z" fill="#177B94"/>
<path d="M351.116 34.3829C351.017 34.9167 350.918 35.4506 350.819 35.9844C350.72 35.8776 350.521 35.8776 350.422 35.7709C350.72 35.1303 350.819 34.7032 350.819 34.4896C351.017 34.3829 351.017 34.3829 351.116 34.3829Z" fill="#2193C2" stroke="black" stroke-width="3" stroke-miterlimit="10"/>
<path d="M387.42 19.0083C387.42 20.2895 387.222 21.4639 387.023 22.6384C386.726 23.9196 386.23 26.055 385.635 28.6174C385.436 27.5497 385.535 26.482 385.932 25.4144C386.825 23.4925 387.519 21.0369 387.42 18.688L386.924 15.4849C386.627 13.8834 386.031 12.2819 385.734 10.7871C385.436 9.61269 385.039 8.43824 384.742 7.5841C384.643 7.26379 384.544 6.83672 384.544 6.51642C385.337 7.15703 385.734 7.5841 385.734 7.5841C385.734 7.5841 386.031 8.65178 386.428 10.3601C386.825 12.0684 387.321 14.6308 387.42 17.1932C387.42 17.3 387.42 17.4068 387.42 17.5135C387.42 18.1541 387.42 18.5812 387.42 19.0083Z" fill="#2193C2"/>
<path d="M387.42 19.0083C387.42 20.2895 387.222 21.4639 387.023 22.6384C386.726 23.9196 386.23 26.055 385.635 28.6174C385.436 27.5497 385.535 26.482 385.932 25.4144C386.825 23.4925 387.519 21.0369 387.42 18.688L386.924 15.4849C386.626 13.8834 386.031 12.2819 385.734 10.7871C385.932 10.6804 386.031 10.5736 386.23 10.5736C386.329 10.4668 386.428 10.4668 386.527 10.4668C386.924 12.1751 387.42 14.7375 387.519 17.3C387.519 17.4067 387.519 17.5135 387.519 17.6203C387.42 18.1541 387.42 18.5812 387.42 19.0083Z" fill="#1A8BAE"/>
<path d="M415.59 24.3467C415.193 24.5602 414.697 24.667 414.697 24.667C414.697 24.7738 414.995 25.5211 415.392 26.3753C415.193 26.2685 414.995 26.2685 414.697 26.2685H414.598C414.499 26.2685 414.301 26.2685 414.301 26.3753C414.201 26.3753 414.201 26.3753 414.201 26.3753C414.102 26.3753 414.003 26.482 413.904 26.482C413.606 26.5888 413.408 26.6956 413.11 26.8024C411.424 27.5497 410.531 29.258 410.333 31.0731C410.234 32.034 410.432 32.9949 410.73 33.9558C411.126 34.9167 411.622 35.9844 412.118 37.1589C412.416 38.013 412.813 38.7604 413.11 39.6145C412.118 39.9348 411.226 40.0416 410.135 40.1484C407.159 40.4687 403.985 40.0416 401.009 39.401C397.141 38.4401 392.578 35.6641 389.106 33.3152C388.412 32.8881 387.817 32.3543 387.321 32.034C386.329 31.2866 385.635 30.1122 385.436 28.8309C385.238 27.7633 385.337 26.6956 385.734 25.6279C386.626 23.7061 387.321 21.2504 387.222 18.9015C387.122 17.8338 386.924 16.8729 386.726 15.6985C386.428 14.097 385.833 12.4954 385.535 11.0007C385.238 9.82624 384.841 8.65179 384.543 7.79764C384.444 7.47734 384.345 7.05027 384.345 6.72996C384.246 6.40966 384.345 6.19612 384.444 6.30289C384.543 6.30289 384.742 6.40966 384.94 6.51643C385.039 6.51643 385.039 6.62319 385.139 6.62319C385.337 6.72996 385.436 6.83673 385.635 6.9435C385.734 7.05027 385.833 7.05027 385.932 7.15703C386.626 7.47734 387.519 8.22471 388.412 8.75855C388.61 8.97209 388.809 9.07886 389.106 9.18563C389.305 9.29239 389.503 9.50593 389.801 9.50593C390.098 9.71947 390.495 9.933 390.792 10.1465C390.991 10.2533 391.189 10.4668 391.388 10.5736C391.685 10.7871 391.784 10.8939 392.082 11.1075C394.462 12.709 397.041 14.524 399.323 16.3391C400.711 17.4068 402.001 18.2609 403.092 19.2218C407.06 22.4249 411.226 22.9587 413.705 23.0655C414.003 23.0655 414.4 23.1722 414.697 23.1722C414.796 23.1722 414.796 23.279 414.896 23.279H414.995C415.193 23.3858 415.392 23.4925 415.59 23.5993C415.788 23.7061 415.987 23.9196 416.284 24.0264C416.284 24.0264 415.888 24.2399 415.59 24.3467Z" fill="#F15B28"/>
<path d="M419.661 30.7528C419.56 30.646 419.46 30.4325 419.359 30.4325C419.46 30.3257 419.46 30.3257 419.56 30.3257C419.56 30.4325 419.56 30.4325 419.56 30.5392C419.661 30.5392 419.661 30.646 419.661 30.7528Z" fill="#F15B28" stroke="white" stroke-width="3" stroke-miterlimit="10"/>
<path d="M413.21 39.401C412.218 39.7213 411.325 39.828 410.234 39.9348C407.258 40.2551 404.084 39.828 401.108 39.1874C397.24 38.2265 392.677 35.4505 389.205 33.1016C388.511 32.6746 387.916 32.1407 387.42 31.8204C386.428 31.073 385.734 29.8986 385.535 28.6174C385.337 27.5497 385.436 26.482 385.833 25.4143C386.726 23.4925 387.42 21.0369 387.321 18.688C387.222 17.6203 387.023 16.6594 386.825 15.4849C386.527 13.8834 385.932 12.2819 385.635 10.7871C385.337 9.61267 384.94 8.43822 384.643 7.58408C384.544 7.26378 384.444 6.8367 384.444 6.5164C384.345 6.1961 384.444 5.98256 384.544 6.08933C384.643 6.08933 384.841 6.1961 385.039 6.30286C385.139 6.30286 385.139 6.40963 385.238 6.40963C385.436 6.5164 385.535 6.62317 385.734 6.72994C385.833 6.8367 385.932 6.8367 386.031 6.94347C386.726 7.26378 387.618 8.01115 388.511 8.54499C388.71 8.75853 388.908 8.8653 389.205 8.97206C389.404 9.07883 389.602 9.29237 389.9 9.29237C390.197 9.5059 390.594 9.71944 390.892 9.93298C391.09 10.0397 391.288 10.2533 391.487 10.36C391.784 10.5736 391.884 10.6804 392.181 10.8939C392.082 11.4277 392.082 11.9616 391.983 12.7089C391.983 12.9225 391.884 13.136 391.884 13.3496C391.884 13.4563 391.884 13.4563 391.884 13.5631C391.586 16.7661 391.586 20.9301 392.181 23.3857C392.677 25.094 394.463 26.9091 396.645 28.2971C397.736 29.0445 399.025 29.6851 400.414 30.2189C402.497 31.073 404.58 31.5001 406.365 31.3934C407.556 31.2866 408.845 31.073 410.135 30.8595C410.035 31.8204 410.234 32.7813 410.531 33.7422C410.928 34.7032 411.424 35.7708 411.92 36.9453C412.515 37.9062 412.912 38.6536 413.21 39.401Z" fill="#E04E26"/>
<path d="M419.661 30.7528C419.56 30.646 419.46 30.4325 419.359 30.4325C419.46 30.3257 419.46 30.3257 419.56 30.3257C419.56 30.4325 419.56 30.4325 419.56 30.5392C419.661 30.5392 419.661 30.646 419.661 30.7528Z" fill="#E04E26" stroke="white" stroke-width="3" stroke-miterlimit="10"/>
<path d="M439.892 31.5001C439.792 31.7137 439.495 31.8204 439.197 32.1408C438.404 32.4611 437.313 32.7814 436.321 33.2084C435.726 33.422 435.23 33.5287 435.031 33.7423C434.436 34.2761 433.94 36.1979 433.048 39.401C432.849 40.1484 432.452 41.5363 431.956 43.1379C431.163 45.4868 430.072 48.156 428.584 50.1846C427.195 52.1064 425.608 53.3876 423.823 52.6402C420.649 51.359 418.367 47.4086 417.177 44.8461C417.276 44.8461 417.375 44.8461 417.375 44.7394C417.772 44.6326 418.367 44.4191 418.764 44.2055C419.26 43.992 419.855 43.6717 420.45 43.2446C420.748 43.0311 421.145 42.7108 421.541 42.4973C421.839 42.2837 422.137 42.1769 422.335 41.9634C422.533 42.4973 422.732 43.0311 423.029 43.5649C423.525 44.6326 424.12 45.4868 424.716 45.38C425.311 45.2732 426.303 43.6717 427.295 41.5363C428.683 38.5468 430.171 34.81 430.568 33.422C431.361 30.9663 430.965 30.2189 431.46 28.8309C431.758 27.7633 431.659 26.1617 431.659 25.2008C431.659 24.8805 431.659 24.667 431.758 24.5602C431.857 24.3467 431.956 23.9196 432.056 23.279C432.353 22.1046 432.849 20.3963 433.246 20.3963C433.345 20.3963 433.444 20.3963 433.543 20.503C434.139 20.8233 434.734 21.891 434.238 22.8519C434.139 22.9587 434.139 23.0655 434.039 23.1722V23.279C433.643 24.3467 433.444 25.6279 433.94 25.7347C434.039 25.7347 434.039 25.7347 434.039 25.7347C434.337 25.8414 434.932 25.6279 435.626 25.5211C436.618 25.3076 437.709 24.9873 438.007 24.9873C438.305 24.9873 438.602 25.0941 438.9 25.2008C438.999 25.3076 439.098 25.4144 439.197 25.5211L439.297 25.6279C439.495 25.8414 439.396 26.055 439.197 26.2685C439.098 26.482 438.999 26.5888 438.9 26.8024C438.801 26.9091 438.801 27.0159 438.9 27.1227V27.2294C438.999 27.3362 439.098 27.3362 439.197 27.443C439.297 27.5497 439.396 27.5497 439.495 27.7633C439.594 27.87 439.594 27.87 439.594 27.87C439.693 28.1903 439.693 28.4039 439.495 28.7242C439.396 28.9377 439.297 29.1512 439.197 29.4716V29.5783C439.197 29.6851 439.098 29.6851 439.098 29.6851C438.999 29.7919 438.999 29.8986 439.098 30.0054C439.098 30.1122 439.197 30.1122 439.197 30.1122V30.0054C439.297 30.2189 439.396 30.3257 439.495 30.4325L439.594 30.5392C439.892 30.5392 440.189 30.8595 439.892 31.5001Z" fill="#FBB97C"/>
<path d="M413.408 39.8281C412.614 40.0416 411.523 40.1484 410.333 40.0416C407.655 39.9348 404.282 38.9739 401.207 35.4506C399.124 33.2084 397.835 30.7528 397.041 28.6174C396.149 26.3753 395.851 24.3467 395.653 22.8519C395.454 21.3572 395.554 20.3963 395.554 20.3963L398.132 22.1046C398.132 22.1046 398.232 22.6384 398.331 23.7061C398.628 25.4144 399.323 28.0836 400.711 30.5392C401.803 32.5678 403.588 34.3829 405.869 35.5573C408.944 36.9453 411.027 37.2656 412.317 37.2656C412.614 38.1198 413.011 38.8671 413.309 39.7213C413.209 39.6145 413.309 39.7213 413.408 39.8281Z" fill="black"/>
<path d="M419.661 30.7528C419.56 30.646 419.46 30.4325 419.359 30.4325C419.46 30.3257 419.46 30.3257 419.56 30.3257C419.56 30.4325 419.56 30.4325 419.56 30.5392C419.661 30.5392 419.661 30.646 419.661 30.7528Z" fill="black" stroke="white" stroke-width="3" stroke-miterlimit="10"/>
<path d="M421.74 31.0731C421.343 30.5392 420.847 30.0054 420.45 29.5783C420.054 29.1512 419.558 28.7242 419.26 28.4039C418.962 27.1227 418.268 25.9482 417.772 25.0941C417.475 24.5602 417.078 24.1331 416.681 23.8128C416.384 24.0264 415.987 24.2399 415.689 24.3467C415.491 24.1331 415.292 23.9196 415.094 23.7061C415.193 23.5993 415.193 23.3858 415.392 23.1722C415.491 22.9587 415.59 22.8519 415.689 22.6384C415.689 22.6384 415.689 22.6384 415.689 22.5316C415.888 22.2113 416.086 21.9978 416.384 21.6775C416.681 21.4639 416.979 21.3572 417.375 21.3572H417.475C417.574 21.3572 417.574 21.3572 417.574 21.3572C417.871 21.4639 418.268 21.6775 418.665 22.2113C419.855 23.7061 421.343 26.5888 421.74 28.8309C421.839 29.1512 421.839 29.4715 421.839 29.8986C421.839 30.3257 421.839 30.7528 421.74 31.0731Z" fill="black"/>
<path d="M421.74 31.0731C421.343 30.5392 420.847 30.0054 420.45 29.5783C420.054 29.1512 419.558 28.7242 419.26 28.4039C418.963 27.1226 418.268 25.9482 417.772 25.0941C417.475 24.5602 417.078 24.1331 416.681 23.8128C416.384 24.0264 415.987 24.2399 415.689 24.3467C415.292 24.5602 414.797 24.667 414.797 24.667C414.797 24.7737 415.094 25.5211 415.491 26.3753C415.292 26.2685 415.094 26.2685 414.797 26.2685H414.697C414.598 26.2685 414.4 26.2685 414.4 26.3753C414.301 26.3753 414.301 26.3753 414.301 26.3753C414.201 26.3753 414.102 26.482 414.003 26.482C413.705 26.5888 413.507 26.6956 413.209 26.8023C411.523 27.5497 410.631 29.258 410.432 31.0731C410.333 32.034 410.531 32.9949 410.829 33.9558C411.226 34.9167 411.722 35.9844 412.218 37.1588C412.515 38.013 412.912 38.7604 413.209 39.6145C413.309 39.7213 413.309 39.828 413.408 39.9348C414.499 42.3905 415.491 44.5258 415.788 44.6326C415.888 44.7394 415.987 44.7394 416.086 44.7394C416.284 44.8461 416.483 44.8461 416.78 44.7394C416.88 44.7394 416.979 44.7394 417.078 44.6326C417.177 44.6326 417.177 44.6326 417.177 44.6326C417.276 44.6326 417.375 44.6326 417.375 44.5258C417.772 44.4191 418.367 44.2055 418.764 43.992C419.26 43.7785 419.855 43.4582 420.45 43.0311C420.748 42.8175 421.145 42.4972 421.541 42.2837C421.839 42.0702 422.137 41.9634 422.335 41.7499C422.533 42.2837 422.732 42.8175 423.029 43.3514C424.319 42.2837 425.608 40.8957 426.402 39.9348C426.898 39.2942 427.295 38.8671 427.295 38.8671C427.295 38.8671 424.517 34.4896 421.74 31.0731ZM419.458 30.3257C419.558 30.2189 419.558 30.2189 419.657 30.2189C419.657 30.3257 419.657 30.3257 419.657 30.4325C419.657 30.5392 419.756 30.646 419.756 30.7528C419.558 30.646 419.458 30.4325 419.458 30.3257Z" fill="#5BBA47" stroke="black" stroke-miterlimit="10"/>
<path d="M405.389 21.5459L405.389 21.5458L405.381 21.5422C402.939 20.4383 399.247 18.2412 396.023 16.0207C394.413 14.912 392.931 13.8047 391.787 12.8334C391.215 12.3475 390.734 11.9007 390.366 11.5089C389.99 11.1093 389.761 10.7959 389.659 10.5765L389.651 10.5598L389.642 10.5437C389.408 10.1237 389.265 9.37469 389.268 8.40144C389.271 7.44705 389.414 6.34379 389.69 5.26575C389.966 4.18627 390.371 3.15289 390.885 2.32858C391.403 1.49828 392.003 0.926152 392.652 0.68605C393.321 0.438495 394.111 0.443951 394.994 0.666891C395.877 0.889753 396.824 1.32253 397.778 1.88842C399.687 3.01954 401.562 4.64159 402.934 6.01256C404.089 7.21291 405.033 8.7596 405.989 10.3269C406.142 10.5766 406.294 10.8269 406.448 11.0764C407.543 12.8515 408.714 14.609 410.265 15.5875C411.681 16.4813 412.788 16.7615 413.567 16.9587C413.619 16.9718 413.669 16.9845 413.718 16.9969C414.12 17.1002 414.351 17.1736 414.51 17.2786C414.634 17.3605 414.737 17.4766 414.809 17.7486L414.809 17.7486L414.812 17.7577C414.83 17.8206 414.848 17.8847 414.867 17.9501C415.265 19.3276 415.822 21.2591 414.699 23.1324C414.564 23.147 414.371 23.1651 414.127 23.1804C413.611 23.2127 412.868 23.2323 411.974 23.1802C410.182 23.076 407.795 22.6853 405.389 21.5459Z" fill="black" stroke="white"/>
<path d="M400.216 18.5812L391.784 12.709L395.157 22.7451L399.224 23.9196L400.216 18.5812Z" fill="#3E3D3D"/>
<path d="M416.877 19.472L416.877 19.472L416.878 19.4841C417.064 21.3857 416.505 22.3137 415.997 22.7759C415.868 22.8939 415.736 22.987 415.61 23.0602C415.653 22.7327 415.701 22.3308 415.741 21.8967C415.839 20.8224 415.9 19.4612 415.679 18.5678L415.675 18.5538L415.671 18.5401C415.516 18.0393 415.248 17.6738 414.867 17.3996C414.506 17.1398 414.063 16.9773 413.589 16.8346C413.36 16.7655 413.116 16.6987 412.855 16.6274C412.014 16.3971 411.001 16.1195 409.742 15.5617C408.182 14.8701 406.965 13.5484 406.173 12.084C405.379 10.6174 405.045 9.07283 405.174 7.97631C405.259 7.48693 405.442 7.2403 405.61 7.12232C405.777 7.00468 406.004 6.96195 406.286 7.02943C406.871 7.16943 407.571 7.76979 407.874 8.69966L407.874 8.69968L407.876 8.70697C408.264 9.8403 408.959 10.6646 409.973 11.4158C410.969 12.1534 412.3 12.84 413.975 13.6889L413.975 13.6889L413.982 13.692C415.621 14.4941 416.174 14.959 416.442 15.6091C416.585 15.9556 416.661 16.3892 416.716 17.0244C416.745 17.3639 416.767 17.7296 416.792 18.1503C416.814 18.537 416.84 18.9702 416.877 19.472Z" fill="#3E3D3D" stroke="white"/>
<path d="M400.216 16.2323C401.703 16.0188 402.993 10.7872 402.398 8.65181C401.803 6.51645 395.752 2.9931 393.669 4.59462C393.669 4.59462 391.288 8.43827 392.578 11.2142C393.669 14.097 398.728 16.4459 400.216 16.2323Z" fill="#3E3D3D"/>
<defs>
<filter id="filter0_d_15_4" x="438.896" y="21.9505" width="12.8033" height="7.52975" filterUnits="userSpaceOnUse" color-interpolation-filters="sRGB">
<feFlood flood-opacity="0" result="BackgroundImageFix"/>
<feColorMatrix in="SourceAlpha" type="matrix" values="0 0 0 0 0 0 0 0 0 0 0 0 0 0 0 0 0 0 127 0" result="hardAlpha"/>
<feOffset dy="-1"/>
<feComposite in2="hardAlpha" operator="out"/>
<feColorMatrix type="matrix" values="0 0 0 0 1 0 0 0 0 0.9625 0 0 0 0 0.9625 0 0 0 1 0"/>
<feBlend mode="normal" in2="BackgroundImageFix" result="effect1_dropShadow_15_4"/>
<feBlend mode="normal" in="SourceGraphic" in2="effect1_dropShadow_15_4" result="shape"/>
</filter>
<filter id="filter1_d_15_4" x="444.153" y="21.3145" width="5.46442" height="8.80154" filterUnits="userSpaceOnUse" color-interpolation-filters="sRGB">
<feFlood flood-opacity="0" result="BackgroundImageFix"/>
<feColorMatrix in="SourceAlpha" type="matrix" values="0 0 0 0 0 0 0 0 0 0 0 0 0 0 0 0 0 0 127 0" result="hardAlpha"/>
<feOffset dy="-1"/>
<feComposite in2="hardAlpha" operator="out"/>
<feColorMatrix type="matrix" values="0 0 0 0 1 0 0 0 0 1 0 0 0 0 1 0 0 0 1 0"/>
<feBlend mode="normal" in2="BackgroundImageFix" result="effect1_dropShadow_15_4"/>
<feBlend mode="normal" in="SourceGraphic" in2="effect1_dropShadow_15_4" result="shape"/>
</filter>
<filter id="filter2_d_15_4" x="439.491" y="21.3161" width="3.08386" height="8.79834" filterUnits="userSpaceOnUse" color-interpolation-filters="sRGB">
<feFlood flood-opacity="0" result="BackgroundImageFix"/>
<feColorMatrix in="SourceAlpha" type="matrix" values="0 0 0 0 0 0 0 0 0 0 0 0 0 0 0 0 0 0 127 0" result="hardAlpha"/>
<feOffset dy="-1"/>
<feComposite in2="hardAlpha" operator="out"/>
<feColorMatrix type="matrix" values="0 0 0 0 1 0 0 0 0 1 0 0 0 0 1 0 0 0 1 0"/>
<feBlend mode="normal" in2="BackgroundImageFix" result="effect1_dropShadow_15_4"/>
<feBlend mode="normal" in="SourceGraphic" in2="effect1_dropShadow_15_4" result="shape"/>
</filter>
<filter id="filter3_ddddd_15_4" x="450.703" y="21.3181" width="5.36438" height="9.90085" filterUnits="userSpaceOnUse" color-interpolation-filters="sRGB">
<feFlood flood-opacity="0" result="BackgroundImageFix"/>
<feColorMatrix in="SourceAlpha" type="matrix" values="0 0 0 0 0 0 0 0 0 0 0 0 0 0 0 0 0 0 127 0" result="hardAlpha"/>
<feOffset dx="1"/>
<feComposite in2="hardAlpha" operator="out"/>
<feColorMatrix type="matrix" values="0 0 0 0 1 0 0 0 0 1 0 0 0 0 1 0 0 0 1 0"/>
<feBlend mode="normal" in2="BackgroundImageFix" result="effect1_dropShadow_15_4"/>
<feColorMatrix in="SourceAlpha" type="matrix" values="0 0 0 0 0 0 0 0 0 0 0 0 0 0 0 0 0 0 127 0" result="hardAlpha"/>
<feOffset dy="-1"/>
<feComposite in2="hardAlpha" operator="out"/>
<feColorMatrix type="matrix" values="0 0 0 0 1 0 0 0 0 1 0 0 0 0 1 0 0 0 1 0"/>
<feBlend mode="normal" in2="effect1_dropShadow_15_4" result="effect2_dropShadow_15_4"/>
<feColorMatrix in="SourceAlpha" type="matrix" values="0 0 0 0 0 0 0 0 0 0 0 0 0 0 0 0 0 0 127 0" result="hardAlpha"/>
<feOffset dx="1" dy="-1"/>
<feComposite in2="hardAlpha" operator="out"/>
<feColorMatrix type="matrix" values="0 0 0 0 1 0 0 0 0 1 0 0 0 0 1 0 0 0 1 0"/>
<feBlend mode="normal" in2="effect2_dropShadow_15_4" result="effect3_dropShadow_15_4"/>
<feColorMatrix in="SourceAlpha" type="matrix" values="0 0 0 0 0 0 0 0 0 0 0 0 0 0 0 0 0 0 127 0" result="hardAlpha"/>
<feOffset dy="1"/>
<feComposite in2="hardAlpha" operator="out"/>
<feColorMatrix type="matrix" values="0 0 0 0 1 0 0 0 0 1 0 0 0 0 1 0 0 0 1 0"/>
<feBlend mode="normal" in2="effect3_dropShadow_15_4" result="effect4_dropShadow_15_4"/>
<feColorMatrix in="SourceAlpha" type="matrix" values="0 0 0 0 0 0 0 0 0 0 0 0 0 0 0 0 0 0 127 0" result="hardAlpha"/>
<feOffset dx="1" dy="1"/>
<feComposite in2="hardAlpha" operator="out"/>
<feColorMatrix type="matrix" values="0 0 0 0 1 0 0 0 0 1 0 0 0 0 1 0 0 0 1 0"/>
<feBlend mode="normal" in2="effect4_dropShadow_15_4" result="effect5_dropShadow_15_4"/>
<feBlend mode="normal" in="SourceGraphic" in2="effect5_dropShadow_15_4" result="shape"/>
</filter>
<filter id="filter4_d_15_4" x="434" y="18" width="5.55466" height="15.0934" filterUnits="userSpaceOnUse" color-interpolation-filters="sRGB">
<feFlood flood-opacity="0" result="BackgroundImageFix"/>
<feColorMatrix in="SourceAlpha" type="matrix" values="0 0 0 0 0 0 0 0 0 0 0 0 0 0 0 0 0 0 127 0" result="hardAlpha"/>
<feOffset dy="-1"/>
<feComposite in2="hardAlpha" operator="out"/>
<feColorMatrix type="matrix" values="0 0 0 0 1 0 0 0 0 1 0 0 0 0 1 0 0 0 1 0"/>
<feBlend mode="normal" in2="BackgroundImageFix" result="effect1_dropShadow_15_4"/>
<feBlend mode="normal" in="SourceGraphic" in2="effect1_dropShadow_15_4" result="shape"/>
</filter>
<filter id="filter5_d_15_4" x="433.543" y="18.0083" width="1.9838" height="15.0934" filterUnits="userSpaceOnUse" color-interpolation-filters="sRGB">
<feFlood flood-opacity="0" result="BackgroundImageFix"/>
<feColorMatrix in="SourceAlpha" type="matrix" values="0 0 0 0 0 0 0 0 0 0 0 0 0 0 0 0 0 0 127 0" result="hardAlpha"/>
<feOffset dy="-1"/>
<feComposite in2="hardAlpha" operator="out"/>
<feColorMatrix type="matrix" values="0 0 0 0 1 0 0 0 0 1 0 0 0 0 1 0 0 0 1 0"/>
<feBlend mode="normal" in2="BackgroundImageFix" result="effect1_dropShadow_15_4"/>
<feBlend mode="normal" in="SourceGraphic" in2="effect1_dropShadow_15_4" result="shape"/>
</filter>
</defs>
</svg>
