<svg width="488" height="228" viewBox="0 0 488 228" fill="none" xmlns="http://www.w3.org/2000/svg">
<path d="M166.626 124.166C166.626 140.343 179.205 153.387 194.637 153.387C210.069 153.387 222.648 140.343 222.648 124.166C222.648 107.989 210.069 94.946 194.637 94.946C179.205 94.946 166.626 107.989 166.626 124.166Z" fill="white" stroke="black" stroke-width="2"/>
<path d="M171.212 124.166C171.212 137.69 181.728 148.6 194.637 148.6C207.547 148.6 218.063 137.69 218.063 124.166C218.063 110.643 207.547 99.7327 194.637 99.7327C181.728 99.7327 171.212 110.643 171.212 124.166Z" fill="white" stroke="black" stroke-width="1.5"/>
<path d="M218.33 124.67L207.358 131.326M194.637 139.276L206.725 131.721L207.358 131.326M170.945 123.663L181.582 117.216M194.637 109.056L181.582 117.216M207.358 131.326V115.1M207.358 103.516V115.1M181.582 117.216V133.232M181.582 144.817V133.232M206.725 145.32L181.582 133.232M182.549 103.012L207.358 115.1" stroke="black" stroke-width="1.5"/>
<path d="M185.967 124.166C185.967 129.216 189.887 133.24 194.637 133.24C199.388 133.24 203.308 129.216 203.308 124.166C203.308 119.116 199.388 115.093 194.637 115.093C189.887 115.093 185.967 119.116 185.967 124.166Z" fill="#3D9946"/>
<path d="M185.967 124.166C185.967 129.216 189.887 133.24 194.637 133.24C199.388 133.24 203.308 129.216 203.308 124.166C203.308 119.116 199.388 115.093 194.637 115.093C189.887 115.093 185.967 119.116 185.967 124.166Z" stroke="white" stroke-width="2"/>
<path d="M185.967 124.166C185.967 129.216 189.887 133.24 194.637 133.24C199.388 133.24 203.308 129.216 203.308 124.166C203.308 119.116 199.388 115.093 194.637 115.093C189.887 115.093 185.967 119.116 185.967 124.166Z" stroke="black" stroke-width="2"/>
<path d="M121.374 124.166C121.374 140.343 108.795 153.387 93.3626 153.387C77.9307 153.387 65.3516 140.343 65.3516 124.166C65.3516 107.989 77.9307 94.946 93.3626 94.946C108.795 94.946 121.374 107.989 121.374 124.166Z" fill="white" stroke="black" stroke-width="2"/>
<path d="M116.788 124.166C116.788 137.69 106.272 148.6 93.3627 148.6C80.4535 148.6 69.9368 137.69 69.9368 124.166C69.9368 110.643 80.4535 99.7327 93.3627 99.7327C106.272 99.7327 116.788 110.643 116.788 124.166Z" fill="white" stroke="black" stroke-width="1.5"/>
<path d="M69.6704 124.67L80.6419 131.326M93.3627 139.276L81.2748 131.721L80.6419 131.326M117.055 123.663L106.418 117.216M93.3627 109.056L106.418 117.216M80.6419 131.326V115.1M80.6419 103.516V115.1M106.418 117.216V133.232M106.418 144.817V133.232M81.2748 145.32L106.418 133.232M105.451 103.012L80.6419 115.1" stroke="black" stroke-width="1.5"/>
<path d="M102.033 124.166C102.033 129.216 98.113 133.24 93.3626 133.24C88.6122 133.24 84.6923 129.216 84.6923 124.166C84.6923 119.116 88.6122 115.093 93.3626 115.093C98.113 115.093 102.033 119.116 102.033 124.166Z" fill="#3D9946"/>
<path d="M102.033 124.166C102.033 129.216 98.113 133.24 93.3626 133.24C88.6122 133.24 84.6923 129.216 84.6923 124.166C84.6923 119.116 88.6122 115.093 93.3626 115.093C98.113 115.093 102.033 119.116 102.033 124.166Z" stroke="white" stroke-width="2"/>
<path d="M102.033 124.166C102.033 129.216 98.113 133.24 93.3626 133.24C88.6122 133.24 84.6923 129.216 84.6923 124.166C84.6923 119.116 88.6122 115.093 93.3626 115.093C98.113 115.093 102.033 119.116 102.033 124.166Z" stroke="black" stroke-width="2"/>
<path d="M115.986 84.0392L115.459 83.3632L114.654 83.0677L69.6922 66.5593L67.6693 65.8166L66.3196 67.4964L28.6487 114.38L27.8941 115.32L27.9987 116.52L35.6336 204.164L3.40518 111.633L63.4878 42.5307L131.6 67.6239L139.143 113.737L115.986 84.0392Z" fill="black" stroke="white" stroke-width="6"/>
<path d="M172.014 84.0392L172.541 83.3632L173.346 83.0677L218.308 66.5593L220.331 65.8166L221.68 67.4964L259.351 114.38L260.106 115.32L260.001 116.52L252.366 204.164L284.595 111.633L224.512 42.5307L156.4 67.6239L148.857 113.737L172.014 84.0392Z" fill="black" stroke="white" stroke-width="6"/>
<path d="M131.24 152.106L144 124.844L156.759 152.106L144 192.198L131.24 152.106Z" fill="#141313" stroke="white" stroke-width="3"/>
<path d="M137.316 151.257L144 126.164L150.684 151.257L144 176.35L137.316 151.257Z" fill="#3D9946" stroke="#FFFEFE"/>
<path d="M485 134.428C485 184.445 445.527 224.856 397 224.856C348.473 224.856 309 184.445 309 134.428C309 84.4111 348.473 44 397 44C445.527 44 485 84.4111 485 134.428Z" fill="black" stroke="white" stroke-width="6"/>
<path d="M486 134.428C486 166.354 460.805 192.145 429.835 192.145C398.865 192.145 373.67 166.354 373.67 134.428C373.67 102.502 398.865 76.7112 429.835 76.7112C460.805 76.7112 486 102.502 486 134.428Z" fill="#5BBA47" stroke="white" stroke-width="4"/>
<path d="M486 134.428C486 156.247 468.785 173.845 447.66 173.845C426.534 173.845 409.32 156.247 409.32 134.428C409.32 112.609 426.534 95.0116 447.66 95.0116C468.785 95.0116 486 112.609 486 134.428Z" fill="black" stroke="white" stroke-width="4"/>
<path d="M486 133.947C486 146.457 476.136 156.508 464.077 156.508C452.019 156.508 442.155 146.457 442.155 133.947C442.155 121.436 452.019 111.386 464.077 111.386C476.136 111.386 486 121.436 486 133.947Z" fill="#5BBA47" stroke="white" stroke-width="4"/>
<path d="M486 133.947C486 141.669 479.916 147.839 472.521 147.839C465.126 147.839 459.041 141.669 459.041 133.947C459.041 126.224 465.126 120.054 472.521 120.054C479.916 120.054 486 126.224 486 133.947Z" fill="black" stroke="white" stroke-width="4"/>
<path d="M485.969 133.603C485.969 138.4 482.195 142.198 477.65 142.198C473.104 142.198 469.33 138.4 469.33 133.603C469.33 128.807 473.104 125.008 477.65 125.008C482.195 125.008 485.969 128.807 485.969 133.603Z" fill="#F5F5F5" stroke="white" stroke-width="4"/>
<path d="M361.631 28.8491L358.754 34.0841C358.456 33.9772 358.258 33.8704 357.96 33.8704C357.564 33.7635 357.068 33.6567 356.869 33.6567C356.373 33.6567 355.977 34.7251 355.58 36.1139C355.183 35.9003 354.588 35.7934 354.191 35.5797C353.497 35.2592 352.902 35.0456 352.406 34.8319C352.307 34.8319 352.307 34.8319 352.307 34.7251C352.703 32.161 354.985 26.0714 355.481 25.9646H355.58C355.878 26.0714 357.564 26.8193 359.25 27.5671C360.044 28.2081 360.936 28.5286 361.631 28.8491Z" fill="#FBB97C" stroke="black" stroke-miterlimit="10"/>
<path d="M387.817 46.7975C386.626 47.8659 383.353 47.3317 379.286 45.836C377.699 48.2932 375.815 50.2162 373.633 50.4299C365.697 51.3914 347.942 42.4172 347.942 42.4172C347.942 42.4172 347.942 42.3104 348.041 42.2036C348.141 42.0967 348.141 41.9899 348.141 41.8831C348.24 41.6694 348.339 41.5626 348.438 41.2421C348.736 40.601 349.033 39.6395 349.331 38.7848C349.629 37.7165 350.125 36.5413 350.422 35.6866C350.62 35.7935 350.72 35.7935 350.819 35.9003C350.918 35.3661 351.017 34.8319 351.116 34.2978C351.315 34.2978 351.811 34.5114 352.307 34.6183C352.406 34.6183 352.406 34.6183 352.406 34.7251C352.902 34.9388 353.497 35.1524 354.191 35.4729C354.588 35.6866 355.084 35.7935 355.58 36.0071C355.977 36.2208 356.473 36.3276 356.869 36.5413C360.143 37.9302 364.11 39.5327 367.086 39.96C362.127 37.396 358.159 34.9388 358.159 34.9388L358.754 33.8704L361.631 28.6355L361.928 28.1013C361.928 28.1013 366.888 31.1995 371.351 33.3362C371.45 24.1484 369.863 8.22994 374.724 5.55906C379.187 3.10185 382.659 5.02488 384.444 6.41374C384.544 6.62741 384.544 7.05475 384.643 7.48209C384.841 8.33678 385.238 9.40513 385.635 10.6872C386.031 12.1828 386.527 13.8922 386.825 15.3879L387.321 18.593C387.519 20.9433 386.726 23.4006 385.833 25.3236C385.436 26.3919 385.337 27.3535 385.535 28.5287C385.734 29.7038 386.428 30.9859 387.42 31.7337C388.015 32.0542 388.61 32.5884 389.205 33.0157C389.701 39.2122 389.701 45.0881 387.817 46.7975Z" fill="#5BBA47" stroke="black" stroke-miterlimit="10"/>
<path d="M359.448 27.3534C359.448 27.3534 359.349 27.5671 359.25 27.7808C359.052 28.3149 358.655 29.3833 358.357 30.6653C358.357 30.7722 358.357 30.7722 358.357 30.7722C358.258 31.0927 358.159 31.6268 358.159 32.0542V32.161C358.06 32.3747 358.06 32.4815 358.06 32.6952C358.06 32.802 358.06 32.802 358.06 32.802C358.06 33.0157 357.961 33.2294 357.961 33.5499C357.961 33.6567 357.961 33.8704 357.961 33.8704C357.961 34.1909 358.06 34.4046 358.06 34.7251C358.06 34.7251 357.365 35.5798 356.869 36.6481C356.473 36.4344 355.977 36.3276 355.58 36.1139C355.183 35.9003 354.588 35.7934 354.191 35.5798C353.497 35.2592 352.902 35.0456 352.406 34.8319C352.307 34.8319 352.307 34.8319 352.307 34.7251C351.712 34.5114 351.315 34.4046 351.116 34.4046C351.414 33.0157 351.712 31.7337 352.009 30.6653C352.902 27.7808 354.191 25.2167 355.282 25.0031C355.481 25.0031 355.679 25.1099 355.977 25.1099C357.365 25.6441 359.448 27.3534 359.448 27.3534Z" fill="#D37528" stroke="black" stroke-miterlimit="10"/>
<path d="M358.357 30.6653C358.357 30.7722 358.357 30.7722 358.357 30.6653C358.159 31.0927 358.06 31.6269 358.06 32.0542V32.161C358.06 32.3747 357.961 32.4815 357.961 32.6952C357.961 32.8021 357.961 32.8021 357.961 32.8021C357.961 33.0157 357.861 33.2294 357.861 33.5499C357.861 33.6567 357.861 33.8704 357.861 33.8704C357.861 34.1909 357.961 34.4046 357.961 34.7251C357.961 34.7251 357.266 35.5798 356.77 36.6481C356.373 36.4345 355.878 36.3276 355.481 36.1139C355.084 35.9003 354.489 35.7934 354.092 35.5798C353.993 35.2593 353.993 34.9388 354.092 34.5114C354.489 32.0542 356.969 30.9859 358.357 30.6653Z" fill="#BC6428" stroke="black" stroke-miterlimit="10"/>
<path d="M356.175 25.1099C356.175 25.1099 356.175 25.2167 356.175 25.1099C355.977 25.4304 355.878 25.6441 355.679 26.1782C354.786 27.9944 353.001 32.0542 352.604 34.4046C352.604 34.6182 352.505 34.7251 352.505 34.8319C352.406 34.8319 352.406 34.8319 352.406 34.7251C351.811 34.5114 351.414 34.4046 351.216 34.4046C351.116 34.9387 351.017 35.4729 350.918 36.0071C350.819 35.9003 350.62 35.9003 350.521 35.7934C350.224 36.6481 349.827 37.7165 349.43 38.8916C349.529 37.8233 349.629 36.6481 349.728 35.4729C350.025 33.443 350.521 31.52 350.819 30.238C351.811 26.8193 353.695 23.8279 354.489 24.0415C355.282 23.9347 356.175 25.1099 356.175 25.1099Z" fill="black" stroke="black" stroke-miterlimit="10"/>
<path d="M350.422 35.7934C350.124 36.6481 349.728 37.7164 349.331 38.8916C349.033 39.8532 348.736 40.7078 348.438 41.3488C347.942 41.1352 347.347 41.0283 346.851 40.8147C346.454 40.7078 345.958 40.601 345.76 40.601C344.867 40.601 344.371 43.5924 343.677 45.6223C343.379 46.5838 342.983 47.3316 342.586 47.3316C341.495 47.5453 340.9 45.5154 340.999 43.2719C340.999 42.7377 341.098 42.2035 341.197 41.6694C341.594 39.2121 343.875 32.9089 344.371 32.9089H344.471C344.768 33.0157 346.454 33.7635 348.141 34.5114C348.736 34.8319 349.232 35.0456 349.827 35.3661C349.926 35.4729 350.224 35.5797 350.422 35.7934Z" fill="#FBB97C" stroke="black" stroke-miterlimit="10"/>
<path d="M344.074 31.9473C342.983 32.0542 341.693 34.6182 340.801 37.6096C339.908 40.4942 338.916 45.6223 339.809 47.759C340.701 50.0025 347.248 52.0324 347.248 50.2162C347.347 48.2931 345.165 48.2931 345.066 46.3701C344.967 44.3402 346.851 41.883 346.851 41.883C346.355 38.678 348.041 34.4046 348.041 34.4046C348.041 34.4046 345.363 31.8405 344.074 31.9473Z" fill="#D37528" stroke="black" stroke-miterlimit="10"/>
<path d="M341.991 49.1478C341.792 49.2547 341.693 49.3615 341.594 49.4683C343.875 50.7504 347.347 51.4982 347.347 50.1094C347.446 48.1863 345.264 48.1863 345.165 46.2633C345.066 44.2334 346.95 41.7762 346.95 41.7762C346.752 40.4942 346.851 38.8916 347.248 37.7165C345.76 38.037 343.38 39.2122 343.181 41.5625C342.784 44.8744 345.562 47.118 341.991 49.1478Z" fill="#BC6428" stroke="black" stroke-miterlimit="10"/>
<path d="M344.867 31.9473C344.867 31.9473 344.074 30.7721 343.181 30.6653C342.388 30.5585 340.503 33.443 339.511 36.8618C338.519 40.2805 336.833 48.4 339.214 50.0025C341.594 51.7119 346.454 52.5665 346.851 52.246C347.149 51.9255 347.347 50.323 347.149 50.0025C346.851 49.682 343.082 49.4683 341.594 48.0795C340.106 46.6906 340.701 44.3402 341.297 41.1352C341.892 38.0369 344.867 31.9473 344.867 31.9473Z" fill="black" stroke="black" stroke-miterlimit="10"/>
<path d="M434.035 21.0495L432.944 21.051L432.954 29.9183L434.045 29.9169L434.035 21.0495Z" fill="black"/>
<g filter="url(#filter0_d_202_424)">
<path d="M451.692 22.9646L438.896 22.9819L438.904 29.4988L451.7 29.4815L451.692 22.9646Z" fill="black"/>
</g>
<g filter="url(#filter1_d_202_424)">
<path d="M449.608 22.3285L444.153 22.336L444.162 30.135L449.617 30.1275L449.608 22.3285Z" fill="#3E3D3D"/>
</g>
<g filter="url(#filter2_d_202_424)">
<path d="M442.566 22.3302L439.491 22.3345L439.5 30.1335L442.575 30.1292L442.566 22.3302Z" fill="#3E3D3D"/>
</g>
<g filter="url(#filter3_ddddd_202_424)">
<path d="M455.068 22.3321H450.703V30.1311L455.068 30.2379V22.3321Z" fill="#3E3D3D"/>
</g>
<path d="M449.116 22.6498L444.653 22.6557L444.653 22.976L449.117 22.9701L449.116 22.6498Z" fill="black"/>
<path d="M449.117 23.5044L444.653 23.5103L444.653 23.8309L449.117 23.8249L449.117 23.5044Z" fill="black"/>
<path d="M449.117 24.3591L444.653 24.3651L444.653 24.6856L449.117 24.6796L449.117 24.3591Z" fill="black"/>
<path d="M449.117 25.2138L444.653 25.2197L444.653 25.5402L449.117 25.5343L449.117 25.2138Z" fill="black"/>
<path d="M449.117 26.0685L444.653 26.0745L444.653 26.395L449.117 26.389L449.117 26.0685Z" fill="black"/>
<path d="M449.117 26.9233L444.653 26.9292L444.653 27.2497L449.117 27.2438L449.117 26.9233Z" fill="black"/>
<path d="M449.117 27.7779L444.653 27.7839L444.653 28.1044L449.117 28.0984L449.117 27.7779Z" fill="black"/>
<path d="M449.117 28.6326L444.653 28.6386L444.653 28.9591L449.117 28.9532L449.117 28.6326Z" fill="black"/>
<path d="M449.117 29.4873L444.653 29.4931L444.653 29.8136L449.117 29.8078L449.117 29.4873Z" fill="black" stroke="white" stroke-width="3" stroke-miterlimit="10"/>
<g filter="url(#filter4_d_202_424)">
<path d="M434.893 33.1142H438.662C439.158 33.1142 439.555 32.6869 439.555 32.0459V20.0803C439.555 19.5461 439.158 19.012 438.662 19.012H434.893C434.397 19.012 434 19.4393 434 20.0803V32.0459C434.099 32.5801 434.496 33.1142 434.893 33.1142Z" fill="#4E4E4E"/>
</g>
<g filter="url(#filter5_d_202_424)">
<path d="M434.436 33.1225H435.527V19.0203H434.436C433.94 19.0203 433.543 19.4476 433.543 20.0886V32.0542C433.643 32.5884 434.039 33.1225 434.436 33.1225Z" fill="black"/>
</g>
<path d="M449.315 29.4901C449.315 29.597 449.215 29.7038 449.215 29.8106C449.116 29.9175 449.116 30.0243 449.017 30.1311C448.521 31.1995 447.43 32.161 446.339 32.5883C445.149 32.9089 445.149 32.6952 444.554 33.3362C444.058 34.084 439.594 43.4856 436.817 46.7974C434.436 49.5752 432.254 51.4982 430.469 51.3914C430.171 51.2845 429.377 50.8572 428.584 50.0025C426.898 48.4 424.517 45.8359 422.732 43.8061C422.335 43.3787 421.839 42.8445 421.641 42.524C421.938 42.3104 422.236 42.2035 422.434 41.9899C422.633 42.524 422.831 43.0582 423.128 43.5924C424.418 42.524 425.707 41.1352 426.501 40.1737C426.799 40.601 427.096 41.1352 427.394 41.5625C428.187 42.7377 429.08 43.8061 429.774 44.0197C430.171 44.2334 430.965 43.8061 431.956 43.0582C435.428 40.4942 441.181 33.3362 441.28 32.9089C441.379 32.5883 441.975 31.1995 442.471 30.3448C442.57 30.1311 442.669 30.0243 442.768 30.0243C442.867 29.9175 442.967 29.8106 443.066 29.8106C443.363 29.9175 443.859 29.9175 444.355 29.7038H444.454H444.554C444.851 29.597 444.95 29.4901 445.248 29.1696C445.347 29.1696 445.347 29.0628 445.347 29.0628C445.446 28.9559 445.446 28.8491 445.545 28.8491C445.645 28.6354 445.744 28.5286 445.843 28.3149C445.942 28.2081 446.041 28.1013 446.141 27.9944C446.339 27.7808 446.438 27.6739 446.637 27.4603C446.835 27.3534 446.934 27.2466 447.033 27.1397C447.331 26.9261 447.827 26.8192 448.224 27.0329C448.323 27.1397 448.422 27.1397 448.521 27.1397C448.72 27.2466 448.819 27.3534 448.918 27.4603C449.116 27.5671 449.215 27.7808 449.215 27.9944C449.315 28.1013 449.315 28.2081 449.315 28.2081C449.414 28.5286 449.414 28.9559 449.315 29.4901Z" fill="#EAA775"/>
<path d="M419.661 30.7721C419.56 30.6653 419.46 30.4516 419.359 30.4516C419.46 30.3448 419.46 30.3448 419.56 30.3448C419.56 30.4516 419.56 30.4516 419.56 30.5585C419.661 30.5585 419.661 30.6653 419.661 30.7721Z" fill="#1A8BAE" stroke="white" stroke-width="3" stroke-miterlimit="10"/>
<path d="M423.029 43.3788C422.93 43.4856 422.732 43.5924 422.732 43.6993C421.641 44.5539 420.55 45.0881 419.657 44.9813C419.558 44.9813 419.359 44.6608 418.863 44.1266C419.359 43.9129 419.954 43.5924 420.55 43.1651C420.847 42.9514 421.244 42.6309 421.641 42.4172C421.938 42.2036 422.236 42.0967 422.434 41.8831C422.533 42.2036 422.732 42.9514 423.029 43.3788Z" fill="#1A8BAE" stroke="white" stroke-width="3" stroke-miterlimit="10"/>
<path d="M432.651 17.3109C432.452 19.3408 431.46 20.3023 431.56 21.157C431.56 21.5843 431.857 22.2253 432.155 22.8663C432.452 23.5074 432.552 24.0415 432.452 24.362C432.353 24.5757 432.056 24.6825 431.659 24.6825C431.064 24.7894 430.27 24.7894 430.27 24.8962C430.171 25.1099 430.469 25.7509 430.171 26.0714C429.873 26.3919 428.782 25.8577 428.683 26.2851C428.584 26.6056 429.576 26.7124 429.179 27.4603C428.882 28.2081 427.89 27.6739 427.493 28.5286C427.294 28.8491 427.195 29.3833 427.096 29.8106C426.997 30.0243 426.898 30.1311 426.799 30.238C426.699 30.3448 426.699 30.3448 426.699 30.3448C426.6 30.4517 426.6 30.4517 426.6 30.4517C426.501 30.5585 426.501 30.5585 426.402 30.5585C426.303 30.6653 426.104 30.6653 426.005 30.6653C424.815 30.7722 423.624 28.2081 422.236 28.5286C422.037 28.6355 421.938 28.6355 421.74 28.7423C421.442 28.956 420.946 29.0628 420.55 29.3833C420.153 28.956 419.657 28.5286 419.359 28.2081C419.062 26.9261 418.367 25.7509 417.871 24.8962C417.574 24.362 417.177 23.9347 416.78 23.6142C417.078 23.2937 417.475 22.9732 417.574 22.3322C417.673 22.0117 417.673 21.5843 417.673 21.157C417.673 20.9433 417.673 20.8365 417.673 20.7296C417.673 19.9818 417.574 19.1271 417.574 18.2724C417.574 16.6699 417.772 15.0674 418.467 13.5717C419.855 10.4734 427.096 6.30687 431.659 13.2512C431.659 13.2512 431.659 13.2512 431.758 13.358C431.758 13.4648 431.857 13.4648 431.857 13.4648C431.956 13.6785 432.155 13.7853 432.254 14.1058C432.353 14.2127 432.353 14.3195 432.353 14.3195C432.452 14.4264 432.452 14.5332 432.552 14.64C432.552 14.7469 432.651 14.7469 432.651 14.7469L432.75 14.8537C432.849 14.9605 432.849 15.1742 432.948 15.281C433.047 15.3879 433.047 15.4947 433.047 15.4947C432.651 16.2426 432.651 16.7767 432.651 17.3109Z" fill="#FBB97C"/>
<path d="M423.724 21.5843C423.029 23.5074 421.938 27.9945 425.509 29.3833C426.104 29.597 426.6 29.8107 427.195 30.0243C427.096 30.238 426.997 30.3448 426.898 30.4517C426.798 30.5585 426.799 30.5585 426.799 30.5585C426.699 30.6653 426.699 30.6653 426.699 30.6653C426.6 30.7722 426.6 30.7722 426.501 30.7722C426.402 30.879 426.203 30.879 426.104 30.879C424.914 30.9858 423.724 28.4218 422.335 28.7423C422.137 28.8491 422.037 28.8491 421.839 28.956C421.541 29.1696 421.045 29.2765 420.649 29.597C420.252 29.1696 419.756 28.7423 419.458 28.4218C419.161 27.1398 418.467 25.9646 417.971 25.1099C417.673 24.5757 417.276 24.1484 416.879 23.8279C417.177 23.5074 417.574 23.1869 417.673 22.5459C417.772 22.2253 417.772 21.798 417.772 21.3707C417.772 21.157 417.772 21.0502 417.772 20.9433C417.772 20.1955 417.673 19.3408 417.673 18.4861C417.673 16.8836 417.871 15.281 418.566 13.7854C419.954 10.6871 427.195 6.52055 431.758 13.4648C431.758 13.4648 431.758 13.4648 431.857 13.5717C431.857 13.6785 431.956 13.6785 431.956 13.6785C432.056 13.8922 432.254 13.999 432.353 14.3195C432.452 14.4264 432.452 14.5332 432.452 14.5332C432.552 14.64 432.552 14.7469 432.651 14.8537C432.651 14.9605 432.75 14.9605 432.75 14.9605C432.75 15.0674 432.849 15.0674 432.849 15.0674C432.948 15.1742 432.948 15.3879 433.047 15.4947C433.147 15.6016 433.147 15.7084 433.147 15.7084C432.155 16.4562 430.766 17.2041 429.576 17.2041C426.402 17.0973 424.418 19.5545 423.724 21.5843Z" fill="#EAA775"/>
<path d="M431.064 19.9818C431.163 19.6613 430.766 19.2339 430.469 19.1271C430.171 19.0203 429.774 19.4476 429.774 19.7681C429.675 20.0886 430.072 20.516 430.369 20.6228C430.865 20.6228 431.064 20.4091 431.064 19.9818Z" fill="black"/>
<path d="M431.361 17.8451C431.659 17.4178 430.766 16.8836 430.072 17.0972C429.278 17.3109 428.882 18.2724 428.882 18.5929C428.981 18.8066 429.179 18.3793 429.774 17.9519C430.27 17.4178 431.361 17.8451 431.361 17.8451Z" fill="black"/>
<path d="M415.491 22.7595C415.788 22.8664 416.384 22.7595 418.07 22.2253C419.756 21.6912 420.45 21.5843 420.45 20.7296C420.45 19.875 418.764 18.2724 420.153 16.6699C421.442 14.9605 422.533 16.1357 422.831 16.9904C423.129 17.8451 422.732 18.6998 423.129 19.2339C423.426 19.7681 424.616 18.6998 425.013 17.7383C425.311 16.8836 425.509 18.0588 426.997 17.4178C428.485 16.7767 428.584 14.9605 428.584 14.9605C428.584 14.9605 431.262 16.3494 433.444 13.8922C435.626 11.435 435.329 10.1529 434.833 10.4735C434.436 10.6871 433.246 11.5418 433.345 10.9008C433.444 10.3666 433.742 8.65725 433.147 9.19143C432.452 9.51193 431.659 10.2598 431.46 10.0461C431.262 9.83244 431.758 8.22991 431.163 8.33674C430.568 8.44358 430.667 9.29826 428.485 9.19143C426.303 9.08459 424.22 7.69573 422.633 7.5889C420.946 7.48206 419.458 9.51193 419.458 9.51193C419.458 9.51193 418.268 9.19143 417.375 9.83244C416.483 10.5803 415.59 13.6785 415.689 16.0289C415.888 18.2724 416.78 20.8365 416.185 21.9048C415.491 22.7595 415.193 22.7595 415.491 22.7595Z" fill="#603A18"/>
<path d="M386.825 15.4947C386.527 13.8922 385.932 12.2897 385.635 10.794C385.337 9.61878 384.94 8.4436 384.643 7.58891C385.238 7.69575 385.635 7.69575 385.635 7.69575L386.031 10.5803L386.825 15.4947Z" fill="#177B94"/>
<path d="M389.305 33.1226C388.61 32.6952 388.015 32.161 387.519 31.8405C386.527 31.0927 385.833 29.9175 385.635 28.6355C385.436 27.5671 385.535 26.4988 385.932 25.4304C386.825 23.5074 387.519 21.0502 387.42 18.6998C387.42 18.6998 387.42 18.8066 387.519 19.0203C387.618 20.516 388.809 26.8193 389.305 33.1226Z" fill="#177B94"/>
<path d="M351.116 34.4046C351.017 34.9387 350.918 35.4729 350.819 36.0071C350.72 35.9003 350.521 35.9003 350.422 35.7934C350.72 35.1524 350.819 34.7251 350.819 34.5114C351.017 34.4046 351.017 34.4046 351.116 34.4046Z" fill="#2193C2" stroke="black" stroke-width="3" stroke-miterlimit="10"/>
<path d="M387.42 19.0203C387.42 20.3023 387.222 21.4775 387.023 22.6527C386.726 23.9347 386.23 26.0714 385.635 28.6355C385.436 27.5671 385.535 26.4987 385.932 25.4304C386.825 23.5074 387.519 21.0501 387.42 18.6998L386.924 15.4947C386.627 13.8922 386.031 12.2896 385.734 10.794C385.436 9.61876 385.039 8.44357 384.742 7.58889C384.643 7.26839 384.544 6.84104 384.544 6.52054C385.337 7.16155 385.734 7.58889 385.734 7.58889C385.734 7.58889 386.031 8.65725 386.428 10.3666C386.825 12.076 387.321 14.64 387.42 17.2041C387.42 17.3109 387.42 17.4177 387.42 17.5246C387.42 18.1656 387.42 18.5929 387.42 19.0203Z" fill="#2193C2"/>
<path d="M387.42 19.0203C387.42 20.3023 387.222 21.4775 387.023 22.6527C386.726 23.9347 386.23 26.0714 385.635 28.6354C385.436 27.5671 385.535 26.4987 385.932 25.4304C386.825 23.5073 387.519 21.0501 387.42 18.6998L386.924 15.4947C386.626 13.8922 386.031 12.2896 385.734 10.7939C385.932 10.6871 386.031 10.5803 386.23 10.5803C386.329 10.4734 386.428 10.4734 386.527 10.4734C386.924 12.1828 387.42 14.7468 387.519 17.3109C387.519 17.4177 387.519 17.5246 387.519 17.6314C387.42 18.1656 387.42 18.5929 387.42 19.0203Z" fill="#1A8BAE"/>
<path d="M415.59 24.362C415.193 24.5757 414.697 24.6826 414.697 24.6826C414.697 24.7894 414.995 25.5372 415.392 26.3919C415.193 26.2851 414.995 26.2851 414.697 26.2851H414.598C414.499 26.2851 414.301 26.2851 414.301 26.3919C414.201 26.3919 414.201 26.3919 414.201 26.3919C414.102 26.3919 414.003 26.4988 413.904 26.4988C413.606 26.6056 413.408 26.7124 413.11 26.8193C411.424 27.5671 410.531 29.2765 410.333 31.0927C410.234 32.0542 410.432 33.0157 410.73 33.9772C411.126 34.9387 411.622 36.0071 412.118 37.1823C412.416 38.037 412.813 38.7848 413.11 39.6395C412.118 39.96 411.226 40.0668 410.135 40.1737C407.159 40.4942 403.985 40.0668 401.009 39.4258C397.141 38.4643 392.578 35.6866 389.106 33.3362C388.412 32.9089 387.817 32.3747 387.321 32.0542C386.329 31.3063 385.635 30.1312 385.436 28.8491C385.238 27.7808 385.337 26.7124 385.734 25.6441C386.626 23.721 387.321 21.2638 387.222 18.9134C387.122 17.8451 386.924 16.8836 386.726 15.7084C386.428 14.1059 385.833 12.5033 385.535 11.0076C385.238 9.83244 384.841 8.65725 384.543 7.80257C384.444 7.48206 384.345 7.05472 384.345 6.73422C384.246 6.41371 384.345 6.20004 384.444 6.30687C384.543 6.30687 384.742 6.41371 384.94 6.52054C385.039 6.52054 385.039 6.62738 385.139 6.62738C385.337 6.73422 385.436 6.84105 385.635 6.94789C385.734 7.05472 385.833 7.05472 385.932 7.16156C386.626 7.48206 387.519 8.22991 388.412 8.76409C388.61 8.97776 388.809 9.08459 389.106 9.19143C389.305 9.29826 389.503 9.51193 389.801 9.51193C390.098 9.72561 390.495 9.93928 390.792 10.1529C390.991 10.2598 391.189 10.4735 391.388 10.5803C391.685 10.794 391.784 10.9008 392.082 11.1145C394.462 12.717 397.041 14.5332 399.323 16.3494C400.711 17.4178 402.001 18.2724 403.092 19.234C407.06 22.439 411.226 22.9732 413.705 23.08C414.003 23.08 414.4 23.1869 414.697 23.1869C414.796 23.1869 414.796 23.2937 414.896 23.2937H414.995C415.193 23.4005 415.392 23.5074 415.59 23.6142C415.788 23.721 415.987 23.9347 416.284 24.0415C416.284 24.0415 415.888 24.2552 415.59 24.362Z" fill="#F15B28"/>
<path d="M419.661 30.7721C419.56 30.6653 419.46 30.4516 419.359 30.4516C419.46 30.3448 419.46 30.3448 419.56 30.3448C419.56 30.4516 419.56 30.4516 419.56 30.5585C419.661 30.5585 419.661 30.6653 419.661 30.7721Z" fill="#F15B28" stroke="white" stroke-width="3" stroke-miterlimit="10"/>
<path d="M413.21 39.4258C412.218 39.7463 411.325 39.8531 410.234 39.96C407.258 40.2805 404.084 39.8531 401.108 39.2121C397.24 38.2506 392.677 35.4729 389.205 33.1225C388.511 32.6952 387.916 32.161 387.42 31.8405C386.428 31.0926 385.734 29.9175 385.535 28.6354C385.337 27.5671 385.436 26.4987 385.833 25.4304C386.726 23.5073 387.42 21.0501 387.321 18.6997C387.222 17.6314 387.023 16.6699 386.825 15.4947C386.527 13.8922 385.932 12.2896 385.635 10.7939C385.337 9.61874 384.94 8.44355 384.643 7.58887C384.544 7.26836 384.444 6.84102 384.444 6.52052C384.345 6.20001 384.444 5.98634 384.544 6.09317C384.643 6.09317 384.841 6.20001 385.039 6.30685C385.139 6.30685 385.139 6.41368 385.238 6.41368C385.436 6.52052 385.535 6.62735 385.734 6.73419C385.833 6.84102 385.932 6.84102 386.031 6.94786C386.726 7.26836 387.618 8.01621 388.511 8.55039C388.71 8.76406 388.908 8.87089 389.205 8.97773C389.404 9.08456 389.602 9.29824 389.9 9.29824C390.197 9.51191 390.594 9.72558 390.892 9.93925C391.09 10.0461 391.288 10.2598 391.487 10.3666C391.784 10.5803 391.884 10.6871 392.181 10.9008C392.082 11.4349 392.082 11.9691 391.983 12.717C391.983 12.9306 391.884 13.1443 391.884 13.358C391.884 13.4648 391.884 13.4648 391.884 13.5716C391.586 16.7767 391.586 20.9433 392.181 23.4005C392.677 25.1099 394.463 26.9261 396.645 28.3149C397.736 29.0628 399.025 29.7038 400.414 30.238C402.497 31.0926 404.58 31.52 406.365 31.4131C407.556 31.3063 408.845 31.0926 410.135 30.879C410.035 31.8405 410.234 32.802 410.531 33.7635C410.928 34.725 411.424 35.7934 411.92 36.9686C412.515 37.9301 412.912 38.678 413.21 39.4258Z" fill="#E04E26"/>
<path d="M419.661 30.7721C419.56 30.6653 419.46 30.4516 419.359 30.4516C419.46 30.3448 419.46 30.3448 419.56 30.3448C419.56 30.4516 419.56 30.4516 419.56 30.5585C419.661 30.5585 419.661 30.6653 419.661 30.7721Z" fill="#E04E26" stroke="white" stroke-width="3" stroke-miterlimit="10"/>
<path d="M439.892 31.52C439.792 31.7337 439.495 31.8405 439.197 32.161C438.404 32.4815 437.313 32.802 436.321 33.2294C435.726 33.443 435.23 33.5499 435.031 33.7635C434.436 34.2977 433.94 36.2208 433.048 39.4258C432.849 40.1737 432.452 41.5625 431.956 43.1651C431.163 45.5154 430.072 48.1863 428.584 50.2162C427.195 52.1392 425.608 53.4212 423.823 52.6734C420.649 51.3914 418.367 47.4385 417.177 44.8744C417.276 44.8744 417.375 44.8744 417.375 44.7676C417.772 44.6607 418.367 44.4471 418.764 44.2334C419.26 44.0197 419.855 43.6992 420.45 43.2719C420.748 43.0582 421.145 42.7377 421.541 42.524C421.839 42.3104 422.137 42.2035 422.335 41.9899C422.533 42.524 422.732 43.0582 423.029 43.5924C423.525 44.6608 424.12 45.5154 424.716 45.4086C425.311 45.3018 426.303 43.6992 427.295 41.5625C428.683 38.5711 430.171 34.8319 430.568 33.443C431.361 30.9858 430.965 30.238 431.46 28.8491C431.758 27.7808 431.659 26.1782 431.659 25.2167C431.659 24.8962 431.659 24.6825 431.758 24.5757C431.857 24.362 431.956 23.9347 432.056 23.2937C432.353 22.1185 432.849 20.4091 433.246 20.4091C433.345 20.4091 433.444 20.4091 433.543 20.516C434.139 20.8365 434.734 21.9048 434.238 22.8663C434.139 22.9732 434.139 23.08 434.039 23.1869V23.2937C433.643 24.362 433.444 25.6441 433.94 25.7509C434.039 25.7509 434.039 25.7509 434.039 25.7509C434.337 25.8577 434.932 25.6441 435.626 25.5372C436.618 25.3236 437.709 25.0031 438.007 25.0031C438.305 25.0031 438.602 25.1099 438.9 25.2167C438.999 25.3236 439.098 25.4304 439.197 25.5372L439.297 25.6441C439.495 25.8577 439.396 26.0714 439.197 26.2851C439.098 26.4987 438.999 26.6056 438.9 26.8193C438.801 26.9261 438.801 27.0329 438.9 27.1398V27.2466C438.999 27.3534 439.098 27.3534 439.197 27.4603C439.297 27.5671 439.396 27.5671 439.495 27.7808C439.594 27.8876 439.594 27.8876 439.594 27.8876C439.693 28.2081 439.693 28.4218 439.495 28.7423C439.396 28.956 439.297 29.1696 439.197 29.4901V29.597C439.197 29.7038 439.098 29.7038 439.098 29.7038C438.999 29.8106 438.999 29.9175 439.098 30.0243C439.098 30.1311 439.197 30.1311 439.197 30.1311V30.0243C439.297 30.238 439.396 30.3448 439.495 30.4517L439.594 30.5585C439.892 30.5585 440.189 30.879 439.892 31.52Z" fill="#FBB97C"/>
<path d="M413.408 39.8532C412.614 40.0668 411.523 40.1737 410.333 40.0668C407.655 39.96 404.282 38.9985 401.207 35.4729C399.124 33.2294 397.835 30.7722 397.041 28.6355C396.149 26.3919 395.851 24.362 395.653 22.8663C395.454 21.3707 395.554 20.4091 395.554 20.4091L398.132 22.1185C398.132 22.1185 398.232 22.6527 398.331 23.721C398.628 25.4304 399.323 28.1013 400.711 30.5585C401.803 32.5884 403.588 34.4046 405.869 35.5798C408.944 36.9686 411.027 37.2891 412.317 37.2891C412.614 38.1438 413.011 38.8916 413.309 39.7463C413.209 39.6395 413.309 39.7463 413.408 39.8532Z" fill="black"/>
<path d="M419.661 30.7721C419.56 30.6653 419.46 30.4516 419.359 30.4516C419.46 30.3448 419.46 30.3448 419.56 30.3448C419.56 30.4516 419.56 30.4516 419.56 30.5585C419.661 30.5585 419.661 30.6653 419.661 30.7721Z" fill="black" stroke="white" stroke-width="3" stroke-miterlimit="10"/>
<path d="M421.74 31.0927C421.343 30.5585 420.847 30.0243 420.45 29.597C420.054 29.1696 419.558 28.7423 419.26 28.4218C418.962 27.1397 418.268 25.9646 417.772 25.1099C417.475 24.5757 417.078 24.1484 416.681 23.8278C416.384 24.0415 415.987 24.2552 415.689 24.362C415.491 24.1484 415.292 23.9347 415.094 23.721C415.193 23.6142 415.193 23.4005 415.392 23.1868C415.491 22.9732 415.59 22.8663 415.689 22.6527C415.689 22.6527 415.689 22.6527 415.689 22.5458C415.888 22.2253 416.086 22.0116 416.384 21.6911C416.681 21.4775 416.979 21.3706 417.375 21.3706H417.475C417.574 21.3706 417.574 21.3706 417.574 21.3706C417.871 21.4775 418.268 21.6911 418.665 22.2253C419.855 23.721 421.343 26.6056 421.74 28.8491C421.839 29.1696 421.839 29.4901 421.839 29.9175C421.839 30.3448 421.839 30.7721 421.74 31.0927Z" fill="black"/>
<path d="M421.74 31.0927C421.343 30.5585 420.847 30.0243 420.45 29.597C420.054 29.1696 419.558 28.7423 419.26 28.4218C418.963 27.1397 418.268 25.9646 417.772 25.1099C417.475 24.5757 417.078 24.1484 416.681 23.8279C416.384 24.0415 415.987 24.2552 415.689 24.362C415.292 24.5757 414.797 24.6825 414.797 24.6825C414.797 24.7894 415.094 25.5372 415.491 26.3919C415.292 26.2851 415.094 26.2851 414.797 26.2851H414.697C414.598 26.2851 414.4 26.2851 414.4 26.3919C414.301 26.3919 414.301 26.3919 414.301 26.3919C414.201 26.3919 414.102 26.4987 414.003 26.4987C413.705 26.6056 413.507 26.7124 413.209 26.8192C411.523 27.5671 410.631 29.2765 410.432 31.0927C410.333 32.0542 410.531 33.0157 410.829 33.9772C411.226 34.9387 411.722 36.0071 412.218 37.1823C412.515 38.0369 412.912 38.7848 413.209 39.6395C413.309 39.7463 413.309 39.8531 413.408 39.96C414.499 42.4172 415.491 44.5539 415.788 44.6607C415.888 44.7676 415.987 44.7676 416.086 44.7676C416.284 44.8744 416.483 44.8744 416.78 44.7676C416.88 44.7676 416.979 44.7676 417.078 44.6607C417.177 44.6607 417.177 44.6607 417.177 44.6607C417.276 44.6607 417.375 44.6607 417.375 44.5539C417.772 44.4471 418.367 44.2334 418.764 44.0197C419.26 43.8061 419.855 43.4856 420.45 43.0582C420.748 42.8445 421.145 42.524 421.541 42.3104C421.839 42.0967 422.137 41.9899 422.335 41.7762C422.533 42.3104 422.732 42.8445 423.029 43.3787C424.319 42.3104 425.608 40.9215 426.402 39.96C426.898 39.319 427.295 38.8916 427.295 38.8916C427.295 38.8916 424.517 34.5114 421.74 31.0927ZM419.458 30.3448C419.558 30.238 419.558 30.238 419.657 30.238C419.657 30.3448 419.657 30.3448 419.657 30.4516C419.657 30.5585 419.756 30.6653 419.756 30.7721C419.558 30.6653 419.458 30.4516 419.458 30.3448Z" fill="#5BBA47" stroke="black" stroke-miterlimit="10"/>
<path d="M405.389 21.5598L405.389 21.5598L405.381 21.5561C402.939 20.4516 399.247 18.253 396.023 16.0312C394.413 14.9217 392.931 13.8137 391.787 12.8418C391.215 12.3556 390.734 11.9086 390.366 11.5165C389.991 11.1166 389.761 10.8031 389.659 10.5834L389.651 10.5667L389.642 10.5506C389.408 10.1303 389.265 9.38064 389.268 8.40673C389.271 7.45168 389.414 6.34768 389.69 5.26892C389.966 4.18871 390.371 3.15463 390.885 2.32977C391.403 1.49888 392.003 0.92639 392.652 0.686151C393.321 0.438464 394.111 0.443917 394.994 0.666988C395.877 0.889983 396.824 1.32302 397.778 1.88927C399.687 3.0211 401.561 4.64419 402.934 6.01603C404.089 7.21716 405.033 8.76484 405.989 10.3331C406.141 10.583 406.294 10.8335 406.448 11.0831C407.543 12.8593 408.714 14.6179 410.264 15.597C411.681 16.4914 412.788 16.7718 413.567 16.9691C413.619 16.9822 413.669 16.9948 413.718 17.0073C414.12 17.1106 414.351 17.1841 414.51 17.2892C414.634 17.3711 414.737 17.4873 414.809 17.7596L414.809 17.7596L414.812 17.7688C414.83 17.8316 414.848 17.8958 414.867 17.9613C415.265 19.3397 415.822 21.2726 414.698 23.1473C414.564 23.1619 414.371 23.18 414.127 23.1953C413.611 23.2276 412.868 23.2472 411.974 23.1952C410.182 23.0909 407.795 22.6999 405.389 21.5598Z" fill="black" stroke="white"/>
<path d="M400.216 18.5929L391.784 12.717L395.157 22.7595L399.224 23.9347L400.216 18.5929Z" fill="#3E3D3D"/>
<path d="M416.877 19.4842L416.877 19.4842L416.878 19.4963C417.064 21.3993 416.505 22.3281 415.997 22.7906C415.868 22.9087 415.736 23.0018 415.61 23.075C415.653 22.7473 415.701 22.345 415.741 21.9104C415.839 20.8354 415.9 19.4735 415.679 18.5796L415.675 18.5657L415.671 18.552C415.516 18.0509 415.248 17.6852 414.867 17.411C414.506 17.1509 414.063 16.9883 413.589 16.8456C413.36 16.7764 413.116 16.7095 412.855 16.6382C412.014 16.4077 411.001 16.13 409.742 15.5718C408.182 14.8798 406.965 13.5573 406.173 12.0918C405.379 10.6243 405.045 9.07862 405.174 7.98124C405.259 7.4914 405.442 7.24453 405.61 7.12646C405.777 7.00877 406.004 6.96603 406.286 7.03354C406.871 7.17359 407.571 7.77431 407.874 8.70496L407.874 8.70497L407.876 8.71226C408.264 9.84618 408.959 10.6709 409.973 11.4227C410.969 12.1607 412.3 12.8478 413.975 13.6972L413.975 13.6972L413.981 13.7003C415.621 14.5029 416.174 14.9681 416.442 15.6187C416.585 15.9655 416.661 16.3995 416.716 17.0351C416.745 17.3747 416.767 17.7407 416.792 18.1617C416.814 18.5487 416.84 18.9821 416.877 19.4842Z" fill="#3E3D3D" stroke="white"/>
<path d="M400.216 16.2426C401.703 16.0289 402.993 10.794 402.398 8.65726C401.803 6.52056 395.752 2.99499 393.669 4.59752C393.669 4.59752 391.288 8.44359 392.578 11.2213C393.669 14.1059 398.728 16.4562 400.216 16.2426Z" fill="#3E3D3D"/>
<defs>
<filter id="filter0_d_202_424" x="438.896" y="21.9646" width="12.8032" height="7.53424" filterUnits="userSpaceOnUse" color-interpolation-filters="sRGB">
<feFlood flood-opacity="0" result="BackgroundImageFix"/>
<feColorMatrix in="SourceAlpha" type="matrix" values="0 0 0 0 0 0 0 0 0 0 0 0 0 0 0 0 0 0 127 0" result="hardAlpha"/>
<feOffset dy="-1"/>
<feComposite in2="hardAlpha" operator="out"/>
<feColorMatrix type="matrix" values="0 0 0 0 1 0 0 0 0 0.9625 0 0 0 0 0.9625 0 0 0 1 0"/>
<feBlend mode="normal" in2="BackgroundImageFix" result="effect1_dropShadow_202_424"/>
<feBlend mode="normal" in="SourceGraphic" in2="effect1_dropShadow_202_424" result="shape"/>
</filter>
<filter id="filter1_d_202_424" x="444.153" y="21.3285" width="5.46442" height="8.80647" filterUnits="userSpaceOnUse" color-interpolation-filters="sRGB">
<feFlood flood-opacity="0" result="BackgroundImageFix"/>
<feColorMatrix in="SourceAlpha" type="matrix" values="0 0 0 0 0 0 0 0 0 0 0 0 0 0 0 0 0 0 127 0" result="hardAlpha"/>
<feOffset dy="-1"/>
<feComposite in2="hardAlpha" operator="out"/>
<feColorMatrix type="matrix" values="0 0 0 0 1 0 0 0 0 1 0 0 0 0 1 0 0 0 1 0"/>
<feBlend mode="normal" in2="BackgroundImageFix" result="effect1_dropShadow_202_424"/>
<feBlend mode="normal" in="SourceGraphic" in2="effect1_dropShadow_202_424" result="shape"/>
</filter>
<filter id="filter2_d_202_424" x="439.491" y="21.3302" width="3.08386" height="8.80325" filterUnits="userSpaceOnUse" color-interpolation-filters="sRGB">
<feFlood flood-opacity="0" result="BackgroundImageFix"/>
<feColorMatrix in="SourceAlpha" type="matrix" values="0 0 0 0 0 0 0 0 0 0 0 0 0 0 0 0 0 0 127 0" result="hardAlpha"/>
<feOffset dy="-1"/>
<feComposite in2="hardAlpha" operator="out"/>
<feColorMatrix type="matrix" values="0 0 0 0 1 0 0 0 0 1 0 0 0 0 1 0 0 0 1 0"/>
<feBlend mode="normal" in2="BackgroundImageFix" result="effect1_dropShadow_202_424"/>
<feBlend mode="normal" in="SourceGraphic" in2="effect1_dropShadow_202_424" result="shape"/>
</filter>
<filter id="filter3_ddddd_202_424" x="450.703" y="21.3321" width="5.36438" height="9.90582" filterUnits="userSpaceOnUse" color-interpolation-filters="sRGB">
<feFlood flood-opacity="0" result="BackgroundImageFix"/>
<feColorMatrix in="SourceAlpha" type="matrix" values="0 0 0 0 0 0 0 0 0 0 0 0 0 0 0 0 0 0 127 0" result="hardAlpha"/>
<feOffset dx="1"/>
<feComposite in2="hardAlpha" operator="out"/>
<feColorMatrix type="matrix" values="0 0 0 0 1 0 0 0 0 1 0 0 0 0 1 0 0 0 1 0"/>
<feBlend mode="normal" in2="BackgroundImageFix" result="effect1_dropShadow_202_424"/>
<feColorMatrix in="SourceAlpha" type="matrix" values="0 0 0 0 0 0 0 0 0 0 0 0 0 0 0 0 0 0 127 0" result="hardAlpha"/>
<feOffset dy="-1"/>
<feComposite in2="hardAlpha" operator="out"/>
<feColorMatrix type="matrix" values="0 0 0 0 1 0 0 0 0 1 0 0 0 0 1 0 0 0 1 0"/>
<feBlend mode="normal" in2="effect1_dropShadow_202_424" result="effect2_dropShadow_202_424"/>
<feColorMatrix in="SourceAlpha" type="matrix" values="0 0 0 0 0 0 0 0 0 0 0 0 0 0 0 0 0 0 127 0" result="hardAlpha"/>
<feOffset dx="1" dy="-1"/>
<feComposite in2="hardAlpha" operator="out"/>
<feColorMatrix type="matrix" values="0 0 0 0 1 0 0 0 0 1 0 0 0 0 1 0 0 0 1 0"/>
<feBlend mode="normal" in2="effect2_dropShadow_202_424" result="effect3_dropShadow_202_424"/>
<feColorMatrix in="SourceAlpha" type="matrix" values="0 0 0 0 0 0 0 0 0 0 0 0 0 0 0 0 0 0 127 0" result="hardAlpha"/>
<feOffset dy="1"/>
<feComposite in2="hardAlpha" operator="out"/>
<feColorMatrix type="matrix" values="0 0 0 0 1 0 0 0 0 1 0 0 0 0 1 0 0 0 1 0"/>
<feBlend mode="normal" in2="effect3_dropShadow_202_424" result="effect4_dropShadow_202_424"/>
<feColorMatrix in="SourceAlpha" type="matrix" values="0 0 0 0 0 0 0 0 0 0 0 0 0 0 0 0 0 0 127 0" result="hardAlpha"/>
<feOffset dx="1" dy="1"/>
<feComposite in2="hardAlpha" operator="out"/>
<feColorMatrix type="matrix" values="0 0 0 0 1 0 0 0 0 1 0 0 0 0 1 0 0 0 1 0"/>
<feBlend mode="normal" in2="effect4_dropShadow_202_424" result="effect5_dropShadow_202_424"/>
<feBlend mode="normal" in="SourceGraphic" in2="effect5_dropShadow_202_424" result="shape"/>
</filter>
<filter id="filter4_d_202_424" x="434" y="18.012" width="5.55466" height="15.1023" filterUnits="userSpaceOnUse" color-interpolation-filters="sRGB">
<feFlood flood-opacity="0" result="BackgroundImageFix"/>
<feColorMatrix in="SourceAlpha" type="matrix" values="0 0 0 0 0 0 0 0 0 0 0 0 0 0 0 0 0 0 127 0" result="hardAlpha"/>
<feOffset dy="-1"/>
<feComposite in2="hardAlpha" operator="out"/>
<feColorMatrix type="matrix" values="0 0 0 0 1 0 0 0 0 1 0 0 0 0 1 0 0 0 1 0"/>
<feBlend mode="normal" in2="BackgroundImageFix" result="effect1_dropShadow_202_424"/>
<feBlend mode="normal" in="SourceGraphic" in2="effect1_dropShadow_202_424" result="shape"/>
</filter>
<filter id="filter5_d_202_424" x="433.543" y="18.0203" width="1.9838" height="15.1023" filterUnits="userSpaceOnUse" color-interpolation-filters="sRGB">
<feFlood flood-opacity="0" result="BackgroundImageFix"/>
<feColorMatrix in="SourceAlpha" type="matrix" values="0 0 0 0 0 0 0 0 0 0 0 0 0 0 0 0 0 0 127 0" result="hardAlpha"/>
<feOffset dy="-1"/>
<feComposite in2="hardAlpha" operator="out"/>
<feColorMatrix type="matrix" values="0 0 0 0 1 0 0 0 0 1 0 0 0 0 1 0 0 0 1 0"/>
<feBlend mode="normal" in2="BackgroundImageFix" result="effect1_dropShadow_202_424"/>
<feBlend mode="normal" in="SourceGraphic" in2="effect1_dropShadow_202_424" result="shape"/>
</filter>
</defs>
</svg>
