<?xml version="1.0" encoding="utf-8"?>
<!-- Generator: Adobe Illustrator 24.0.0, SVG Export Plug-In . SVG Version: 6.00 Build 0)  -->
<svg version="1.1" id="Layer_1" xmlns="http://www.w3.org/2000/svg" xmlns:xlink="http://www.w3.org/1999/xlink" x="0px" y="0px"
	 viewBox="0 0 541 235" enable-background="new 0 0 541 235" xml:space="preserve">
<g>
	<path stroke="#FFFFFF" stroke-width="3" stroke-miterlimit="10" d="M337,160.4c-0.6,24.7-8.7,47-21.7,64.6
		c7.1-14.4,11.4-30.9,11.8-48.6c1.4-57.8-38.6-105.9-89.3-107.5c-26.6-0.9-51,11.3-68.2,31.4c-0.3-0.4-0.5-0.7-0.9-1.1
		c17-28.7,46.1-47.2,78.8-46.2C298.5,54.5,338.4,102.6,337,160.4z"/>
	<path fill="#5BBA47" stroke="#FFFFFF" stroke-width="3" stroke-miterlimit="10" d="M192.7,163.4c-0.4,18-5.9,34.5-15,48.4
		c-3.1,4.7-6.5,9-10.3,12.9c-2.6-3-5-6.2-7.3-9.7c-9.8-15.1-15.3-33.4-14.8-53c0.6-21.5,8.4-41.1,21-56.4
		c-6.9,12.6-11.1,27-11.5,42.4c-0.5,20,5.2,38.6,15.4,54c8.9-13.8,14.3-30.2,14.8-47.9c0.5-19.5-5-37.8-14.8-53
		c0.2-0.2,0.3-0.3,0.4-0.5C184.9,117.3,193.3,139.5,192.7,163.4z"/>
	<path stroke="#FFFFFF" stroke-width="3" stroke-miterlimit="10" d="M185,154.2c-0.4,17.7-5.9,34.1-14.8,47.9
		c-10.1-15.4-15.9-34-15.4-54c0.4-15.5,4.5-29.9,11.5-42.4c1.2-1.5,2.6-3,3.9-4.5C180,116.3,185.6,134.6,185,154.2z"/>
	<path fill="#FFFFFF" stroke="#FFFFFF" stroke-width="3" stroke-miterlimit="10" d="M169.9,99.7c0.3,0.3,0.6,0.6,0.9,1
		c-0.2,0.2-0.3,0.3-0.4,0.5c-0.2-0.3-0.4-0.6-0.7-1C169.7,100,169.8,99.9,169.9,99.7z"/>
	<path fill="#FFFFFF" stroke="#FFFFFF" stroke-width="3" stroke-miterlimit="10" d="M169.6,100.1c0.2,0.3,0.4,0.6,0.7,1
		c-1.4,1.5-2.7,3-3.9,4.5C167.4,103.8,168.4,101.9,169.6,100.1z"/>
	<path fill="#FFFFFF" stroke="#FFFFFF" stroke-width="3" stroke-miterlimit="10" d="M169.9,99.7c-0.1,0.2-0.2,0.3-0.3,0.4
		c-0.7-1-1.5-2.2-2.3-3.2C168.2,97.8,169,98.7,169.9,99.7z"/>
	<path fill="none" stroke="#FFFFFF" stroke-width="3" stroke-miterlimit="10" d="M169.6,100.1c0.2,0.3,0.4,0.6,0.7,1"/>
	<path fill="none" stroke="#FFFFFF" stroke-width="3" stroke-miterlimit="10" d="M166.3,105.7c1-1.9,2.1-3.6,3.2-5.5
		c-0.7-1-1.5-2.2-2.3-3.2c0.9,1,1.7,1.8,2.5,2.8c0.3,0.3,0.6,0.6,0.9,1"/>
	<path fill="none" stroke="#FFFFFF" stroke-width="3" stroke-miterlimit="10" d="M170.3,101.2c0.2-0.2,0.3-0.3,0.4-0.5
		c14.2,16.7,22.6,38.8,22,62.8c-0.4,18-5.9,34.5-15,48.4c-3.1,4.7-6.5,9-10.3,12.9c-2.6-3-5-6.2-7.3-9.7
		c-9.8-15.1-15.3-33.4-14.8-53c0.6-21.5,8.4-41.1,21-56.4"/>
	<path fill="none" stroke="#FFFFFF" stroke-width="3" stroke-miterlimit="10" d="M170.3,101.2c9.8,15.1,15.3,33.4,14.8,53
		c-0.4,17.7-5.9,34.1-14.8,47.9c-10.1-15.4-15.9-34-15.4-54c0.4-15.5,4.5-29.9,11.5-42.4C167.5,104,168.9,102.6,170.3,101.2z"/>
	<g>
		<path stroke="#FFFFFF" stroke-width="3" stroke-miterlimit="10" d="M448.5,47.4c48.6,1.2,87.2,42.4,86.6,92.2c0-0.6,0-1.2-0.1-1.8
			c0-0.3,0-0.7-0.1-1c0-0.5-0.1-1-0.1-1.4c-0.1-0.4-0.1-0.8-0.1-1.2c0-0.3-0.1-0.5-0.1-0.8c0-0.2-0.1-0.3-0.1-0.5
			c-0.1-0.3-0.1-0.6-0.1-0.9c0-0.1-0.1-0.3-0.1-0.3c-0.1-0.3-0.1-0.8-0.2-1.1c-0.1-0.3-0.1-0.7-0.2-1c-0.1-0.2-0.1-0.3-0.1-0.5
			c-0.1-0.3-0.1-0.6-0.2-0.9c0-0.1-0.1-0.2-0.1-0.2c-0.1-0.3-0.1-0.6-0.2-0.9c-0.1-0.3-0.2-0.7-0.3-1c-0.1-0.3-0.2-0.6-0.2-1
			c-0.1-0.2-0.1-0.4-0.2-0.6c-0.1-0.1-0.1-0.2-0.1-0.3c-0.1-0.3-0.2-0.6-0.3-1c-0.7-2.4-1.7-4.9-2.7-7.1c-0.1-0.3-0.3-0.5-0.3-0.8
			c-0.6-1.3-1.2-2.5-1.9-3.7c-0.2-0.3-0.3-0.5-0.4-0.8c-0.3-0.5-0.6-1-0.9-1.5c-0.2-0.3-0.3-0.5-0.5-0.8l-0.1-0.1
			c-0.2-0.3-0.4-0.6-0.7-1c-1.1-1.6-2.4-3.4-3.8-4.9c-0.6-0.6-1.1-1.3-1.7-1.9c-0.3-0.3-0.6-0.6-0.9-1c-0.3-0.2-0.4-0.5-0.7-0.7
			c-0.3-0.2-0.5-0.5-0.8-0.8c-0.3-0.3-0.7-0.7-1.1-1c-0.4-0.3-0.9-0.7-1.2-1c-0.5-0.4-1-0.8-1.5-1.2c-0.5-0.3-1-0.8-1.6-1.2
			c-2.9-2.1-5.9-3.8-9.1-5.3c-0.8-0.3-1.7-0.7-2.4-1c-0.4-0.2-0.9-0.3-1.2-0.5c-0.9-0.3-1.7-0.6-2.5-0.9c-0.4-0.1-0.9-0.3-1.2-0.3
			c-0.9-0.3-1.7-0.5-2.6-0.7c-0.3-0.1-0.7-0.2-1-0.2c-0.3-0.1-0.4-0.1-0.7-0.2c-0.3-0.1-0.7-0.2-1-0.2c-0.4-0.1-0.9-0.2-1.2-0.2
			c-0.4-0.1-1-0.2-1.5-0.2c-0.3-0.1-0.5-0.1-0.9-0.1c-0.3-0.1-0.5-0.1-0.8-0.1c-0.2,0-0.3-0.1-0.6-0.1c-0.4-0.1-1-0.1-1.4-0.1h-0.1
			c-0.6-0.1-1.1-0.1-1.7-0.1c-30.3-0.8-55.5,23.9-56.3,55c-0.7,31.2,23.2,57,53.5,57.8c23.4,0.6,43.7-14,52.2-34.9
			c1.4-2.6,2.4-5.4,3.1-8.4c-6.7,44.7-44.8,78.5-90,77.3c-49-1.2-87.9-43.1-86.6-93.6C358.6,86,399.5,46.1,448.5,47.4z"/>
		<path fill="#5BBA47" stroke="#FFFFFF" stroke-width="3" stroke-miterlimit="10" d="M535.1,139.5c0,0.3,0,0.5,0,0.8
			c0-0.1,0-0.1,0-0.1v-0.1c0-0.1,0-0.2,0-0.2c-0.1-5.3-2-10.1-5.2-13.7c-5.8-9.6-16.2-16.2-28-16.5c-18.7-0.5-34.4,14.8-34.8,34
			c-0.4,19.3,14.3,35.3,33,35.8c13.2,0.3,24.9-7.1,30.8-18.4c-8.5,21-28.8,35.5-52.2,34.9c-30.3-0.8-54.3-26.6-53.5-57.8
			c0.8-31.2,26-55.8,56.3-55c0.6,0,1.1,0.1,1.7,0.1h0.1c0.4,0.1,1,0.1,1.4,0.1c0.2,0,0.3,0.1,0.6,0.1c0.3,0,0.5,0.1,0.8,0.1
			c0.3,0,0.5,0.1,0.9,0.1c0.4,0.1,1,0.1,1.5,0.2c0.4,0.1,0.9,0.1,1.2,0.2c0.3,0.1,0.7,0.1,1,0.2c0.3,0.1,0.4,0.1,0.7,0.2
			c0.3,0.1,0.7,0.2,1,0.2c0.9,0.2,1.7,0.4,2.6,0.7c0.4,0.1,0.9,0.3,1.2,0.3c0.9,0.3,1.7,0.5,2.5,0.9c0.4,0.2,0.9,0.3,1.2,0.5
			c0.9,0.3,1.7,0.6,2.4,1c3.2,1.5,6.3,3.2,9.1,5.3c0.5,0.3,1,0.8,1.6,1.2c0.5,0.3,1,0.8,1.5,1.2c0.4,0.3,0.9,0.7,1.2,1
			c0.3,0.3,0.7,0.6,1.1,1c0.3,0.2,0.5,0.5,0.8,0.8c0.3,0.2,0.4,0.5,0.7,0.7c0.3,0.3,0.6,0.6,0.9,1c0.6,0.6,1.2,1.3,1.7,1.9
			c1.3,1.6,2.6,3.2,3.8,4.9c0.2,0.3,0.4,0.6,0.7,1l0.1,0.1c0.2,0.3,0.3,0.5,0.5,0.8c0.3,0.5,0.6,1,0.9,1.5c0.2,0.3,0.3,0.5,0.4,0.8
			c0.7,1.2,1.4,2.5,1.9,3.7c0.1,0.3,0.3,0.5,0.3,0.8c1,2.3,1.9,4.7,2.7,7.1c0.1,0.3,0.2,0.6,0.3,1c0.1,0.1,0.1,0.2,0.1,0.3
			c0.1,0.2,0.1,0.4,0.2,0.6c0.1,0.3,0.2,0.6,0.2,1c0.1,0.3,0.2,0.7,0.3,1c0.1,0.3,0.1,0.5,0.2,0.9c0,0.1,0.1,0.2,0.1,0.2
			c0.1,0.3,0.1,0.6,0.2,0.9c0.1,0.2,0.1,0.3,0.1,0.5c0.1,0.3,0.1,0.7,0.2,1c0.1,0.3,0.1,0.8,0.2,1.1c0,0.1,0.1,0.3,0.1,0.3
			c0.1,0.3,0.1,0.6,0.1,0.9c0,0.2,0.1,0.3,0.1,0.5c0.1,0.3,0.1,0.5,0.1,0.8c0.1,0.3,0.1,0.8,0.1,1.2c0.1,0.5,0.1,1,0.1,1.4
			c0,0.3,0.1,0.7,0.1,1C535.1,138.3,535.1,138.9,535.1,139.5z"/>
		<path fill="#FFFFFF" stroke="#FFFFFF" stroke-width="3" stroke-miterlimit="10" d="M535.1,140.4c0,0.1,0,0.2,0,0.2v0.1
			c0-1.4-0.3-2.7-1-3.8c-0.2-1-0.4-1.9-0.7-2.8c1,1.7,1.6,3.7,1.7,5.8c0,0.1,0,0.2,0,0.2v0.1C535.1,140.3,535.1,140.3,535.1,140.4z"
			/>
		<path fill="#FFFFFF" stroke="#FFFFFF" stroke-width="3" stroke-miterlimit="10" d="M535.1,140.3L535.1,140.3L535.1,140.3
			C535.1,140.3,535.1,140.3,535.1,140.3z"/>
		<path fill="#FFFFFF" stroke="#FFFFFF" stroke-width="3" stroke-miterlimit="10" d="M535.1,140.6c0,0.1,0,0.2,0,0.3v-0.2
			C535.1,140.8,535.1,140.7,535.1,140.6z"/>
		<path fill="#FFFFFF" stroke="#FFFFFF" stroke-width="3" stroke-miterlimit="10" d="M535.1,140.8v0.2c0,0.2,0,0.3,0,0.4
			c-0.1,0.3-0.1,0.7-0.2,1c-0.1-1.9-0.3-3.7-0.8-5.6C534.8,138,535.1,139.4,535.1,140.8z"/>
		<path fill="#FFFFFF" stroke="#FFFFFF" stroke-width="3" stroke-miterlimit="10" d="M535.1,140.9c0,0.5-0.1,1-0.1,1.6
			c0,0.3-0.1,0.6-0.1,1c0-0.2,0-0.3,0-0.5c0.1-0.3,0.1-0.8,0.1-1.2c0-0.1,0-0.1,0-0.1v-0.2C535.1,141.3,535.1,141.1,535.1,140.9z"/>
		<path fill="#FFFFFF" stroke="#FFFFFF" stroke-width="3" stroke-miterlimit="10" d="M535.1,137.7c0-0.3,0-0.7-0.1-1
			C535.1,137,535.1,137.4,535.1,137.7z"/>
		<path fill="#FFFFFF" stroke="#FFFFFF" stroke-width="3" stroke-miterlimit="10" d="M535.1,141.4c0,0.1,0,0.2,0,0.2
			c0,0.1,0,0.1,0,0.1c0,0.3-0.1,0.6-0.1,1c0-0.1,0-0.2,0-0.2C535.1,142.1,535.1,141.7,535.1,141.4z"/>
		<path fill="#FFFFFF" stroke="#FFFFFF" stroke-width="3" stroke-miterlimit="10" d="M535.1,136.7c0-0.5-0.1-1-0.1-1.4
			C535.1,135.7,535.1,136.2,535.1,136.7z"/>
		<path fill="#FFFFFF" stroke="#FFFFFF" stroke-width="3" stroke-miterlimit="10" d="M535.1,143.4c0-0.3,0.1-0.6,0.1-1
			c0,0.3-0.1,0.8-0.1,1.1C535.1,143.6,535.1,143.5,535.1,143.4z"/>
		<path fill="#FFFFFF" stroke="#FFFFFF" stroke-width="3" stroke-miterlimit="10" d="M535.1,141.7c0,0.3-0.1,0.8-0.1,1.2
			c0-0.1,0-0.2,0-0.3l0,0C535.1,142.3,535.1,142.1,535.1,141.7z"/>
		<path fill="#FFFFFF" stroke="#FFFFFF" stroke-width="3" stroke-miterlimit="10" d="M535.1,143.7c0,0.6,0,1.2,0,1.7
			c-0.1,2.5-0.3,4.9-0.9,7.2C534.6,149.7,534.9,146.7,535.1,143.7z"/>
		<path fill="#FFFFFF" stroke="#FFFFFF" stroke-width="3" stroke-miterlimit="10" d="M535.1,143.4c0,0.1,0,0.1,0,0.2v0.1
			c-0.2,3-0.4,6-0.9,9c-0.7,3-1.7,5.8-3.1,8.4C533.2,155.6,534.6,149.7,535.1,143.4z"/>
		<path stroke="#FFFFFF" stroke-width="3" stroke-miterlimit="10" d="M535,142.9c0,0.2,0,0.3,0,0.5c-0.4,6.2-1.8,12.1-4,17.5
			c-5.9,11.2-17.5,18.7-30.8,18.4c-18.7-0.5-33.6-16.5-33-35.8s16-34.5,34.8-34c11.9,0.3,22.2,6.9,28,16.5
			c-3.8-4.4-9.2-7.2-15.3-7.4c-11.6-0.3-21.2,9.1-21.5,21c-0.3,11.9,8.8,21.8,20.5,22C524.6,162.3,533.8,153.9,535,142.9z"/>
		<path fill="#5BBA47" stroke="#FFFFFF" stroke-width="3" stroke-miterlimit="10" d="M535,142.7c0,0.1,0,0.2,0,0.3
			c-1.2,10.9-10.4,19.3-21.3,19c-11.6-0.3-20.7-10.2-20.5-22c0.3-11.9,9.9-21.3,21.5-21c6.1,0.2,11.5,3,15.3,7.4
			c1.5,2.4,2.6,5,3.5,7.8c-2.2-3.9-6.2-6.6-10.9-6.7c-7.2-0.2-13.1,5.6-13.3,13c-0.2,7.4,5.5,13.5,12.7,13.6
			C528.5,154.1,534.1,149.2,535,142.7z"/>
		<path stroke="#FFFFFF" stroke-width="3" stroke-miterlimit="10" d="M535,142.6C535,142.7,535,142.7,535,142.6
			c-1,6.6-6.6,11.5-13.1,11.3c-7.2-0.2-12.9-6.2-12.7-13.6c0.2-7.4,6.1-13.2,13.3-13c4.7,0.1,8.7,2.8,10.9,6.7c0,0,0,0,0,0.1
			c0.3,1,0.5,1.8,0.7,2.8c-1.3-2.5-3.9-4.3-6.8-4.4c-4.5-0.1-8.1,3.5-8.2,8c-0.1,4.5,3.4,8.3,7.8,8.4c3.9,0.1,7.3-2.7,8-6.6
			C535,142.5,535,142.6,535,142.6z"/>
		<path fill="#FFFFFF" stroke="#FFFFFF" stroke-width="3" stroke-miterlimit="10" d="M535,142.4c-0.8,3.8-4.1,6.7-8,6.6
			c-4.5-0.1-8-3.9-7.8-8.4c0.1-4.5,3.8-8.2,8.2-8c3,0.1,5.5,1.8,6.8,4.4C534.6,138.7,534.9,140.6,535,142.4z"/>
		<path fill="#FFFFFF" stroke="#FFFFFF" stroke-width="3" stroke-miterlimit="10" d="M530,126.3c3.1,3.6,5.1,8.4,5.2,13.7
			c-0.1-2.1-0.7-4.1-1.7-5.8c0,0,0,0,0-0.1C532.6,131.3,531.4,128.6,530,126.3z"/>
		<path fill="#FFFFFF" stroke="#FFFFFF" stroke-width="3" stroke-miterlimit="10" d="M533.7,126.8c-0.1-0.3-0.2-0.8-0.3-1
			C533.6,126,533.7,126.4,533.7,126.8z"/>
		<path fill="#FFFFFF" stroke="#FFFFFF" stroke-width="3" stroke-miterlimit="10" d="M533.5,125.7c-0.1-0.3-0.2-0.6-0.2-1
			C533.3,125,533.4,125.4,533.5,125.7z"/>
		<path fill="#FFFFFF" stroke="#FFFFFF" stroke-width="3" stroke-miterlimit="10" d="M519.6,100.1c0.6,0.6,1.2,1.3,1.7,1.9
			C520.7,101.4,520.2,100.8,519.6,100.1z"/>
		<path fill="#FFFFFF" stroke="#FFFFFF" stroke-width="3" stroke-miterlimit="10" d="M518.6,99.2c-0.3-0.2-0.4-0.5-0.7-0.7
			C518.2,98.7,518.4,99,518.6,99.2z"/>
		<path fill="#FFFFFF" stroke="#FFFFFF" stroke-width="3" stroke-miterlimit="10" d="M496.3,85.5c-0.4-0.1-0.9-0.3-1.2-0.3
			C495.5,85.3,495.9,85.5,496.3,85.5z"/>
		<path fill="#FFFFFF" stroke="#FFFFFF" stroke-width="3" stroke-miterlimit="10" d="M489.8,84c-0.4-0.1-0.9-0.2-1.2-0.2
			C488.9,83.8,489.3,83.8,489.8,84z"/>
		<path fill="#FFFFFF" stroke="#FFFFFF" stroke-width="3" stroke-miterlimit="10" d="M487,83.6c-0.3-0.1-0.5-0.1-0.9-0.1
			C486.4,83.5,486.7,83.6,487,83.6z"/>
		<path fill="#FFFFFF" stroke="#FFFFFF" stroke-width="3" stroke-miterlimit="10" d="M485.4,83.4c-0.2,0-0.3-0.1-0.6-0.1
			C485,83.3,485.2,83.4,485.4,83.4z"/>
	</g>
	<g>
		<path fill="none" stroke="#FFFFFF" stroke-width="3" stroke-miterlimit="10" d="M534.2,152.6c-6.7,44.7-44.8,78.5-90,77.3
			c-49-1.2-87.9-43.1-86.6-93.6c1.2-50.4,42-90.4,91-89.1c48.6,1.2,87.2,42.4,86.6,92.2"/>
		<path fill="none" stroke="#FFFFFF" stroke-width="3" stroke-miterlimit="10" d="M483.3,83.2c-0.6-0.1-1.1-0.1-1.7-0.1"/>
		<path fill="none" stroke="#FFFFFF" stroke-width="3" stroke-miterlimit="10" d="M487,83.6c-0.3-0.1-0.5-0.1-0.9-0.1
			c-0.3-0.1-0.5-0.1-0.8-0.1c-0.2,0-0.3-0.1-0.6-0.1c-0.4-0.1-1-0.1-1.4-0.1"/>
		<path fill="none" stroke="#FFFFFF" stroke-width="3" stroke-miterlimit="10" d="M489.8,84c-0.4-0.1-0.9-0.2-1.2-0.2"/>
		<path fill="none" stroke="#FFFFFF" stroke-width="3" stroke-miterlimit="10" d="M491.5,84.2c-0.3-0.1-0.4-0.1-0.7-0.2"/>
		<path fill="none" stroke="#FFFFFF" stroke-width="3" stroke-miterlimit="10" d="M496.3,85.5c-0.4-0.1-0.9-0.3-1.2-0.3
			c-0.9-0.3-1.7-0.5-2.6-0.7"/>
		<path fill="none" stroke="#FFFFFF" stroke-width="3" stroke-miterlimit="10" d="M517.1,97.7c-0.3-0.3-0.7-0.7-1.1-1
			c-0.4-0.3-0.9-0.7-1.2-1c-0.5-0.4-1-0.8-1.5-1.2c-0.5-0.3-1-0.8-1.6-1.2"/>
		<path fill="none" stroke="#FFFFFF" stroke-width="3" stroke-miterlimit="10" d="M518.6,99.2c-0.3-0.2-0.4-0.5-0.7-0.7"/>
		<path fill="none" stroke="#FFFFFF" stroke-width="3" stroke-miterlimit="10" d="M521.3,102.1c-0.6-0.6-1.1-1.3-1.7-1.9"/>
		<path fill="none" stroke="#FFFFFF" stroke-width="3" stroke-miterlimit="10" d="M525.8,108c-0.2-0.3-0.4-0.6-0.7-1"/>
		<path fill="none" stroke="#FFFFFF" stroke-width="3" stroke-miterlimit="10" d="M526.3,108.9c-0.2-0.3-0.3-0.5-0.5-0.8"/>
		<path fill="none" stroke="#FFFFFF" stroke-width="3" stroke-miterlimit="10" d="M527.7,111.2c-0.2-0.3-0.3-0.5-0.4-0.8"/>
		<path fill="none" stroke="#FFFFFF" stroke-width="3" stroke-miterlimit="10" d="M530.1,115.8c-0.1-0.3-0.3-0.5-0.3-0.8"/>
		<path fill="none" stroke="#FFFFFF" stroke-width="3" stroke-miterlimit="10" d="M533,123.8c-0.1-0.3-0.2-0.6-0.3-1"/>
		<path fill="none" stroke="#FFFFFF" stroke-width="3" stroke-miterlimit="10" d="M533.9,127.6c-0.1-0.3-0.1-0.6-0.2-0.9
			c-0.1-0.3-0.2-0.8-0.3-1c-0.1-0.3-0.2-0.6-0.2-1c-0.1-0.2-0.1-0.4-0.2-0.6"/>
		<path fill="none" stroke="#FFFFFF" stroke-width="3" stroke-miterlimit="10" d="M534.2,128.8c-0.1-0.3-0.1-0.6-0.2-0.9"/>
		<path fill="none" stroke="#FFFFFF" stroke-width="3" stroke-miterlimit="10" d="M534.6,131.5c-0.1-0.3-0.1-0.8-0.2-1.1
			c-0.1-0.3-0.1-0.7-0.2-1"/>
		<path fill="none" stroke="#FFFFFF" stroke-width="3" stroke-miterlimit="10" d="M534.8,132.8c-0.1-0.3-0.1-0.6-0.1-0.9"/>
		<path fill="none" stroke="#FFFFFF" stroke-width="3" stroke-miterlimit="10" d="M534.9,134.1c0-0.3-0.1-0.5-0.1-0.8"/>
		<path fill="none" stroke="#FFFFFF" stroke-width="3" stroke-miterlimit="10" d="M535.1,137.7c0-0.3,0-0.7-0.1-1
			c0-0.5-0.1-1-0.1-1.4"/>
		<path fill="none" stroke="#FFFFFF" stroke-width="3" stroke-miterlimit="10" d="M535.1,143.6c0-0.3,0.1-0.8,0.1-1.1"/>
		<path fill="none" stroke="#FFFFFF" stroke-width="3" stroke-miterlimit="10" d="M534.2,152.6c0.4-3,0.7-6,0.9-9"/>
		<path fill="none" stroke="#FFFFFF" stroke-width="3" stroke-miterlimit="10" d="M535.1,140.3c0-0.3,0-0.5,0-0.8
			c0-0.6,0-1.2-0.1-1.8c0-0.3,0-0.7-0.1-1c0-0.5-0.1-1-0.1-1.4c-0.1-0.4-0.1-0.8-0.1-1.2c0-0.3-0.1-0.5-0.1-0.8
			c0-0.2-0.1-0.3-0.1-0.5c-0.1-0.3-0.1-0.6-0.1-0.9c0-0.1-0.1-0.3-0.1-0.3c-0.1-0.3-0.1-0.8-0.2-1.1c-0.1-0.3-0.1-0.7-0.2-1
			c-0.1-0.2-0.1-0.3-0.1-0.5c-0.1-0.3-0.1-0.6-0.2-0.9c0-0.1-0.1-0.2-0.1-0.2c-0.1-0.3-0.1-0.5-0.2-0.9c-0.1-0.3-0.2-0.7-0.3-1
			c-0.1-0.3-0.2-0.6-0.2-1c-0.1-0.2-0.1-0.4-0.2-0.6c-0.1-0.1-0.1-0.2-0.1-0.3c-0.1-0.3-0.2-0.6-0.3-1c-0.7-2.4-1.7-4.9-2.7-7.1
			c-0.1-0.3-0.3-0.5-0.3-0.8c-0.6-1.3-1.2-2.5-1.9-3.7c-0.2-0.3-0.3-0.5-0.4-0.8c-0.3-0.5-0.6-1-0.9-1.5c-0.2-0.3-0.3-0.5-0.5-0.8
			l-0.1-0.1c-0.2-0.3-0.4-0.6-0.7-1c-1.1-1.6-2.4-3.4-3.8-4.9c-0.6-0.6-1.1-1.3-1.7-1.9c-0.3-0.3-0.6-0.6-0.9-1
			c-0.3-0.2-0.4-0.5-0.7-0.7c-0.3-0.2-0.5-0.5-0.8-0.8c-0.3-0.3-0.7-0.7-1.1-1c-0.4-0.3-0.9-0.7-1.2-1c-0.5-0.4-1-0.8-1.5-1.2
			c-0.5-0.3-1-0.8-1.6-1.2c-2.9-2.1-5.9-3.8-9.1-5.3c-0.8-0.3-1.7-0.7-2.4-1c-0.4-0.2-0.9-0.3-1.2-0.5c-0.9-0.3-1.7-0.6-2.5-0.9
			c-0.4-0.1-0.9-0.3-1.2-0.3c-0.9-0.3-1.7-0.5-2.6-0.7c-0.3-0.1-0.7-0.2-1-0.2c-0.2-0.1-0.4-0.1-0.7-0.2c-0.3-0.1-0.7-0.2-1-0.2
			c-0.4-0.1-0.9-0.2-1.2-0.2c-0.4-0.1-1-0.2-1.5-0.2c-0.3-0.1-0.5-0.1-0.9-0.1c-0.3-0.1-0.5-0.1-0.8-0.1c-0.2,0-0.3-0.1-0.6-0.1
			c-0.4-0.1-1-0.1-1.4-0.1h-0.1c-0.6-0.1-1.1-0.1-1.7-0.1c-30.3-0.8-55.5,23.9-56.3,55c-0.7,31.2,23.2,57,53.5,57.8
			c23.4,0.6,43.7-14,52.2-34.9"/>
		<path fill="none" stroke="#FFFFFF" stroke-width="3" stroke-miterlimit="10" d="M535.1,143.4c0-0.3,0.1-0.6,0.1-1
			c0.1-0.5,0.1-1,0.1-1.6"/>
		<path fill="none" stroke="#FFFFFF" stroke-width="3" stroke-miterlimit="10" d="M535,142.9c0,0.2,0,0.3,0,0.5"/>
		<path fill="none" stroke="#FFFFFF" stroke-width="3" stroke-miterlimit="10" d="M531,161.1c-5.9,11.2-17.5,18.7-30.8,18.4
			c-18.7-0.5-33.6-16.5-33-35.8c0.4-19.3,16-34.5,34.8-34c11.9,0.3,22.2,6.9,28,16.5"/>
		<path fill="none" stroke="#FFFFFF" stroke-width="3" stroke-miterlimit="10" d="M534.2,136.9c0.3,1.8,0.6,3.6,0.8,5.6"/>
		<path fill="none" stroke="#FFFFFF" stroke-width="3" stroke-miterlimit="10" d="M535,142.7c0,0.1,0,0.2,0,0.3"/>
		<path fill="none" stroke="#FFFFFF" stroke-width="3" stroke-miterlimit="10" d="M530,126.3c1.5,2.4,2.6,5,3.5,7.8"/>
		<path fill="none" stroke="#FFFFFF" stroke-width="3" stroke-miterlimit="10" d="M535.1,143.6C535.1,143.6,535.1,143.7,535.1,143.6
			c0,0.6,0,1.2,0,1.8c-0.1,2.5-0.3,4.9-0.9,7.2c-0.7,3-1.7,5.8-3.1,8.4C533.2,155.6,534.6,149.7,535.1,143.6L535.1,143.6z"/>
		<path fill="none" stroke="#FFFFFF" stroke-width="3" stroke-miterlimit="10" d="M535.1,140.4L535.1,140.4c0-0.1,0-0.1,0-0.2"/>
		<path fill="none" stroke="#FFFFFF" stroke-width="3" stroke-miterlimit="10" d="M535.1,140.8C535.1,140.7,535.1,140.7,535.1,140.8
			"/>
		<path fill="none" stroke="#FFFFFF" stroke-width="3" stroke-miterlimit="10" d="M535.1,140c-0.1-5.3-2-10.1-5.2-13.7
			c-3.8-4.4-9.2-7.2-15.3-7.4c-11.6-0.3-21.2,9.1-21.5,21c-0.3,11.9,8.8,21.8,20.5,22c10.9,0.3,20.1-8.1,21.3-19
			c0.1-0.3,0.1-0.8,0.1-1.2"/>
		<path fill="none" stroke="#FFFFFF" stroke-width="3" stroke-miterlimit="10" d="M535,142.6C535,142.7,535,142.7,535,142.6
			c-1,6.6-6.6,11.5-13.1,11.3c-7.2-0.2-12.9-6.2-12.7-13.6c0.2-7.4,6.1-13.2,13.3-13c4.7,0.1,8.7,2.8,10.9,6.7c0,0,0,0,0,0.1"/>
		<path fill="none" stroke="#FFFFFF" stroke-width="3" stroke-miterlimit="10" d="M534.2,136.9c-0.2-1-0.4-1.9-0.7-2.8
			c1,1.7,1.6,3.7,1.7,5.8c0,0.1,0,0.2,0,0.2v0.1c0,0.1,0,0.1,0,0.2c0,0.1,0,0.2,0,0.2c0,0.1,0,0.2,0,0.3"/>
		<path fill="none" stroke="#FFFFFF" stroke-width="3" stroke-miterlimit="10" d="M535.1,141.4c0,0.1,0,0.2,0,0.2c0,0.1,0,0.1,0,0.1
			c0,0.3-0.1,0.6-0.1,1c0-0.1,0-0.2,0-0.2"/>
		<path fill="none" stroke="#FFFFFF" stroke-width="3" stroke-miterlimit="10" d="M535.1,140.8v0.2c0,0.2,0,0.3,0,0.4
			c-0.1,0.3-0.1,0.7-0.2,1c-0.8,3.8-4.1,6.7-8,6.6c-4.5-0.1-8-3.9-7.8-8.4c0.1-4.5,3.8-8.2,8.2-8c3,0.1,5.5,1.8,6.8,4.4
			C534.8,138,535.1,139.4,535.1,140.8z"/>
	</g>
	<g>
		<polyline fill="none" stroke="#FFFFFF" stroke-width="3" stroke-miterlimit="10" points="104.7,101.2 116.5,93.4 130,101.5 		"/>
		<g>
			<g>
				<path fill="#F4F0EB" stroke="#000000" stroke-miterlimit="10" d="M142.1,108.6c0,0.2,0,0.3,0,0.6c0,1.4-0.2,2.8-0.3,4.2
					c-1,6.2-4.2,11.8-8.8,15.7c-1,0.8-1.9,1.5-3,2.1v-14.4v-7.6v-7.6l-13.5-8.1L142.1,108.6z"/>
				<path fill="#F4F0EB" stroke="#000000" stroke-miterlimit="10" d="M142.1,108.6l-25.6-15.1l-11.8,7.6L127.9,86
					c1.8,0.9,3.5,2,5.1,3.3c4.5,3.8,7.8,9.4,8.8,15.7C141.9,106.2,142,107.4,142.1,108.6z"/>
				<path fill="#4C5051" stroke="#000000" stroke-miterlimit="10" d="M142.1,108.6c-0.1-1.2-0.2-2.3-0.3-3.6
					c-1-6.2-4.2-11.8-8.8-15.7c-1.5-1.3-3.2-2.3-5.1-3.3c-1.1-0.5-2.4-1-3.6-1.4c-2.3-0.7-4.6-1-7.1-1c-3.1,0-5.9,0.6-8.7,1.6
					c-1.3,0.5-2.6,1.1-3.8,1.9c-1,0.6-2,1.3-3,2.1c-4.8,3.9-8.2,9.6-9.2,16.1c-0.2,1.3-0.3,2.7-0.3,4s0.2,2.7,0.3,4
					c1,6.5,4.4,12.2,9.2,16.1c1.1,1,2.4,1.7,3.6,2.4c1,0.5,2.1,1,3.2,1.5c2.7,1,5.6,1.6,8.7,1.6c2.4,0,4.9-0.3,7.1-1
					c2-0.6,3.9-1.5,5.7-2.5c1-0.6,2.1-1.4,3-2.1c4.5-3.8,7.8-9.5,8.8-15.7c0.2-1.4,0.3-2.8,0.3-4.2
					C142.1,109,142.1,108.8,142.1,108.6z M117.2,80c15.7,0,28.4,13.1,28.4,29.3s-12.7,29.3-28.4,29.3s-28.4-13.1-28.4-29.3
					C88.7,93.1,101.5,80,117.2,80z"/>
				<path fill="#F4F0EB" stroke="#000000" stroke-miterlimit="10" d="M130,116.9v14.3c-1.7,1-3.7,1.9-5.7,2.5c-2.3,0.7-4.6,1-7.1,1
					c-3.1,0-5.9-0.6-8.7-1.6c-1.1-0.4-2.2-1-3.2-1.5L130,116.9z"/>
				<path fill="#4C5051" stroke="#000000" stroke-miterlimit="10" d="M130,109.2v7.6l-13.5,8.1l-11.8-7.6v-8.1h0.6
					c0,6.7,5.3,12.2,11.9,12.2s11.9-5.5,11.9-12.2H130z"/>
				<path fill="#4C5051" stroke="#000000" stroke-miterlimit="10" d="M130,101.5v7.6h-1c0-6.7-5.3-12.2-11.9-12.2
					s-11.9,5.5-11.9,12.2h-0.6v-8.1l11.8-7.6L130,101.5z"/>
				<path fill="#F4F0EB" stroke="#000000" stroke-miterlimit="10" d="M130,116.9l-24.7,14.8c-1.2-0.7-2.4-1.5-3.6-2.4
					c-4.8-3.9-8.2-9.6-9.2-16.1c-0.2-1.3-0.3-2.7-0.3-4l12.4,8.1l11.8,7.6L130,116.9z"/>
				<path fill="#F4F0EB" stroke="#000000" stroke-miterlimit="10" d="M127.9,86l-23.2,15.1V87l-0.1-0.1c1.2-0.7,2.5-1.4,3.8-1.9
					c2.7-1,5.6-1.6,8.7-1.6c2.4,0,4.9,0.3,7.1,1C125.6,85,126.7,85.5,127.9,86z"/>
				<path fill="#F4F0EB" stroke="#000000" stroke-miterlimit="10" d="M117.2,97c6.6,0,11.9,5.5,11.9,12.2c0,6.7-5.3,12.2-11.9,12.2
					s-11.9-5.5-11.9-12.2S110.5,97,117.2,97z M127.2,109.2c0-5.6-4.5-10.2-10-10.2c-5.5,0-10,4.6-10,10.2c0,5.6,4.5,10.2,10,10.2
					S127.2,114.9,127.2,109.2z"/>
				<path fill="#3D9946" stroke="#000000" stroke-miterlimit="10" d="M117.2,98.9c5.5,0,10,4.6,10,10.2c0,5.6-4.5,10.2-10,10.2
					c-5.5,0-10-4.6-10-10.2C107.2,103.5,111.6,98.9,117.2,98.9z"/>
				<path fill="#F4F0EB" stroke="#000000" stroke-miterlimit="10" d="M104.7,109.2v8.1l-12.4-8.1c0-1.4,0.2-2.7,0.3-4
					c1-6.5,4.4-12.2,9.2-16.1c1-0.8,1.9-1.4,3-2.1l0.1,0.1v14.1L104.7,109.2L104.7,109.2z"/>
			</g>
			<path fill="none" stroke="#FFFFFF" stroke-width="3" stroke-miterlimit="10" d="M145.5,109.2c0-16.1-12.7-29.3-28.4-29.3
				S88.7,93,88.7,109.2s12.7,29.3,28.4,29.3S145.5,125.3,145.5,109.2z"/>
			<path fill="none" stroke="#000000" stroke-width="3" stroke-miterlimit="10" d="M147.8,109.2c0-17.4-13.7-31.5-30.7-31.5
				s-30.7,14.1-30.7,31.5s13.7,31.5,30.7,31.5C134.1,140.8,147.8,126.6,147.8,109.2z"/>
			<path fill="none" stroke="#000000" stroke-miterlimit="10" d="M142.1,108.6c-0.1-1.2-0.2-2.3-0.3-3.6c-1-6.2-4.2-11.8-8.8-15.7
				c-1.5-1.3-3.2-2.3-5.1-3.3c-1.1-0.5-2.4-1-3.6-1.4c-2.3-0.7-4.6-1-7.1-1c-3.1,0-5.9,0.6-8.7,1.6c-1.3,0.5-2.6,1.1-3.8,1.9
				c-1,0.6-2,1.3-3,2.1c-4.8,3.9-8.2,9.6-9.2,16.1c-0.2,1.3-0.3,2.7-0.3,4s0.2,2.7,0.3,4c1,6.5,4.4,12.2,9.2,16.1
				c1.1,1,2.4,1.7,3.6,2.4c1,0.5,2.1,1,3.2,1.5c2.7,1,5.6,1.6,8.7,1.6c2.4,0,4.9-0.3,7.1-1c2-0.6,3.9-1.5,5.7-2.5
				c1-0.6,2.1-1.4,3-2.1c4.5-3.8,7.8-9.5,8.8-15.7c0.2-1.4,0.3-2.8,0.3-4.2C142.1,109,142.1,108.8,142.1,108.6z"/>
			<line fill="none" stroke="#FFFFFF" stroke-width="3" stroke-miterlimit="10" x1="130" y1="116.9" x2="116.5" y2="124.9"/>
			<path fill="none" stroke="#FFFFFF" stroke-width="3" stroke-miterlimit="10" d="M129,109.2c0-6.7-5.3-12.2-11.9-12.2
				s-11.9,5.5-11.9,12.2c0,6.7,5.3,12.2,11.9,12.2C123.7,121.4,129,115.9,129,109.2z"/>
			<path fill="none" stroke="#000000" stroke-width="2" stroke-miterlimit="10" d="M127.2,109.2c0-5.6-4.5-10.2-10-10.2
				c-5.5,0-10,4.6-10,10.2c0,5.6,4.5,10.2,10,10.2S127.2,114.9,127.2,109.2z"/>
			<polyline fill="none" stroke="#000000" stroke-miterlimit="10" points="104.7,117.2 104.7,109.2 104.7,101.2 104.7,87 			"/>
			<polyline fill="none" stroke="#000000" stroke-miterlimit="10" points="116.5,124.9 104.7,117.2 92.2,109.2 			"/>
			<line fill="none" stroke="#000000" stroke-miterlimit="10" x1="130" y1="116.9" x2="105.3" y2="131.7"/>
			<polyline fill="none" stroke="#000000" stroke-miterlimit="10" points="130,101.5 130,109.2 130,116.9 130,131.2 130,131.2 			
				"/>
		</g>
		<polyline fill="none" stroke="#000000" stroke-miterlimit="10" points="116.5,93.4 142.1,108.6 142.1,108.6 		"/>
		<line fill="none" stroke="#000000" stroke-miterlimit="10" x1="104.7" y1="101.2" x2="127.9" y2="86"/>
	</g>
	<g id="XMLID_327_">
		<path id="XMLID_330_" fill="#FBB97C" stroke="#000000" stroke-miterlimit="10" d="M411,32.9l-2.9,4.9c-0.3-0.1-0.5-0.2-0.8-0.2
			c-0.4-0.1-0.9-0.2-1.1-0.2c-0.5,0-0.9,1-1.3,2.3c-0.4-0.2-1-0.3-1.4-0.5c-0.7-0.3-1.3-0.5-1.8-0.7c-0.1,0-0.1,0-0.1-0.1
			c0.4-2.4,2.7-8.1,3.2-8.2h0.1c0.3,0.1,2,0.8,3.7,1.5C409.4,32.3,410.3,32.6,411,32.9z"/>
		<path id="XMLID_280_" fill="#5BBA47" stroke="#000000" stroke-miterlimit="10" d="M437.4,49.7c-1.2,1-4.5,0.5-8.6-0.9
			c-1.6,2.3-3.5,4.1-5.7,4.3c-8,0.9-25.9-7.5-25.9-7.5s0-0.1,0.1-0.2c0.1-0.1,0.1-0.2,0.1-0.3c0.1-0.2,0.2-0.3,0.3-0.6
			c0.3-0.6,0.6-1.5,0.9-2.3l0,0c0.3-1,0.8-2.1,1.1-2.9c0.2,0.1,0.3,0.1,0.4,0.2c0.1-0.5,0.2-1,0.3-1.5c0.2,0,0.7,0.2,1.2,0.3
			c0.1,0,0.1,0,0.1,0.1c0.5,0.2,1.1,0.4,1.8,0.7c0.4,0.2,0.9,0.3,1.4,0.5c0.4,0.2,0.9,0.3,1.3,0.5c3.3,1.3,7.3,2.8,10.3,3.2
			c-5-2.4-9-4.7-9-4.7l0.6-1l2.9-4.9l0.3-0.5c0,0,5,2.9,9.5,4.9c0.1-8.6-1.5-23.5,3.4-26c4.5-2.3,8-0.5,9.8,0.8
			c0.1,0.2,0.1,0.6,0.2,1l0,0c0.2,0.8,0.6,1.8,1,3c0.4,1.4,0.9,3,1.2,4.4l0.5,3c0.2,2.2-0.6,4.5-1.5,6.3c-0.4,1-0.5,1.9-0.3,3
			c0.2,1.1,0.9,2.3,1.9,3c0.6,0.3,1.2,0.8,1.8,1.2C439.3,42.6,439.3,48.1,437.4,49.7z"/>
		<path id="XMLID_329_" fill="#D37528" stroke="#000000" stroke-miterlimit="10" d="M408.8,31.5c0,0-0.1,0.2-0.2,0.4
			c-0.2,0.5-0.6,1.5-0.9,2.7l0,0c0,0.1,0,0.1,0,0.1c-0.1,0.3-0.2,0.8-0.2,1.2V36c-0.1,0.2-0.1,0.3-0.1,0.5c0,0.1,0,0.1,0,0.1
			c0,0.2-0.1,0.4-0.1,0.7c0,0.1,0,0.3,0,0.3c0,0.3,0.1,0.5,0.1,0.8c0,0-0.7,0.8-1.2,1.8c-0.4-0.2-0.9-0.3-1.3-0.5
			c-0.4-0.2-1-0.3-1.4-0.5c-0.7-0.3-1.3-0.5-1.8-0.7c-0.1,0-0.1,0-0.1-0.1c-0.6-0.2-1-0.3-1.2-0.3c0.3-1.3,0.6-2.5,0.9-3.5
			c0.9-2.7,2.2-5.1,3.3-5.3c0.2,0,0.4,0.1,0.7,0.1C406.7,29.9,408.8,31.5,408.8,31.5z"/>
		<path id="XMLID_288_" fill="#BC6428" stroke="#000000" stroke-miterlimit="10" d="M407.7,34.6C407.7,34.7,407.7,34.7,407.7,34.6
			c-0.2,0.4-0.3,0.9-0.3,1.3V36c0,0.2-0.1,0.3-0.1,0.5c0,0.1,0,0.1,0,0.1c0,0.2-0.1,0.4-0.1,0.7c0,0.1,0,0.3,0,0.3
			c0,0.3,0.1,0.5,0.1,0.8c0,0-0.7,0.8-1.2,1.8c-0.4-0.2-0.9-0.3-1.3-0.5c-0.4-0.2-1-0.3-1.4-0.5c-0.1-0.3-0.1-0.6,0-1
			C403.8,35.9,406.3,34.9,407.7,34.6L407.7,34.6z"/>
		<path id="XMLID_290_" fill="#1A1A1A" stroke="#000000" stroke-miterlimit="10" d="M405.5,29.4C405.5,29.4,405.5,29.5,405.5,29.4
			c-0.2,0.3-0.3,0.5-0.5,1c-0.9,1.7-2.7,5.5-3.1,7.7c0,0.2-0.1,0.3-0.1,0.4c-0.1,0-0.1,0-0.1-0.1c-0.6-0.2-1-0.3-1.2-0.3
			c-0.1,0.5-0.2,1-0.3,1.5c-0.1-0.1-0.3-0.1-0.4-0.2c-0.3,0.8-0.7,1.8-1.1,2.9l0,0c0.1-1,0.2-2.1,0.3-3.2c0.3-1.9,0.8-3.7,1.1-4.9
			c1-3.2,2.9-6,3.7-5.8C404.6,28.3,405.5,29.4,405.5,29.4z"/>
	</g>
	<g id="XMLID_322_">
		<path id="XMLID_299_" fill="#FBB97C" stroke="#000000" stroke-miterlimit="10" d="M399.7,39.4c-0.3,0.8-0.7,1.8-1.1,2.9l0,0
			c-0.3,0.9-0.6,1.7-0.9,2.3c-0.5-0.2-1.1-0.3-1.6-0.5c-0.4-0.1-0.9-0.2-1.1-0.2c-0.9,0-1.4,2.8-2.1,4.7c-0.3,0.9-0.7,1.6-1.1,1.6
			c-1.1,0.2-1.7-1.7-1.6-3.8l0,0c0-0.5,0.1-1,0.2-1.5c0.4-2.3,2.7-8.2,3.2-8.2h0.1c0.3,0.1,2,0.8,3.7,1.5c0.6,0.3,1.1,0.5,1.7,0.8
			C399.2,39.1,399.5,39.2,399.7,39.4z"/>
		<path id="XMLID_325_" fill="#D37528" stroke="#000000" stroke-miterlimit="10" d="M393.3,35.8c-1.1,0.1-2.4,2.5-3.3,5.3
			c-0.9,2.7-1.9,7.5-1,9.5c0.9,2.1,7.5,4,7.5,2.3c0.1-1.8-2.1-1.8-2.2-3.6c-0.1-1.9,1.8-4.2,1.8-4.2c-0.5-3,1.2-7,1.2-7
			S394.6,35.7,393.3,35.8z"/>
		<path id="XMLID_324_" fill="#BC6428" stroke="#000000" stroke-miterlimit="10" d="M391.2,51.9c-0.2,0.1-0.3,0.2-0.4,0.3
			c2.3,1.2,5.8,1.9,5.8,0.6c0.1-1.8-2.1-1.8-2.2-3.6c-0.1-1.9,1.8-4.2,1.8-4.2c-0.2-1.2-0.1-2.7,0.3-3.8c-1.5,0.3-3.9,1.4-4.1,3.6
			C392,47.9,394.8,50,391.2,51.9z"/>
		<path id="XMLID_323_" fill="#1A1A1A" stroke="#000000" stroke-miterlimit="10" d="M394.1,35.8c0,0-0.8-1.1-1.7-1.2
			c-0.8-0.1-2.7,2.6-3.7,5.8c-1,3.2-2.7,10.8-0.3,12.3c2.4,1.6,7.3,2.4,7.7,2.1c0.3-0.3,0.5-1.8,0.3-2.1c-0.3-0.3-4.1-0.5-5.6-1.8
			c-1.5-1.3-0.9-3.5-0.3-6.5C391.1,41.5,394.1,35.8,394.1,35.8z"/>
	</g>
	<g id="XMLID_302_">
		<g id="XMLID_303_">
			
				<rect id="XMLID_321_" x="482.9" y="25.6" transform="matrix(1 -1.227444e-03 1.227444e-03 1 -3.613370e-02 0.5935)" fill="#1A1A1A" width="1.1" height="8.3"/>
			<g id="XMLID_306_">
				
					<rect id="XMLID_320_" x="488.9" y="27.4" transform="matrix(1 -1.259709e-03 1.259709e-03 1 -3.793914e-02 0.624)" fill="#1A1A1A" width="12.9" height="6.1"/>
				
					<rect id="XMLID_319_" x="494.2" y="26.8" transform="matrix(1 -1.254196e-03 1.254196e-03 1 -3.777345e-02 0.6233)" fill="#3E3D3D" width="5.5" height="7.3"/>
				
					<rect id="XMLID_318_" x="489.5" y="26.8" transform="matrix(1 -1.263298e-03 1.263298e-03 1 -3.804940e-02 0.6204)" fill="#3E3D3D" width="3.1" height="7.3"/>
				<polygon id="XMLID_317_" fill="#3E3D3D" points="505.2,26.8 500.8,26.8 500.8,34.1 505.2,34.2 				"/>
				<g id="XMLID_307_">
					
						<rect id="XMLID_316_" x="494.7" y="27.1" transform="matrix(1 -1.242825e-03 1.242825e-03 1 -3.355085e-02 0.6176)" fill="#1A1A1A" width="4.5" height="0.3"/>
					
						<rect id="XMLID_315_" x="494.7" y="27.9" transform="matrix(1 -1.258945e-03 1.258945e-03 1 -3.496449e-02 0.6256)" fill="#1A1A1A" width="4.5" height="0.3"/>
					
						<rect id="XMLID_314_" x="494.7" y="28.7" transform="matrix(1 -1.258964e-03 1.258964e-03 1 -3.594855e-02 0.6256)" fill="#1A1A1A" width="4.5" height="0.3"/>
					
						<rect id="XMLID_313_" x="494.7" y="29.5" transform="matrix(1 -1.258945e-03 1.258945e-03 1 -3.693156e-02 0.6256)" fill="#1A1A1A" width="4.5" height="0.3"/>
					
						<rect id="XMLID_312_" x="494.7" y="30.3" transform="matrix(1 -1.275085e-03 1.275085e-03 1 -3.839601e-02 0.6337)" fill="#1A1A1A" width="4.5" height="0.3"/>
					
						<rect id="XMLID_311_" x="494.7" y="31.1" transform="matrix(1 -1.258964e-03 1.258964e-03 1 -3.900847e-02 0.6257)" fill="#1A1A1A" width="4.5" height="0.3"/>
					
						<rect id="XMLID_310_" x="494.7" y="31.9" transform="matrix(1 -1.275066e-03 1.275066e-03 1 -4.049838e-02 0.6337)" fill="#1A1A1A" width="4.5" height="0.3"/>
					
						<rect id="XMLID_309_" x="494.7" y="32.7" transform="matrix(1 -1.258964e-03 1.258964e-03 1 -4.097555e-02 0.6257)" fill="#1A1A1A" width="4.5" height="0.3"/>
					
						<rect id="XMLID_308_" x="494.7" y="33.5" transform="matrix(1 -1.242806e-03 1.242806e-03 1 -4.142550e-02 0.6176)" fill="#1A1A1A" stroke="#FFFFFF" stroke-width="3" stroke-miterlimit="10" width="4.5" height="0.3"/>
				</g>
			</g>
			<path id="XMLID_305_" fill="#4E4E4E" d="M484.4,36.9h3.8c0.5,0,0.9-0.4,0.9-1V24.7c0-0.5-0.4-1-0.9-1h-3.8c-0.5,0-0.9,0.4-0.9,1
				v11.2C483.6,36.4,484,36.9,484.4,36.9z"/>
			<path id="XMLID_304_" fill="#1A1A1A" d="M484.4,36.9h1.1V23.7h-1.1c-0.5,0-0.9,0.4-0.9,1v11.2C483.6,36.4,484,36.9,484.4,36.9z"
				/>
		</g>
	</g>
	<path id="XMLID_357_" fill="#EAA775" d="M499.4,33.5c0,0.1-0.1,0.2-0.1,0.3c-0.1,0.1-0.1,0.2-0.2,0.3c-0.5,1-1.6,1.9-2.7,2.3
		c-1.2,0.3-1.2,0.1-1.8,0.7c-0.5,0.7-5,9.5-7.8,12.6c-2.4,2.6-4.6,4.4-6.4,4.3c-0.3-0.1-1.1-0.5-1.9-1.3c-1.7-1.5-4.1-3.9-5.9-5.8
		c-0.4-0.4-0.9-0.9-1.1-1.2c0.3-0.2,0.6-0.3,0.8-0.5c0.2,0.5,0.4,1,0.7,1.5c1.3-1,2.6-2.3,3.4-3.2c0.3,0.4,0.6,0.9,0.9,1.3
		c0.8,1.1,1.7,2.1,2.4,2.3c0.4,0.2,1.2-0.2,2.2-0.9c3.5-2.4,9.3-9.1,9.4-9.5c0.1-0.3,0.7-1.6,1.2-2.4c0.1-0.2,0.2-0.3,0.3-0.3
		c0.1-0.1,0.2-0.2,0.3-0.2c0.3,0.1,0.8,0.1,1.3-0.1h0.1h0.1c0.3-0.1,0.4-0.2,0.7-0.5c0.1,0,0.1-0.1,0.1-0.1c0.1-0.1,0.1-0.2,0.2-0.2
		c0.1-0.2,0.2-0.3,0.3-0.5c0.1-0.1,0.2-0.2,0.3-0.3c0.2-0.2,0.3-0.3,0.5-0.5l0,0c0.2-0.1,0.3-0.2,0.4-0.3c0.3-0.2,0.8-0.3,1.2-0.1
		c0.1,0.1,0.2,0.1,0.3,0.1c0.2,0.1,0.3,0.2,0.4,0.3c0.2,0.1,0.3,0.3,0.3,0.5c0.1,0.1,0.1,0.2,0.1,0.2
		C499.5,32.6,499.5,33,499.4,33.5z"/>
	<path id="XMLID_277_" fill="#1A8BAE" stroke="#FFFFFF" stroke-width="3" stroke-miterlimit="10" d="M469.5,34.7
		c-0.1-0.1-0.2-0.3-0.3-0.3c0.1-0.1,0.1-0.1,0.2-0.1c0,0.1,0,0.1,0,0.2C469.5,34.5,469.5,34.6,469.5,34.7z"/>
	<path id="XMLID_279_" fill="#1A8BAE" stroke="#FFFFFF" stroke-width="3" stroke-miterlimit="10" d="M472.9,46.5
		c-0.1,0.1-0.3,0.2-0.3,0.3c-1.1,0.8-2.2,1.3-3.1,1.2c-0.1,0-0.3-0.3-0.8-0.8c0.5-0.2,1.1-0.5,1.7-0.9c0.3-0.2,0.7-0.5,1.1-0.7
		c0.3-0.2,0.6-0.3,0.8-0.5C472.4,45.4,472.6,46.1,472.9,46.5z"/>
	<g id="XMLID_294_">
		<path id="XMLID_344_" fill="#FBB97C" d="M482.6,22.1c-0.2,1.9-1.2,2.8-1.1,3.6c0,0.4,0.3,1,0.6,1.6s0.4,1.1,0.3,1.4
			c-0.1,0.2-0.4,0.3-0.8,0.3c-0.6,0.1-1.4,0.1-1.4,0.2c-0.1,0.2,0.2,0.8-0.1,1.1c-0.3,0.3-1.4-0.2-1.5,0.2c-0.1,0.3,0.9,0.4,0.5,1.1
			c-0.3,0.7-1.3,0.2-1.7,1c-0.2,0.3-0.3,0.8-0.4,1.2c-0.1,0.2-0.2,0.3-0.3,0.4c-0.1,0.1-0.1,0.1-0.1,0.1c-0.1,0.1-0.1,0.1-0.1,0.1
			c-0.1,0.1-0.1,0.1-0.2,0.1c-0.1,0.1-0.3,0.1-0.4,0.1c-1.2,0.1-2.4-2.3-3.8-2c-0.2,0.1-0.3,0.1-0.5,0.2c-0.3,0.2-0.8,0.3-1.2,0.6
			c-0.4-0.4-0.9-0.8-1.2-1.1l0,0c-0.3-1.2-1-2.3-1.5-3.1c-0.3-0.5-0.7-0.9-1.1-1.2c0.3-0.3,0.7-0.6,0.8-1.2l0,0
			c0.1-0.3,0.1-0.7,0.1-1.1c0-0.2,0-0.3,0-0.4l0,0c0-0.7-0.1-1.5-0.1-2.3l0,0c0-1.5,0.2-3,0.9-4.4c1.4-2.9,8.7-6.8,13.3-0.3l0,0
			c0,0,0,0,0.1,0.1c0,0.1,0.1,0.1,0.1,0.1c0.1,0.2,0.3,0.3,0.4,0.6c0.1,0.1,0.1,0.2,0.1,0.2c0.1,0.1,0.1,0.2,0.2,0.3
			c0,0.1,0.1,0.1,0.1,0.1l0.1,0.1c0.1,0.1,0.1,0.3,0.2,0.4c0.1,0.1,0.1,0.2,0.1,0.2C482.6,21.1,482.6,21.6,482.6,22.1z"/>
		<path id="XMLID_282_" fill="#EAA775" d="M473.6,26.1c-0.7,1.8-1.8,6,1.8,7.3c0.6,0.2,1.1,0.4,1.7,0.6c-0.1,0.2-0.2,0.3-0.3,0.4
			c-0.1,0.1-0.1,0.1-0.1,0.1c-0.1,0.1-0.1,0.1-0.1,0.1c-0.1,0.1-0.1,0.1-0.2,0.1c-0.1,0.1-0.3,0.1-0.4,0.1c-1.2,0.1-2.4-2.3-3.8-2
			c-0.2,0.1-0.3,0.1-0.5,0.2c-0.3,0.2-0.8,0.3-1.2,0.6c-0.4-0.4-0.9-0.8-1.2-1.1l0,0c-0.3-1.2-1-2.3-1.5-3.1
			c-0.3-0.5-0.7-0.9-1.1-1.2c0.3-0.3,0.7-0.6,0.8-1.2l0,0c0.1-0.3,0.1-0.7,0.1-1.1c0-0.2,0-0.3,0-0.4l0,0c0-0.7-0.1-1.5-0.1-2.3l0,0
			c0-1.5,0.2-3,0.9-4.4c1.4-2.9,8.7-6.8,13.3-0.3l0,0c0,0,0,0,0.1,0.1c0,0.1,0.1,0.1,0.1,0.1c0.1,0.2,0.3,0.3,0.4,0.6
			c0.1,0.1,0.1,0.2,0.1,0.2c0.1,0.1,0.1,0.2,0.2,0.3c0,0.1,0.1,0.1,0.1,0.1c0,0.1,0.1,0.1,0.1,0.1c0.1,0.1,0.1,0.3,0.2,0.4
			c0.1,0.1,0.1,0.2,0.1,0.2c-1,0.7-2.4,1.4-3.6,1.4C476.3,21.9,474.3,24.2,473.6,26.1z"/>
		<path id="XMLID_297_" fill="#1A1A1A" d="M481,24.6c0.1-0.3-0.3-0.7-0.6-0.8c-0.3-0.1-0.7,0.3-0.7,0.6c-0.1,0.3,0.3,0.7,0.6,0.8
			C480.8,25.2,481,25,481,24.6z"/>
		<path id="XMLID_296_" fill="#1A1A1A" d="M481.3,22.6c0.3-0.4-0.6-0.9-1.3-0.7c-0.8,0.2-1.2,1.1-1.2,1.4c0.1,0.2,0.3-0.2,0.9-0.6
			C480.2,22.2,481.3,22.6,481.3,22.6z"/>
		<path id="XMLID_295_" fill="#603A18" d="M465.3,27.2c0.3,0.1,0.9,0,2.6-0.5c1.7-0.5,2.4-0.6,2.4-1.4s-1.7-2.3-0.3-3.8
			c1.3-1.6,2.4-0.5,2.7,0.3c0.3,0.8-0.1,1.6,0.3,2.1c0.3,0.5,1.5-0.5,1.9-1.4c0.3-0.8,0.5,0.3,2-0.3c1.5-0.6,1.6-2.3,1.6-2.3
			s2.7,1.3,4.9-1c2.2-2.3,1.9-3.5,1.4-3.2c-0.4,0.2-1.6,1-1.5,0.4c0.1-0.5,0.4-2.1-0.2-1.6c-0.7,0.3-1.5,1-1.7,0.8
			c-0.2-0.2,0.3-1.7-0.3-1.6s-0.5,0.9-2.7,0.8s-4.3-1.4-5.9-1.5c-1.7-0.1-3.2,1.8-3.2,1.8s-1.2-0.3-2.1,0.3
			c-0.9,0.7-1.8,3.6-1.7,5.8c0.2,2.1,1.1,4.5,0.5,5.5C465.3,27.2,465,27.2,465.3,27.2z"/>
	</g>
	<path id="XMLID_273_" fill="#177B94" d="M436.4,20.4c-0.3-1.5-0.9-3-1.2-4.4c-0.3-1.1-0.7-2.2-1-3c0.6,0.1,1,0.1,1,0.1l0.4,2.7
		L436.4,20.4z"/>
	<path id="XMLID_269_" fill="#177B94" d="M438.9,36.9c-0.7-0.4-1.3-0.9-1.8-1.2c-1-0.7-1.7-1.8-1.9-3c-0.2-1-0.1-2,0.3-3
		c0.9-1.8,1.6-4.1,1.5-6.3c0,0,0,0.1,0.1,0.3l0,0C437.2,25.1,438.4,31,438.9,36.9z"/>
	<path id="XMLID_267_" fill="#2193C2" stroke="#000000" stroke-width="3" stroke-miterlimit="10" d="M400.4,38.1
		c-0.1,0.5-0.2,1-0.3,1.5c-0.1-0.1-0.3-0.1-0.4-0.2c0.3-0.6,0.4-1,0.4-1.2C400.3,38.1,400.3,38.1,400.4,38.1z"/>
	<path id="XMLID_286_" fill="#2193C2" d="M437,23.7L437,23.7c0,1.2-0.2,2.3-0.4,3.4c-0.3,1.2-0.8,3.2-1.4,5.6c-0.2-1-0.1-2,0.3-3
		c0.9-1.8,1.6-4.1,1.5-6.3l-0.5-3c-0.3-1.5-0.9-3-1.2-4.4c-0.3-1.1-0.7-2.2-1-3l0,0c-0.1-0.3-0.2-0.7-0.2-1c0.8,0.6,1.2,1,1.2,1
		s0.3,1,0.7,2.6c0.4,1.6,0.9,4,1,6.4c0,0.1,0,0.2,0,0.3C437,22.9,437,23.3,437,23.7z"/>
	<path id="XMLID_272_" fill="#1A8BAE" d="M437,23.7L437,23.7c0,1.2-0.2,2.3-0.4,3.4c-0.3,1.2-0.8,3.2-1.4,5.6c-0.2-1-0.1-2,0.3-3
		c0.9-1.8,1.6-4.1,1.5-6.3l-0.5-3c-0.3-1.5-0.9-3-1.2-4.4c0.2-0.1,0.3-0.2,0.5-0.2c0.1-0.1,0.2-0.1,0.3-0.1c0.4,1.6,0.9,4,1,6.4
		c0,0.1,0,0.2,0,0.3C437,22.9,437,23.3,437,23.7z"/>
	<path id="XMLID_352_" fill="#F15B28" d="M465.4,28.7c-0.4,0.2-0.9,0.3-0.9,0.3c0,0.1,0.3,0.8,0.7,1.6c-0.2-0.1-0.4-0.1-0.7-0.1
		h-0.1c-0.1,0-0.3,0-0.3,0.1c-0.1,0-0.1,0-0.1,0c-0.1,0-0.2,0.1-0.3,0.1c-0.3,0.1-0.5,0.2-0.8,0.3c-1.7,0.7-2.6,2.3-2.8,4
		c-0.1,0.9,0.1,1.8,0.4,2.7c0.4,0.9,0.9,1.9,1.4,3c0.3,0.8,0.7,1.5,1,2.3c-1,0.3-1.9,0.4-3,0.5l0,0c-3,0.3-6.2-0.1-9.2-0.7
		c-3.9-0.9-8.5-3.5-12-5.7c-0.7-0.4-1.3-0.9-1.8-1.2c-1-0.7-1.7-1.8-1.9-3c-0.2-1-0.1-2,0.3-3c0.9-1.8,1.6-4.1,1.5-6.3
		c-0.1-1-0.3-1.9-0.5-3c-0.3-1.5-0.9-3-1.2-4.4c-0.3-1.1-0.7-2.2-1-3l0,0c-0.1-0.3-0.2-0.7-0.2-1c-0.1-0.3,0-0.5,0.1-0.4
		c0.1,0,0.3,0.1,0.5,0.2c0.1,0,0.1,0.1,0.2,0.1c0.2,0.1,0.3,0.2,0.5,0.3c0.1,0.1,0.2,0.1,0.3,0.2c0.7,0.3,1.6,1,2.5,1.5
		c0.2,0.2,0.4,0.3,0.7,0.4c0.2,0.1,0.4,0.3,0.7,0.3c0.3,0.2,0.7,0.4,1,0.6c0.2,0.1,0.4,0.3,0.6,0.4c0.3,0.2,0.4,0.3,0.7,0.5l0,0
		c2.4,1.5,5,3.2,7.3,4.9c1.4,1,2.7,1.8,3.8,2.7c4,3,8.2,3.5,10.7,3.6c0.3,0,0.7,0.1,1,0.1c0.1,0,0.1,0.1,0.2,0.1h0.1
		c0.2,0.1,0.4,0.2,0.6,0.3c0.2,0.1,0.4,0.3,0.7,0.4C466.1,28.4,465.7,28.6,465.4,28.7z"/>
	<path id="XMLID_275_" fill="#F15B28" stroke="#FFFFFF" stroke-width="3" stroke-miterlimit="10" d="M469.5,34.7
		c-0.1-0.1-0.2-0.3-0.3-0.3c0.1-0.1,0.1-0.1,0.2-0.1c0,0.1,0,0.1,0,0.2C469.5,34.5,469.5,34.6,469.5,34.7z"/>
	<path id="XMLID_293_" fill="#E04E26" d="M463,42.8c-1,0.3-1.9,0.4-3,0.5l0,0c-3,0.3-6.2-0.1-9.2-0.7c-3.9-0.9-8.5-3.5-12-5.7
		c-0.7-0.4-1.3-0.9-1.8-1.2c-1-0.7-1.7-1.8-1.9-3c-0.2-1-0.1-2,0.3-3c0.9-1.8,1.6-4.1,1.5-6.3c-0.1-1-0.3-1.9-0.5-3
		c-0.3-1.5-0.9-3-1.2-4.4c-0.3-1.1-0.7-2.2-1-3l0,0c-0.1-0.3-0.2-0.7-0.2-1c-0.1-0.3,0-0.5,0.1-0.4c0.1,0,0.3,0.1,0.5,0.2
		c0.1,0,0.1,0.1,0.2,0.1c0.2,0.1,0.3,0.2,0.5,0.3c0.1,0.1,0.2,0.1,0.3,0.2c0.7,0.3,1.6,1,2.5,1.5c0.2,0.2,0.4,0.3,0.7,0.4
		c0.2,0.1,0.4,0.3,0.7,0.3c0.3,0.2,0.7,0.4,1,0.6c0.2,0.1,0.4,0.3,0.6,0.4c0.3,0.2,0.4,0.3,0.7,0.5c-0.1,0.5-0.1,1-0.2,1.7
		c0,0.2-0.1,0.4-0.1,0.6c0,0.1,0,0.1,0,0.2c-0.3,3-0.3,6.9,0.3,9.2c0.5,1.6,2.3,3.3,4.5,4.6c1.1,0.7,2.4,1.3,3.8,1.8
		c2.1,0.8,4.2,1.2,6,1.1c1.2-0.1,2.5-0.3,3.8-0.5c-0.1,0.9,0.1,1.8,0.4,2.7c0.4,0.9,0.9,1.9,1.4,3C462.3,41.4,462.7,42.1,463,42.8z"
		/>
	<path id="XMLID_274_" fill="#E04E26" stroke="#FFFFFF" stroke-width="3" stroke-miterlimit="10" d="M469.5,34.7
		c-0.1-0.1-0.2-0.3-0.3-0.3c0.1-0.1,0.1-0.1,0.2-0.1c0,0.1,0,0.1,0,0.2C469.5,34.5,469.5,34.6,469.5,34.7z"/>
	<path id="XMLID_351_" fill="#FBB97C" d="M489.9,35.4c-0.1,0.2-0.4,0.3-0.7,0.6c-0.8,0.3-1.9,0.6-2.9,1c-0.6,0.2-1.1,0.3-1.3,0.5
		c-0.6,0.5-1.1,2.3-2,5.3c-0.2,0.7-0.6,2-1.1,3.5c-0.8,2.2-1.9,4.7-3.4,6.6c-1.4,1.8-3,3-4.8,2.3c-3.2-1.2-5.5-4.9-6.7-7.3
		c0.1,0,0.2,0,0.2-0.1c0.4-0.1,1-0.3,1.4-0.5c0.5-0.2,1.1-0.5,1.7-0.9c0.3-0.2,0.7-0.5,1.1-0.7c0.3-0.2,0.6-0.3,0.8-0.5
		c0.2,0.5,0.4,1,0.7,1.5c0.5,1,1.1,1.8,1.7,1.7c0.6-0.1,1.6-1.6,2.6-3.6c1.4-2.8,2.9-6.3,3.3-7.6c0.8-2.3,0.4-3,0.9-4.3
		c0.3-1,0.2-2.5,0.2-3.4c0-0.3,0-0.5,0.1-0.6c0.1-0.2,0.2-0.6,0.3-1.2c0.3-1.1,0.8-2.7,1.2-2.7c0.1,0,0.2,0,0.3,0.1
		c0.6,0.3,1.2,1.3,0.7,2.2c-0.1,0.1-0.1,0.2-0.2,0.3v0.1c-0.4,1-0.6,2.2-0.1,2.3c0.1,0,0.1,0,0.1,0c0.3,0.1,0.9-0.1,1.6-0.2
		c1-0.2,2.1-0.5,2.4-0.5c0.3,0,0.6,0.1,0.9,0.2c0.1,0.1,0.2,0.2,0.3,0.3l0.1,0.1c0.2,0.2,0.1,0.4-0.1,0.6c-0.1,0.2-0.2,0.3-0.3,0.5
		l0,0l0,0c-0.1,0.1-0.1,0.2,0,0.3v0.1c0.1,0.1,0.2,0.1,0.3,0.2c0.1,0.1,0.2,0.1,0.3,0.3c0.1,0.1,0.1,0.1,0.1,0.1
		c0.1,0.3,0.1,0.5-0.1,0.8l0,0c-0.1,0.2-0.2,0.4-0.3,0.7v0.1c0,0.1-0.1,0.1-0.1,0.1c-0.1,0.1-0.1,0.2,0,0.3c0,0.1,0.1,0.1,0.1,0.1
		V34c0.1,0.2,0.2,0.3,0.3,0.4l0.1,0.1C489.9,34.5,490.2,34.8,489.9,35.4z"/>
	<path id="XMLID_278_" fill="#1A1A1A" d="M463.2,43.2c-0.8,0.2-1.9,0.3-3.1,0.2l0,0c-2.7-0.1-6.1-1-9.2-4.3
		c-2.1-2.1-3.4-4.4-4.2-6.4c-0.9-2.1-1.2-4-1.4-5.4c-0.2-1.4-0.1-2.3-0.1-2.3l2.6,1.6c0,0,0.1,0.5,0.2,1.5c0.3,1.6,1,4.1,2.4,6.4
		c1.1,1.9,2.9,3.6,5.2,4.7c3.1,1.3,5.2,1.6,6.5,1.6c0.3,0.8,0.7,1.5,1,2.3C463,43,463.1,43.1,463.2,43.2z"/>
	<path id="XMLID_270_" fill="#1A1A1A" stroke="#FFFFFF" stroke-width="3" stroke-miterlimit="10" d="M469.5,34.7
		c-0.1-0.1-0.2-0.3-0.3-0.3c0.1-0.1,0.1-0.1,0.2-0.1c0,0.1,0,0.1,0,0.2C469.5,34.5,469.5,34.6,469.5,34.7z"/>
	<path id="XMLID_328_" fill="#1A1A1A" d="M471.6,35c-0.4-0.5-0.9-1-1.3-1.4c-0.4-0.4-0.9-0.8-1.2-1.1l0,0c-0.3-1.2-1-2.3-1.5-3.1
		c-0.3-0.5-0.7-0.9-1.1-1.2c-0.3,0.2-0.7,0.4-1,0.5c-0.2-0.2-0.4-0.4-0.6-0.6l0,0c0.1-0.1,0.1-0.3,0.3-0.5c0.1-0.2,0.2-0.3,0.3-0.5
		c0,0,0,0,0-0.1c0.2-0.3,0.4-0.5,0.7-0.8c0.3-0.2,0.6-0.3,1-0.3h0.1c0.1,0,0.1,0,0.1,0c0.3,0.1,0.7,0.3,1.1,0.8
		c1.2,1.4,2.7,4.1,3.1,6.2c0.1,0.3,0.1,0.6,0.1,1C471.7,34.3,471.7,34.7,471.6,35z"/>
	<path id="XMLID_339_" fill="#5BBA47" stroke="#000000" stroke-miterlimit="10" d="M471.6,35c-0.4-0.5-0.9-1-1.3-1.4
		c-0.4-0.4-0.9-0.8-1.2-1.1l0,0c-0.3-1.2-1-2.3-1.5-3.1c-0.3-0.5-0.7-0.9-1.1-1.2c-0.3,0.2-0.7,0.4-1,0.5c-0.4,0.2-0.9,0.3-0.9,0.3
		c0,0.1,0.3,0.8,0.7,1.6c-0.2-0.1-0.4-0.1-0.7-0.1h-0.1c-0.1,0-0.3,0-0.3,0.1c-0.1,0-0.1,0-0.1,0c-0.1,0-0.2,0.1-0.3,0.1
		c-0.3,0.1-0.5,0.2-0.8,0.3c-1.7,0.7-2.6,2.3-2.8,4c-0.1,0.9,0.1,1.8,0.4,2.7c0.4,0.9,0.9,1.9,1.4,3c0.3,0.8,0.7,1.5,1,2.3
		c0.1,0.1,0.1,0.2,0.2,0.3c1.1,2.3,2.1,4.3,2.4,4.4c0.1,0.1,0.2,0.1,0.3,0.1c0.2,0.1,0.4,0.1,0.7,0c0.1,0,0.2,0,0.3-0.1
		c0.1,0,0.1,0,0.1,0l0,0c0.1,0,0.2,0,0.2-0.1c0.4-0.1,1-0.3,1.4-0.5c0.5-0.2,1.1-0.5,1.7-0.9c0.3-0.2,0.7-0.5,1.1-0.7
		c0.3-0.2,0.6-0.3,0.8-0.5c0.2,0.5,0.4,1,0.7,1.5c1.3-1,2.6-2.3,3.4-3.2c0.5-0.6,0.9-1,0.9-1S474.4,38.2,471.6,35z M469.3,34.3
		c0.1-0.1,0.1-0.1,0.2-0.1c0,0.1,0,0.1,0,0.2c0,0.1,0.1,0.2,0.1,0.3C469.4,34.6,469.3,34.4,469.3,34.3z"/>
	<path id="XMLID_223_" fill="#1A1A1A" d="M454.9,26.5c5,2.2,9.9,1.5,9.9,1.5c1.5-2.1,0.7-4.3,0.3-5.6c-0.4-1.4-1.9-0.6-4.8-2.3
		s-4.5-6.2-7.3-8.9c-2.8-2.6-7.7-6.2-10.9-5.1s-4.5,7.9-3.3,9.9C439.9,18.2,449.9,24.4,454.9,26.5z"/>
	<polygon id="XMLID_222_" fill="#3E3D3D" points="449.9,23.3 441.4,17.8 444.8,27.2 448.9,28.3 	"/>
	<path id="XMLID_221_" fill="#3E3D3D" d="M467.2,24.1c-0.3-3.8,0.1-4.3-3.2-5.8c-3.4-1.6-5.2-2.5-5.9-4.4c-0.7-2-3.3-2.8-3.7-0.6
		c-0.3,2.3,1.5,6.2,4.9,7.6c3.4,1.4,5.2,1,5.7,2.5c0.4,1.5-0.2,4.8-0.2,4.8S467.6,27.9,467.2,24.1z"/>
	<path id="XMLID_220_" fill="#3E3D3D" d="M449.9,21.1c1.5-0.2,2.8-5.1,2.2-7.1c-0.6-2-6.7-5.3-8.8-3.8c0,0-2.4,3.6-1.1,6.2
		C443.3,19.1,448.4,21.3,449.9,21.1z"/>
	<g>
		<polyline fill="none" stroke="#FFFFFF" stroke-width="3" stroke-miterlimit="10" points="210.8,101.8 222.6,94.1 236.1,102.2 		
			"/>
		<g>
			<g>
				<path fill="#F4F0EB" stroke="#000000" stroke-miterlimit="10" d="M248.2,109.2c0,0.2,0,0.3,0,0.6c0,1.4-0.2,2.8-0.3,4.2
					c-1,6.2-4.2,11.8-8.8,15.7c-1,0.8-1.9,1.5-3,2.1v-14.4v-7.6v-7.6l-13.5-8.1L248.2,109.2z"/>
				<path fill="#F4F0EB" stroke="#000000" stroke-miterlimit="10" d="M248.2,109.2l-25.6-15.1l-11.8,7.6L234,86.6
					c1.8,0.9,3.5,2,5.1,3.3c4.5,3.8,7.8,9.4,8.8,15.7C248.1,106.9,248.1,108.1,248.2,109.2z"/>
				<path fill="#4C5051" stroke="#000000" stroke-miterlimit="10" d="M248.2,109.2c-0.1-1.2-0.2-2.3-0.3-3.6
					c-1-6.2-4.2-11.8-8.8-15.7c-1.5-1.3-3.2-2.3-5.1-3.3c-1.1-0.5-2.4-1-3.6-1.4c-2.3-0.7-4.6-1-7.1-1c-3.1,0-5.9,0.6-8.7,1.6
					c-1.3,0.5-2.6,1.1-3.8,1.9c-1,0.6-2,1.3-3,2.1c-4.8,3.9-8.2,9.6-9.2,16.1c-0.2,1.3-0.3,2.7-0.3,4s0.2,2.7,0.3,4
					c1,6.5,4.4,12.2,9.2,16.1c1.1,1,2.4,1.7,3.6,2.4c1,0.5,2.1,1,3.2,1.5c2.7,1,5.6,1.6,8.7,1.6c2.4,0,4.9-0.3,7.1-1
					c2-0.6,3.9-1.5,5.7-2.5c1-0.6,2.1-1.4,3-2.1c4.5-3.8,7.8-9.5,8.8-15.7c0.2-1.4,0.3-2.8,0.3-4.2
					C248.2,109.6,248.2,109.5,248.2,109.2z M223.3,80.7c15.7,0,28.4,13.1,28.4,29.3s-12.7,29.3-28.4,29.3s-28.4-13.1-28.4-29.3
					C194.8,93.8,207.6,80.7,223.3,80.7z"/>
				<path fill="#F4F0EB" stroke="#000000" stroke-miterlimit="10" d="M236.1,117.5v14.3c-1.7,1-3.7,1.9-5.7,2.5
					c-2.3,0.7-4.6,1-7.1,1c-3.1,0-5.9-0.6-8.7-1.6c-1.1-0.4-2.2-1-3.2-1.5L236.1,117.5z"/>
				<path fill="#4C5051" stroke="#000000" stroke-miterlimit="10" d="M236.1,109.8v7.6l-13.5,8.1l-11.8-7.6v-8.1h0.6
					c0,6.7,5.3,12.2,11.9,12.2c6.6,0,11.9-5.5,11.9-12.2H236.1z"/>
				<path fill="#4C5051" stroke="#000000" stroke-miterlimit="10" d="M236.1,102.2v7.6h-1c0-6.7-5.3-12.2-11.9-12.2
					c-6.6,0-11.9,5.5-11.9,12.2h-0.6v-8.1l11.8-7.6L236.1,102.2z"/>
				<path fill="#F4F0EB" stroke="#000000" stroke-miterlimit="10" d="M236.1,117.5l-24.7,14.8c-1.2-0.7-2.4-1.5-3.6-2.4
					c-4.8-3.9-8.2-9.6-9.2-16.1c-0.2-1.3-0.3-2.7-0.3-4l12.4,8.1l11.8,7.6L236.1,117.5z"/>
				<path fill="#F4F0EB" stroke="#000000" stroke-miterlimit="10" d="M234,86.6l-23.2,15.1V87.7l-0.1-0.1c1.2-0.7,2.5-1.4,3.8-1.9
					c2.7-1,5.6-1.6,8.7-1.6c2.4,0,4.9,0.3,7.1,1C231.7,85.7,232.8,86.1,234,86.6z"/>
				<path fill="#F4F0EB" stroke="#000000" stroke-miterlimit="10" d="M223.3,97.7c6.6,0,11.9,5.5,11.9,12.2
					c0,6.7-5.3,12.2-11.9,12.2s-11.9-5.5-11.9-12.2C211.4,103.1,216.7,97.7,223.3,97.7z M233.3,109.8c0-5.6-4.5-10.2-10-10.2
					c-5.5,0-10,4.6-10,10.2c0,5.6,4.5,10.2,10,10.2C228.8,120.1,233.3,115.6,233.3,109.8z"/>
				<path fill="#3D9946" stroke="#000000" stroke-miterlimit="10" d="M223.3,99.6c5.5,0,10,4.6,10,10.2c0,5.6-4.5,10.2-10,10.2
					c-5.5,0-10-4.6-10-10.2C213.4,104.2,217.7,99.6,223.3,99.6z"/>
				<path fill="#F4F0EB" stroke="#000000" stroke-miterlimit="10" d="M210.8,109.8v8.1l-12.4-8.1c0-1.4,0.2-2.7,0.3-4
					c1-6.5,4.4-12.2,9.2-16.1c1-0.8,1.9-1.4,3-2.1l0.1,0.1v14.1L210.8,109.8L210.8,109.8z"/>
			</g>
			<path fill="none" stroke="#FFFFFF" stroke-width="3" stroke-miterlimit="10" d="M251.6,109.8c0-16.1-12.7-29.3-28.4-29.3
				s-28.4,13.1-28.4,29.3s12.7,29.3,28.4,29.3S251.6,126,251.6,109.8z"/>
			<path fill="none" stroke="#000000" stroke-width="3" stroke-miterlimit="10" d="M253.9,109.8c0-17.4-13.7-31.5-30.7-31.5
				s-30.7,14.1-30.7,31.5s13.7,31.5,30.7,31.5C240.2,141.4,253.9,127.3,253.9,109.8z"/>
			<path fill="none" stroke="#000000" stroke-miterlimit="10" d="M248.2,109.2c-0.1-1.2-0.2-2.3-0.3-3.6c-1-6.2-4.2-11.8-8.8-15.7
				c-1.5-1.3-3.2-2.3-5.1-3.3c-1.1-0.5-2.4-1-3.6-1.4c-2.3-0.7-4.6-1-7.1-1c-3.1,0-5.9,0.6-8.7,1.6c-1.3,0.5-2.6,1.1-3.8,1.9
				c-1,0.6-2,1.3-3,2.1c-4.8,3.9-8.2,9.6-9.2,16.1c-0.2,1.3-0.3,2.7-0.3,4s0.2,2.7,0.3,4c1,6.5,4.4,12.2,9.2,16.1
				c1.1,1,2.4,1.7,3.6,2.4c1,0.5,2.1,1,3.2,1.5c2.7,1,5.6,1.6,8.7,1.6c2.4,0,4.9-0.3,7.1-1c2-0.6,3.9-1.5,5.7-2.5
				c1-0.6,2.1-1.4,3-2.1c4.5-3.8,7.8-9.5,8.8-15.7c0.2-1.4,0.3-2.8,0.3-4.2C248.2,109.6,248.2,109.5,248.2,109.2z"/>
			<line fill="none" stroke="#FFFFFF" stroke-width="3" stroke-miterlimit="10" x1="236.1" y1="117.5" x2="222.6" y2="125.5"/>
			<path fill="none" stroke="#FFFFFF" stroke-width="3" stroke-miterlimit="10" d="M235.1,109.8c0-6.7-5.3-12.2-11.9-12.2
				c-6.6,0-11.9,5.5-11.9,12.2c0,6.7,5.3,12.2,11.9,12.2C229.8,122.1,235.1,116.6,235.1,109.8z"/>
			<path fill="none" stroke="#000000" stroke-width="2" stroke-miterlimit="10" d="M233.3,109.8c0-5.6-4.5-10.2-10-10.2
				c-5.5,0-10,4.6-10,10.2c0,5.6,4.5,10.2,10,10.2C228.8,120.1,233.3,115.6,233.3,109.8z"/>
			<polyline fill="none" stroke="#000000" stroke-miterlimit="10" points="210.8,117.9 210.8,109.8 210.8,101.8 210.8,87.7 			"/>
			<polyline fill="none" stroke="#000000" stroke-miterlimit="10" points="222.6,125.5 210.8,117.9 198.3,109.8 			"/>
			<line fill="none" stroke="#000000" stroke-miterlimit="10" x1="236.1" y1="117.5" x2="211.4" y2="132.4"/>
			<polyline fill="none" stroke="#000000" stroke-miterlimit="10" points="236.1,102.2 236.1,109.8 236.1,117.5 236.1,131.9 
				236.1,131.9 			"/>
		</g>
		<polyline fill="none" stroke="#000000" stroke-miterlimit="10" points="222.6,94.1 248.2,109.2 248.2,109.2 		"/>
		<line fill="none" stroke="#000000" stroke-miterlimit="10" x1="210.8" y1="101.8" x2="234" y2="86.6"/>
	</g>
	<path stroke="#FFFFFF" stroke-width="3" stroke-miterlimit="10" d="M5.1,155.5c0.6,23.1,8.6,44,21.4,60.5
		c-7-13.5-11.2-28.9-11.7-45.5c-1.4-54.1,38.1-99.1,88-100.6c26.2-0.8,50.3,10.6,67.3,29.4c0.3-0.4,0.5-0.7,0.9-1
		C154.2,71.4,125.6,54.1,93.3,55C43,56.4,3.6,101.5,5.1,155.5z"/>
</g>
</svg>
