<svg fill="none" xmlns="http://www.w3.org/2000/svg" viewBox="0 0 554 237"><path d="M462.264 42.9761c49.588 1.2569 88.973 44.4101 88.361 96.5709 0-.628 0-1.257-.103-1.885 0-.314.001-.733-.102-1.048 0-.523-.102-1.047-.102-1.466-.102-.419-.102-.838-.102-1.257 0-.314-.102-.524-.102-.838 0-.209-.102-.314-.102-.524-.102-.314-.102-.628-.102-.942 0-.105-.102-.314-.102-.314-.102-.315-.102-.838-.204-1.153-.102-.314-.102-.733-.204-1.047-.102-.209-.102-.314-.102-.524-.102-.314-.102-.628-.204-.942 0-.105-.102-.21-.102-.21-.102-.314-.102-.628-.204-.943-.102-.314-.204-.733-.306-1.047-.102-.314-.204-.628-.204-1.047-.102-.21-.102-.419-.204-.629-.102-.105-.102-.209-.102-.314-.102-.314-.204-.628-.306-1.047-.715-2.514-1.735-5.133-2.755-7.437-.102-.314-.306-.524-.306-.838-.613-1.362-1.225-2.618-1.939-3.875-.204-.315-.306-.524-.408-.838-.306-.524-.612-1.048-.918-1.571-.205-.315-.307-.524-.511-.838l-.102-.105c-.204-.314-.408-.628-.714-1.047-1.122-1.676-2.449-3.562-3.877-5.133-.612-.628-1.123-1.3614-1.735-1.9898-.306-.3143-.612-.6285-.918-1.0474-.306-.2095-.408-.5237-.714-.7332-.306-.2095-.51-.5237-.817-.838-.306-.3142-.714-.7331-1.122-1.0474-.408-.3142-.918-.7332-1.224-1.0474-.51-.4189-1.021-.8379-1.531-1.2569-.51-.3142-1.02-.8379-1.632-1.2569-2.959-2.1995-6.02-3.9801-9.285-5.5512-.817-.3142-1.735-.7332-2.449-1.0474-.408-.2095-.918-.3142-1.225-.5237-.918-.3142-1.734-.6285-2.55-.9427-.409-.1047-.919-.3142-1.225-.3142-.918-.3142-1.734-.5237-2.653-.7332-.306-.1047-.714-.2095-1.02-.2095-.306-.1047-.408-.1047-.714-.2095-.306-.1047-.714-.2094-1.021-.2094-.408-.1048-.918-.2095-1.224-.2095-.408-.1048-1.02-.2095-1.53-.2095-.307-.1047-.511-.1047-.919-.1047-.306-.1048-.51-.1048-.816-.1048-.204 0-.306-.1047-.612-.1047-.408-.1048-1.021-.1048-1.429-.1048h-.102c-.612-.1047-1.122-.1047-1.734-.1047-30.916-.8379-56.629 25.0335-57.445 57.6075-.714 32.679 23.672 59.702 54.588 60.54 23.876.629 44.588-14.664 53.261-36.554 1.429-2.724 2.449-5.656 3.163-8.799-6.836 46.819-45.711 82.222-91.83 80.965-49.996-1.257-89.687-45.143-88.361-98.037 1.225-53.104 42.956-94.8956 92.953-93.5339Z" fill="#000" stroke="#fff" stroke-width="3" stroke-miterlimit="10"/><path d="M550.625 139.442v.838-.419c-.103-5.551-2.041-10.579-5.306-14.349-5.918-10.055-16.53-16.968-28.57-17.282-19.08-.524-35.099 15.501-35.507 35.611-.408 20.215 14.591 36.974 33.671 37.498 13.468.314 25.406-7.437 31.426-19.273-8.673 21.996-29.385 37.183-53.261 36.555-30.916-.838-55.404-27.861-54.588-60.54.816-32.679 26.529-58.4457 57.445-57.6077.612 0 1.122.1047 1.734.1047h.102c.408.1048 1.021.1048 1.429.1048.204 0 .306.1047.612.1047s.51.1047.816.1047c.306 0 .51.1048.919.1048.408.1047 1.02.1047 1.53.2095.408.1047.918.1047 1.224.2094.307.1048.715.1048 1.021.2095.306.1048.408.1048.714.2095.306.1047.714.2095 1.02.2095.919.2095 1.735.419 2.653.7332.408.1047.919.3142 1.225.3142.918.3142 1.734.5237 2.55.9427.409.2094.919.3142 1.225.5237.918.3142 1.734.6284 2.449 1.0474 3.265 1.5711 6.428 3.3517 9.285 5.5512.51.3143 1.02.838 1.632 1.2569.51.3142 1.021.838 1.531 1.2569.408.3142.918.7332 1.224 1.0474.306.3142.714.6285 1.122 1.0474.307.2095.511.5237.817.838.306.2094.408.5237.714.7331.306.3143.612.6285.918 1.0475.612.6284 1.225 1.3616 1.735 1.99 1.326 1.676 2.653 3.352 3.877 5.132.204.315.408.629.714 1.048l.102.104c.204.315.306.524.511.838l.918 1.572c.204.314.306.523.408.837.714 1.257 1.428 2.619 1.939 3.876.102.314.306.524.306.838 1.02 2.409 1.938 4.923 2.755 7.436.102.315.204.629.306 1.048.102.105.102.209.102.314.102.209.102.419.204.628.102.315.204.629.204 1.048.102.314.204.733.306 1.047.102.314.102.524.204.943 0 .105.102.209.102.209.102.315.102.629.204.943.102.21.102.314.102.524.102.314.102.733.204 1.047.102.314.102.838.204 1.152 0 .105.102.315.102.315.102.314.102.628.102.942 0 .21.102.314.102.524.102.314.102.524.102.838.102.314.102.838.102 1.257.102.523.102 1.047.102 1.466 0 .314.102.733.102 1.048.103.837.103 1.466.103 2.094Z" fill="#5BBA47" stroke="#fff" stroke-width="3" stroke-miterlimit="10"/><path d="M550.624 140.385v.314c0-1.466-.306-2.828-1.02-3.98-.204-1.047-.408-1.99-.714-2.933 1.02 1.781 1.632 3.876 1.734 6.075v.524ZM550.625 140.595v.314-.314Z" fill="#fff" stroke="#fff" stroke-width="3" stroke-miterlimit="10"/><path d="M550.624 140.804v.628c-.102.315-.101.734-.204 1.048-.102-1.99-.306-3.876-.816-5.866.714 1.257 1.02 2.724 1.02 4.19Z" fill="#fff" stroke="#fff" stroke-width="3" stroke-miterlimit="10"/><path d="M550.624 140.909c0 .523-.102 1.047-.102 1.676 0 .314-.102.628-.102 1.047v-.524c.103-.314.102-.838.102-1.257v-.314c.103-.209.102-.419.102-.628ZM550.624 137.557c0-.314.001-.733-.102-1.047.103.314.102.733.102 1.047Z" fill="#fff" stroke="#fff" stroke-width="3" stroke-miterlimit="10"/><path d="M550.624 141.432v.315c0 .314-.102.628-.102 1.047v-.209c.103-.419.102-.838.102-1.153ZM550.624 136.51c0-.524-.102-1.048-.102-1.467.103.419.102.943.102 1.467ZM550.625 143.527c0-.314.102-.628.102-1.047 0 .314-.102.838-.102 1.152v-.105Z" fill="#fff" stroke="#fff" stroke-width="3" stroke-miterlimit="10"/><path d="M550.624 141.747c0 .314-.102.838-.102 1.257v-.315c.103-.314.102-.523.102-.942ZM550.624 143.841v1.781c-.102 2.619-.306 5.132-.918 7.541.408-3.037.714-6.179.918-9.322Z" fill="#fff" stroke="#fff" stroke-width="3" stroke-miterlimit="10"/><path d="M550.624 143.527v.314c-.204 3.143-.408 6.285-.918 9.427-.714 3.142-1.734 6.075-3.163 8.798 2.143-5.76 3.571-11.94 4.081-18.539Z" fill="#fff" stroke="#fff" stroke-width="3" stroke-miterlimit="10"/><path d="M550.522 143.004v.523c-.408 6.494-1.836 12.674-4.081 18.33-6.02 11.731-17.856 19.586-31.426 19.272-19.08-.524-34.283-17.282-33.671-37.497.612-20.215 16.325-36.136 35.507-35.612 12.142.314 22.652 7.227 28.57 17.282-3.877-4.608-9.387-7.541-15.611-7.75-11.836-.315-21.631 9.531-21.937 21.995-.307 12.464 8.978 22.834 20.916 23.043 11.122.733 20.509-8.065 21.733-19.586Z" fill="#000" stroke="#fff" stroke-width="3" stroke-miterlimit="10"/><path d="M550.522 142.794v.314c-1.224 11.417-10.611 20.215-21.733 19.901-11.835-.314-21.12-10.684-20.916-23.043.306-12.464 10.101-22.31 21.937-21.995 6.224.209 11.734 3.142 15.611 7.75 1.53 2.514 2.653 5.237 3.571 8.17-2.245-4.085-6.326-6.913-11.122-7.018-7.346-.209-13.366 5.866-13.57 13.617-.204 7.751 5.612 14.14 12.958 14.245 6.632 0 12.346-5.133 13.264-11.941Z" fill="#5BBA47" stroke="#fff" stroke-width="3" stroke-miterlimit="10"/><path d="M550.523 142.689c0 .105 0 .105 0 0-1.021 6.913-6.735 12.045-13.367 11.836-7.346-.209-13.162-6.494-12.958-14.245.204-7.751 6.224-13.826 13.57-13.616 4.796.105 8.877 2.933 11.122 7.018v.104c.306 1.048.51 1.886.714 2.933-1.326-2.618-3.979-4.504-6.938-4.609-4.592-.104-8.265 3.666-8.367 8.38-.102 4.713 3.469 8.693 7.959 8.798 3.979.105 7.448-2.828 8.163-6.913.102.21.102.314.102.314Z" fill="#000"/><path d="M550.523 142.689c0 .105 0 .105 0 0Zm0 0c-1.021 6.913-6.735 12.045-13.367 11.836-7.346-.209-13.162-6.494-12.958-14.245.204-7.751 6.224-13.826 13.57-13.616 4.796.105 8.877 2.933 11.122 7.018v.104c.306 1.048.51 1.886.714 2.933-1.326-2.618-3.979-4.504-6.938-4.609-4.592-.104-8.265 3.666-8.367 8.38-.102 4.713 3.469 8.693 7.959 8.798 3.979.105 7.448-2.828 8.163-6.913.102.21.102.314.102.314Z" stroke="#fff" stroke-width="3" stroke-miterlimit="10"/><path d="M545.421 125.617c3.163 3.77 5.204 8.798 5.306 14.349-.102-2.199-.715-4.294-1.735-6.075v-.105c-.918-2.932-2.143-5.76-3.571-8.169ZM549.196 126.14c-.102-.314-.204-.838-.306-1.047.204.209.306.628.306 1.047ZM548.992 124.988c-.102-.314-.204-.628-.204-1.047 0 .314.102.733.204 1.047ZM534.809 98.1745c.613.6284 1.225 1.3616 1.735 1.9905-.612-.6289-1.122-1.2573-1.735-1.9905ZM533.789 97.2318c-.306-.2095-.408-.5237-.714-.7332.306.2095.51.5237.714.7332Z" fill="#fff" stroke="#fff" stroke-width="3" stroke-miterlimit="10"/><path d="M511.036 82.8823c-.409-.1047-.919-.3142-1.225-.3142.408.1048.816.3142 1.225.3142Z" fill="#000" stroke="#fff" stroke-width="3" stroke-miterlimit="10"/><path d="M504.403 81.3112c-.408-.1047-.918-.2095-1.224-.2095.306 0 .714 0 1.224.2095ZM501.547 80.8927c-.307-.1052-.511-.1052-.919-.1052.306 0 .612.1052.919.1052ZM499.914 80.6832c-.204 0-.306-.1052-.612-.1052.204 0 .408.1052.612.1052Z" fill="#fff" stroke="#fff" stroke-width="3" stroke-miterlimit="10"/><path d="M550.022 153.658c-6.836 46.819-45.711 82.222-91.83 80.965-49.996-1.257-89.687-45.143-88.36-98.037 1.224-52.7898 42.854-94.6861 92.85-93.3245 49.588 1.2569 88.973 44.4101 88.361 96.5705" stroke="#fff" stroke-width="3" stroke-miterlimit="10"/><path d="M498.087 80.9686c-.612-.1052-1.122-.1052-1.734-.1052M501.863 81.3871c-.307-.1048-.511-.1048-.919-.1048-.306-.1047-.51-.1047-.816-.1047-.204 0-.306-.1047-.612-.1047-.408-.1048-1.021-.1048-1.429-.1048M504.719 81.8061c-.408-.1047-.918-.2095-1.224-.2095M506.454 82.0155c-.306-.1047-.408-.1047-.714-.2095M511.352 83.3772c-.408-.1047-.919-.3142-1.225-.3142-.918-.3142-1.734-.5237-2.653-.7332M532.575 96.1556c-.307-.3143-.715-.7332-1.123-1.0475-.408-.3142-.918-.7331-1.224-1.0474-.51-.4189-1.021-.8379-1.531-1.2568-.51-.3143-1.02-.838-1.632-1.2569M534.105 97.7267c-.306-.2095-.408-.5237-.714-.7332M536.86 100.764c-.612-.628-1.122-1.3615-1.735-1.99M541.451 106.944c-.204-.314-.408-.629-.714-1.048M541.962 107.887c-.204-.315-.306-.524-.511-.838M543.39 110.296c-.204-.315-.306-.524-.408-.838M545.839 115.114c-.102-.315-.306-.524-.306-.838M548.798 123.493c-.102-.314-.204-.629-.306-1.048M549.716 127.473c-.102-.314-.102-.628-.204-.943-.102-.314-.204-.838-.306-1.047-.102-.314-.204-.628-.204-1.047-.102-.21-.102-.419-.204-.629M550.022 128.73c-.102-.314-.102-.629-.204-.943M550.43 131.558c-.102-.314-.102-.838-.204-1.152-.102-.314-.102-.733-.204-1.048M550.634 132.92c-.102-.315-.102-.629-.102-.943M550.737 134.281c0-.314-.103-.523-.103-.838M550.941 138.052c0-.314 0-.733-.102-1.048 0-.523-.102-1.047-.102-1.466M550.941 144.232c0-.315.102-.838.102-1.153M550.022 153.658c.408-3.142.714-6.284.919-9.426" stroke="#fff" stroke-width="3" stroke-miterlimit="10"/><path d="M550.812 140.268v-.838c0-.629 0-1.257-.102-1.886 0-.314 0-.733-.102-1.047 0-.524-.103-1.047-.103-1.466-.102-.419-.102-.838-.102-1.257 0-.314-.102-.524-.102-.838 0-.21-.102-.314-.102-.524-.102-.314-.102-.628-.102-.943 0-.104-.102-.314-.102-.314-.102-.314-.102-.838-.204-1.152-.102-.314-.102-.733-.204-1.047-.102-.21-.102-.315-.102-.524-.102-.314-.102-.628-.204-.943 0-.104-.102-.209-.102-.209-.102-.314-.102-.524-.204-.943-.102-.314-.204-.733-.306-1.047-.102-.314-.204-.629-.204-1.048-.102-.209-.102-.419-.204-.628-.102-.105-.102-.21-.102-.314-.102-.315-.204-.629-.306-1.048-.715-2.514-1.735-5.132-2.755-7.436-.102-.315-.306-.524-.306-.838-.613-1.362-1.225-2.619-1.939-3.876-.204-.314-.306-.523-.408-.838-.306-.523-.612-1.047-.918-1.571-.205-.314-.307-.523-.511-.838l-.102-.104c-.204-.315-.408-.629-.714-1.048-1.122-1.676-2.449-3.561-3.877-5.132-.612-.6285-1.123-1.3617-1.735-1.9901-.306-.3143-.612-.6285-.918-1.0475-.306-.2094-.408-.5237-.714-.7331-.306-.2095-.51-.5237-.817-.838-.306-.3142-.714-.7331-1.122-1.0474-.408-.3142-.918-.7332-1.224-1.0474-.51-.4189-1.021-.8379-1.531-1.2569-.51-.3142-1.02-.8379-1.632-1.2569-2.959-2.1995-6.02-3.9801-9.285-5.5512-.817-.3142-1.735-.7332-2.449-1.0474-.408-.2095-.918-.3142-1.225-.5237-.918-.3142-1.734-.6285-2.55-.9427-.409-.1047-.919-.3142-1.225-.3142-.918-.3142-1.734-.5237-2.653-.7332-.306-.1047-.714-.2095-1.02-.2095-.204-.1047-.408-.1047-.714-.2095-.306-.1047-.714-.2094-1.021-.2094-.408-.1048-.918-.2095-1.224-.2095-.408-.1048-1.02-.2095-1.53-.2095-.307-.1048-.511-.1048-.919-.1048-.306-.1047-.51-.1047-.816-.1047-.204 0-.306-.1047-.612-.1047-.408-.1048-1.021-.1048-1.429-.1048h-.102c-.612-.1047-1.122-.1047-1.734-.1047-30.916-.8379-56.629 25.0328-57.445 57.6078-.714 32.679 23.672 59.702 54.588 60.54 23.876.628 44.588-14.664 53.261-36.555M550.941 144.022c0-.314.102-.628.102-1.047.102-.524.102-1.048.102-1.676M550.839 143.498v.524" stroke="#fff" stroke-width="3" stroke-miterlimit="10"/><path d="M546.757 162.561c-6.02 11.731-17.856 19.587-31.426 19.273-19.08-.524-34.283-17.283-33.671-37.498.408-20.215 16.325-36.135 35.508-35.612 12.142.315 22.651 7.228 28.569 17.283M550.022 137.214c.306 1.885.612 3.771.817 5.865M550.839 143.289v.314" stroke="#fff" stroke-width="3" stroke-miterlimit="10"/><path d="M545.737 126.111c1.53 2.514 2.653 5.237 3.571 8.17M550.941 144.232s0 .104 0 0v1.885c-.103 2.618-.307 5.132-.919 7.541-.714 3.142-1.734 6.075-3.163 8.798 2.143-5.656 3.571-11.835 4.082-18.224ZM550.941 140.88v-.21M550.941 141.299c0-.105 0-.105 0 0" stroke="#fff" stroke-width="3" stroke-miterlimit="10"/><path d="M550.941 140.461c-.102-5.551-2.041-10.579-5.306-14.35-3.877-4.608-9.387-7.541-15.611-7.75-11.836-.315-21.631 9.531-21.937 21.995-.306 12.464 8.979 22.834 20.916 23.043 11.122.314 20.509-8.484 21.734-19.901.102-.314.102-.838.102-1.257" stroke="#fff" stroke-width="3" stroke-miterlimit="10"/><path d="M550.839 143.184c0 .105 0 .105 0 0-1.021 6.913-6.735 12.045-13.367 11.836-7.346-.21-13.162-6.494-12.958-14.245.204-7.751 6.224-13.826 13.57-13.616 4.796.105 8.877 2.933 11.122 7.017v.105M550.022 137.214c-.204-1.047-.408-1.99-.714-2.933 1.02 1.781 1.633 3.876 1.735 6.075v1.048M550.941 141.927v.314c0 .315-.102.629-.102 1.048v-.21" stroke="#fff" stroke-width="3" stroke-miterlimit="10"/><path d="m424.317 28.2835-2.959 5.1323c-.306-.1047-.51-.2095-.816-.2095-.408-.1047-.918-.2095-1.122-.2095-.51 0-.919 1.0474-1.327 2.4091-.408-.2095-1.02-.3142-1.428-.5237-.714-.3142-1.327-.5237-1.837-.7332-.102 0-.102 0-.102-.1048.408-2.5137 2.755-8.484 3.265-8.5887h.102c.306.1047 2.041.8379 3.775 1.5711.817.6285 1.735.9427 2.449 1.2569Z" fill="#FBB97C" stroke="#000" stroke-miterlimit="10"/><path d="M451.254 45.88c-1.224 1.0474-4.591.5237-8.775-.9427-1.632 2.4091-3.571 4.2944-5.816 4.5039-8.162.9427-26.426-7.8556-26.426-7.8556s0-.1047.102-.2094c.102-.1048.102-.2095.102-.3143.102-.2094.204-.3142.306-.6284.306-.6285.612-1.5711.918-2.409.306-1.0475.816-2.1996 1.123-3.0375.204.1047.306.1047.408.2095l.306-1.5712c.204 0 .714.2095 1.224.3143.102 0 .102 0 .102.1047.51.2095 1.123.419 1.837.7332.408.2095.918.3142 1.428.5237.408.2095.919.3142 1.327.5237 3.367 1.3616 7.448 2.9327 10.509 3.3517-5.102-2.5138-9.183-4.9228-9.183-4.9228l.612-1.0474 2.959-5.1323.306-.5237s5.102 3.0375 9.694 5.1323c.102-9.0077-1.531-24.6141 3.469-27.2326 4.591-2.409 8.162-.5237 9.999.8379.102.2095.102.6284.204 1.0474.204.838.612 1.8853 1.02 3.1422.408 1.4664.919 3.1423 1.225 4.6086l.51 3.1422c.204 2.3043-.612 4.7134-1.531 6.5987-.408 1.0474-.51 1.9901-.306 3.1422.204 1.1522.919 2.4091 1.939 3.1423.612.3142 1.224.8379 1.837 1.2568.51 6.075.51 11.8358-1.429 13.5116Z" fill="#5BBA47" stroke="#000" stroke-miterlimit="10"/><path d="M422.073 26.8171s-.102.2095-.205.419c-.204.5237-.612 1.5711-.918 2.828v.1048c-.102.3142-.204.8379-.204 1.2568v.1048c-.102.2095-.102.3142-.102.5237v.1047c0 .2095-.102.419-.102.7332v.3142c0 .3143.102.5237.102.838 0 0-.714.8379-1.224 1.8853-.408-.2095-.919-.3142-1.327-.5237-.408-.2095-1.02-.3142-1.428-.5237-.714-.3142-1.327-.5237-1.837-.7332-.102 0-.102 0-.102-.1047-.612-.2095-1.02-.3143-1.224-.3143.306-1.3616.612-2.6185.918-3.6659.918-2.828 2.245-5.3418 3.367-5.5513.204 0 .408.1048.714.1048 1.429.5237 3.572 2.1995 3.572 2.1995Z" fill="#D37528" stroke="#000" stroke-miterlimit="10"/><path d="M420.95 30.0641c0 .1048 0 .1048 0 0-.204.419-.306.9427-.306 1.3617v.1047c0 .2095-.102.3142-.102.5237v.1048c0 .2094-.102.4189-.102.7331v.3143c0 .3142.102.5237.102.8379 0 0-.714.8379-1.224 1.8853-.408-.2094-.919-.3142-1.327-.5237-.408-.2095-1.02-.3142-1.428-.5237-.102-.3142-.102-.6284 0-1.0474.408-2.409 2.959-3.4564 4.387-3.7707Z" fill="#BC6428" stroke="#000" stroke-miterlimit="10"/><path d="M418.705 24.6176s0 .1048 0 0c-.204.3142-.306.5237-.51 1.0474-.918 1.7806-2.755 5.7608-3.163 8.0651 0 .2094-.102.3142-.102.4189-.102 0-.102 0-.102-.1047-.612-.2095-1.02-.3142-1.224-.3142l-.306 1.5711c-.102-.1048-.306-.1048-.408-.2095-.307.8379-.715 1.8853-1.123 3.0375.102-1.0474.204-2.1996.306-3.3517.306-1.9901.817-3.8754 1.123-5.1323 1.02-3.3517 2.959-6.2845 3.775-6.075.816-.1047 1.734 1.0474 1.734 1.0474Z" fill="#1A1A1A" stroke="#000" stroke-miterlimit="10"/><path d="M412.788 35.0917c-.307.8379-.715 1.8853-1.123 3.0375-.306.9426-.612 1.7805-.918 2.409-.51-.2095-1.123-.3142-1.633-.5237-.408-.1048-.918-.2095-1.122-.2095-.918 0-1.429 2.9327-2.143 4.9228-.306.9427-.714 1.6759-1.122 1.6759-1.123.2095-1.735-1.7806-1.633-3.9802 0-.5237.102-1.0474.204-1.5711.409-2.409 2.755-8.5887 3.265-8.5887h.103c.306.1047 2.04.8379 3.775 1.5711.612.3142 1.122.5237 1.734.8379.102.1047.408.2095.613.419Z" fill="#FBB97C" stroke="#000" stroke-miterlimit="10"/><path d="M406.257 31.321c-1.122.1047-2.448 2.6185-3.367 5.5513-.918 2.828-1.938 7.8555-1.02 9.9503.918 2.1996 7.652 4.1897 7.652 2.4091.102-1.8854-2.142-1.8854-2.244-3.7707-.102-1.9901 1.836-4.3991 1.836-4.3991-.51-3.1422 1.225-7.3319 1.225-7.3319s-2.755-2.5137-4.082-2.409Z" fill="#D37528" stroke="#000" stroke-miterlimit="10"/><path d="M404.115 48.1843c-.204.1047-.306.2095-.408.3142 2.346 1.2569 5.917 1.9901 5.917.6284.103-1.8853-2.142-1.8853-2.244-3.7706-.102-1.9901 1.836-4.3991 1.836-4.3991-.204-1.2569-.102-2.828.306-3.9802-1.53.3142-3.979 1.4664-4.183 3.7707-.408 3.247 2.449 5.4465-1.224 7.4366Z" fill="#BC6428" stroke="#000" stroke-miterlimit="10"/><path d="M407.074 31.321s-.817-1.1522-1.735-1.2569c-.816-.1047-2.755 2.7233-3.775 6.075s-2.755 11.312-.306 12.8831c2.449 1.6758 7.448 2.5138 7.856 2.1995.306-.3142.51-1.8853.306-2.1995-.306-.3142-4.183-.5237-5.713-1.8854-1.531-1.3616-.919-3.6659-.307-6.8081.613-3.0375 3.674-9.0077 3.674-9.0077Z" fill="#1A1A1A" stroke="#000" stroke-miterlimit="10"/><path d="m498.797 20.6368-1.123.0014.011 8.6935 1.122-.0014-.01-8.6935ZM516.96 22.5143l-13.162.017.008 6.3892 13.162-.017-.008-6.3892Z" fill="#1A1A1A"/><path d="m514.817 21.8908-5.612.0074.009 7.6461 5.612-.0075-.009-7.646ZM507.572 21.8924l-3.163.0043.009 7.6461 3.163-.0043-.009-7.6461ZM520.433 21.8943h-4.49v7.6461l4.49.1047v-7.7508Z" fill="#3E3D3D"/><path d="m514.311 22.2056-4.592.006.001.3143 4.591-.0061v-.3142ZM514.311 23.0435l-4.592.0059.001.3143 4.591-.006v-.3142ZM514.311 23.8814l-4.592.006.001.3142 4.591-.006v-.3142ZM514.311 24.7193l-4.592.006.001.3142 4.591-.0059v-.3143ZM514.311 25.5573l-4.592.006.001.3142 4.591-.006v-.3142ZM514.311 26.3953l-4.592.0059.001.3143 4.591-.006v-.3142ZM514.311 27.2332l-4.592.006.001.3143 4.591-.0061v-.3142ZM514.311 28.0712l-4.592.0059.001.3142 4.591-.0059v-.3142Z" fill="#1A1A1A"/><path d="m514.311 28.9091-4.592.0058.001.3142 4.591-.0058v-.3142Z" fill="#1A1A1A" stroke="#fff" stroke-width="3" stroke-miterlimit="10"/><path d="M499.21 32.4732h3.877c.51 0 .918-.419.918-1.0475V19.6948c0-.5237-.408-1.0474-.918-1.0474h-3.877c-.51 0-.919.4189-.919 1.0474v11.7309c.102.5238.511 1.0475.919 1.0475Z" fill="#4E4E4E"/><path d="M499.21 32.4732h1.122V18.6474h-1.122c-.51 0-.919.4189-.919 1.0474v11.7309c.102.5238.511 1.0475.919 1.0475Z" fill="#1A1A1A"/><path d="M514.515 28.912c0 .1047-.102.2094-.102.3142-.102.1047-.102.2095-.204.3142-.511 1.0474-1.633 1.9901-2.755 2.409-1.225.3143-1.225.1048-1.837.7332-.51.7332-5.102 9.9504-7.959 13.1974-2.448 2.7232-4.693 4.6086-6.53 4.5038-.306-.1047-1.122-.5237-1.938-1.3616-1.735-1.5711-4.184-4.0849-6.02-6.075-.408-.4189-.919-.9426-1.123-1.2569.306-.2095.613-.3142.817-.5237.204.5237.408 1.0474.714 1.5711 1.326-1.0474 2.653-2.409 3.469-3.3517.306.419.612.9427.918 1.3617.817 1.1521 1.735 2.1995 2.449 2.409.408.2095 1.225-.2095 2.245-.9427 3.571-2.5137 9.489-9.5314 9.591-9.9503.102-.3143.714-1.6759 1.224-2.5138.102-.2095.204-.3142.306-.3142.103-.1048.205-.2095.307-.2095.306.1047.816.1047 1.326-.1048h.204c.306-.1047.408-.2094.714-.5237.102 0 .102-.1047.102-.1047.102-.1047.102-.2095.204-.2095.102-.2095.204-.3142.307-.5237l.306-.3142.51-.5237c.204-.1048.306-.2095.408-.3142.306-.2095.816-.3143 1.224-.1048.102.1048.204.1048.306.1048.204.1047.307.2094.409.3142.204.1047.306.3142.306.5237.102.1047.102.2095.102.2095.102.3142.102.7332 0 1.2569Z" fill="#EAA775"/><path d="M484.007 30.1688c-.102-.1047-.204-.3142-.306-.3142.102-.1047.102-.1047.204-.1047v.2095c.102 0 .102.1047.102.2094ZM487.476 42.5283c-.102.1047-.306.2095-.306.3142-1.123.8379-2.245 1.3616-3.163 1.2569-.102 0-.306-.3142-.817-.8379.511-.2095 1.123-.5237 1.735-.9427.306-.2095.714-.5237 1.122-.7332.307-.2095.613-.3142.817-.5237.102.3142.306 1.0474.612 1.4664Z" fill="#1A8BAE" stroke="#fff" stroke-width="3" stroke-miterlimit="10"/><path d="M497.373 16.9715c-.204 1.9901-1.224 2.9328-1.122 3.7707 0 .419.306 1.0474.612 1.6759.306.6284.408 1.1521.306 1.4663-.102.2095-.408.3142-.816.3142-.612.1048-1.429.1048-1.429.2095-.102.2095.204.838-.102 1.1522-.306.3142-1.428-.2095-1.53.2095-.102.3142.918.4189.51 1.1521-.306.7332-1.326.2095-1.735 1.0474-.204.3142-.306.8379-.408 1.2569-.102.2095-.204.3142-.306.419l-.102.1047-.102.1048c-.102.1047-.102.1047-.204.1047-.102.1047-.306.1047-.408.1047-1.225.1048-2.449-2.409-3.877-2.0948-.204.1048-.306.1048-.511.2095-.306.2095-.816.3142-1.224.6284-.408-.4189-.918-.8379-1.224-1.1521-.306-1.2569-1.021-2.409-1.531-3.247-.306-.5237-.714-.9426-1.122-1.2569.306-.3142.714-.6284.816-1.2569.102-.3142.102-.7331.102-1.1521v-.419c0-.7331-.102-1.5711-.102-2.409 0-1.5711.204-3.1422.918-4.6086 1.429-3.0375 8.877-7.1224 13.571-.3142l.102.1047c0 .1048.102.1048.102.1048.102.2094.306.3142.408.6284.102.1048.102.2095.102.2095.102.1047.102.2095.204.3142 0 .1048.102.1048.102.1048l.102.1047c.102.1047.102.3142.204.419.102.1047.102.2094.102.2094-.408.7332-.408 1.2569-.408 1.7806Z" fill="#FBB97C"/><path d="M488.19 21.1612c-.714 1.8853-1.836 6.2844 1.837 7.6461.612.2094 1.122.4189 1.734.6284-.102.2095-.204.3142-.306.419l-.102.1047-.102.1047c-.102.1048-.102.1048-.204.1048-.102.1047-.306.1047-.408.1047-1.224.1048-2.449-2.409-3.877-2.0948-.204.1048-.306.1048-.51.2095-.307.2095-.817.3142-1.225.6284-.408-.4189-.918-.8379-1.224-1.1521-.306-1.2569-1.021-2.409-1.531-3.247-.306-.5237-.714-.9426-1.122-1.2569.306-.3142.714-.6284.816-1.2568.102-.3143.102-.7332.102-1.1522v-.419c0-.7331-.102-1.5711-.102-2.409 0-1.5711.204-3.1422.918-4.6086 1.429-3.0375 8.877-7.1224 13.571-.3142l.102.1047c0 .1048.102.1048.102.1048.102.2095.306.3142.408.6284.102.1048.102.2095.102.2095.102.1047.102.2095.204.3142 0 .1048.102.1048.102.1048 0 .1047.102.1047.102.1047.102.1047.102.3142.204.419.102.1047.102.2094.102.2094-1.02.7332-2.449 1.4664-3.673 1.4664-3.265-.1047-5.306 2.3043-6.02 4.2944Z" fill="#EAA775"/><path d="M495.741 19.59c.102-.3142-.307-.7331-.613-.8379-.306-.1047-.714.3142-.714.6285-.102.3142.306.7332.612.8379.511 0 .715-.2095.715-.6285ZM496.047 17.4952c.306-.4189-.613-.9426-1.327-.7332-.816.2095-1.224 1.1522-1.224 1.4664.102.2095.306-.2095.918-.6284.51-.5237 1.633-.1048 1.633-.1048Z" fill="#1A1A1A"/><path d="M479.721 22.3133c.306.1048.919 0 2.653-.5237 1.735-.5237 2.449-.6284 2.449-1.4664 0-.8379-1.735-2.409-.306-3.9801 1.326-1.6759 2.449-.5237 2.755.3142.306.8379-.102 1.6759.306 2.1996.306.5237 1.53-.5237 1.939-1.4664.306-.8379.51.3142 2.04-.3142 1.531-.6285 1.633-2.4091 1.633-2.4091s2.755 1.3617 4.999-1.0474c2.245-2.409 1.939-3.6659 1.429-3.3517-.408.2095-1.633 1.0474-1.531.419.102-.5237.408-2.1996-.204-1.6759-.714.3142-1.53 1.0474-1.734.838-.204-.2095.306-1.7806-.306-1.6759-.613.1048-.511.9427-2.755.838-2.245-.1048-4.388-1.4664-6.02-1.5712-1.735-.1047-3.265 1.8854-3.265 1.8854s-1.225-.3143-2.143.3142c-.918.7332-1.837 3.7706-1.735 6.0749.204 2.1996 1.123 4.7134.511 5.7608-.715.8379-1.021.8379-.715.8379Z" fill="#603A18"/><path d="M450.234 15.1909c-.306-1.5711-.919-3.1422-1.225-4.6086-.306-1.1521-.714-2.3042-1.02-3.1422.612.1048 1.02.1048 1.02.1048l.408 2.828.817 4.818ZM452.785 32.4732c-.715-.419-1.327-.9427-1.837-1.2569-1.02-.7332-1.735-1.8854-1.939-3.1422-.204-1.0475-.102-2.0949.306-3.1423.919-1.8853 1.633-4.2943 1.531-6.5986 0 0 0 .1047.102.3142.102 1.4664 1.326 7.6461 1.837 13.8258Z" fill="#177B94"/><path d="m413.502 33.73-.306 1.5712c-.102-.1048-.306-.1048-.408-.2095.306-.6285.408-1.0474.408-1.2569.204-.1048.204-.1048.306-.1048Z" fill="#2193C2" stroke="#000" stroke-width="3" stroke-miterlimit="10"/><path d="M450.846 18.6474c0 1.2569-.204 2.409-.408 3.5612-.306 1.2568-.816 3.3517-1.429 5.8654-.204-1.0474-.102-2.0948.306-3.1422.919-1.8853 1.633-4.2944 1.531-6.5987l-.51-3.1422c-.306-1.5711-.919-3.1422-1.225-4.6086-.306-1.1521-.714-2.3043-1.02-3.1422-.102-.3142-.204-.7332-.204-1.0474.816.6284 1.224 1.0474 1.224 1.0474s.306 1.0474.715 2.7233c.408 1.6758.918 4.1896 1.02 6.7034v1.7806Z" fill="#2193C2"/><path d="M450.846 18.6474c0 1.2569-.204 2.409-.408 3.5611-.306 1.2569-.816 3.3518-1.429 5.8655-.204-1.0474-.102-2.0948.306-3.1422.919-1.8853 1.633-4.2944 1.531-6.5987l-.51-3.1422c-.306-1.5711-.919-3.1422-1.225-4.6086.204-.1047.306-.2095.511-.2095.102-.1047.204-.1047.306-.1047.408 1.6758.918 4.1896 1.02 6.7034v.3142c-.102.5237-.102.9427-.102 1.3617Z" fill="#1A8BAE"/><path d="M479.823 23.8844c-.408.2095-.918.3142-.918.3142 0 .1048.306.838.714 1.6759-.204-.1048-.408-.1048-.714-.1048h-.102c-.102 0-.306 0-.306.1048h-.102c-.102 0-.204.1047-.306.1047-.306.1048-.51.2095-.816.3143-1.735.7331-2.653 2.409-2.857 4.1896-.102.9427.102 1.8853.408 2.828.408.9427.918 1.9901 1.428 3.1422.306.8379.714 1.5711 1.021 2.409-1.021.3143-1.939.419-3.061.5238-3.061.3142-6.327-.1048-9.388-.7332-3.979-.9427-8.672-3.666-12.243-5.9703-.715-.4189-1.327-.9426-1.837-1.2568-1.02-.7332-1.735-1.8854-1.939-3.1423-.204-1.0474-.102-2.0948.306-3.1422.919-1.8853 1.633-4.2944 1.531-6.5987-.102-1.0474-.306-1.99-.51-3.1422-.306-1.5711-.919-3.1422-1.225-4.6086-.306-1.1521-.714-2.3043-1.02-3.1422-.102-.3142-.204-.7332-.204-1.0474-.102-.3142 0-.5237.102-.419.102 0 .306.1048.51.2095.102 0 .102.1047.204.1047.204.1048.306.2095.51.3143.102.1047.204.1047.306.2094.715.3143 1.633 1.0475 2.551 1.5712.204.2094.408.3142.715.419.204.1047.408.3141.714.3141.306.2095.714.419 1.02.6285.204.1047.408.3142.612.419.306.2094.408.3142.715.5237 2.448 1.5711 5.101 3.3517 7.448 5.1323 1.428 1.0474 2.755 1.8853 3.877 2.828 4.081 3.1422 8.367 3.6659 10.918 3.7706.306 0 .714.1048 1.02.1048.102 0 .102.1047.204.1047h.102l.612.3142c.204.1048.409.3143.715.419 0 0-.409.2095-.715.3142Z" fill="#F15B28"/><path d="M484.007 30.1688c-.102-.1047-.204-.3142-.306-.3142.102-.1047.102-.1047.204-.1047v.2095c.102 0 .102.1047.102.2094Z" fill="#F15B28" stroke="#fff" stroke-width="3" stroke-miterlimit="10"/><path d="M477.375 38.6528c-1.021.3143-1.939.419-3.061.5237-3.061.3143-6.326-.1047-9.387-.7331-3.98-.9427-8.673-3.666-12.244-5.9703-.715-.4189-1.327-.9426-1.837-1.2569-1.02-.7331-1.735-1.8853-1.939-3.1422-.204-1.0474-.102-2.0948.306-3.1422.919-1.8853 1.633-4.2944 1.531-6.5987-.102-1.0474-.306-1.99-.51-3.1422-.306-1.5711-.919-3.1422-1.225-4.6086-.306-1.1521-.714-2.3043-1.02-3.1422-.102-.3142-.204-.7332-.204-1.0474-.102-.3142 0-.5237.102-.419.102 0 .306.1048.51.2095.102 0 .102.1047.204.1047.204.1048.306.2095.51.3143.102.1047.204.1047.307.2094.714.3143 1.632 1.0474 2.55 1.5712.204.2094.408.3142.715.419.204.1047.408.3141.714.3141.306.2095.714.419 1.02.6285.204.1047.408.3142.612.4189.306.2095.408.3143.715.5238-.102.5237-.102 1.0474-.204 1.7805 0 .2095-.103.419-.103.6285v.2095c-.306 3.1422-.306 7.2271.307 9.6361.51 1.6759 2.346 3.4565 4.591 4.8181 1.122.7332 2.449 1.3616 3.877 1.8853 2.143.838 4.286 1.2569 6.122 1.1522 1.225-.1048 2.551-.3142 3.878-.5237-.102.9426.102 1.8853.408 2.828.408.9426.918 1.9901 1.428 3.1422.612.9427 1.021 1.6759 1.327 2.409Z" fill="#E04E26"/><path d="M484.007 30.1688c-.102-.1047-.204-.3142-.306-.3142.102-.1047.102-.1047.204-.1047v.2095c.102 0 .102.1047.102.2094Z" fill="#E04E26" stroke="#fff" stroke-width="3" stroke-miterlimit="10"/><path d="M504.822 30.902c-.103.2095-.409.3143-.715.6285-.816.3142-1.938.6284-2.959 1.0474-.612.2095-1.122.3142-1.326.5237-.612.5237-1.122 2.409-2.041 5.5513-.204.7331-.612 2.0948-1.122 3.6659-.816 2.3043-1.939 4.9228-3.469 6.9129-1.429 1.8853-3.061 3.1422-4.898 2.409-3.265-1.2569-5.612-5.1323-6.836-7.6461.102 0 .204 0 .204-.1047.408-.1047 1.02-.3142 1.428-.5237.511-.2095 1.123-.5237 1.735-.9427.306-.2095.714-.5237 1.122-.7332.306-.2094.613-.3142.817-.5237.204.5237.408 1.0474.714 1.5712.51 1.0474 1.122 1.8853 1.734 1.7805.613-.1047 1.633-1.6758 2.653-3.7706 1.429-2.9328 2.959-6.5987 3.367-7.9603.817-2.4091.409-3.1422.919-4.5039.306-1.0474.204-2.6185.204-3.5612 0-.3142 0-.5237.102-.6284.102-.2095.204-.6285.306-1.2569.306-1.1521.816-2.828 1.224-2.828.102 0 .204 0 .306.1047.613.3143 1.225 1.3617.715 2.3043-.102.1048-.102.2095-.204.3143v.1047c-.409 1.0474-.613 2.3043-.102 2.409h.102c.306.1048.918-.1047 1.632-.2094 1.02-.2095 2.143-.5237 2.449-.5237.306 0 .612.1047.918.2094l.306.3143.102.1047c.204.2095.102.419-.102.6284-.102.2095-.204.3143-.306.5237-.102.1048-.102.2095 0 .3143v.1047c.102.1048.204.1048.306.2095.102.1047.204.1047.306.3142l.102.1048c.102.3142.102.5237-.102.8379-.102.2095-.204.4189-.306.7332v.1047c0 .1047-.102.1048-.102.1048-.102.1047-.102.2094 0 .3142 0 .1047.102.1047.102.1047v-.1047c.102.2095.204.3142.306.4189l.102.1048c.307 0 .613.3142.307.9426Z" fill="#FBB97C"/><path d="M477.579 39.0718c-.817.2095-1.939.3142-3.163.2095-2.755-.1047-6.224-1.0474-9.387-4.5038-2.143-2.1996-3.47-4.6086-4.286-6.7035-.918-2.1995-1.224-4.1896-1.428-5.656-.204-1.4663-.102-2.409-.102-2.409l2.652 1.6759s.103.5237.205 1.5711c.306 1.6758 1.02 4.2943 2.448 6.7034 1.123 1.9901 2.959 3.7706 5.306 4.9228 3.163 1.3616 5.306 1.6758 6.632 1.6758.306.838.715 1.5712 1.021 2.4091l.102.1047Z" fill="#1A1A1A"/><path d="M484.007 30.1688c-.102-.1047-.204-.3142-.306-.3142.102-.1047.102-.1047.204-.1047v.2095c.102 0 .102.1047.102.2094Z" fill="#1A1A1A" stroke="#fff" stroke-width="3" stroke-miterlimit="10"/><path d="M486.149 30.4831c-.408-.5237-.918-1.0474-1.326-1.4664-.408-.419-.918-.8379-1.224-1.1521-.306-1.2569-1.021-2.4091-1.531-3.247-.306-.5237-.714-.9427-1.122-1.2569-.306.2095-.714.419-1.021.5237l-.612-.6284c.102-.1048.102-.3143.306-.5237.102-.2095.204-.3143.306-.5237v-.1048c.205-.3142.409-.5237.715-.8379.306-.2095.612-.3142 1.02-.3142h.204c.306.1047.714.3142 1.122.8379 1.225 1.4664 2.755 4.2944 3.163 6.4939.103.3142.103.6285.103 1.0474 0 .419 0 .8379-.103 1.1522Z" fill="#1A1A1A"/><path d="M486.149 30.4831c-.408-.5237-.918-1.0474-1.326-1.4664-.408-.419-.918-.8379-1.224-1.1522-.306-1.2568-1.021-2.409-1.531-3.2469-.306-.5237-.714-.9427-1.122-1.2569-.306.2095-.714.419-1.021.5237-.408.2095-.918.3142-.918.3142 0 .1048.306.8379.714 1.6759-.204-.1048-.408-.1048-.714-.1048h-.102c-.102 0-.306 0-.306.1048h-.102c-.102 0-.204.1047-.306.1047-.306.1047-.51.2095-.816.3142-1.735.7332-2.653 2.4091-2.857 4.1897-.102.9426.102 1.8853.408 2.828.408.9426.918 1.99 1.428 3.1422.306.8379.714 1.5711 1.021 2.409.102.1048.102.2095.204.3142 1.122 2.4091 2.142 4.5039 2.448 4.6086.102.1048.205.1048.307.1048.204.1047.408.1047.714 0 .102 0 .204 0 .306-.1048h.102c.102 0 .204 0 .204-.1047.408-.1047 1.02-.3142 1.428-.5237.511-.2095 1.123-.5237 1.735-.9427.306-.2095.714-.5237 1.122-.7332.306-.2094.613-.3142.817-.5237.204.5237.408 1.0474.714 1.5712 1.326-1.0475 2.653-2.4091 3.469-3.3518.51-.6284.918-1.0474.918-1.0474s-2.857-4.2943-5.714-7.646Zm-2.346-.7332c.102-.1048.102-.1048.204-.1048v.2095c0 .1048.102.2095.102.3142-.204-.1047-.306-.3142-.306-.4189Z" fill="#5BBA47" stroke="#000" stroke-miterlimit="10"/><path d="M469.11 21.5801c5.102 2.3043 10.101 1.5711 10.101 1.5711 1.531-2.1995.714-4.5038.306-5.8655-.408-1.4663-1.938-.6284-4.897-2.409-2.959-1.7806-4.592-6.494-7.449-9.322-2.857-2.7232-7.856-6.4939-11.121-5.3417-3.265 1.1522-4.592 8.2745-3.367 10.3693 1.122 2.3043 11.325 8.7983 16.427 10.9978Z" fill="#1A1A1A"/><path d="m464.008 18.2284-8.673-5.7607 3.47 9.8456 4.183 1.1521 1.02-5.237ZM481.66 19.0663c-.306-3.9801.102-4.5038-3.265-6.0749-3.469-1.6759-5.306-2.6185-6.02-4.6086-.714-2.0948-3.367-2.9327-3.775-.6284-.306 2.409 1.53 6.4939 4.999 7.9602 3.469 1.4664 5.306 1.0475 5.816 2.6186.408 1.5711-.204 5.0275-.204 5.0275s2.857-.3142 2.449-4.2944ZM464.008 15.9241c1.531-.2095 2.857-5.3418 2.245-7.4366-.612-2.0948-6.836-5.5512-8.979-3.9801 0 0-2.449 3.7707-1.122 6.4939 1.122 2.828 6.326 5.1323 7.856 4.9228Z" fill="#3E3D3D"/><path d="M192.722 155.106c-.408 18.539-6.02 35.717-15.101 50.171-10.305-16.13-16.223-35.612-15.713-56.56.408-16.235 4.592-31.318 11.734-44.41 1.224-1.571 2.653-3.143 3.979-4.7137 9.999 15.8157 15.713 34.9837 15.101 55.5127Z" fill="#000" stroke="#fff" stroke-width="5" stroke-miterlimit="10"/><path d="M178.723 99.8215c10 15.8155 15.611 34.9835 15.101 55.5125-.408 18.539-6.02 35.717-15.101 50.171-10.305-16.13-16.223-35.612-15.713-56.56.408-16.235 4.592-31.318 11.734-44.41 1.122-1.781 2.551-3.247 3.979-4.7135ZM108.38 112.596l12.04-8.169 13.774 8.484" stroke="#fff" stroke-width="3" stroke-miterlimit="10"/><path d="M146.54 120.347v.629c0 1.466-.204 2.932-.306 4.399-1.02 6.494-4.285 12.359-8.979 16.444-1.02.838-1.938 1.571-3.061 2.2V113.015l-13.774-8.484 26.12 15.816Z" fill="#F4F0EB" stroke="#000" stroke-miterlimit="10"/><path d="M134.194 129.041v14.978c-1.734 1.047-3.775 1.99-5.815 2.618-2.347.733-4.694 1.048-7.245 1.048-3.163 0-6.02-.629-8.877-1.676-1.122-.419-2.244-1.048-3.265-1.571l25.202-15.397Z" fill="#F4F0EB" stroke="#000" stroke-miterlimit="10"/><path d="M134.194 120.976v7.96l-13.774 8.484-12.04-7.96v-8.484h.612c0 7.017 5.408 12.778 12.142 12.778 6.734 0 12.142-5.761 12.142-12.778h.918ZM134.194 112.911v7.96h-1.02c0-7.018-5.408-12.778-12.142-12.778-6.734 0-12.142 5.76-12.142 12.778h-.612v-8.484l12.04-7.96 13.876 8.484Z" fill="#4C5051" stroke="#000" stroke-miterlimit="10"/><path d="m134.194 129.041-25.202 15.501c-1.224-.733-2.449-1.571-3.673-2.513-4.898-4.085-8.3667-10.056-9.387-16.864-.2041-1.361-.3061-2.828-.3061-4.189l12.6521 8.484 12.04 7.96 13.876-8.379Z" fill="#F4F0EB" stroke="#000" stroke-miterlimit="10"/><path d="M121.134 108.197c6.734 0 12.142 5.761 12.142 12.779 0 7.017-5.408 12.778-12.142 12.778-6.734 0-12.142-5.761-12.142-12.778 0-7.018 5.306-12.779 12.142-12.779Zm10.204 12.779c0-5.866-4.592-10.684-10.204-10.684-5.612 0-10.203 4.818-10.203 10.684 0 5.865 4.591 10.683 10.203 10.683 5.612 0 10.204-4.713 10.204-10.683Z" fill="#F4F0EB" stroke="#000" stroke-miterlimit="10"/><path d="M121.134 110.187c5.612 0 10.204 4.818 10.204 10.684 0 5.865-4.592 10.683-10.204 10.683-5.612 0-10.203-4.818-10.203-10.683 0-5.866 4.489-10.684 10.203-10.684Z" fill="#3D9946" stroke="#000" stroke-miterlimit="10"/><path d="m134.194 129.041-13.774 8.379M133.174 120.976c0-7.018-5.408-12.779-12.142-12.779-6.734 0-12.142 5.761-12.142 12.779 0 7.017 5.408 12.778 12.142 12.778 6.734 0 12.142-5.761 12.142-12.778Z" stroke="#fff" stroke-width="3" stroke-miterlimit="10"/><path d="M131.338 120.976c0-5.866-4.592-10.684-10.204-10.684-5.612 0-10.203 4.818-10.203 10.684 0 5.865 4.591 10.683 10.203 10.683 5.612 0 10.204-4.713 10.204-10.683Z" stroke="#000" stroke-width="2" stroke-miterlimit="10"/><path d="m120.42 137.42-12.04-8.065-12.7541-8.379M134.194 129.041l-25.202 15.501M134.194 112.911V144.019M120.42 104.427l26.12 15.92" stroke="#000" stroke-miterlimit="10"/><path d="m222.657 112.596 12.04-8.065 13.775 8.484" stroke="#fff" stroke-width="3" stroke-miterlimit="10"/><path d="M260.818 120.347v.629c0 1.466-.204 2.932-.306 4.399-1.021 6.494-4.286 12.359-8.979 16.444-1.021.838-1.939 1.571-3.061 2.2V113.015l-13.775-8.484 26.121 15.816Z" fill="#F4F0EB" stroke="#000" stroke-miterlimit="10"/><path d="M248.472 129.041v14.978c-1.735 1.047-3.776 1.99-5.816 2.618-2.347.733-4.694 1.047-7.245 1.047-3.163 0-6.02-.628-8.876-1.675-1.123-.419-2.245-1.048-3.266-1.572l25.203-15.396Z" fill="#F4F0EB" stroke="#000" stroke-miterlimit="10"/><path d="M248.472 120.976v7.96l-13.775 8.484-12.04-7.96v-8.484h.612c0 7.017 5.408 12.778 12.142 12.778 6.735 0 12.142-5.761 12.142-12.778h.919ZM248.472 113.015v7.961h-1.021c0-7.018-5.407-12.779-12.142-12.779-6.734 0-12.142 5.761-12.142 12.779h-.612v-8.484l12.04-7.961 13.877 8.484Z" fill="#4C5051" stroke="#000" stroke-miterlimit="10"/><path d="m248.472 129.041-25.203 15.501c-1.224-.733-2.448-1.571-3.673-2.514-4.897-4.084-8.366-10.055-9.387-16.863-.204-1.361-.306-2.828-.306-4.189l12.652 8.484 12.04 7.96 13.877-8.379Z" fill="#F4F0EB" stroke="#000" stroke-miterlimit="10"/><path d="M235.411 108.302c6.735 0 12.142 5.761 12.142 12.778 0 7.018-5.407 12.779-12.142 12.779-6.734 0-12.142-5.761-12.142-12.779 0-7.122 5.408-12.778 12.142-12.778Zm10.204 12.674c0-5.866-4.592-10.684-10.204-10.684-5.611 0-10.203 4.818-10.203 10.684 0 5.865 4.592 10.683 10.203 10.683 5.612.105 10.204-4.608 10.204-10.683Z" fill="#F4F0EB" stroke="#000" stroke-miterlimit="10"/><path d="M235.411 110.292c5.612 0 10.204 4.818 10.204 10.684 0 5.865-4.592 10.683-10.204 10.683-5.611 0-10.203-4.818-10.203-10.683.102-5.866 4.49-10.684 10.203-10.684Z" fill="#3D9946" stroke="#000" stroke-miterlimit="10"/><path d="m248.472 129.041-13.775 8.379M247.451 120.976c0-7.018-5.407-12.779-12.142-12.779-6.734 0-12.142 5.761-12.142 12.779 0 7.017 5.408 12.778 12.142 12.778 6.735.105 12.142-5.656 12.142-12.778Z" stroke="#fff" stroke-width="3" stroke-miterlimit="10"/><path d="M245.615 120.976c0-5.866-4.592-10.684-10.204-10.684-5.611 0-10.203 4.818-10.203 10.684 0 5.865 4.592 10.683 10.203 10.683 5.612.105 10.204-4.608 10.204-10.683Z" stroke="#000" stroke-width="2" stroke-miterlimit="10"/><path d="m234.697 137.42-12.04-7.96-12.754-8.484M248.472 129.041l-25.203 15.606M248.472 113.015v31.108M234.697 104.531l26.121 15.816" stroke="#000" stroke-miterlimit="10"/><path d="M347.813 161.6c-.612 25.871-8.877 49.228-22.141 67.662 7.244-15.082 11.631-32.364 12.039-50.904 1.429-60.54-39.384-110.9201-91.115-112.5959-27.141-.9427-52.037 11.8357-69.587 32.8886-.306-.419-.51-.7332-.918-1.1522 17.345-30.0606 47.037-49.4376 80.402-48.3902 52.037 1.5711 92.748 51.9517 91.32 112.4917Z" fill="#000" stroke="#fff" stroke-width="5" stroke-miterlimit="10"/><path d="M178.315 98.2504c.306.3142.612.6284.918 1.0474-.204.2095-.306.3142-.408.5237-.204-.3142-.408-.6285-.714-1.0474 0-.2095.102-.3143.204-.5237ZM178.009 98.6693c.204.3143.408.6285.714 1.0474-1.428 1.5713-2.755 3.1423-3.979 4.7133 1.02-1.885 2.041-3.875 3.265-5.7607Z" fill="#fff" stroke="#fff" stroke-width="3" stroke-miterlimit="10"/><path d="M178.315 98.2504c-.102.2094-.204.3142-.306.4189-.714-1.0474-1.53-2.3043-2.347-3.3517.919.9427 1.735 1.8854 2.653 2.9328Z" fill="#fff" stroke="#fff" stroke-width="3" stroke-miterlimit="10"/><path d="M178.009 98.6693c.204.3143.408.6285.714 1.0474" stroke="#fff" stroke-width="3" stroke-miterlimit="10"/><path d="M174.642 104.535c1.02-1.99 2.143-3.771 3.265-5.7609-.714-1.0474-1.531-2.3043-2.347-3.3517.919 1.0474 1.735 1.8853 2.551 2.9327.306.3142.612.6285.918 1.0474" stroke="#fff" stroke-width="3" stroke-miterlimit="10"/><path d="m146.54 120.347-26.12-15.816-12.04 7.961 23.672-15.8162c1.836.9426 3.571 2.0948 5.203 3.4562 4.592 3.98 7.959 9.846 8.979 16.444l.306 3.771Z" fill="#F4F0EB" stroke="#000" stroke-miterlimit="10"/><path d="M146.54 120.347c-.102-1.257-.204-2.409-.306-3.771-1.02-6.493-4.285-12.359-8.979-16.444-1.53-1.3614-3.265-2.4088-5.203-3.4563-1.123-.5237-2.449-1.0474-3.673-1.4663-2.347-.7332-4.694-1.0474-7.245-1.0474-3.163 0-6.02.6284-8.877 1.6758-1.326.5237-2.653 1.1522-3.877 1.9901-1.02.6284-2.041 1.3616-3.061 2.1991-4.898 4.085-8.3667 10.056-9.387 16.864-.2041 1.361-.3061 2.828-.3061 4.189 0 1.362.204 2.828.3061 4.19 1.0203 6.808 4.489 12.778 9.387 16.863 1.122 1.048 2.449 1.781 3.673 2.514 1.021.524 2.143 1.047 3.265 1.571 2.755 1.048 5.714 1.676 8.877 1.676 2.449 0 5-.314 7.245-1.047 2.04-.629 3.979-1.572 5.815-2.619 1.021-.628 2.143-1.466 3.061-2.199 4.592-3.981 7.959-9.951 8.979-16.445.204-1.466.306-2.933.306-4.399v-.838Zm-25.406-29.9557c16.019 0 28.978 13.7207 28.978 30.6887s-12.959 30.689-28.978 30.689c-16.019 0-28.9772-13.721-28.9772-30.689-.1021-16.968 12.9582-30.6887 28.9772-30.6887Z" fill="#4C5051" stroke="#000" stroke-miterlimit="10"/><path d="M132.052 96.6757 108.38 112.492V97.7232l-.102-.1048c1.224-.7332 2.551-1.4664 3.877-1.9901 2.755-1.0474 5.714-1.6758 8.877-1.6758 2.449 0 5 .3142 7.245 1.0474 1.428.6284 2.55 1.1521 3.775 1.6758Z" fill="#F4F0EB" stroke="#000" stroke-miterlimit="10"/><path d="M108.38 120.976v8.484l-12.6521-8.484c0-1.467.2041-2.828.3061-4.19 1.0203-6.808 4.489-12.778 9.387-16.8632 1.02-.838 1.939-1.4664 3.061-2.1996l.102.1047v14.7681l-.204 8.38Z" fill="#F4F0EB" stroke="#000" stroke-miterlimit="10"/><path d="M150.01 120.976c0-16.864-12.959-30.6894-28.978-30.6894-16.019 0-28.9773 13.7214-28.9773 30.6894s12.9583 30.689 28.9773 30.689 28.978-13.826 28.978-30.689Z" stroke="#fff" stroke-width="3" stroke-miterlimit="10"/><path d="M152.356 120.976c0-18.225-13.978-32.9938-31.324-32.9938-17.346 0-31.3241 14.7688-31.3241 32.9938 0 18.224 13.9781 32.993 31.3241 32.993 17.346.105 31.324-14.769 31.324-32.993Z" stroke="#000" stroke-width="3" stroke-miterlimit="10"/><path d="M146.54 120.347c-.102-1.257-.204-2.409-.306-3.77-1.02-6.494-4.285-12.36-8.979-16.445-1.53-1.3614-3.265-2.4088-5.203-3.4562-1.123-.5237-2.449-1.0474-3.673-1.4664-2.347-.7332-4.694-1.0474-7.245-1.0474-3.163 0-6.02.6284-8.877 1.6758-1.326.5237-2.653 1.1522-3.877 1.9901-1.02.6285-2.041 1.3616-3.061 2.1991-4.898 4.085-8.3667 10.056-9.387 16.864-.2041 1.361-.3061 2.828-.3061 4.189 0 1.362.204 2.828.3061 4.19 1.0203 6.808 4.489 12.778 9.387 16.863 1.122 1.048 2.449 1.781 3.673 2.514 1.021.524 2.143 1.047 3.265 1.571 2.755 1.048 5.714 1.676 8.877 1.676 2.449 0 5-.314 7.245-1.047 2.04-.629 3.979-1.572 5.815-2.619 1.021-.628 2.143-1.466 3.061-2.199 4.592-3.981 7.959-9.951 8.979-16.445.204-1.466.306-2.933.306-4.399v-.838ZM108.38 129.355V97.7232M108.38 112.596l23.672-15.9202" stroke="#000" stroke-miterlimit="10"/><path d="m260.818 120.347-26.121-15.816-12.04 7.961 23.672-15.8163c1.837.9427 3.571 2.0948 5.204 3.4563 4.591 3.98 7.958 9.846 8.979 16.444.204 1.362.204 2.619.306 3.771Z" fill="#F4F0EB" stroke="#000" stroke-miterlimit="10"/><path d="M260.818 120.347c-.102-1.257-.204-2.409-.306-3.771-1.021-6.494-4.286-12.359-8.979-16.444-1.531-1.3615-3.265-2.4089-5.204-3.4563-1.122-.5237-2.449-1.0474-3.673-1.4664-2.347-.7332-4.694-1.0474-7.245-1.0474-3.163 0-6.019.6284-8.876 1.6759-1.327.5237-2.653 1.1521-3.878 1.99-1.02.6285-2.04 1.3617-3.061 2.1992-4.897 4.085-8.366 10.056-9.387 16.864-.204 1.361-.306 2.828-.306 4.189 0 1.362.204 2.828.306 4.19 1.021 6.808 4.49 12.778 9.387 16.863 1.123 1.048 2.449 1.781 3.673 2.514 1.021.524 2.143 1.047 3.266 1.571 2.754 1.047 5.713 1.676 8.876 1.676 2.449 0 5-.314 7.245-1.047 2.04-.629 3.979-1.572 5.816-2.619 1.02-.628 2.142-1.466 3.061-2.2 4.591-3.98 7.958-9.95 8.979-16.444.204-1.466.306-2.933.306-4.399v-.838Zm-25.407-29.851c16.02 0 28.978 13.721 28.978 30.689s-12.958 30.689-28.978 30.689c-16.019 0-28.977-13.721-28.977-30.689-.102-16.968 12.958-30.689 28.977-30.689Z" fill="#4C5051" stroke="#000" stroke-miterlimit="10"/><path d="m246.329 96.6757-23.672 15.8163V97.8278l-.102-.1047c1.225-.7332 2.551-1.4664 3.878-1.9901 2.754-1.0474 5.713-1.6758 8.876-1.6758 2.449 0 5 .3142 7.245 1.0474 1.428.6284 2.551 1.0474 3.775 1.5711Z" fill="#F4F0EB" stroke="#000" stroke-miterlimit="10"/><path d="M222.657 120.976v8.484l-12.652-8.484c0-1.467.204-2.828.306-4.19 1.021-6.808 4.49-12.779 9.387-16.8634 1.021-.8379 1.939-1.4664 3.061-2.1995l.102.1047v14.7682l-.204 8.38Z" fill="#F4F0EB" stroke="#000" stroke-miterlimit="10"/><path d="M264.287 120.976c0-16.864-12.958-30.6895-28.978-30.6895-16.019 0-28.977 13.7215-28.977 30.6895 0 16.968 12.958 30.689 28.977 30.689 16.02 0 28.978-13.721 28.978-30.689Z" stroke="#fff" stroke-width="3" stroke-miterlimit="10"/><path d="M265.634 120.747c0-18.224-13.979-32.9929-31.325-32.9929-17.345 0-31.324 14.7689-31.324 32.9929 0 18.225 13.979 32.994 31.324 32.994 17.346.105 31.325-14.664 31.325-32.994Z" stroke="#000" stroke-width="3" stroke-miterlimit="10"/><path d="M260.818 120.347c-.102-1.257-.204-2.409-.306-3.771-1.021-6.493-4.286-12.359-8.979-16.444-1.531-1.3615-3.265-2.4089-5.204-3.4563-1.122-.5237-2.449-1.0474-3.673-1.4664-2.347-.7332-4.694-1.0474-7.245-1.0474-3.163 0-6.02.6285-8.876 1.6759-1.327.5237-2.653 1.1521-3.878 1.9901-1.02.6284-2.04 1.3616-3.061 2.1991-4.897 4.085-8.366 10.056-9.387 16.864-.204 1.361-.306 2.828-.306 4.189 0 1.362.204 2.828.306 4.19 1.021 6.808 4.49 12.778 9.387 16.863 1.123 1.048 2.449 1.781 3.673 2.514 1.021.524 2.143 1.047 3.266 1.571 2.754 1.047 5.713 1.676 8.876 1.676 2.449 0 5-.314 7.245-1.047 2.04-.629 3.979-1.572 5.816-2.619 1.02-.628 2.142-1.466 3.061-2.2 4.591-3.98 7.958-9.95 8.979-16.444.204-1.466.306-2.933.306-4.399v-.838ZM222.657 129.46V97.8279M222.657 112.596l23.672-15.9203" stroke="#000" stroke-miterlimit="10"/><path d="M3.0364 161.507c.611 25.865 8.8592 49.217 22.0971 67.647-7.2299-15.079-11.6086-32.357-12.0159-50.892-1.4257-60.527 39.3063-110.896 90.9344-112.5715 27.086-.9425 51.933 11.833 69.447 32.8812.306-.4189.51-.733.917-1.1519-17.311-30.0538-46.944-49.4265-80.2419-48.3794C42.2409 50.6112 1.6108 100.98 3.0364 161.507Z" fill="#000" stroke="#fff" stroke-width="5" stroke-miterlimit="10"/></svg>